<?xml version="1.0" encoding="utf-8" standalone="no"?>
<!DOCTYPE svg PUBLIC "-//W3C//DTD SVG 1.1//EN"
  "http://www.w3.org/Graphics/SVG/1.1/DTD/svg11.dtd">
<!-- Created with matplotlib (https://matplotlib.org/) -->
<svg height="504pt" version="1.1" viewBox="0 0 720 504" width="720pt" xmlns="http://www.w3.org/2000/svg" xmlns:xlink="http://www.w3.org/1999/xlink">
 <metadata>
  <rdf:RDF xmlns:cc="http://creativecommons.org/ns#" xmlns:dc="http://purl.org/dc/elements/1.1/" xmlns:rdf="http://www.w3.org/1999/02/22-rdf-syntax-ns#">
   <cc:Work>
    <dc:type rdf:resource="http://purl.org/dc/dcmitype/StillImage"/>
    <dc:date>2021-06-08T18:17:41.067607</dc:date>
    <dc:format>image/svg+xml</dc:format>
    <dc:creator>
     <cc:Agent>
      <dc:title>Matplotlib v3.3.4, https://matplotlib.org/</dc:title>
     </cc:Agent>
    </dc:creator>
   </cc:Work>
  </rdf:RDF>
 </metadata>
 <defs>
  <style type="text/css">*{stroke-linecap:butt;stroke-linejoin:round;}</style>
 </defs>
 <g id="figure_1">
  <g id="patch_1">
   <path d="M 0 504 
L 720 504 
L 720 0 
L 0 0 
z
" style="fill:none;"/>
  </g>
  <g id="axes_1">
   <g id="patch_2">
    <path d="M 39.425 439.2 
L 686.95 439.2 
L 686.95 10.8 
L 39.425 10.8 
z
" style="fill:#ffffff;"/>
   </g>
   <g id="PolyCollection_1">
    <path clip-path="url(#p73ffdce5ca)" d="M -269184.334838 439.2 
L -269184.334838 439.2 
L 107.422759 256.770376 
L 188.711052 279.576249 
L 236.261654 298.552182 
L 269.999344 214.286835 
L 296.168329 331.217117 
L 317.549946 324.838038 
L 335.627846 324.982489 
L 351.287636 96.524936 
L 365.100549 327.061972 
L 377.456621 343.341139 
L 388.634047 342.776963 
L 398.838238 350.146036 
L 408.225184 350.662871 
L 416.916139 362.479486 
L 425.007223 373.827888 
L 432.575928 284.135528 
L 439.685633 366.984318 
L 446.388841 354.208451 
L 452.729532 369.266121 
L 458.744913 366.535228 
L 464.466741 377.959431 
L 469.92234 382.751035 
L 475.135385 385.246221 
L 480.126531 362.206631 
L 484.913898 380.556342 
L 489.513476 386.063329 
L 493.939444 386.225601 
L 498.204431 379.624588 
L 502.319738 378.083461 
L 506.295516 390.409444 
L 510.140916 389.294109 
L 513.86422 372.235468 
L 517.472942 391.799943 
L 520.973925 395.121813 
L 524.373416 391.797963 
L 527.677133 383.683972 
L 530.890326 386.664459 
L 534.017824 385.371787 
L 537.064079 389.465487 
L 540.033205 381.672094 
L 542.929012 392.393652 
L 545.755033 395.727011 
L 548.514554 398.491327 
L 551.210632 398.539556 
L 553.846118 391.373634 
L 556.423677 393.973939 
L 558.945801 398.611173 
L 561.414823 372.575215 
L 563.832933 399.007191 
L 566.20219 392.711708 
L 568.524528 397.555115 
L 570.801769 400.042585 
L 573.035631 399.781786 
L 575.227736 397.029466 
L 577.379617 400.748723 
L 579.492723 384.108667 
L 581.568427 404.6918 
L 583.60803 398.792413 
L 585.612766 403.011853 
L 587.583808 401.737913 
L 589.522269 401.358467 
L 591.429209 402.832071 
L 593.305636 405.738497 
L 595.152512 388.995857 
L 596.970754 399.329787 
L 598.761234 397.629287 
L 600.52479 407.652499 
L 602.262217 396.026569 
L 603.97428 401.517472 
L 605.661708 398.265186 
L 607.3252 402.961232 
L 608.965425 402.307282 
L 610.583026 408.390302 
L 612.178619 402.760878 
L 613.752793 401.133532 
L 615.306116 400.860343 
L 616.839134 404.189531 
L 618.352371 408.00959 
L 619.84633 411.295203 
L 621.321497 398.705002 
L 622.778339 410.228654 
L 624.217304 406.66801 
L 625.638827 410.008313 
L 627.043325 404.010311 
L 628.431202 409.083078 
L 629.802846 411.264946 
L 631.158633 408.494632 
L 632.498924 406.154352 
L 633.82407 412.807981 
L 635.13441 411.088486 
L 636.430271 409.765859 
L 637.711969 405.428169 
L 638.979811 408.7708 
L 640.234093 409.332363 
L 641.475101 409.439892 
L 642.703115 399.929208 
L 643.918403 409.763179 
L 645.121226 413.320104 
L 646.311837 407.054709 
L 647.490482 408.758203 
L 648.6574 409.981999 
L 649.81282 408.974832 
L 650.956968 409.650405 
L 652.090061 409.63837 
L 653.212311 413.353307 
L 654.323923 410.410824 
L 655.425097 414.428478 
L 656.516028 407.717653 
L 657.596904 412.163578 
L 658.667909 411.31308 
L 659.729221 409.004879 
L 660.781015 398.955118 
L 661.823459 409.998664 
L 662.856719 409.657943 
L 663.880954 415.006324 
L 664.896322 408.381571 
L 665.902974 412.097411 
L 666.901058 408.526927 
L 667.89072 410.536251 
L 668.8721 406.929745 
L 669.845335 411.506952 
L 670.810561 412.365263 
L 671.767907 412.306511 
L 672.717501 411.730375 
L 673.659467 414.30509 
L 674.593928 413.880621 
L 675.521002 414.861401 
L 676.440804 408.253981 
L 677.353449 415.463157 
L 678.259046 413.490837 
L 679.157703 413.326167 
L 680.049526 409.53694 
L 680.934619 416.737367 
L 681.813082 415.68629 
L 682.685013 414.733487 
L 683.550509 408.90982 
L 684.409665 414.685554 
L 685.262572 417.981188 
L 686.109321 416.36287 
L 686.95 426.371045 
L 686.95 422.575366 
L 686.95 422.575366 
L 686.109321 411.670226 
L 685.262572 413.217491 
L 684.409665 408.937902 
L 683.550509 402.019746 
L 682.685013 409.159034 
L 681.813082 410.283726 
L 680.934619 412.37675 
L 680.049526 403.393265 
L 679.157703 407.674161 
L 678.259046 407.47615 
L 677.353449 411.100092 
L 676.440804 400.595056 
L 675.521002 409.449672 
L 674.593928 408.703677 
L 673.659467 409.103156 
L 672.717501 405.189364 
L 671.767907 405.665848 
L 670.810561 406.784009 
L 669.845335 404.710047 
L 668.8721 399.770323 
L 667.89072 403.56601 
L 666.901058 401.661578 
L 665.902974 406.331064 
L 664.896322 401.472609 
L 663.880954 409.607876 
L 662.856719 402.136859 
L 661.823459 404.703001 
L 660.781015 391.839563 
L 659.729221 402.645386 
L 658.667909 404.999582 
L 657.596904 403.773427 
L 656.516028 399.400185 
L 655.425097 409.12476 
L 654.323923 403.46171 
L 653.212311 407.468582 
L 652.090061 403.56078 
L 650.956968 403.191555 
L 649.81282 402.623054 
L 648.6574 404.675139 
L 647.490482 401.799066 
L 646.311837 399.243859 
L 645.121226 404.064013 
L 643.918403 403.853346 
L 642.703115 392.307488 
L 641.475101 401.509485 
L 640.234093 402.02467 
L 638.979811 401.882534 
L 637.711969 397.113954 
L 636.430271 403.066556 
L 635.13441 404.5864 
L 633.82407 406.16434 
L 632.498924 397.357905 
L 631.158633 399.814117 
L 629.802846 404.680747 
L 628.431202 402.037186 
L 627.043325 397.059814 
L 625.638827 403.434219 
L 624.217304 397.452054 
L 622.778339 404.065657 
L 621.321497 389.374681 
L 619.84633 405.762515 
L 618.352371 400.58829 
L 616.839134 395.399652 
L 615.306116 391.535597 
L 613.752793 392.112368 
L 612.178619 394.587253 
L 610.583026 402.385447 
L 608.965425 394.686073 
L 607.3252 394.307802 
L 605.661708 388.669906 
L 603.97428 391.619393 
L 602.262217 385.044554 
L 600.52479 400.905349 
L 598.761234 386.735492 
L 596.970754 389.187789 
L 595.152512 377.584956 
L 593.305636 399.136724 
L 591.429209 394.863455 
L 589.522269 393.534974 
L 587.583808 393.446853 
L 585.612766 394.276222 
L 583.60803 389.1066 
L 581.568427 397.518804 
L 579.492723 372.765399 
L 577.379617 390.181325 
L 575.227736 384.813659 
L 573.035631 390.571721 
L 570.801769 391.56162 
L 568.524528 387.746387 
L 566.20219 379.411178 
L 563.832933 388.756013 
L 561.414823 355.334084 
L 558.945801 387.602305 
L 556.423677 383.252545 
L 553.846118 378.425715 
L 551.210632 388.892098 
L 548.514554 386.734187 
L 545.755033 386.067365 
L 542.929012 379.384383 
L 540.033205 366.95651 
L 537.064079 375.106484 
L 534.017824 370.219256 
L 530.890326 372.041504 
L 527.677133 370.339528 
L 524.373416 382.592398 
L 520.973925 383.163572 
L 517.472942 380.09388 
L 513.86422 354.797272 
L 510.140916 376.197909 
L 506.295516 380.053819 
L 502.319738 363.187901 
L 498.204431 361.933734 
L 493.939444 370.042116 
L 489.513476 369.209294 
L 484.913898 359.920561 
L 480.126531 342.833735 
L 475.135385 369.384202 
L 469.92234 367.550164 
L 464.466741 353.604084 
L 458.744913 336.715041 
L 452.729532 349.085007 
L 446.388841 327.880948 
L 439.685633 348.015086 
L 432.575928 237.738005 
L 425.007223 357.621147 
L 416.916139 344.959142 
L 408.225184 329.145012 
L 398.838238 328.485456 
L 388.634047 311.814829 
L 377.456621 318.091751 
L 365.100549 301.035813 
L 351.287636 36.344648 
L 335.627846 287.352897 
L 317.549946 285.682494 
L 296.168329 303.522744 
L 269.999344 151.875531 
L 236.261654 267.183189 
L 188.711052 225.419507 
L 107.422759 207.798461 
L -269184.334838 439.2 
z
" style="fill:#1b9e77;fill-opacity:0.2;stroke:#1b9e77;stroke-opacity:0.2;"/>
   </g>
   <g id="PolyCollection_2">
    <path clip-path="url(#p73ffdce5ca)" d="M -269184.334838 439.2 
L -269184.334838 439.2 
L 107.422759 289.3731 
L 188.711052 308.467003 
L 236.261654 329.67858 
L 269.999344 255.467061 
L 296.168329 347.681546 
L 317.549946 358.186198 
L 335.627846 363.86492 
L 351.287636 120.188048 
L 365.100549 357.189567 
L 377.456621 370.629385 
L 388.634047 365.992646 
L 398.838238 363.38844 
L 408.225184 371.432116 
L 416.916139 378.792594 
L 425.007223 378.604134 
L 432.575928 337.105858 
L 439.685633 375.683525 
L 446.388841 387.09684 
L 452.729532 381.635333 
L 458.744913 382.040449 
L 464.466741 391.89204 
L 469.92234 388.878499 
L 475.135385 397.620536 
L 480.126531 376.386096 
L 484.913898 401.186415 
L 489.513476 394.155755 
L 493.939444 400.318434 
L 498.204431 376.115329 
L 502.319738 395.970293 
L 506.295516 397.611136 
L 510.140916 402.803451 
L 513.86422 384.969349 
L 517.472942 394.11042 
L 520.973925 400.829658 
L 524.373416 403.886723 
L 527.677133 395.62097 
L 530.890326 402.482755 
L 534.017824 403.74004 
L 537.064079 408.27895 
L 540.033205 388.015842 
L 542.929012 404.177491 
L 545.755033 402.926939 
L 548.514554 399.434012 
L 551.210632 399.046293 
L 553.846118 400.308352 
L 556.423677 404.954725 
L 558.945801 403.84153 
L 561.414823 386.871804 
L 563.832933 409.002288 
L 566.20219 410.654999 
L 568.524528 404.401245 
L 570.801769 407.774383 
L 573.035631 408.657877 
L 575.227736 409.262422 
L 577.379617 407.499052 
L 579.492723 396.721849 
L 581.568427 408.66614 
L 583.60803 407.237032 
L 585.612766 409.58017 
L 587.583808 405.104517 
L 589.522269 412.290366 
L 591.429209 408.308584 
L 593.305636 406.325325 
L 595.152512 395.645462 
L 596.970754 409.316172 
L 598.761234 410.395347 
L 600.52479 408.702673 
L 602.262217 414.147595 
L 603.97428 407.526001 
L 605.661708 409.972761 
L 607.3252 413.516101 
L 608.965425 407.839932 
L 610.583026 411.76643 
L 612.178619 411.315979 
L 613.752793 412.917697 
L 615.306116 407.389083 
L 616.839134 413.346409 
L 618.352371 411.481047 
L 619.84633 415.047155 
L 621.321497 407.787516 
L 622.778339 415.48895 
L 624.217304 412.324587 
L 625.638827 414.525905 
L 627.043325 409.227183 
L 628.431202 416.840363 
L 629.802846 413.910393 
L 631.158633 414.543664 
L 632.498924 411.556587 
L 633.82407 412.538448 
L 635.13441 413.895507 
L 636.430271 412.30622 
L 637.711969 410.580482 
L 638.979811 416.60957 
L 640.234093 418.172157 
L 641.475101 416.339407 
L 642.703115 404.821291 
L 643.918403 415.068375 
L 645.121226 413.368933 
L 646.311837 416.601388 
L 647.490482 414.517652 
L 648.6574 417.248028 
L 649.81282 417.083823 
L 650.956968 418.720815 
L 652.090061 411.437822 
L 653.212311 414.226111 
L 654.323923 415.800193 
L 655.425097 416.69923 
L 656.516028 413.326892 
L 657.596904 417.152757 
L 658.667909 416.624141 
L 659.729221 420.047173 
L 660.781015 405.973038 
L 661.823459 417.777183 
L 662.856719 418.832583 
L 663.880954 419.39087 
L 664.896322 415.351863 
L 665.902974 419.2095 
L 666.901058 416.168266 
L 667.89072 420.070345 
L 668.8721 414.254625 
L 669.845335 418.022512 
L 670.810561 415.836657 
L 671.767907 417.473067 
L 672.717501 417.320153 
L 673.659467 418.061602 
L 674.593928 415.880245 
L 675.521002 417.412619 
L 676.440804 414.384517 
L 677.353449 418.473115 
L 678.259046 416.485711 
L 679.157703 417.07755 
L 680.049526 412.171433 
L 680.934619 419.792007 
L 681.813082 420.320546 
L 682.685013 418.187101 
L 683.550509 414.67183 
L 684.409665 419.9934 
L 685.262572 415.778368 
L 686.109321 417.602765 
L 686.95 428.035071 
L 686.95 423.350102 
L 686.95 423.350102 
L 686.109321 412.149308 
L 685.262572 404.469419 
L 684.409665 415.571217 
L 683.550509 408.09237 
L 682.685013 413.150018 
L 681.813082 416.474653 
L 680.934619 413.90632 
L 680.049526 404.357116 
L 679.157703 411.280282 
L 678.259046 411.130206 
L 677.353449 413.08778 
L 676.440804 408.599787 
L 675.521002 411.606879 
L 674.593928 410.622954 
L 673.659467 412.494492 
L 672.717501 412.239533 
L 671.767907 411.090745 
L 670.810561 410.830543 
L 669.845335 413.758231 
L 668.8721 408.911273 
L 667.89072 415.159194 
L 666.901058 410.732246 
L 665.902974 414.654508 
L 664.896322 407.442159 
L 663.880954 414.959748 
L 662.856719 412.624736 
L 661.823459 413.227871 
L 660.781015 395.951401 
L 659.729221 416.008195 
L 658.667909 411.351038 
L 657.596904 412.381334 
L 656.516028 407.566676 
L 655.425097 410.730897 
L 654.323923 409.887544 
L 653.212311 407.892441 
L 652.090061 403.301882 
L 650.956968 413.705171 
L 649.81282 412.093086 
L 648.6574 412.854463 
L 647.490482 409.336556 
L 646.311837 409.685952 
L 645.121226 407.287399 
L 643.918403 404.451614 
L 642.703115 395.528177 
L 641.475101 411.568727 
L 640.234093 413.534428 
L 638.979811 411.733511 
L 637.711969 403.140042 
L 636.430271 404.450394 
L 635.13441 407.802556 
L 633.82407 406.892789 
L 632.498924 404.356458 
L 631.158633 409.096055 
L 629.802846 405.879886 
L 628.431202 411.302254 
L 627.043325 395.527792 
L 625.638827 409.557776 
L 624.217304 405.629031 
L 622.778339 410.027062 
L 621.321497 401.862024 
L 619.84633 408.812505 
L 618.352371 404.033254 
L 616.839134 404.45065 
L 615.306116 398.081289 
L 613.752793 407.47546 
L 612.178619 404.788726 
L 610.583026 404.835942 
L 608.965425 400.241232 
L 607.3252 394.476678 
L 605.661708 402.936052 
L 603.97428 395.269488 
L 602.262217 408.851021 
L 600.52479 401.302214 
L 598.761234 403.790148 
L 596.970754 400.639674 
L 595.152512 382.065452 
L 593.305636 397.08835 
L 591.429209 397.505797 
L 589.522269 406.047323 
L 587.583808 395.026793 
L 585.612766 402.155676 
L 583.60803 397.563349 
L 581.568427 401.505129 
L 579.492723 384.530401 
L 577.379617 400.599975 
L 575.227736 400.396204 
L 573.035631 401.738222 
L 570.801769 400.989289 
L 568.524528 394.666774 
L 566.20219 401.928654 
L 563.832933 402.340613 
L 561.414823 372.619888 
L 558.945801 393.495155 
L 556.423677 397.319587 
L 553.846118 389.033471 
L 551.210632 388.752851 
L 548.514554 381.442056 
L 545.755033 393.876678 
L 542.929012 393.659272 
L 540.033205 378.481604 
L 537.064079 402.659029 
L 534.017824 394.126424 
L 530.890326 393.929252 
L 527.677133 375.662404 
L 524.373416 388.839754 
L 520.973925 390.312498 
L 517.472942 381.629086 
L 513.86422 374.044264 
L 510.140916 393.372071 
L 506.295516 384.325796 
L 502.319738 384.743193 
L 498.204431 355.565189 
L 493.939444 391.022063 
L 489.513476 377.069896 
L 484.913898 391.287848 
L 480.126531 361.618592 
L 475.135385 384.123663 
L 469.92234 373.603198 
L 464.466741 378.722625 
L 458.744913 362.187665 
L 452.729532 364.560864 
L 446.388841 372.304138 
L 439.685633 349.048611 
L 432.575928 308.835422 
L 425.007223 350.63773 
L 416.916139 360.729129 
L 408.225184 348.730396 
L 398.838238 334.085722 
L 388.634047 345.452592 
L 377.456621 353.025638 
L 365.100549 334.262339 
L 351.287636 68.966119 
L 335.627846 336.293788 
L 317.549946 338.966677 
L 296.168329 316.04296 
L 269.999344 205.927365 
L 236.261654 299.344264 
L 188.711052 264.773968 
L 107.422759 243.803282 
L -269184.334838 439.2 
z
" style="fill:#8b4513;fill-opacity:0.2;stroke:#8b4513;stroke-opacity:0.2;"/>
   </g>
   <g id="PolyCollection_3">
    <path clip-path="url(#p73ffdce5ca)" d="M -269184.334838 439.2 
L -269184.334838 439.2 
L 180.619967 267.354847 
L 261.908259 297.182896 
L 309.458861 331.059853 
L 343.196551 336.120778 
L 369.365536 354.119013 
L 390.747154 357.461826 
L 408.825054 360.734513 
L 424.484843 369.727895 
L 438.297756 371.666739 
L 450.653828 374.203335 
L 461.831255 375.053886 
L 472.035446 379.869154 
L 481.422391 378.232477 
L 490.113346 378.781176 
L 498.204431 378.072301 
L 505.773135 382.5944 
L 512.88284 377.03544 
L 519.586048 373.97952 
L 525.926739 379.777216 
L 531.94212 381.982301 
L 537.663948 384.796013 
L 543.119547 383.928184 
L 548.332592 381.757677 
L 553.323738 381.693817 
L 558.111105 386.052027 
L 562.710684 383.841938 
L 567.136651 385.27001 
L 571.401638 389.103575 
L 575.516945 390.616311 
L 579.492723 389.393533 
L 583.338124 383.150418 
L 587.061427 386.968042 
L 590.670149 392.930011 
L 594.171132 392.664702 
L 597.570623 395.338442 
L 600.87434 400.93401 
L 604.087534 400.193119 
L 607.215031 397.227023 
L 610.261286 402.41246 
L 613.230412 402.04688 
L 616.126219 395.248483 
L 618.952241 403.231332 
L 621.711761 403.612116 
L 624.407839 405.305479 
L 627.043325 404.619376 
L 629.620885 394.503814 
L 632.143008 400.900182 
L 634.61203 405.3577 
L 637.030141 403.496071 
L 639.399397 407.589339 
L 641.721735 407.394318 
L 643.998976 402.351613 
L 646.232838 406.679152 
L 648.424943 403.46754 
L 650.576824 406.306314 
L 652.68993 408.02342 
L 654.765634 403.127842 
L 656.805237 405.393076 
L 658.809973 405.50874 
L 660.781015 412.931388 
L 662.719476 408.370069 
L 664.626416 405.651139 
L 666.502843 410.264432 
L 668.349719 412.707546 
L 670.167961 406.873108 
L 671.958442 410.816049 
L 673.721997 411.733534 
L 675.459424 411.492086 
L 677.171487 409.996507 
L 678.858915 409.781363 
L 680.522407 410.464204 
L 682.162633 412.227368 
L 683.780234 410.635698 
L 685.375826 412.446642 
L 686.95 427.249018 
L 686.95 424.390836 
L 686.95 424.390836 
L 685.375826 407.681058 
L 683.780234 405.677058 
L 682.162633 407.189492 
L 680.522407 404.484659 
L 678.858915 404.866082 
L 677.171487 404.730702 
L 675.459424 406.493007 
L 673.721997 406.686108 
L 671.958442 405.228156 
L 670.167961 401.240084 
L 668.349719 408.208892 
L 666.502843 405.443557 
L 664.626416 397.703385 
L 662.719476 402.490207 
L 660.781015 408.621722 
L 658.809973 398.579336 
L 656.805237 398.622925 
L 654.765634 396.324433 
L 652.68993 402.189859 
L 650.576824 399.979886 
L 648.424943 396.485752 
L 646.232838 400.105218 
L 643.998976 394.834791 
L 641.721735 402.213445 
L 639.399397 401.473728 
L 637.030141 397.396482 
L 634.61203 399.100757 
L 632.143008 393.320449 
L 629.620885 385.914086 
L 627.043325 397.257532 
L 624.407839 398.53488 
L 621.711761 397.87209 
L 618.952241 397.576987 
L 616.126219 386.43148 
L 613.230412 395.325399 
L 610.261286 395.307413 
L 607.215031 388.446436 
L 604.087534 393.915229 
L 600.87434 395.037944 
L 597.570623 386.814306 
L 594.171132 383.84314 
L 590.670149 382.706092 
L 587.061427 375.888847 
L 583.338124 372.428564 
L 579.492723 378.842387 
L 575.516945 381.37484 
L 571.401638 381.00526 
L 567.136651 375.300766 
L 562.710684 374.02303 
L 558.111105 376.003067 
L 553.323738 372.51954 
L 548.332592 372.258909 
L 543.119547 374.645536 
L 537.663948 374.777139 
L 531.94212 370.920595 
L 525.926739 367.938848 
L 519.586048 362.163973 
L 512.88284 365.57191 
L 505.773135 373.047538 
L 498.204431 367.972374 
L 490.113346 369.591481 
L 481.422391 366.314233 
L 472.035446 370.847892 
L 461.831255 363.993842 
L 450.653828 365.047375 
L 438.297756 359.869155 
L 424.484843 358.306579 
L 408.825054 348.689353 
L 390.747154 344.809473 
L 369.365536 341.022924 
L 343.196551 315.934824 
L 309.458861 309.043678 
L 261.908259 270.3156 
L 180.619967 242.097188 
L -269184.334838 439.2 
z
" style="fill:#7570b3;fill-opacity:0.2;stroke:#7570b3;stroke-opacity:0.2;"/>
   </g>
   <g id="matplotlib.axis_1">
    <g id="xtick_1">
     <g id="line2d_1">
      <defs>
       <path d="M 0 0 
L 0 3.5 
" id="m67c0b6c512" style="stroke:#000000;stroke-width:0.8;"/>
      </defs>
      <g>
       <use style="stroke:#000000;stroke-width:0.8;" x="39.425" xlink:href="#m67c0b6c512" y="439.2"/>
      </g>
     </g>
     <g id="text_1">
      <!-- 0.001 -->
      <g transform="translate(10.796875 461.396875)scale(0.2 -0.2)">
       <defs>
        <path d="M 31.78125 66.40625 
Q 24.171875 66.40625 20.328125 58.90625 
Q 16.5 51.421875 16.5 36.375 
Q 16.5 21.390625 20.328125 13.890625 
Q 24.171875 6.390625 31.78125 6.390625 
Q 39.453125 6.390625 43.28125 13.890625 
Q 47.125 21.390625 47.125 36.375 
Q 47.125 51.421875 43.28125 58.90625 
Q 39.453125 66.40625 31.78125 66.40625 
z
M 31.78125 74.21875 
Q 44.046875 74.21875 50.515625 64.515625 
Q 56.984375 54.828125 56.984375 36.375 
Q 56.984375 17.96875 50.515625 8.265625 
Q 44.046875 -1.421875 31.78125 -1.421875 
Q 19.53125 -1.421875 13.0625 8.265625 
Q 6.59375 17.96875 6.59375 36.375 
Q 6.59375 54.828125 13.0625 64.515625 
Q 19.53125 74.21875 31.78125 74.21875 
z
" id="DejaVuSans-48"/>
        <path d="M 10.6875 12.40625 
L 21 12.40625 
L 21 0 
L 10.6875 0 
z
" id="DejaVuSans-46"/>
        <path d="M 12.40625 8.296875 
L 28.515625 8.296875 
L 28.515625 63.921875 
L 10.984375 60.40625 
L 10.984375 69.390625 
L 28.421875 72.90625 
L 38.28125 72.90625 
L 38.28125 8.296875 
L 54.390625 8.296875 
L 54.390625 0 
L 12.40625 0 
z
" id="DejaVuSans-49"/>
       </defs>
       <use xlink:href="#DejaVuSans-48"/>
       <use x="63.623047" xlink:href="#DejaVuSans-46"/>
       <use x="95.410156" xlink:href="#DejaVuSans-48"/>
       <use x="159.033203" xlink:href="#DejaVuSans-48"/>
       <use x="222.65625" xlink:href="#DejaVuSans-49"/>
      </g>
     </g>
    </g>
    <g id="xtick_2">
     <g id="line2d_2">
      <g>
       <use style="stroke:#000000;stroke-width:0.8;" x="228.170569" xlink:href="#m67c0b6c512" y="439.2"/>
      </g>
     </g>
     <g id="text_2">
      <!-- 0.005 -->
      <g transform="translate(199.542444 461.396875)scale(0.2 -0.2)">
       <defs>
        <path d="M 10.796875 72.90625 
L 49.515625 72.90625 
L 49.515625 64.59375 
L 19.828125 64.59375 
L 19.828125 46.734375 
Q 21.96875 47.46875 24.109375 47.828125 
Q 26.265625 48.1875 28.421875 48.1875 
Q 40.625 48.1875 47.75 41.5 
Q 54.890625 34.8125 54.890625 23.390625 
Q 54.890625 11.625 47.5625 5.09375 
Q 40.234375 -1.421875 26.90625 -1.421875 
Q 22.3125 -1.421875 17.546875 -0.640625 
Q 12.796875 0.140625 7.71875 1.703125 
L 7.71875 11.625 
Q 12.109375 9.234375 16.796875 8.0625 
Q 21.484375 6.890625 26.703125 6.890625 
Q 35.15625 6.890625 40.078125 11.328125 
Q 45.015625 15.765625 45.015625 23.390625 
Q 45.015625 31 40.078125 35.4375 
Q 35.15625 39.890625 26.703125 39.890625 
Q 22.75 39.890625 18.8125 39.015625 
Q 14.890625 38.140625 10.796875 36.28125 
z
" id="DejaVuSans-53"/>
       </defs>
       <use xlink:href="#DejaVuSans-48"/>
       <use x="63.623047" xlink:href="#DejaVuSans-46"/>
       <use x="95.410156" xlink:href="#DejaVuSans-48"/>
       <use x="159.033203" xlink:href="#DejaVuSans-48"/>
       <use x="222.65625" xlink:href="#DejaVuSans-53"/>
      </g>
     </g>
    </g>
    <g id="xtick_3">
     <g id="line2d_3">
      <g>
       <use style="stroke:#000000;stroke-width:0.8;" x="309.458861" xlink:href="#m67c0b6c512" y="439.2"/>
      </g>
     </g>
     <g id="text_3">
      <!-- 0.01 -->
      <g transform="translate(287.193236 461.396875)scale(0.2 -0.2)">
       <use xlink:href="#DejaVuSans-48"/>
       <use x="63.623047" xlink:href="#DejaVuSans-46"/>
       <use x="95.410156" xlink:href="#DejaVuSans-48"/>
       <use x="159.033203" xlink:href="#DejaVuSans-49"/>
      </g>
     </g>
    </g>
    <g id="xtick_4">
     <g id="line2d_4">
      <g>
       <use style="stroke:#000000;stroke-width:0.8;" x="498.204431" xlink:href="#m67c0b6c512" y="439.2"/>
      </g>
     </g>
     <g id="text_4">
      <!-- 0.05 -->
      <g transform="translate(475.938806 461.396875)scale(0.2 -0.2)">
       <use xlink:href="#DejaVuSans-48"/>
       <use x="63.623047" xlink:href="#DejaVuSans-46"/>
       <use x="95.410156" xlink:href="#DejaVuSans-48"/>
       <use x="159.033203" xlink:href="#DejaVuSans-53"/>
      </g>
     </g>
    </g>
    <g id="xtick_5">
     <g id="line2d_5">
      <g>
       <use style="stroke:#000000;stroke-width:0.8;" x="579.492723" xlink:href="#m67c0b6c512" y="439.2"/>
      </g>
     </g>
     <g id="text_5">
      <!-- 0.1 -->
      <g transform="translate(563.589598 461.396875)scale(0.2 -0.2)">
       <use xlink:href="#DejaVuSans-48"/>
       <use x="63.623047" xlink:href="#DejaVuSans-46"/>
       <use x="95.410156" xlink:href="#DejaVuSans-49"/>
      </g>
     </g>
    </g>
    <g id="xtick_6">
     <g id="line2d_6">
      <g>
       <use style="stroke:#000000;stroke-width:0.8;" x="686.95" xlink:href="#m67c0b6c512" y="439.2"/>
      </g>
     </g>
     <g id="text_6">
      <!-- 0.25 -->
      <g transform="translate(664.684375 461.396875)scale(0.2 -0.2)">
       <defs>
        <path d="M 19.1875 8.296875 
L 53.609375 8.296875 
L 53.609375 0 
L 7.328125 0 
L 7.328125 8.296875 
Q 12.9375 14.109375 22.625 23.890625 
Q 32.328125 33.6875 34.8125 36.53125 
Q 39.546875 41.84375 41.421875 45.53125 
Q 43.3125 49.21875 43.3125 52.78125 
Q 43.3125 58.59375 39.234375 62.25 
Q 35.15625 65.921875 28.609375 65.921875 
Q 23.96875 65.921875 18.8125 64.3125 
Q 13.671875 62.703125 7.8125 59.421875 
L 7.8125 69.390625 
Q 13.765625 71.78125 18.9375 73 
Q 24.125 74.21875 28.421875 74.21875 
Q 39.75 74.21875 46.484375 68.546875 
Q 53.21875 62.890625 53.21875 53.421875 
Q 53.21875 48.921875 51.53125 44.890625 
Q 49.859375 40.875 45.40625 35.40625 
Q 44.1875 33.984375 37.640625 27.21875 
Q 31.109375 20.453125 19.1875 8.296875 
z
" id="DejaVuSans-50"/>
       </defs>
       <use xlink:href="#DejaVuSans-48"/>
       <use x="63.623047" xlink:href="#DejaVuSans-46"/>
       <use x="95.410156" xlink:href="#DejaVuSans-50"/>
       <use x="159.033203" xlink:href="#DejaVuSans-53"/>
      </g>
     </g>
    </g>
    <g id="xtick_7">
     <g id="line2d_7">
      <defs>
       <path d="M 0 0 
L 0 2 
" id="mb24c7ec774" style="stroke:#000000;stroke-width:0.6;"/>
      </defs>
      <g>
       <use style="stroke:#000000;stroke-width:0.6;" x="120.713292" xlink:href="#mb24c7ec774" y="439.2"/>
      </g>
     </g>
    </g>
    <g id="xtick_8">
     <g id="line2d_8">
      <g>
       <use style="stroke:#000000;stroke-width:0.6;" x="168.263895" xlink:href="#mb24c7ec774" y="439.2"/>
      </g>
     </g>
    </g>
    <g id="xtick_9">
     <g id="line2d_9">
      <g>
       <use style="stroke:#000000;stroke-width:0.6;" x="202.001584" xlink:href="#mb24c7ec774" y="439.2"/>
      </g>
     </g>
    </g>
    <g id="xtick_10">
     <g id="line2d_10">
      <g>
       <use style="stroke:#000000;stroke-width:0.6;" x="249.552187" xlink:href="#mb24c7ec774" y="439.2"/>
      </g>
     </g>
    </g>
    <g id="xtick_11">
     <g id="line2d_11">
      <g>
       <use style="stroke:#000000;stroke-width:0.6;" x="267.630087" xlink:href="#mb24c7ec774" y="439.2"/>
      </g>
     </g>
    </g>
    <g id="xtick_12">
     <g id="line2d_12">
      <g>
       <use style="stroke:#000000;stroke-width:0.6;" x="283.289876" xlink:href="#mb24c7ec774" y="439.2"/>
      </g>
     </g>
    </g>
    <g id="xtick_13">
     <g id="line2d_13">
      <g>
       <use style="stroke:#000000;stroke-width:0.6;" x="297.10279" xlink:href="#mb24c7ec774" y="439.2"/>
      </g>
     </g>
    </g>
    <g id="xtick_14">
     <g id="line2d_14">
      <g>
       <use style="stroke:#000000;stroke-width:0.6;" x="390.747154" xlink:href="#mb24c7ec774" y="439.2"/>
      </g>
     </g>
    </g>
    <g id="xtick_15">
     <g id="line2d_15">
      <g>
       <use style="stroke:#000000;stroke-width:0.6;" x="438.297756" xlink:href="#mb24c7ec774" y="439.2"/>
      </g>
     </g>
    </g>
    <g id="xtick_16">
     <g id="line2d_16">
      <g>
       <use style="stroke:#000000;stroke-width:0.6;" x="472.035446" xlink:href="#mb24c7ec774" y="439.2"/>
      </g>
     </g>
    </g>
    <g id="xtick_17">
     <g id="line2d_17">
      <g>
       <use style="stroke:#000000;stroke-width:0.6;" x="519.586048" xlink:href="#mb24c7ec774" y="439.2"/>
      </g>
     </g>
    </g>
    <g id="xtick_18">
     <g id="line2d_18">
      <g>
       <use style="stroke:#000000;stroke-width:0.6;" x="537.663948" xlink:href="#mb24c7ec774" y="439.2"/>
      </g>
     </g>
    </g>
    <g id="xtick_19">
     <g id="line2d_19">
      <g>
       <use style="stroke:#000000;stroke-width:0.6;" x="553.323738" xlink:href="#mb24c7ec774" y="439.2"/>
      </g>
     </g>
    </g>
    <g id="xtick_20">
     <g id="line2d_20">
      <g>
       <use style="stroke:#000000;stroke-width:0.6;" x="567.136651" xlink:href="#mb24c7ec774" y="439.2"/>
      </g>
     </g>
    </g>
    <g id="xtick_21">
     <g id="line2d_21">
      <g>
       <use style="stroke:#000000;stroke-width:0.6;" x="660.781015" xlink:href="#mb24c7ec774" y="439.2"/>
      </g>
     </g>
    </g>
    <g id="text_7">
     <!-- Frequency (Hz) -->
     <g transform="translate(268.925781 488.552344)scale(0.25 -0.25)">
      <defs>
       <path d="M 9.8125 72.90625 
L 51.703125 72.90625 
L 51.703125 64.59375 
L 19.671875 64.59375 
L 19.671875 43.109375 
L 48.578125 43.109375 
L 48.578125 34.8125 
L 19.671875 34.8125 
L 19.671875 0 
L 9.8125 0 
z
" id="DejaVuSans-70"/>
       <path d="M 41.109375 46.296875 
Q 39.59375 47.171875 37.8125 47.578125 
Q 36.03125 48 33.890625 48 
Q 26.265625 48 22.1875 43.046875 
Q 18.109375 38.09375 18.109375 28.8125 
L 18.109375 0 
L 9.078125 0 
L 9.078125 54.6875 
L 18.109375 54.6875 
L 18.109375 46.1875 
Q 20.953125 51.171875 25.484375 53.578125 
Q 30.03125 56 36.53125 56 
Q 37.453125 56 38.578125 55.875 
Q 39.703125 55.765625 41.0625 55.515625 
z
" id="DejaVuSans-114"/>
       <path d="M 56.203125 29.59375 
L 56.203125 25.203125 
L 14.890625 25.203125 
Q 15.484375 15.921875 20.484375 11.0625 
Q 25.484375 6.203125 34.421875 6.203125 
Q 39.59375 6.203125 44.453125 7.46875 
Q 49.3125 8.734375 54.109375 11.28125 
L 54.109375 2.78125 
Q 49.265625 0.734375 44.1875 -0.34375 
Q 39.109375 -1.421875 33.890625 -1.421875 
Q 20.796875 -1.421875 13.15625 6.1875 
Q 5.515625 13.8125 5.515625 26.8125 
Q 5.515625 40.234375 12.765625 48.109375 
Q 20.015625 56 32.328125 56 
Q 43.359375 56 49.78125 48.890625 
Q 56.203125 41.796875 56.203125 29.59375 
z
M 47.21875 32.234375 
Q 47.125 39.59375 43.09375 43.984375 
Q 39.0625 48.390625 32.421875 48.390625 
Q 24.90625 48.390625 20.390625 44.140625 
Q 15.875 39.890625 15.1875 32.171875 
z
" id="DejaVuSans-101"/>
       <path d="M 14.796875 27.296875 
Q 14.796875 17.390625 18.875 11.75 
Q 22.953125 6.109375 30.078125 6.109375 
Q 37.203125 6.109375 41.296875 11.75 
Q 45.40625 17.390625 45.40625 27.296875 
Q 45.40625 37.203125 41.296875 42.84375 
Q 37.203125 48.484375 30.078125 48.484375 
Q 22.953125 48.484375 18.875 42.84375 
Q 14.796875 37.203125 14.796875 27.296875 
z
M 45.40625 8.203125 
Q 42.578125 3.328125 38.25 0.953125 
Q 33.9375 -1.421875 27.875 -1.421875 
Q 17.96875 -1.421875 11.734375 6.484375 
Q 5.515625 14.40625 5.515625 27.296875 
Q 5.515625 40.1875 11.734375 48.09375 
Q 17.96875 56 27.875 56 
Q 33.9375 56 38.25 53.625 
Q 42.578125 51.265625 45.40625 46.390625 
L 45.40625 54.6875 
L 54.390625 54.6875 
L 54.390625 -20.796875 
L 45.40625 -20.796875 
z
" id="DejaVuSans-113"/>
       <path d="M 8.5 21.578125 
L 8.5 54.6875 
L 17.484375 54.6875 
L 17.484375 21.921875 
Q 17.484375 14.15625 20.5 10.265625 
Q 23.53125 6.390625 29.59375 6.390625 
Q 36.859375 6.390625 41.078125 11.03125 
Q 45.3125 15.671875 45.3125 23.6875 
L 45.3125 54.6875 
L 54.296875 54.6875 
L 54.296875 0 
L 45.3125 0 
L 45.3125 8.40625 
Q 42.046875 3.421875 37.71875 1 
Q 33.40625 -1.421875 27.6875 -1.421875 
Q 18.265625 -1.421875 13.375 4.4375 
Q 8.5 10.296875 8.5 21.578125 
z
M 31.109375 56 
z
" id="DejaVuSans-117"/>
       <path d="M 54.890625 33.015625 
L 54.890625 0 
L 45.90625 0 
L 45.90625 32.71875 
Q 45.90625 40.484375 42.875 44.328125 
Q 39.84375 48.1875 33.796875 48.1875 
Q 26.515625 48.1875 22.3125 43.546875 
Q 18.109375 38.921875 18.109375 30.90625 
L 18.109375 0 
L 9.078125 0 
L 9.078125 54.6875 
L 18.109375 54.6875 
L 18.109375 46.1875 
Q 21.34375 51.125 25.703125 53.5625 
Q 30.078125 56 35.796875 56 
Q 45.21875 56 50.046875 50.171875 
Q 54.890625 44.34375 54.890625 33.015625 
z
" id="DejaVuSans-110"/>
       <path d="M 48.78125 52.59375 
L 48.78125 44.1875 
Q 44.96875 46.296875 41.140625 47.34375 
Q 37.3125 48.390625 33.40625 48.390625 
Q 24.65625 48.390625 19.8125 42.84375 
Q 14.984375 37.3125 14.984375 27.296875 
Q 14.984375 17.28125 19.8125 11.734375 
Q 24.65625 6.203125 33.40625 6.203125 
Q 37.3125 6.203125 41.140625 7.25 
Q 44.96875 8.296875 48.78125 10.40625 
L 48.78125 2.09375 
Q 45.015625 0.34375 40.984375 -0.53125 
Q 36.96875 -1.421875 32.421875 -1.421875 
Q 20.0625 -1.421875 12.78125 6.34375 
Q 5.515625 14.109375 5.515625 27.296875 
Q 5.515625 40.671875 12.859375 48.328125 
Q 20.21875 56 33.015625 56 
Q 37.15625 56 41.109375 55.140625 
Q 45.0625 54.296875 48.78125 52.59375 
z
" id="DejaVuSans-99"/>
       <path d="M 32.171875 -5.078125 
Q 28.375 -14.84375 24.75 -17.8125 
Q 21.140625 -20.796875 15.09375 -20.796875 
L 7.90625 -20.796875 
L 7.90625 -13.28125 
L 13.1875 -13.28125 
Q 16.890625 -13.28125 18.9375 -11.515625 
Q 21 -9.765625 23.484375 -3.21875 
L 25.09375 0.875 
L 2.984375 54.6875 
L 12.5 54.6875 
L 29.59375 11.921875 
L 46.6875 54.6875 
L 56.203125 54.6875 
z
" id="DejaVuSans-121"/>
       <path id="DejaVuSans-32"/>
       <path d="M 31 75.875 
Q 24.46875 64.65625 21.28125 53.65625 
Q 18.109375 42.671875 18.109375 31.390625 
Q 18.109375 20.125 21.3125 9.0625 
Q 24.515625 -2 31 -13.1875 
L 23.1875 -13.1875 
Q 15.875 -1.703125 12.234375 9.375 
Q 8.59375 20.453125 8.59375 31.390625 
Q 8.59375 42.28125 12.203125 53.3125 
Q 15.828125 64.359375 23.1875 75.875 
z
" id="DejaVuSans-40"/>
       <path d="M 9.8125 72.90625 
L 19.671875 72.90625 
L 19.671875 43.015625 
L 55.515625 43.015625 
L 55.515625 72.90625 
L 65.375 72.90625 
L 65.375 0 
L 55.515625 0 
L 55.515625 34.71875 
L 19.671875 34.71875 
L 19.671875 0 
L 9.8125 0 
z
" id="DejaVuSans-72"/>
       <path d="M 5.515625 54.6875 
L 48.1875 54.6875 
L 48.1875 46.484375 
L 14.40625 7.171875 
L 48.1875 7.171875 
L 48.1875 0 
L 4.296875 0 
L 4.296875 8.203125 
L 38.09375 47.515625 
L 5.515625 47.515625 
z
" id="DejaVuSans-122"/>
       <path d="M 8.015625 75.875 
L 15.828125 75.875 
Q 23.140625 64.359375 26.78125 53.3125 
Q 30.421875 42.28125 30.421875 31.390625 
Q 30.421875 20.453125 26.78125 9.375 
Q 23.140625 -1.703125 15.828125 -13.1875 
L 8.015625 -13.1875 
Q 14.5 -2 17.703125 9.0625 
Q 20.90625 20.125 20.90625 31.390625 
Q 20.90625 42.671875 17.703125 53.65625 
Q 14.5 64.65625 8.015625 75.875 
z
" id="DejaVuSans-41"/>
      </defs>
      <use xlink:href="#DejaVuSans-70"/>
      <use x="50.269531" xlink:href="#DejaVuSans-114"/>
      <use x="89.132812" xlink:href="#DejaVuSans-101"/>
      <use x="150.65625" xlink:href="#DejaVuSans-113"/>
      <use x="214.132812" xlink:href="#DejaVuSans-117"/>
      <use x="277.511719" xlink:href="#DejaVuSans-101"/>
      <use x="339.035156" xlink:href="#DejaVuSans-110"/>
      <use x="402.414062" xlink:href="#DejaVuSans-99"/>
      <use x="457.394531" xlink:href="#DejaVuSans-121"/>
      <use x="516.574219" xlink:href="#DejaVuSans-32"/>
      <use x="548.361328" xlink:href="#DejaVuSans-40"/>
      <use x="587.375" xlink:href="#DejaVuSans-72"/>
      <use x="662.570312" xlink:href="#DejaVuSans-122"/>
      <use x="715.060547" xlink:href="#DejaVuSans-41"/>
     </g>
    </g>
   </g>
   <g id="matplotlib.axis_2">
    <g id="text_8">
     <!-- Power Spectrum -->
     <g transform="translate(30.225781 327.330078)rotate(-90)scale(0.25 -0.25)">
      <defs>
       <path d="M 19.671875 64.796875 
L 19.671875 37.40625 
L 32.078125 37.40625 
Q 38.96875 37.40625 42.71875 40.96875 
Q 46.484375 44.53125 46.484375 51.125 
Q 46.484375 57.671875 42.71875 61.234375 
Q 38.96875 64.796875 32.078125 64.796875 
z
M 9.8125 72.90625 
L 32.078125 72.90625 
Q 44.34375 72.90625 50.609375 67.359375 
Q 56.890625 61.8125 56.890625 51.125 
Q 56.890625 40.328125 50.609375 34.8125 
Q 44.34375 29.296875 32.078125 29.296875 
L 19.671875 29.296875 
L 19.671875 0 
L 9.8125 0 
z
" id="DejaVuSans-80"/>
       <path d="M 30.609375 48.390625 
Q 23.390625 48.390625 19.1875 42.75 
Q 14.984375 37.109375 14.984375 27.296875 
Q 14.984375 17.484375 19.15625 11.84375 
Q 23.34375 6.203125 30.609375 6.203125 
Q 37.796875 6.203125 41.984375 11.859375 
Q 46.1875 17.53125 46.1875 27.296875 
Q 46.1875 37.015625 41.984375 42.703125 
Q 37.796875 48.390625 30.609375 48.390625 
z
M 30.609375 56 
Q 42.328125 56 49.015625 48.375 
Q 55.71875 40.765625 55.71875 27.296875 
Q 55.71875 13.875 49.015625 6.21875 
Q 42.328125 -1.421875 30.609375 -1.421875 
Q 18.84375 -1.421875 12.171875 6.21875 
Q 5.515625 13.875 5.515625 27.296875 
Q 5.515625 40.765625 12.171875 48.375 
Q 18.84375 56 30.609375 56 
z
" id="DejaVuSans-111"/>
       <path d="M 4.203125 54.6875 
L 13.1875 54.6875 
L 24.421875 12.015625 
L 35.59375 54.6875 
L 46.1875 54.6875 
L 57.421875 12.015625 
L 68.609375 54.6875 
L 77.59375 54.6875 
L 63.28125 0 
L 52.6875 0 
L 40.921875 44.828125 
L 29.109375 0 
L 18.5 0 
z
" id="DejaVuSans-119"/>
       <path d="M 53.515625 70.515625 
L 53.515625 60.890625 
Q 47.90625 63.578125 42.921875 64.890625 
Q 37.9375 66.21875 33.296875 66.21875 
Q 25.25 66.21875 20.875 63.09375 
Q 16.5 59.96875 16.5 54.203125 
Q 16.5 49.359375 19.40625 46.890625 
Q 22.3125 44.4375 30.421875 42.921875 
L 36.375 41.703125 
Q 47.40625 39.59375 52.65625 34.296875 
Q 57.90625 29 57.90625 20.125 
Q 57.90625 9.515625 50.796875 4.046875 
Q 43.703125 -1.421875 29.984375 -1.421875 
Q 24.8125 -1.421875 18.96875 -0.25 
Q 13.140625 0.921875 6.890625 3.21875 
L 6.890625 13.375 
Q 12.890625 10.015625 18.65625 8.296875 
Q 24.421875 6.59375 29.984375 6.59375 
Q 38.421875 6.59375 43.015625 9.90625 
Q 47.609375 13.234375 47.609375 19.390625 
Q 47.609375 24.75 44.3125 27.78125 
Q 41.015625 30.8125 33.5 32.328125 
L 27.484375 33.5 
Q 16.453125 35.6875 11.515625 40.375 
Q 6.59375 45.0625 6.59375 53.421875 
Q 6.59375 63.09375 13.40625 68.65625 
Q 20.21875 74.21875 32.171875 74.21875 
Q 37.3125 74.21875 42.625 73.28125 
Q 47.953125 72.359375 53.515625 70.515625 
z
" id="DejaVuSans-83"/>
       <path d="M 18.109375 8.203125 
L 18.109375 -20.796875 
L 9.078125 -20.796875 
L 9.078125 54.6875 
L 18.109375 54.6875 
L 18.109375 46.390625 
Q 20.953125 51.265625 25.265625 53.625 
Q 29.59375 56 35.59375 56 
Q 45.5625 56 51.78125 48.09375 
Q 58.015625 40.1875 58.015625 27.296875 
Q 58.015625 14.40625 51.78125 6.484375 
Q 45.5625 -1.421875 35.59375 -1.421875 
Q 29.59375 -1.421875 25.265625 0.953125 
Q 20.953125 3.328125 18.109375 8.203125 
z
M 48.6875 27.296875 
Q 48.6875 37.203125 44.609375 42.84375 
Q 40.53125 48.484375 33.40625 48.484375 
Q 26.265625 48.484375 22.1875 42.84375 
Q 18.109375 37.203125 18.109375 27.296875 
Q 18.109375 17.390625 22.1875 11.75 
Q 26.265625 6.109375 33.40625 6.109375 
Q 40.53125 6.109375 44.609375 11.75 
Q 48.6875 17.390625 48.6875 27.296875 
z
" id="DejaVuSans-112"/>
       <path d="M 18.3125 70.21875 
L 18.3125 54.6875 
L 36.8125 54.6875 
L 36.8125 47.703125 
L 18.3125 47.703125 
L 18.3125 18.015625 
Q 18.3125 11.328125 20.140625 9.421875 
Q 21.96875 7.515625 27.59375 7.515625 
L 36.8125 7.515625 
L 36.8125 0 
L 27.59375 0 
Q 17.1875 0 13.234375 3.875 
Q 9.28125 7.765625 9.28125 18.015625 
L 9.28125 47.703125 
L 2.6875 47.703125 
L 2.6875 54.6875 
L 9.28125 54.6875 
L 9.28125 70.21875 
z
" id="DejaVuSans-116"/>
       <path d="M 52 44.1875 
Q 55.375 50.25 60.0625 53.125 
Q 64.75 56 71.09375 56 
Q 79.640625 56 84.28125 50.015625 
Q 88.921875 44.046875 88.921875 33.015625 
L 88.921875 0 
L 79.890625 0 
L 79.890625 32.71875 
Q 79.890625 40.578125 77.09375 44.375 
Q 74.3125 48.1875 68.609375 48.1875 
Q 61.625 48.1875 57.5625 43.546875 
Q 53.515625 38.921875 53.515625 30.90625 
L 53.515625 0 
L 44.484375 0 
L 44.484375 32.71875 
Q 44.484375 40.625 41.703125 44.40625 
Q 38.921875 48.1875 33.109375 48.1875 
Q 26.21875 48.1875 22.15625 43.53125 
Q 18.109375 38.875 18.109375 30.90625 
L 18.109375 0 
L 9.078125 0 
L 9.078125 54.6875 
L 18.109375 54.6875 
L 18.109375 46.1875 
Q 21.1875 51.21875 25.484375 53.609375 
Q 29.78125 56 35.6875 56 
Q 41.65625 56 45.828125 52.96875 
Q 50 49.953125 52 44.1875 
z
" id="DejaVuSans-109"/>
      </defs>
      <use xlink:href="#DejaVuSans-80"/>
      <use x="56.677734" xlink:href="#DejaVuSans-111"/>
      <use x="117.859375" xlink:href="#DejaVuSans-119"/>
      <use x="199.646484" xlink:href="#DejaVuSans-101"/>
      <use x="261.169922" xlink:href="#DejaVuSans-114"/>
      <use x="302.283203" xlink:href="#DejaVuSans-32"/>
      <use x="334.070312" xlink:href="#DejaVuSans-83"/>
      <use x="397.546875" xlink:href="#DejaVuSans-112"/>
      <use x="461.023438" xlink:href="#DejaVuSans-101"/>
      <use x="522.546875" xlink:href="#DejaVuSans-99"/>
      <use x="577.527344" xlink:href="#DejaVuSans-116"/>
      <use x="616.736328" xlink:href="#DejaVuSans-114"/>
      <use x="657.849609" xlink:href="#DejaVuSans-117"/>
      <use x="721.228516" xlink:href="#DejaVuSans-109"/>
     </g>
    </g>
   </g>
   <g id="line2d_22">
    <path clip-path="url(#p73ffdce5ca)" d="M -1 233.009116 
L 107.422759 232.926065 
L 188.711052 253.267785 
L 236.261654 283.427926 
L 269.999344 183.936624 
L 296.168329 317.691276 
L 317.549946 305.93404 
L 335.627846 307.074243 
L 351.287636 66.677556 
L 365.100549 314.277135 
L 377.456621 331.137254 
L 388.634047 327.615122 
L 398.838238 339.577163 
L 408.225184 340.17481 
L 416.916139 353.702316 
L 425.007223 365.867765 
L 432.575928 261.053026 
L 439.685633 357.860462 
L 446.388841 341.512528 
L 452.729532 359.537509 
L 458.744913 352.082209 
L 464.466741 366.183604 
L 469.92234 375.426035 
L 475.135385 377.538018 
L 480.126531 352.625216 
L 484.913898 370.699495 
L 489.513476 377.847296 
L 493.939444 378.232779 
L 498.204431 370.938884 
L 502.319738 370.813307 
L 506.295516 385.433543 
L 510.140916 382.949998 
L 513.86422 363.716426 
L 517.472942 386.125933 
L 520.973925 389.222865 
L 524.373416 387.159472 
L 527.677133 377.200412 
L 530.890326 379.626851 
L 534.017824 378.018103 
L 537.064079 382.687942 
L 540.033205 374.367601 
L 542.929012 385.963064 
L 545.755033 390.929212 
L 548.514554 392.743184 
L 551.210632 393.733967 
L 553.846118 385.115719 
L 556.423677 388.660348 
L 558.945801 393.222031 
L 561.414823 364.055081 
L 563.832933 393.842331 
L 566.20219 386.333372 
L 568.524528 392.754933 
L 570.801769 395.965821 
L 573.035631 395.226829 
L 575.227736 391.141598 
L 577.379617 395.513041 
L 579.492723 378.608851 
L 581.568427 401.154383 
L 583.60803 394.082574 
L 585.612766 398.724024 
L 587.583808 397.661849 
L 589.522269 397.556589 
L 591.429209 398.915511 
L 593.305636 402.393402 
L 595.152512 383.344412 
L 596.970754 394.322405 
L 598.761234 392.29291 
L 600.52479 404.332369 
L 602.262217 390.71927 
L 603.97428 396.828933 
L 605.661708 393.485006 
L 607.3252 398.65873 
L 608.965425 398.686492 
L 610.583026 405.426835 
L 612.178619 398.687587 
L 613.752793 396.741188 
L 615.306116 396.290867 
L 616.839134 399.914443 
L 619.84633 408.65274 
L 621.321497 394.074473 
L 622.778339 407.201207 
L 624.217304 402.095896 
L 625.638827 406.851233 
L 627.043325 400.590026 
L 628.431202 405.66178 
L 629.802846 408.024814 
L 631.158633 404.216024 
L 632.498924 401.768956 
L 633.82407 409.482686 
L 636.430271 406.408822 
L 637.711969 401.446703 
L 638.979811 405.363639 
L 640.234093 405.757526 
L 641.475101 405.632393 
L 642.703115 396.220265 
L 643.918403 406.879699 
L 645.121226 408.798387 
L 646.311837 403.199369 
L 648.6574 407.322302 
L 649.81282 405.867441 
L 650.956968 406.562599 
L 652.090061 406.642669 
L 653.212311 410.534371 
L 654.323923 407.006558 
L 655.425097 411.75182 
L 656.516028 403.693945 
L 657.596904 408.031715 
L 658.667909 408.194954 
L 659.729221 405.902499 
L 660.781015 395.359394 
L 661.823459 407.365368 
L 662.856719 406.047883 
L 663.880954 412.376108 
L 664.896322 404.974715 
L 665.902974 409.280516 
L 666.901058 405.197909 
L 667.89072 407.078782 
L 668.8721 403.336203 
L 669.845335 408.230088 
L 670.810561 409.691015 
L 671.767907 408.95233 
L 672.717501 408.510814 
L 673.659467 411.794686 
L 674.593928 411.261922 
L 675.521002 412.216688 
L 676.440804 404.481058 
L 677.353449 413.302673 
L 678.259046 410.501732 
L 679.157703 410.58101 
L 680.049526 406.583355 
L 680.934619 414.623452 
L 681.813082 413.07961 
L 682.685013 411.973055 
L 683.550509 405.527083 
L 684.409665 411.802546 
L 685.262572 415.664892 
L 686.109321 414.035662 
L 686.95 424.501445 
L 686.95 424.501445 
" style="fill:none;stroke:#1b9e77;stroke-dasharray:12,4;stroke-dashoffset:0;stroke-width:2;"/>
   </g>
   <g id="line2d_23">
    <path clip-path="url(#p73ffdce5ca)" d="M -1 267.613021 
L 107.422759 267.543908 
L 188.711052 287.133846 
L 236.261654 314.834131 
L 269.999344 231.419766 
L 296.168329 332.354554 
L 317.549946 348.511056 
L 335.627846 350.436402 
L 351.287636 94.977657 
L 365.100549 346.087428 
L 377.456621 361.927598 
L 388.634047 355.899653 
L 398.838238 349.111221 
L 416.916139 370.270544 
L 425.007223 365.19174 
L 432.575928 323.095618 
L 439.685633 362.517273 
L 446.388841 379.851884 
L 452.729532 373.398383 
L 458.744913 372.4704 
L 464.466741 385.462616 
L 469.92234 381.248266 
L 475.135385 391.170862 
L 480.126531 369.083084 
L 484.913898 396.320932 
L 489.513476 385.695067 
L 493.939444 395.877263 
L 498.204431 366.277938 
L 502.319738 390.496125 
L 506.295516 391.253529 
L 510.140916 398.317316 
L 513.86422 379.743386 
L 517.472942 388.030871 
L 520.973925 395.645978 
L 524.373416 396.485154 
L 527.677133 385.804545 
L 530.890326 398.311515 
L 534.017824 399.031286 
L 537.064079 405.435117 
L 540.033205 383.254823 
L 542.929012 399.037183 
L 545.755033 398.488827 
L 548.514554 390.67063 
L 551.210632 394.184797 
L 553.846118 394.808254 
L 556.423677 401.236142 
L 558.945801 398.788677 
L 561.414823 379.845162 
L 563.832933 405.649856 
L 566.20219 406.440205 
L 568.524528 399.674037 
L 570.801769 404.403116 
L 573.035631 405.231217 
L 575.227736 404.940254 
L 577.379617 404.194593 
L 579.492723 390.825497 
L 581.568427 405.195353 
L 583.60803 402.508948 
L 585.612766 405.913747 
L 587.583808 400.079904 
L 589.522269 409.199131 
L 591.429209 403.114747 
L 593.305636 401.837038 
L 595.152512 389.056991 
L 596.970754 405.124496 
L 598.761234 407.204968 
L 600.52479 405.034023 
L 602.262217 411.55343 
L 603.97428 401.497313 
L 605.661708 406.458539 
L 607.3252 403.933053 
L 608.965425 404.22092 
L 610.583026 408.354744 
L 612.178619 408.174052 
L 613.752793 410.264099 
L 615.306116 402.932516 
L 616.839134 409.123755 
L 618.352371 407.856306 
L 619.84633 411.983325 
L 621.321497 404.862901 
L 622.778339 412.862363 
L 624.217304 409.093241 
L 625.638827 412.021578 
L 627.043325 402.611238 
L 628.431202 414.138423 
L 629.802846 410.028489 
L 631.158633 411.88899 
L 632.498924 408.039811 
L 633.82407 409.74804 
L 635.13441 410.929185 
L 636.430271 408.513109 
L 637.711969 406.910678 
L 638.979811 414.198581 
L 640.234093 415.973766 
L 641.475101 413.941579 
L 642.703115 400.218621 
L 643.918403 409.81328 
L 645.121226 410.41891 
L 646.311837 413.235002 
L 647.490482 411.981244 
L 648.6574 415.073987 
L 649.81282 414.627631 
L 650.956968 416.225275 
L 652.090061 407.466809 
L 653.212311 411.092458 
L 654.323923 412.859573 
L 655.425097 413.750712 
L 656.516028 410.487644 
L 657.596904 414.783077 
L 658.667909 414.058995 
L 659.729221 418.098508 
L 660.781015 401.035768 
L 661.823459 415.509695 
L 662.856719 415.76593 
L 663.880954 417.180653 
L 664.896322 411.407391 
L 665.902974 416.925594 
L 666.901058 413.528384 
L 667.89072 417.645072 
L 668.8721 411.627089 
L 669.845335 415.97594 
L 670.810561 413.473353 
L 671.767907 414.391099 
L 672.717501 414.792833 
L 673.659467 415.348188 
L 674.593928 413.324889 
L 675.521002 414.621698 
L 676.440804 411.5678 
L 677.353449 415.881924 
L 678.259046 413.854632 
L 679.157703 414.148683 
L 680.049526 408.375554 
L 680.934619 416.889487 
L 681.813082 418.51268 
L 682.685013 415.701108 
L 683.550509 411.449608 
L 684.409665 417.862576 
L 685.262572 410.282204 
L 686.109321 414.930216 
L 686.95 425.784122 
L 686.95 425.784122 
" style="fill:none;stroke:#8b4513;stroke-dasharray:4,4,20,4;stroke-dashoffset:0;stroke-width:2;"/>
   </g>
   <g id="line2d_24">
    <path clip-path="url(#p73ffdce5ca)" d="M -1 255.161674 
L 180.619967 255.037502 
L 261.908259 283.94647 
L 309.458861 320.041259 
L 343.196551 326.226172 
L 369.365536 347.599706 
L 390.747154 351.154232 
L 408.825054 354.87542 
L 424.484843 364.14435 
L 438.297756 365.86036 
L 450.653828 369.744566 
L 461.831255 369.531992 
L 472.035446 375.474175 
L 481.422391 372.363988 
L 490.113346 374.267759 
L 498.204431 373.207557 
L 505.773135 377.785513 
L 512.88284 371.561253 
L 519.586048 368.055252 
L 525.926739 374.014842 
L 531.94212 376.591135 
L 537.663948 379.846216 
L 543.119547 379.324128 
L 548.332592 377.165706 
L 553.323738 377.230948 
L 558.111105 381.170052 
L 562.710684 378.968895 
L 567.136651 380.382745 
L 571.401638 385.063436 
L 575.516945 385.987443 
L 579.492723 384.120409 
L 583.338124 377.842527 
L 587.061427 381.346316 
L 590.670149 387.934587 
L 594.171132 388.411462 
L 597.570623 391.090492 
L 600.87434 398.013275 
L 604.087534 397.123941 
L 607.215031 392.89921 
L 610.261286 398.962243 
L 613.230412 398.734911 
L 616.126219 390.9023 
L 618.952241 400.466717 
L 621.711761 400.78779 
L 624.407839 402.001304 
L 627.043325 401.135236 
L 629.620885 390.291644 
L 632.143008 397.184516 
L 634.61203 402.361892 
L 637.030141 400.512174 
L 639.399397 404.54528 
L 641.721735 404.807872 
L 643.998976 398.689565 
L 646.232838 403.478064 
L 648.424943 400.103523 
L 650.576824 403.157373 
L 652.68993 405.146687 
L 654.765634 399.833707 
L 656.805237 402.069346 
L 658.809973 402.09709 
L 660.781015 410.823496 
L 662.719476 405.384405 
L 664.626416 401.79285 
L 666.502843 407.895436 
L 668.349719 410.475661 
L 670.167961 404.122404 
L 671.958442 408.059588 
L 673.721997 409.275505 
L 675.459424 409.034605 
L 677.171487 407.400011 
L 678.858915 407.359528 
L 680.522407 407.544017 
L 682.162633 409.799844 
L 683.780234 408.195359 
L 685.375826 410.13155 
L 686.95 425.851043 
" style="fill:none;stroke:#7570b3;stroke-dasharray:2,2;stroke-dashoffset:0;stroke-width:2;"/>
   </g>
   <g id="line2d_25"/>
   <g id="line2d_26"/>
   <g id="line2d_27"/>
   <g id="patch_3">
    <path d="M 39.425 439.2 
L 39.425 10.8 
" style="fill:none;stroke:#000000;stroke-linecap:square;stroke-linejoin:miter;stroke-width:0.8;"/>
   </g>
   <g id="patch_4">
    <path d="M 39.425 439.2 
L 686.95 439.2 
" style="fill:none;stroke:#000000;stroke-linecap:square;stroke-linejoin:miter;stroke-width:0.8;"/>
   </g>
   <g id="legend_1">
    <g id="patch_5">
     <path d="M 543.46875 114.86875 
L 672.95 114.86875 
Q 676.95 114.86875 676.95 110.86875 
L 676.95 24.8 
Q 676.95 20.8 672.95 20.8 
L 543.46875 20.8 
Q 539.46875 20.8 539.46875 24.8 
L 539.46875 110.86875 
Q 539.46875 114.86875 543.46875 114.86875 
z
" style="fill:#ffffff;opacity:0.8;stroke:#cccccc;stroke-linejoin:miter;"/>
    </g>
    <g id="line2d_28">
     <path d="M 547.46875 36.996875 
L 587.46875 36.996875 
" style="fill:none;stroke:#1b9e77;stroke-dasharray:9,3;stroke-dashoffset:0;stroke-width:1.5;"/>
    </g>
    <g id="line2d_29"/>
    <g id="text_9">
     <!-- Stroop -->
     <g transform="translate(603.46875 43.996875)scale(0.2 -0.2)">
      <use xlink:href="#DejaVuSans-83"/>
      <use x="63.476562" xlink:href="#DejaVuSans-116"/>
      <use x="102.685547" xlink:href="#DejaVuSans-114"/>
      <use x="141.548828" xlink:href="#DejaVuSans-111"/>
      <use x="202.730469" xlink:href="#DejaVuSans-111"/>
      <use x="263.912109" xlink:href="#DejaVuSans-112"/>
     </g>
    </g>
    <g id="line2d_30">
     <path d="M 547.46875 66.353125 
L 587.46875 66.353125 
" style="fill:none;stroke:#8b4513;stroke-dasharray:3,3,15,3;stroke-dashoffset:0;stroke-width:1.5;"/>
    </g>
    <g id="line2d_31"/>
    <g id="text_10">
     <!-- MSIT -->
     <g transform="translate(603.46875 73.353125)scale(0.2 -0.2)">
      <defs>
       <path d="M 9.8125 72.90625 
L 24.515625 72.90625 
L 43.109375 23.296875 
L 61.8125 72.90625 
L 76.515625 72.90625 
L 76.515625 0 
L 66.890625 0 
L 66.890625 64.015625 
L 48.09375 14.015625 
L 38.1875 14.015625 
L 19.390625 64.015625 
L 19.390625 0 
L 9.8125 0 
z
" id="DejaVuSans-77"/>
       <path d="M 9.8125 72.90625 
L 19.671875 72.90625 
L 19.671875 0 
L 9.8125 0 
z
" id="DejaVuSans-73"/>
       <path d="M -0.296875 72.90625 
L 61.375 72.90625 
L 61.375 64.59375 
L 35.5 64.59375 
L 35.5 0 
L 25.59375 0 
L 25.59375 64.59375 
L -0.296875 64.59375 
z
" id="DejaVuSans-84"/>
      </defs>
      <use xlink:href="#DejaVuSans-77"/>
      <use x="86.279297" xlink:href="#DejaVuSans-83"/>
      <use x="149.755859" xlink:href="#DejaVuSans-73"/>
      <use x="179.248047" xlink:href="#DejaVuSans-84"/>
     </g>
    </g>
    <g id="line2d_32">
     <path d="M 547.46875 95.709375 
L 587.46875 95.709375 
" style="fill:none;stroke:#7570b3;stroke-dasharray:1.5,1.5;stroke-dashoffset:0;stroke-width:1.5;"/>
    </g>
    <g id="line2d_33"/>
    <g id="text_11">
     <!-- Rest -->
     <g transform="translate(603.46875 102.709375)scale(0.2 -0.2)">
      <defs>
       <path d="M 44.390625 34.1875 
Q 47.5625 33.109375 50.5625 29.59375 
Q 53.5625 26.078125 56.59375 19.921875 
L 66.609375 0 
L 56 0 
L 46.6875 18.703125 
Q 43.0625 26.03125 39.671875 28.421875 
Q 36.28125 30.8125 30.421875 30.8125 
L 19.671875 30.8125 
L 19.671875 0 
L 9.8125 0 
L 9.8125 72.90625 
L 32.078125 72.90625 
Q 44.578125 72.90625 50.734375 67.671875 
Q 56.890625 62.453125 56.890625 51.90625 
Q 56.890625 45.015625 53.6875 40.46875 
Q 50.484375 35.9375 44.390625 34.1875 
z
M 19.671875 64.796875 
L 19.671875 38.921875 
L 32.078125 38.921875 
Q 39.203125 38.921875 42.84375 42.21875 
Q 46.484375 45.515625 46.484375 51.90625 
Q 46.484375 58.296875 42.84375 61.546875 
Q 39.203125 64.796875 32.078125 64.796875 
z
" id="DejaVuSans-82"/>
       <path d="M 44.28125 53.078125 
L 44.28125 44.578125 
Q 40.484375 46.53125 36.375 47.5 
Q 32.28125 48.484375 27.875 48.484375 
Q 21.1875 48.484375 17.84375 46.4375 
Q 14.5 44.390625 14.5 40.28125 
Q 14.5 37.15625 16.890625 35.375 
Q 19.28125 33.59375 26.515625 31.984375 
L 29.59375 31.296875 
Q 39.15625 29.25 43.1875 25.515625 
Q 47.21875 21.78125 47.21875 15.09375 
Q 47.21875 7.46875 41.1875 3.015625 
Q 35.15625 -1.421875 24.609375 -1.421875 
Q 20.21875 -1.421875 15.453125 -0.5625 
Q 10.6875 0.296875 5.421875 2 
L 5.421875 11.28125 
Q 10.40625 8.6875 15.234375 7.390625 
Q 20.0625 6.109375 24.8125 6.109375 
Q 31.15625 6.109375 34.5625 8.28125 
Q 37.984375 10.453125 37.984375 14.40625 
Q 37.984375 18.0625 35.515625 20.015625 
Q 33.0625 21.96875 24.703125 23.78125 
L 21.578125 24.515625 
Q 13.234375 26.265625 9.515625 29.90625 
Q 5.8125 33.546875 5.8125 39.890625 
Q 5.8125 47.609375 11.28125 51.796875 
Q 16.75 56 26.8125 56 
Q 31.78125 56 36.171875 55.265625 
Q 40.578125 54.546875 44.28125 53.078125 
z
" id="DejaVuSans-115"/>
      </defs>
      <use xlink:href="#DejaVuSans-82"/>
      <use x="64.982422" xlink:href="#DejaVuSans-101"/>
      <use x="126.505859" xlink:href="#DejaVuSans-115"/>
      <use x="178.605469" xlink:href="#DejaVuSans-116"/>
     </g>
    </g>
   </g>
  </g>
 </g>
 <defs>
  <clipPath id="p73ffdce5ca">
   <rect height="428.4" width="647.525" x="39.425" y="10.8"/>
  </clipPath>
 </defs>
</svg>
