<?xml version="1.0" encoding="utf-8" standalone="no"?>
<!DOCTYPE svg PUBLIC "-//W3C//DTD SVG 1.1//EN"
  "http://www.w3.org/Graphics/SVG/1.1/DTD/svg11.dtd">
<svg height="504pt" version="1.1" viewBox="0 0 720 504" width="720pt" xmlns="http://www.w3.org/2000/svg" xmlns:xlink="http://www.w3.org/1999/xlink">
 <metadata>
  <rdf:RDF xmlns:cc="http://creativecommons.org/ns#" xmlns:dc="http://purl.org/dc/elements/1.1/" xmlns:rdf="http://www.w3.org/1999/02/22-rdf-syntax-ns#">
   <cc:Work>
    <dc:type rdf:resource="http://purl.org/dc/dcmitype/StillImage"/>
    <dc:date>2022-02-07T15:52:28.904022</dc:date>
    <dc:format>image/svg+xml</dc:format>
    <dc:creator>
     <cc:Agent>
      <dc:title>Matplotlib v3.4.2, https://matplotlib.org/</dc:title>
     </cc:Agent>
    </dc:creator>
   </cc:Work>
  </rdf:RDF>
 </metadata>
 <defs>
  <style type="text/css">*{stroke-linecap:butt;stroke-linejoin:round;}</style>
 </defs>
 <g id="figure_1">
  <g id="patch_1">
   <path d="M 0 504 
L 720 504 
L 720 0 
L 0 0 
z
" style="fill:none;"/>
  </g>
  <g id="axes_1">
   <g id="patch_2">
    <path d="M 90 441 
L 648 441 
L 648 60.48 
L 90 60.48 
z
" style="fill:#ffffff;"/>
   </g>
   <g id="PolyCollection_1">
    <defs>
     <path d="M 369.004984 -80.296364 
L 368.995016 -80.296364 
L 368.986945 -83.790579 
L 368.973512 -87.284793 
L 368.957402 -90.779008 
L 368.943685 -94.273223 
L 368.935086 -97.767438 
L 368.92818 -101.261653 
L 368.914498 -104.755868 
L 368.887633 -108.250083 
L 368.85144 -111.744298 
L 368.817565 -115.238512 
L 368.790135 -118.732727 
L 368.755083 -122.226942 
L 368.689698 -125.721157 
L 368.581369 -129.215372 
L 368.430623 -132.709587 
L 368.238489 -136.203802 
L 368.001853 -139.698017 
L 367.719233 -143.192231 
L 367.391818 -146.686446 
L 367.024951 -150.180661 
L 366.632929 -153.674876 
L 366.230061 -157.169091 
L 365.818418 -160.663306 
L 365.399525 -164.157521 
L 364.984014 -167.651736 
L 364.557366 -171.14595 
L 364.044601 -174.640165 
L 363.349723 -178.13438 
L 362.43077 -181.628595 
L 361.306814 -185.12281 
L 360.008472 -188.617025 
L 358.562642 -192.11124 
L 357.012547 -195.605455 
L 355.400355 -199.099669 
L 353.712123 -202.593884 
L 351.863139 -206.088099 
L 349.740897 -209.582314 
L 347.258762 -213.076529 
L 344.421282 -216.570744 
L 341.375757 -220.064959 
L 338.357637 -223.559174 
L 335.566421 -227.053388 
L 333.11115 -230.547603 
L 331.007609 -234.041818 
L 329.11971 -237.536033 
L 327.152442 -241.030248 
L 324.889935 -244.524463 
L 322.478233 -248.018678 
L 320.328974 -251.512893 
L 318.717938 -255.007107 
L 317.574112 -258.501322 
L 316.621585 -261.995537 
L 315.623134 -265.489752 
L 314.549685 -268.983967 
L 313.628601 -272.478182 
L 313.2 -275.972397 
L 313.467499 -279.466612 
L 314.39252 -282.960826 
L 315.798373 -286.455041 
L 317.529966 -289.949256 
L 319.527937 -293.443471 
L 321.784451 -296.937686 
L 324.287289 -300.431901 
L 327.044201 -303.926116 
L 330.076704 -307.420331 
L 333.331407 -310.914545 
L 336.675716 -314.40876 
L 339.984227 -317.902975 
L 343.152888 -321.39719 
L 346.106464 -324.891405 
L 348.87767 -328.38562 
L 351.561859 -331.879835 
L 354.145281 -335.37405 
L 356.511384 -338.868264 
L 358.603522 -342.362479 
L 360.442355 -345.856694 
L 362.022657 -349.350909 
L 363.317592 -352.845124 
L 364.362202 -356.339339 
L 365.244138 -359.833554 
L 366.016889 -363.327769 
L 366.678373 -366.821983 
L 367.22537 -370.316198 
L 367.673741 -373.810413 
L 368.02832 -377.304628 
L 368.282205 -380.798843 
L 368.449733 -384.293058 
L 368.569777 -387.787273 
L 368.673885 -391.281488 
L 368.766022 -394.775702 
L 368.83454 -398.269917 
L 368.875188 -401.764132 
L 368.897684 -405.258347 
L 368.914813 -408.752562 
L 368.933147 -412.246777 
L 368.953217 -415.740992 
L 368.972243 -419.235207 
L 368.98665 -422.729421 
L 368.994963 -426.223636 
L 369.005037 -426.223636 
L 369.005037 -426.223636 
L 369.01335 -422.729421 
L 369.027757 -419.235207 
L 369.046783 -415.740992 
L 369.066853 -412.246777 
L 369.085187 -408.752562 
L 369.102316 -405.258347 
L 369.124812 -401.764132 
L 369.16546 -398.269917 
L 369.233978 -394.775702 
L 369.326115 -391.281488 
L 369.430223 -387.787273 
L 369.550267 -384.293058 
L 369.717795 -380.798843 
L 369.97168 -377.304628 
L 370.326259 -373.810413 
L 370.77463 -370.316198 
L 371.321627 -366.821983 
L 371.983111 -363.327769 
L 372.755862 -359.833554 
L 373.637798 -356.339339 
L 374.682408 -352.845124 
L 375.977343 -349.350909 
L 377.557645 -345.856694 
L 379.396478 -342.362479 
L 381.488616 -338.868264 
L 383.854719 -335.37405 
L 386.438141 -331.879835 
L 389.12233 -328.38562 
L 391.893536 -324.891405 
L 394.847112 -321.39719 
L 398.015773 -317.902975 
L 401.324284 -314.40876 
L 404.668593 -310.914545 
L 407.923296 -307.420331 
L 410.955799 -303.926116 
L 413.712711 -300.431901 
L 416.215549 -296.937686 
L 418.472063 -293.443471 
L 420.470034 -289.949256 
L 422.201627 -286.455041 
L 423.60748 -282.960826 
L 424.532501 -279.466612 
L 424.8 -275.972397 
L 424.371399 -272.478182 
L 423.450315 -268.983967 
L 422.376866 -265.489752 
L 421.378415 -261.995537 
L 420.425888 -258.501322 
L 419.282062 -255.007107 
L 417.671026 -251.512893 
L 415.521767 -248.018678 
L 413.110065 -244.524463 
L 410.847558 -241.030248 
L 408.88029 -237.536033 
L 406.992391 -234.041818 
L 404.88885 -230.547603 
L 402.433579 -227.053388 
L 399.642363 -223.559174 
L 396.624243 -220.064959 
L 393.578718 -216.570744 
L 390.741238 -213.076529 
L 388.259103 -209.582314 
L 386.136861 -206.088099 
L 384.287877 -202.593884 
L 382.599645 -199.099669 
L 380.987453 -195.605455 
L 379.437358 -192.11124 
L 377.991528 -188.617025 
L 376.693186 -185.12281 
L 375.56923 -181.628595 
L 374.650277 -178.13438 
L 373.955399 -174.640165 
L 373.442634 -171.14595 
L 373.015986 -167.651736 
L 372.600475 -164.157521 
L 372.181582 -160.663306 
L 371.769939 -157.169091 
L 371.367071 -153.674876 
L 370.975049 -150.180661 
L 370.608182 -146.686446 
L 370.280767 -143.192231 
L 369.998147 -139.698017 
L 369.761511 -136.203802 
L 369.569377 -132.709587 
L 369.418631 -129.215372 
L 369.310302 -125.721157 
L 369.244917 -122.226942 
L 369.209865 -118.732727 
L 369.182435 -115.238512 
L 369.14856 -111.744298 
L 369.112367 -108.250083 
L 369.085502 -104.755868 
L 369.07182 -101.261653 
L 369.064914 -97.767438 
L 369.056315 -94.273223 
L 369.042598 -90.779008 
L 369.026488 -87.284793 
L 369.013055 -83.790579 
L 369.004984 -80.296364 
z
" id="mc64611d1d9"/>
    </defs>
    <g clip-path="url(#p8416f3caa2)">
     <use style="fill:#808080;fill-opacity:0.5;" x="0" xlink:href="#mc64611d1d9" y="504"/>
    </g>
   </g>
   <g id="PathCollection_1">
    <defs>
     <path d="M -5 5 
L 5 -5 
M -5 -5 
L 5 5 
" id="m95e1e88130" style="stroke:#ff0000;stroke-width:1.5;"/>
    </defs>
    <g clip-path="url(#p8416f3caa2)">
     <use style="fill:#ff0000;stroke:#ff0000;stroke-width:1.5;" x="341.1" xlink:href="#m95e1e88130" y="233.389284"/>
    </g>
   </g>
   <g id="matplotlib.axis_1"/>
   <g id="matplotlib.axis_2">
    <g id="ytick_1">
     <g id="line2d_1">
      <defs>
       <path d="M 0 0 
L -3.5 0 
" id="m011cf786b4" style="stroke:#000000;stroke-width:0.8;"/>
      </defs>
      <g>
       <use style="stroke:#000000;stroke-width:0.8;" x="90" xlink:href="#m011cf786b4" y="390.137882"/>
      </g>
     </g>
     <g id="text_1">
      <!-- 0.50 -->
      <g transform="translate(44.078125 397.295695)scale(0.2 -0.2)">
       <defs>
        <path d="M 266 2259 
Q 266 3072 433 3567 
Q 600 4063 929 4331 
Q 1259 4600 1759 4600 
Q 2128 4600 2406 4451 
Q 2684 4303 2865 4023 
Q 3047 3744 3150 3342 
Q 3253 2941 3253 2259 
Q 3253 1453 3087 958 
Q 2922 463 2592 192 
Q 2263 -78 1759 -78 
Q 1097 -78 719 397 
Q 266 969 266 2259 
z
M 844 2259 
Q 844 1131 1108 757 
Q 1372 384 1759 384 
Q 2147 384 2411 759 
Q 2675 1134 2675 2259 
Q 2675 3391 2411 3762 
Q 2147 4134 1753 4134 
Q 1366 4134 1134 3806 
Q 844 3388 844 2259 
z
" id="ArialMT-30" transform="scale(0.015625)"/>
        <path d="M 581 0 
L 581 641 
L 1222 641 
L 1222 0 
L 581 0 
z
" id="ArialMT-2e" transform="scale(0.015625)"/>
        <path d="M 266 1200 
L 856 1250 
Q 922 819 1161 601 
Q 1400 384 1738 384 
Q 2144 384 2425 690 
Q 2706 997 2706 1503 
Q 2706 1984 2436 2262 
Q 2166 2541 1728 2541 
Q 1456 2541 1237 2417 
Q 1019 2294 894 2097 
L 366 2166 
L 809 4519 
L 3088 4519 
L 3088 3981 
L 1259 3981 
L 1013 2750 
Q 1425 3038 1878 3038 
Q 2478 3038 2890 2622 
Q 3303 2206 3303 1553 
Q 3303 931 2941 478 
Q 2500 -78 1738 -78 
Q 1113 -78 717 272 
Q 322 622 266 1200 
z
" id="ArialMT-35" transform="scale(0.015625)"/>
       </defs>
       <use xlink:href="#ArialMT-30"/>
       <use x="55.615234" xlink:href="#ArialMT-2e"/>
       <use x="83.398438" xlink:href="#ArialMT-35"/>
       <use x="139.013672" xlink:href="#ArialMT-30"/>
      </g>
     </g>
    </g>
    <g id="ytick_2">
     <g id="line2d_2">
      <g>
       <use style="stroke:#000000;stroke-width:0.8;" x="90" xlink:href="#m011cf786b4" y="337.757277"/>
      </g>
     </g>
     <g id="text_2">
      <!-- 0.55 -->
      <g transform="translate(44.078125 344.91509)scale(0.2 -0.2)">
       <use xlink:href="#ArialMT-30"/>
       <use x="55.615234" xlink:href="#ArialMT-2e"/>
       <use x="83.398438" xlink:href="#ArialMT-35"/>
       <use x="139.013672" xlink:href="#ArialMT-35"/>
      </g>
     </g>
    </g>
    <g id="ytick_3">
     <g id="line2d_3">
      <g>
       <use style="stroke:#000000;stroke-width:0.8;" x="90" xlink:href="#m011cf786b4" y="285.376672"/>
      </g>
     </g>
     <g id="text_3">
      <!-- 0.60 -->
      <g transform="translate(44.078125 292.534485)scale(0.2 -0.2)">
       <defs>
        <path d="M 3184 3459 
L 2625 3416 
Q 2550 3747 2413 3897 
Q 2184 4138 1850 4138 
Q 1581 4138 1378 3988 
Q 1113 3794 959 3422 
Q 806 3050 800 2363 
Q 1003 2672 1297 2822 
Q 1591 2972 1913 2972 
Q 2475 2972 2870 2558 
Q 3266 2144 3266 1488 
Q 3266 1056 3080 686 
Q 2894 316 2569 119 
Q 2244 -78 1831 -78 
Q 1128 -78 684 439 
Q 241 956 241 2144 
Q 241 3472 731 4075 
Q 1159 4600 1884 4600 
Q 2425 4600 2770 4297 
Q 3116 3994 3184 3459 
z
M 888 1484 
Q 888 1194 1011 928 
Q 1134 663 1356 523 
Q 1578 384 1822 384 
Q 2178 384 2434 671 
Q 2691 959 2691 1453 
Q 2691 1928 2437 2201 
Q 2184 2475 1800 2475 
Q 1419 2475 1153 2201 
Q 888 1928 888 1484 
z
" id="ArialMT-36" transform="scale(0.015625)"/>
       </defs>
       <use xlink:href="#ArialMT-30"/>
       <use x="55.615234" xlink:href="#ArialMT-2e"/>
       <use x="83.398438" xlink:href="#ArialMT-36"/>
       <use x="139.013672" xlink:href="#ArialMT-30"/>
      </g>
     </g>
    </g>
    <g id="ytick_4">
     <g id="line2d_4">
      <g>
       <use style="stroke:#000000;stroke-width:0.8;" x="90" xlink:href="#m011cf786b4" y="232.996068"/>
      </g>
     </g>
     <g id="text_4">
      <!-- 0.65 -->
      <g transform="translate(44.078125 240.15388)scale(0.2 -0.2)">
       <use xlink:href="#ArialMT-30"/>
       <use x="55.615234" xlink:href="#ArialMT-2e"/>
       <use x="83.398438" xlink:href="#ArialMT-36"/>
       <use x="139.013672" xlink:href="#ArialMT-35"/>
      </g>
     </g>
    </g>
    <g id="ytick_5">
     <g id="line2d_5">
      <g>
       <use style="stroke:#000000;stroke-width:0.8;" x="90" xlink:href="#m011cf786b4" y="180.615463"/>
      </g>
     </g>
     <g id="text_5">
      <!-- 0.70 -->
      <g transform="translate(44.078125 187.773275)scale(0.2 -0.2)">
       <defs>
        <path d="M 303 3981 
L 303 4522 
L 3269 4522 
L 3269 4084 
Q 2831 3619 2401 2847 
Q 1972 2075 1738 1259 
Q 1569 684 1522 0 
L 944 0 
Q 953 541 1156 1306 
Q 1359 2072 1739 2783 
Q 2119 3494 2547 3981 
L 303 3981 
z
" id="ArialMT-37" transform="scale(0.015625)"/>
       </defs>
       <use xlink:href="#ArialMT-30"/>
       <use x="55.615234" xlink:href="#ArialMT-2e"/>
       <use x="83.398438" xlink:href="#ArialMT-37"/>
       <use x="139.013672" xlink:href="#ArialMT-30"/>
      </g>
     </g>
    </g>
    <g id="ytick_6">
     <g id="line2d_6">
      <g>
       <use style="stroke:#000000;stroke-width:0.8;" x="90" xlink:href="#m011cf786b4" y="128.234858"/>
      </g>
     </g>
     <g id="text_6">
      <!-- 0.75 -->
      <g transform="translate(44.078125 135.39267)scale(0.2 -0.2)">
       <use xlink:href="#ArialMT-30"/>
       <use x="55.615234" xlink:href="#ArialMT-2e"/>
       <use x="83.398438" xlink:href="#ArialMT-37"/>
       <use x="139.013672" xlink:href="#ArialMT-35"/>
      </g>
     </g>
    </g>
    <g id="ytick_7">
     <g id="line2d_7">
      <g>
       <use style="stroke:#000000;stroke-width:0.8;" x="90" xlink:href="#m011cf786b4" y="75.854253"/>
      </g>
     </g>
     <g id="text_7">
      <!-- 0.80 -->
      <g transform="translate(44.078125 83.012065)scale(0.2 -0.2)">
       <defs>
        <path d="M 1131 2484 
Q 781 2613 612 2850 
Q 444 3088 444 3419 
Q 444 3919 803 4259 
Q 1163 4600 1759 4600 
Q 2359 4600 2725 4251 
Q 3091 3903 3091 3403 
Q 3091 3084 2923 2848 
Q 2756 2613 2416 2484 
Q 2838 2347 3058 2040 
Q 3278 1734 3278 1309 
Q 3278 722 2862 322 
Q 2447 -78 1769 -78 
Q 1091 -78 675 323 
Q 259 725 259 1325 
Q 259 1772 486 2073 
Q 713 2375 1131 2484 
z
M 1019 3438 
Q 1019 3113 1228 2906 
Q 1438 2700 1772 2700 
Q 2097 2700 2305 2904 
Q 2513 3109 2513 3406 
Q 2513 3716 2298 3927 
Q 2084 4138 1766 4138 
Q 1444 4138 1231 3931 
Q 1019 3725 1019 3438 
z
M 838 1322 
Q 838 1081 952 856 
Q 1066 631 1291 507 
Q 1516 384 1775 384 
Q 2178 384 2440 643 
Q 2703 903 2703 1303 
Q 2703 1709 2433 1975 
Q 2163 2241 1756 2241 
Q 1359 2241 1098 1978 
Q 838 1716 838 1322 
z
" id="ArialMT-38" transform="scale(0.015625)"/>
       </defs>
       <use xlink:href="#ArialMT-30"/>
       <use x="55.615234" xlink:href="#ArialMT-2e"/>
       <use x="83.398438" xlink:href="#ArialMT-38"/>
       <use x="139.013672" xlink:href="#ArialMT-30"/>
      </g>
     </g>
    </g>
    <g id="text_8">
     <!-- Spearman correlation -->
     <g transform="translate(35.109375 370.238047)rotate(-90)scale(0.25 -0.25)">
      <defs>
       <path d="M 288 1472 
L 859 1522 
Q 900 1178 1048 958 
Q 1197 738 1509 602 
Q 1822 466 2213 466 
Q 2559 466 2825 569 
Q 3091 672 3220 851 
Q 3350 1031 3350 1244 
Q 3350 1459 3225 1620 
Q 3100 1781 2813 1891 
Q 2628 1963 1997 2114 
Q 1366 2266 1113 2400 
Q 784 2572 623 2826 
Q 463 3081 463 3397 
Q 463 3744 659 4045 
Q 856 4347 1234 4503 
Q 1613 4659 2075 4659 
Q 2584 4659 2973 4495 
Q 3363 4331 3572 4012 
Q 3781 3694 3797 3291 
L 3216 3247 
Q 3169 3681 2898 3903 
Q 2628 4125 2100 4125 
Q 1550 4125 1298 3923 
Q 1047 3722 1047 3438 
Q 1047 3191 1225 3031 
Q 1400 2872 2139 2705 
Q 2878 2538 3153 2413 
Q 3553 2228 3743 1945 
Q 3934 1663 3934 1294 
Q 3934 928 3725 604 
Q 3516 281 3123 101 
Q 2731 -78 2241 -78 
Q 1619 -78 1198 103 
Q 778 284 539 648 
Q 300 1013 288 1472 
z
" id="ArialMT-53" transform="scale(0.015625)"/>
       <path d="M 422 -1272 
L 422 3319 
L 934 3319 
L 934 2888 
Q 1116 3141 1344 3267 
Q 1572 3394 1897 3394 
Q 2322 3394 2647 3175 
Q 2972 2956 3137 2557 
Q 3303 2159 3303 1684 
Q 3303 1175 3120 767 
Q 2938 359 2589 142 
Q 2241 -75 1856 -75 
Q 1575 -75 1351 44 
Q 1128 163 984 344 
L 984 -1272 
L 422 -1272 
z
M 931 1641 
Q 931 1000 1190 694 
Q 1450 388 1819 388 
Q 2194 388 2461 705 
Q 2728 1022 2728 1688 
Q 2728 2322 2467 2637 
Q 2206 2953 1844 2953 
Q 1484 2953 1207 2617 
Q 931 2281 931 1641 
z
" id="ArialMT-70" transform="scale(0.015625)"/>
       <path d="M 2694 1069 
L 3275 997 
Q 3138 488 2766 206 
Q 2394 -75 1816 -75 
Q 1088 -75 661 373 
Q 234 822 234 1631 
Q 234 2469 665 2931 
Q 1097 3394 1784 3394 
Q 2450 3394 2872 2941 
Q 3294 2488 3294 1666 
Q 3294 1616 3291 1516 
L 816 1516 
Q 847 969 1125 678 
Q 1403 388 1819 388 
Q 2128 388 2347 550 
Q 2566 713 2694 1069 
z
M 847 1978 
L 2700 1978 
Q 2663 2397 2488 2606 
Q 2219 2931 1791 2931 
Q 1403 2931 1139 2672 
Q 875 2413 847 1978 
z
" id="ArialMT-65" transform="scale(0.015625)"/>
       <path d="M 2588 409 
Q 2275 144 1986 34 
Q 1697 -75 1366 -75 
Q 819 -75 525 192 
Q 231 459 231 875 
Q 231 1119 342 1320 
Q 453 1522 633 1644 
Q 813 1766 1038 1828 
Q 1203 1872 1538 1913 
Q 2219 1994 2541 2106 
Q 2544 2222 2544 2253 
Q 2544 2597 2384 2738 
Q 2169 2928 1744 2928 
Q 1347 2928 1158 2789 
Q 969 2650 878 2297 
L 328 2372 
Q 403 2725 575 2942 
Q 747 3159 1072 3276 
Q 1397 3394 1825 3394 
Q 2250 3394 2515 3294 
Q 2781 3194 2906 3042 
Q 3031 2891 3081 2659 
Q 3109 2516 3109 2141 
L 3109 1391 
Q 3109 606 3145 398 
Q 3181 191 3288 0 
L 2700 0 
Q 2613 175 2588 409 
z
M 2541 1666 
Q 2234 1541 1622 1453 
Q 1275 1403 1131 1340 
Q 988 1278 909 1158 
Q 831 1038 831 891 
Q 831 666 1001 516 
Q 1172 366 1500 366 
Q 1825 366 2078 508 
Q 2331 650 2450 897 
Q 2541 1088 2541 1459 
L 2541 1666 
z
" id="ArialMT-61" transform="scale(0.015625)"/>
       <path d="M 416 0 
L 416 3319 
L 922 3319 
L 922 2816 
Q 1116 3169 1280 3281 
Q 1444 3394 1641 3394 
Q 1925 3394 2219 3213 
L 2025 2691 
Q 1819 2813 1613 2813 
Q 1428 2813 1281 2702 
Q 1134 2591 1072 2394 
Q 978 2094 978 1738 
L 978 0 
L 416 0 
z
" id="ArialMT-72" transform="scale(0.015625)"/>
       <path d="M 422 0 
L 422 3319 
L 925 3319 
L 925 2853 
Q 1081 3097 1340 3245 
Q 1600 3394 1931 3394 
Q 2300 3394 2536 3241 
Q 2772 3088 2869 2813 
Q 3263 3394 3894 3394 
Q 4388 3394 4653 3120 
Q 4919 2847 4919 2278 
L 4919 0 
L 4359 0 
L 4359 2091 
Q 4359 2428 4304 2576 
Q 4250 2725 4106 2815 
Q 3963 2906 3769 2906 
Q 3419 2906 3187 2673 
Q 2956 2441 2956 1928 
L 2956 0 
L 2394 0 
L 2394 2156 
Q 2394 2531 2256 2718 
Q 2119 2906 1806 2906 
Q 1569 2906 1367 2781 
Q 1166 2656 1075 2415 
Q 984 2175 984 1722 
L 984 0 
L 422 0 
z
" id="ArialMT-6d" transform="scale(0.015625)"/>
       <path d="M 422 0 
L 422 3319 
L 928 3319 
L 928 2847 
Q 1294 3394 1984 3394 
Q 2284 3394 2536 3286 
Q 2788 3178 2913 3003 
Q 3038 2828 3088 2588 
Q 3119 2431 3119 2041 
L 3119 0 
L 2556 0 
L 2556 2019 
Q 2556 2363 2490 2533 
Q 2425 2703 2258 2804 
Q 2091 2906 1866 2906 
Q 1506 2906 1245 2678 
Q 984 2450 984 1813 
L 984 0 
L 422 0 
z
" id="ArialMT-6e" transform="scale(0.015625)"/>
       <path id="ArialMT-20" transform="scale(0.015625)"/>
       <path d="M 2588 1216 
L 3141 1144 
Q 3050 572 2676 248 
Q 2303 -75 1759 -75 
Q 1078 -75 664 370 
Q 250 816 250 1647 
Q 250 2184 428 2587 
Q 606 2991 970 3192 
Q 1334 3394 1763 3394 
Q 2303 3394 2647 3120 
Q 2991 2847 3088 2344 
L 2541 2259 
Q 2463 2594 2264 2762 
Q 2066 2931 1784 2931 
Q 1359 2931 1093 2626 
Q 828 2322 828 1663 
Q 828 994 1084 691 
Q 1341 388 1753 388 
Q 2084 388 2306 591 
Q 2528 794 2588 1216 
z
" id="ArialMT-63" transform="scale(0.015625)"/>
       <path d="M 213 1659 
Q 213 2581 725 3025 
Q 1153 3394 1769 3394 
Q 2453 3394 2887 2945 
Q 3322 2497 3322 1706 
Q 3322 1066 3130 698 
Q 2938 331 2570 128 
Q 2203 -75 1769 -75 
Q 1072 -75 642 372 
Q 213 819 213 1659 
z
M 791 1659 
Q 791 1022 1069 705 
Q 1347 388 1769 388 
Q 2188 388 2466 706 
Q 2744 1025 2744 1678 
Q 2744 2294 2464 2611 
Q 2184 2928 1769 2928 
Q 1347 2928 1069 2612 
Q 791 2297 791 1659 
z
" id="ArialMT-6f" transform="scale(0.015625)"/>
       <path d="M 409 0 
L 409 4581 
L 972 4581 
L 972 0 
L 409 0 
z
" id="ArialMT-6c" transform="scale(0.015625)"/>
       <path d="M 1650 503 
L 1731 6 
Q 1494 -44 1306 -44 
Q 1000 -44 831 53 
Q 663 150 594 308 
Q 525 466 525 972 
L 525 2881 
L 113 2881 
L 113 3319 
L 525 3319 
L 525 4141 
L 1084 4478 
L 1084 3319 
L 1650 3319 
L 1650 2881 
L 1084 2881 
L 1084 941 
Q 1084 700 1114 631 
Q 1144 563 1211 522 
Q 1278 481 1403 481 
Q 1497 481 1650 503 
z
" id="ArialMT-74" transform="scale(0.015625)"/>
       <path d="M 425 3934 
L 425 4581 
L 988 4581 
L 988 3934 
L 425 3934 
z
M 425 0 
L 425 3319 
L 988 3319 
L 988 0 
L 425 0 
z
" id="ArialMT-69" transform="scale(0.015625)"/>
      </defs>
      <use xlink:href="#ArialMT-53"/>
      <use x="66.699219" xlink:href="#ArialMT-70"/>
      <use x="122.314453" xlink:href="#ArialMT-65"/>
      <use x="177.929688" xlink:href="#ArialMT-61"/>
      <use x="233.544922" xlink:href="#ArialMT-72"/>
      <use x="266.845703" xlink:href="#ArialMT-6d"/>
      <use x="350.146484" xlink:href="#ArialMT-61"/>
      <use x="405.761719" xlink:href="#ArialMT-6e"/>
      <use x="461.376953" xlink:href="#ArialMT-20"/>
      <use x="489.160156" xlink:href="#ArialMT-63"/>
      <use x="539.160156" xlink:href="#ArialMT-6f"/>
      <use x="594.775391" xlink:href="#ArialMT-72"/>
      <use x="628.076172" xlink:href="#ArialMT-72"/>
      <use x="661.376953" xlink:href="#ArialMT-65"/>
      <use x="716.992188" xlink:href="#ArialMT-6c"/>
      <use x="739.208984" xlink:href="#ArialMT-61"/>
      <use x="794.824219" xlink:href="#ArialMT-74"/>
      <use x="822.607422" xlink:href="#ArialMT-69"/>
      <use x="844.824219" xlink:href="#ArialMT-6f"/>
      <use x="900.439453" xlink:href="#ArialMT-6e"/>
     </g>
    </g>
   </g>
   <g id="line2d_8">
    <path clip-path="url(#p8416f3caa2)" d="M 369 263.55981 
L 369 347.359791 
" style="fill:none;stroke:#000000;stroke-linecap:square;"/>
   </g>
   <g id="line2d_9">
    <path clip-path="url(#p8416f3caa2)" d="M 369 207.688584 
L 369 124.8552 
" style="fill:none;stroke:#000000;stroke-linecap:square;"/>
   </g>
   <g id="line2d_10">
    <path clip-path="url(#p8416f3caa2)" d="M 362.025 347.359791 
L 375.975 347.359791 
" style="fill:none;stroke:#000000;stroke-linecap:square;"/>
   </g>
   <g id="line2d_11">
    <path clip-path="url(#p8416f3caa2)" d="M 362.025 124.8552 
L 375.975 124.8552 
" style="fill:none;stroke:#000000;stroke-linecap:square;"/>
   </g>
   <g id="line2d_12"/>
   <g id="patch_3">
    <path clip-path="url(#p8416f3caa2)" d="M 355.05 263.55981 
L 382.95 263.55981 
L 382.95 207.688584 
L 355.05 207.688584 
L 355.05 263.55981 
z
" style="fill:#808080;stroke:#000000;stroke-linejoin:miter;"/>
   </g>
   <g id="line2d_13">
    <path clip-path="url(#p8416f3caa2)" d="M 355.05 234.175282 
L 382.95 234.175282 
" style="fill:none;stroke:#000000;stroke-linecap:square;"/>
   </g>
   <g id="patch_4">
    <path d="M 90 441 
L 90 60.48 
" style="fill:none;stroke:#000000;stroke-linecap:square;stroke-linejoin:miter;stroke-width:0.8;"/>
   </g>
   <g id="patch_5">
    <path d="M 90 441 
L 648 441 
" style="fill:none;stroke:#000000;stroke-linecap:square;stroke-linejoin:miter;stroke-width:0.8;"/>
   </g>
   <g id="legend_1">
    <g id="patch_6">
     <path d="M 511.985156 93.697969 
L 637.5 93.697969 
Q 640.5 93.697969 640.5 90.697969 
L 640.5 70.98 
Q 640.5 67.98 637.5 67.98 
L 511.985156 67.98 
Q 508.985156 67.98 508.985156 70.98 
L 508.985156 90.697969 
Q 508.985156 93.697969 511.985156 93.697969 
z
" style="fill:#ffffff;opacity:0.8;stroke:#000000;stroke-linejoin:miter;"/>
    </g>
    <g id="PathCollection_2">
     <g>
      <use style="fill:#ff0000;stroke:#ff0000;stroke-width:1.5;" x="529.985156" xlink:href="#m95e1e88130" y="80.779219"/>
     </g>
    </g>
    <g id="text_9">
     <!-- Full-sample -->
     <g transform="translate(556.985156 84.716719)scale(0.15 -0.15)">
      <defs>
       <path d="M 525 0 
L 525 4581 
L 3616 4581 
L 3616 4041 
L 1131 4041 
L 1131 2622 
L 3281 2622 
L 3281 2081 
L 1131 2081 
L 1131 0 
L 525 0 
z
" id="ArialMT-46" transform="scale(0.015625)"/>
       <path d="M 2597 0 
L 2597 488 
Q 2209 -75 1544 -75 
Q 1250 -75 995 37 
Q 741 150 617 320 
Q 494 491 444 738 
Q 409 903 409 1263 
L 409 3319 
L 972 3319 
L 972 1478 
Q 972 1038 1006 884 
Q 1059 663 1231 536 
Q 1403 409 1656 409 
Q 1909 409 2131 539 
Q 2353 669 2445 892 
Q 2538 1116 2538 1541 
L 2538 3319 
L 3100 3319 
L 3100 0 
L 2597 0 
z
" id="ArialMT-75" transform="scale(0.015625)"/>
       <path d="M 203 1375 
L 203 1941 
L 1931 1941 
L 1931 1375 
L 203 1375 
z
" id="ArialMT-2d" transform="scale(0.015625)"/>
       <path d="M 197 991 
L 753 1078 
Q 800 744 1014 566 
Q 1228 388 1613 388 
Q 2000 388 2187 545 
Q 2375 703 2375 916 
Q 2375 1106 2209 1216 
Q 2094 1291 1634 1406 
Q 1016 1563 777 1677 
Q 538 1791 414 1992 
Q 291 2194 291 2438 
Q 291 2659 392 2848 
Q 494 3038 669 3163 
Q 800 3259 1026 3326 
Q 1253 3394 1513 3394 
Q 1903 3394 2198 3281 
Q 2494 3169 2634 2976 
Q 2775 2784 2828 2463 
L 2278 2388 
Q 2241 2644 2061 2787 
Q 1881 2931 1553 2931 
Q 1166 2931 1000 2803 
Q 834 2675 834 2503 
Q 834 2394 903 2306 
Q 972 2216 1119 2156 
Q 1203 2125 1616 2013 
Q 2213 1853 2448 1751 
Q 2684 1650 2818 1456 
Q 2953 1263 2953 975 
Q 2953 694 2789 445 
Q 2625 197 2315 61 
Q 2006 -75 1616 -75 
Q 969 -75 630 194 
Q 291 463 197 991 
z
" id="ArialMT-73" transform="scale(0.015625)"/>
      </defs>
      <use xlink:href="#ArialMT-46"/>
      <use x="61.083984" xlink:href="#ArialMT-75"/>
      <use x="116.699219" xlink:href="#ArialMT-6c"/>
      <use x="138.916016" xlink:href="#ArialMT-6c"/>
      <use x="161.132812" xlink:href="#ArialMT-2d"/>
      <use x="194.433594" xlink:href="#ArialMT-73"/>
      <use x="244.433594" xlink:href="#ArialMT-61"/>
      <use x="300.048828" xlink:href="#ArialMT-6d"/>
      <use x="383.349609" xlink:href="#ArialMT-70"/>
      <use x="438.964844" xlink:href="#ArialMT-6c"/>
      <use x="461.181641" xlink:href="#ArialMT-65"/>
     </g>
    </g>
   </g>
  </g>
 </g>
 <defs>
  <clipPath id="p8416f3caa2">
   <rect height="380.52" width="558" x="90" y="60.48"/>
  </clipPath>
 </defs>
</svg>
