<?xml version="1.0" encoding="utf-8" standalone="no"?>
<!DOCTYPE svg PUBLIC "-//W3C//DTD SVG 1.1//EN"
  "http://www.w3.org/Graphics/SVG/1.1/DTD/svg11.dtd">
<!-- Created with matplotlib (https://matplotlib.org/) -->
<svg height="504pt" version="1.1" viewBox="0 0 1080 504" width="1080pt" xmlns="http://www.w3.org/2000/svg" xmlns:xlink="http://www.w3.org/1999/xlink">
 <metadata>
  <rdf:RDF xmlns:cc="http://creativecommons.org/ns#" xmlns:dc="http://purl.org/dc/elements/1.1/" xmlns:rdf="http://www.w3.org/1999/02/22-rdf-syntax-ns#">
   <cc:Work>
    <dc:type rdf:resource="http://purl.org/dc/dcmitype/StillImage"/>
    <dc:date>2021-05-13T19:26:57.728312</dc:date>
    <dc:format>image/svg+xml</dc:format>
    <dc:creator>
     <cc:Agent>
      <dc:title>Matplotlib v3.3.2, https://matplotlib.org/</dc:title>
     </cc:Agent>
    </dc:creator>
   </cc:Work>
  </rdf:RDF>
 </metadata>
 <defs>
  <style type="text/css">*{stroke-linecap:butt;stroke-linejoin:round;}</style>
 </defs>
 <g id="figure_1">
  <g id="patch_1">
   <path d="M 0 504 
L 1080 504 
L 1080 0 
L 0 0 
z
" style="fill:none;"/>
  </g>
  <g id="axes_1">
   <g id="patch_2">
    <path d="M 77.55 439.2 
L 520.075993 439.2 
L 520.075993 73.4 
L 77.55 73.4 
z
" style="fill:#ffffff;"/>
   </g>
   <g id="PolyCollection_1">
    <defs>
     <path d="M 97.664818 -315.073112 
L 97.664818 -338.822893 
L 141.954325 -374.040957 
L 188.089229 -390.244111 
L 232.378736 -395.8334 
L 276.668243 -409.054868 
L 320.95775 -408.780366 
L 365.247257 -410.559465 
L 411.382161 -413.972727 
L 455.671668 -413.601296 
L 499.961175 -413.619848 
L 499.961175 -413.07281 
L 499.961175 -413.07281 
L 455.671668 -410.098621 
L 411.382161 -408.758919 
L 365.247257 -401.651224 
L 320.95775 -398.634933 
L 276.668243 -393.209582 
L 232.378736 -387.437468 
L 188.089229 -375.301097 
L 141.954325 -354.541296 
L 97.664818 -315.073112 
z
" id="m38185b0055" style="stroke:#808080;stroke-opacity:0.2;"/>
    </defs>
    <g clip-path="url(#pe4bb75284d)">
     <use style="fill:#808080;fill-opacity:0.2;stroke:#808080;stroke-opacity:0.2;" x="0" xlink:href="#m38185b0055" y="504"/>
    </g>
   </g>
   <g id="PolyCollection_2">
    <defs>
     <path d="M 97.664818 -81.427273 
L 97.664818 -112.802289 
L 141.954325 -161.000001 
L 188.089229 -208.229241 
L 232.378736 -232.240031 
L 276.668243 -249.311734 
L 320.95775 -258.440505 
L 365.247257 -275.430568 
L 411.382161 -284.127308 
L 455.671668 -293.710727 
L 499.961175 -299.274824 
L 499.961175 -297.528842 
L 499.961175 -297.528842 
L 455.671668 -285.874164 
L 411.382161 -272.782187 
L 365.247257 -257.66192 
L 320.95775 -243.014011 
L 276.668243 -218.841154 
L 232.378736 -202.83528 
L 188.089229 -177.327733 
L 141.954325 -125.887679 
L 97.664818 -81.427273 
z
" id="m56b7cdaf98" style="stroke:#808080;stroke-opacity:0.2;"/>
    </defs>
    <g clip-path="url(#pe4bb75284d)">
     <use style="fill:#808080;fill-opacity:0.2;stroke:#808080;stroke-opacity:0.2;" x="0" xlink:href="#m56b7cdaf98" y="504"/>
    </g>
   </g>
   <g id="matplotlib.axis_1">
    <g id="xtick_1">
     <g id="line2d_1">
      <defs>
       <path d="M 0 0 
L 0 3.5 
" id="md553d65688" style="stroke:#000000;stroke-width:0.8;"/>
      </defs>
      <g>
       <use style="stroke:#000000;stroke-width:0.8;" x="145.645117" xlink:href="#md553d65688" y="439.2"/>
      </g>
     </g>
     <g id="text_1">
      <!-- 50 -->
      <g transform="translate(132.920117 461.396875)scale(0.2 -0.2)">
       <defs>
        <path d="M 10.796875 72.90625 
L 49.515625 72.90625 
L 49.515625 64.59375 
L 19.828125 64.59375 
L 19.828125 46.734375 
Q 21.96875 47.46875 24.109375 47.828125 
Q 26.265625 48.1875 28.421875 48.1875 
Q 40.625 48.1875 47.75 41.5 
Q 54.890625 34.8125 54.890625 23.390625 
Q 54.890625 11.625 47.5625 5.09375 
Q 40.234375 -1.421875 26.90625 -1.421875 
Q 22.3125 -1.421875 17.546875 -0.640625 
Q 12.796875 0.140625 7.71875 1.703125 
L 7.71875 11.625 
Q 12.109375 9.234375 16.796875 8.0625 
Q 21.484375 6.890625 26.703125 6.890625 
Q 35.15625 6.890625 40.078125 11.328125 
Q 45.015625 15.765625 45.015625 23.390625 
Q 45.015625 31 40.078125 35.4375 
Q 35.15625 39.890625 26.703125 39.890625 
Q 22.75 39.890625 18.8125 39.015625 
Q 14.890625 38.140625 10.796875 36.28125 
z
" id="DejaVuSans-53"/>
        <path d="M 31.78125 66.40625 
Q 24.171875 66.40625 20.328125 58.90625 
Q 16.5 51.421875 16.5 36.375 
Q 16.5 21.390625 20.328125 13.890625 
Q 24.171875 6.390625 31.78125 6.390625 
Q 39.453125 6.390625 43.28125 13.890625 
Q 47.125 21.390625 47.125 36.375 
Q 47.125 51.421875 43.28125 58.90625 
Q 39.453125 66.40625 31.78125 66.40625 
z
M 31.78125 74.21875 
Q 44.046875 74.21875 50.515625 64.515625 
Q 56.984375 54.828125 56.984375 36.375 
Q 56.984375 17.96875 50.515625 8.265625 
Q 44.046875 -1.421875 31.78125 -1.421875 
Q 19.53125 -1.421875 13.0625 8.265625 
Q 6.59375 17.96875 6.59375 36.375 
Q 6.59375 54.828125 13.0625 64.515625 
Q 19.53125 74.21875 31.78125 74.21875 
z
" id="DejaVuSans-48"/>
       </defs>
       <use xlink:href="#DejaVuSans-53"/>
       <use x="63.623047" xlink:href="#DejaVuSans-48"/>
      </g>
     </g>
    </g>
    <g id="xtick_2">
     <g id="line2d_2">
      <g>
       <use style="stroke:#000000;stroke-width:0.8;" x="237.914924" xlink:href="#md553d65688" y="439.2"/>
      </g>
     </g>
     <g id="text_2">
      <!-- 100 -->
      <g transform="translate(218.827424 461.396875)scale(0.2 -0.2)">
       <defs>
        <path d="M 12.40625 8.296875 
L 28.515625 8.296875 
L 28.515625 63.921875 
L 10.984375 60.40625 
L 10.984375 69.390625 
L 28.421875 72.90625 
L 38.28125 72.90625 
L 38.28125 8.296875 
L 54.390625 8.296875 
L 54.390625 0 
L 12.40625 0 
z
" id="DejaVuSans-49"/>
       </defs>
       <use xlink:href="#DejaVuSans-49"/>
       <use x="63.623047" xlink:href="#DejaVuSans-48"/>
       <use x="127.246094" xlink:href="#DejaVuSans-48"/>
      </g>
     </g>
    </g>
    <g id="xtick_3">
     <g id="line2d_3">
      <g>
       <use style="stroke:#000000;stroke-width:0.8;" x="330.184731" xlink:href="#md553d65688" y="439.2"/>
      </g>
     </g>
     <g id="text_3">
      <!-- 150 -->
      <g transform="translate(311.097231 461.396875)scale(0.2 -0.2)">
       <use xlink:href="#DejaVuSans-49"/>
       <use x="63.623047" xlink:href="#DejaVuSans-53"/>
       <use x="127.246094" xlink:href="#DejaVuSans-48"/>
      </g>
     </g>
    </g>
    <g id="xtick_4">
     <g id="line2d_4">
      <g>
       <use style="stroke:#000000;stroke-width:0.8;" x="422.454538" xlink:href="#md553d65688" y="439.2"/>
      </g>
     </g>
     <g id="text_4">
      <!-- 200 -->
      <g transform="translate(403.367038 461.396875)scale(0.2 -0.2)">
       <defs>
        <path d="M 19.1875 8.296875 
L 53.609375 8.296875 
L 53.609375 0 
L 7.328125 0 
L 7.328125 8.296875 
Q 12.9375 14.109375 22.625 23.890625 
Q 32.328125 33.6875 34.8125 36.53125 
Q 39.546875 41.84375 41.421875 45.53125 
Q 43.3125 49.21875 43.3125 52.78125 
Q 43.3125 58.59375 39.234375 62.25 
Q 35.15625 65.921875 28.609375 65.921875 
Q 23.96875 65.921875 18.8125 64.3125 
Q 13.671875 62.703125 7.8125 59.421875 
L 7.8125 69.390625 
Q 13.765625 71.78125 18.9375 73 
Q 24.125 74.21875 28.421875 74.21875 
Q 39.75 74.21875 46.484375 68.546875 
Q 53.21875 62.890625 53.21875 53.421875 
Q 53.21875 48.921875 51.53125 44.890625 
Q 49.859375 40.875 45.40625 35.40625 
Q 44.1875 33.984375 37.640625 27.21875 
Q 31.109375 20.453125 19.1875 8.296875 
z
" id="DejaVuSans-50"/>
       </defs>
       <use xlink:href="#DejaVuSans-50"/>
       <use x="63.623047" xlink:href="#DejaVuSans-48"/>
       <use x="127.246094" xlink:href="#DejaVuSans-48"/>
      </g>
     </g>
    </g>
    <g id="xtick_5">
     <g id="line2d_5">
      <g>
       <use style="stroke:#000000;stroke-width:0.8;" x="514.724344" xlink:href="#md553d65688" y="439.2"/>
      </g>
     </g>
     <g id="text_5">
      <!-- 250 -->
      <g transform="translate(495.636844 461.396875)scale(0.2 -0.2)">
       <use xlink:href="#DejaVuSans-50"/>
       <use x="63.623047" xlink:href="#DejaVuSans-53"/>
       <use x="127.246094" xlink:href="#DejaVuSans-48"/>
      </g>
     </g>
    </g>
    <g id="text_6">
     <!-- Number of subjects -->
     <g transform="translate(176.785653 488.552344)scale(0.25 -0.25)">
      <defs>
       <path d="M 9.8125 72.90625 
L 23.09375 72.90625 
L 55.421875 11.921875 
L 55.421875 72.90625 
L 64.984375 72.90625 
L 64.984375 0 
L 51.703125 0 
L 19.390625 60.984375 
L 19.390625 0 
L 9.8125 0 
z
" id="DejaVuSans-78"/>
       <path d="M 8.5 21.578125 
L 8.5 54.6875 
L 17.484375 54.6875 
L 17.484375 21.921875 
Q 17.484375 14.15625 20.5 10.265625 
Q 23.53125 6.390625 29.59375 6.390625 
Q 36.859375 6.390625 41.078125 11.03125 
Q 45.3125 15.671875 45.3125 23.6875 
L 45.3125 54.6875 
L 54.296875 54.6875 
L 54.296875 0 
L 45.3125 0 
L 45.3125 8.40625 
Q 42.046875 3.421875 37.71875 1 
Q 33.40625 -1.421875 27.6875 -1.421875 
Q 18.265625 -1.421875 13.375 4.4375 
Q 8.5 10.296875 8.5 21.578125 
z
M 31.109375 56 
z
" id="DejaVuSans-117"/>
       <path d="M 52 44.1875 
Q 55.375 50.25 60.0625 53.125 
Q 64.75 56 71.09375 56 
Q 79.640625 56 84.28125 50.015625 
Q 88.921875 44.046875 88.921875 33.015625 
L 88.921875 0 
L 79.890625 0 
L 79.890625 32.71875 
Q 79.890625 40.578125 77.09375 44.375 
Q 74.3125 48.1875 68.609375 48.1875 
Q 61.625 48.1875 57.5625 43.546875 
Q 53.515625 38.921875 53.515625 30.90625 
L 53.515625 0 
L 44.484375 0 
L 44.484375 32.71875 
Q 44.484375 40.625 41.703125 44.40625 
Q 38.921875 48.1875 33.109375 48.1875 
Q 26.21875 48.1875 22.15625 43.53125 
Q 18.109375 38.875 18.109375 30.90625 
L 18.109375 0 
L 9.078125 0 
L 9.078125 54.6875 
L 18.109375 54.6875 
L 18.109375 46.1875 
Q 21.1875 51.21875 25.484375 53.609375 
Q 29.78125 56 35.6875 56 
Q 41.65625 56 45.828125 52.96875 
Q 50 49.953125 52 44.1875 
z
" id="DejaVuSans-109"/>
       <path d="M 48.6875 27.296875 
Q 48.6875 37.203125 44.609375 42.84375 
Q 40.53125 48.484375 33.40625 48.484375 
Q 26.265625 48.484375 22.1875 42.84375 
Q 18.109375 37.203125 18.109375 27.296875 
Q 18.109375 17.390625 22.1875 11.75 
Q 26.265625 6.109375 33.40625 6.109375 
Q 40.53125 6.109375 44.609375 11.75 
Q 48.6875 17.390625 48.6875 27.296875 
z
M 18.109375 46.390625 
Q 20.953125 51.265625 25.265625 53.625 
Q 29.59375 56 35.59375 56 
Q 45.5625 56 51.78125 48.09375 
Q 58.015625 40.1875 58.015625 27.296875 
Q 58.015625 14.40625 51.78125 6.484375 
Q 45.5625 -1.421875 35.59375 -1.421875 
Q 29.59375 -1.421875 25.265625 0.953125 
Q 20.953125 3.328125 18.109375 8.203125 
L 18.109375 0 
L 9.078125 0 
L 9.078125 75.984375 
L 18.109375 75.984375 
z
" id="DejaVuSans-98"/>
       <path d="M 56.203125 29.59375 
L 56.203125 25.203125 
L 14.890625 25.203125 
Q 15.484375 15.921875 20.484375 11.0625 
Q 25.484375 6.203125 34.421875 6.203125 
Q 39.59375 6.203125 44.453125 7.46875 
Q 49.3125 8.734375 54.109375 11.28125 
L 54.109375 2.78125 
Q 49.265625 0.734375 44.1875 -0.34375 
Q 39.109375 -1.421875 33.890625 -1.421875 
Q 20.796875 -1.421875 13.15625 6.1875 
Q 5.515625 13.8125 5.515625 26.8125 
Q 5.515625 40.234375 12.765625 48.109375 
Q 20.015625 56 32.328125 56 
Q 43.359375 56 49.78125 48.890625 
Q 56.203125 41.796875 56.203125 29.59375 
z
M 47.21875 32.234375 
Q 47.125 39.59375 43.09375 43.984375 
Q 39.0625 48.390625 32.421875 48.390625 
Q 24.90625 48.390625 20.390625 44.140625 
Q 15.875 39.890625 15.1875 32.171875 
z
" id="DejaVuSans-101"/>
       <path d="M 41.109375 46.296875 
Q 39.59375 47.171875 37.8125 47.578125 
Q 36.03125 48 33.890625 48 
Q 26.265625 48 22.1875 43.046875 
Q 18.109375 38.09375 18.109375 28.8125 
L 18.109375 0 
L 9.078125 0 
L 9.078125 54.6875 
L 18.109375 54.6875 
L 18.109375 46.1875 
Q 20.953125 51.171875 25.484375 53.578125 
Q 30.03125 56 36.53125 56 
Q 37.453125 56 38.578125 55.875 
Q 39.703125 55.765625 41.0625 55.515625 
z
" id="DejaVuSans-114"/>
       <path id="DejaVuSans-32"/>
       <path d="M 30.609375 48.390625 
Q 23.390625 48.390625 19.1875 42.75 
Q 14.984375 37.109375 14.984375 27.296875 
Q 14.984375 17.484375 19.15625 11.84375 
Q 23.34375 6.203125 30.609375 6.203125 
Q 37.796875 6.203125 41.984375 11.859375 
Q 46.1875 17.53125 46.1875 27.296875 
Q 46.1875 37.015625 41.984375 42.703125 
Q 37.796875 48.390625 30.609375 48.390625 
z
M 30.609375 56 
Q 42.328125 56 49.015625 48.375 
Q 55.71875 40.765625 55.71875 27.296875 
Q 55.71875 13.875 49.015625 6.21875 
Q 42.328125 -1.421875 30.609375 -1.421875 
Q 18.84375 -1.421875 12.171875 6.21875 
Q 5.515625 13.875 5.515625 27.296875 
Q 5.515625 40.765625 12.171875 48.375 
Q 18.84375 56 30.609375 56 
z
" id="DejaVuSans-111"/>
       <path d="M 37.109375 75.984375 
L 37.109375 68.5 
L 28.515625 68.5 
Q 23.6875 68.5 21.796875 66.546875 
Q 19.921875 64.59375 19.921875 59.515625 
L 19.921875 54.6875 
L 34.71875 54.6875 
L 34.71875 47.703125 
L 19.921875 47.703125 
L 19.921875 0 
L 10.890625 0 
L 10.890625 47.703125 
L 2.296875 47.703125 
L 2.296875 54.6875 
L 10.890625 54.6875 
L 10.890625 58.5 
Q 10.890625 67.625 15.140625 71.796875 
Q 19.390625 75.984375 28.609375 75.984375 
z
" id="DejaVuSans-102"/>
       <path d="M 44.28125 53.078125 
L 44.28125 44.578125 
Q 40.484375 46.53125 36.375 47.5 
Q 32.28125 48.484375 27.875 48.484375 
Q 21.1875 48.484375 17.84375 46.4375 
Q 14.5 44.390625 14.5 40.28125 
Q 14.5 37.15625 16.890625 35.375 
Q 19.28125 33.59375 26.515625 31.984375 
L 29.59375 31.296875 
Q 39.15625 29.25 43.1875 25.515625 
Q 47.21875 21.78125 47.21875 15.09375 
Q 47.21875 7.46875 41.1875 3.015625 
Q 35.15625 -1.421875 24.609375 -1.421875 
Q 20.21875 -1.421875 15.453125 -0.5625 
Q 10.6875 0.296875 5.421875 2 
L 5.421875 11.28125 
Q 10.40625 8.6875 15.234375 7.390625 
Q 20.0625 6.109375 24.8125 6.109375 
Q 31.15625 6.109375 34.5625 8.28125 
Q 37.984375 10.453125 37.984375 14.40625 
Q 37.984375 18.0625 35.515625 20.015625 
Q 33.0625 21.96875 24.703125 23.78125 
L 21.578125 24.515625 
Q 13.234375 26.265625 9.515625 29.90625 
Q 5.8125 33.546875 5.8125 39.890625 
Q 5.8125 47.609375 11.28125 51.796875 
Q 16.75 56 26.8125 56 
Q 31.78125 56 36.171875 55.265625 
Q 40.578125 54.546875 44.28125 53.078125 
z
" id="DejaVuSans-115"/>
       <path d="M 9.421875 54.6875 
L 18.40625 54.6875 
L 18.40625 -0.984375 
Q 18.40625 -11.421875 14.421875 -16.109375 
Q 10.453125 -20.796875 1.609375 -20.796875 
L -1.8125 -20.796875 
L -1.8125 -13.1875 
L 0.59375 -13.1875 
Q 5.71875 -13.1875 7.5625 -10.8125 
Q 9.421875 -8.453125 9.421875 -0.984375 
z
M 9.421875 75.984375 
L 18.40625 75.984375 
L 18.40625 64.59375 
L 9.421875 64.59375 
z
" id="DejaVuSans-106"/>
       <path d="M 48.78125 52.59375 
L 48.78125 44.1875 
Q 44.96875 46.296875 41.140625 47.34375 
Q 37.3125 48.390625 33.40625 48.390625 
Q 24.65625 48.390625 19.8125 42.84375 
Q 14.984375 37.3125 14.984375 27.296875 
Q 14.984375 17.28125 19.8125 11.734375 
Q 24.65625 6.203125 33.40625 6.203125 
Q 37.3125 6.203125 41.140625 7.25 
Q 44.96875 8.296875 48.78125 10.40625 
L 48.78125 2.09375 
Q 45.015625 0.34375 40.984375 -0.53125 
Q 36.96875 -1.421875 32.421875 -1.421875 
Q 20.0625 -1.421875 12.78125 6.34375 
Q 5.515625 14.109375 5.515625 27.296875 
Q 5.515625 40.671875 12.859375 48.328125 
Q 20.21875 56 33.015625 56 
Q 37.15625 56 41.109375 55.140625 
Q 45.0625 54.296875 48.78125 52.59375 
z
" id="DejaVuSans-99"/>
       <path d="M 18.3125 70.21875 
L 18.3125 54.6875 
L 36.8125 54.6875 
L 36.8125 47.703125 
L 18.3125 47.703125 
L 18.3125 18.015625 
Q 18.3125 11.328125 20.140625 9.421875 
Q 21.96875 7.515625 27.59375 7.515625 
L 36.8125 7.515625 
L 36.8125 0 
L 27.59375 0 
Q 17.1875 0 13.234375 3.875 
Q 9.28125 7.765625 9.28125 18.015625 
L 9.28125 47.703125 
L 2.6875 47.703125 
L 2.6875 54.6875 
L 9.28125 54.6875 
L 9.28125 70.21875 
z
" id="DejaVuSans-116"/>
      </defs>
      <use xlink:href="#DejaVuSans-78"/>
      <use x="74.804688" xlink:href="#DejaVuSans-117"/>
      <use x="138.183594" xlink:href="#DejaVuSans-109"/>
      <use x="235.595703" xlink:href="#DejaVuSans-98"/>
      <use x="299.072266" xlink:href="#DejaVuSans-101"/>
      <use x="360.595703" xlink:href="#DejaVuSans-114"/>
      <use x="401.708984" xlink:href="#DejaVuSans-32"/>
      <use x="433.496094" xlink:href="#DejaVuSans-111"/>
      <use x="494.677734" xlink:href="#DejaVuSans-102"/>
      <use x="529.882812" xlink:href="#DejaVuSans-32"/>
      <use x="561.669922" xlink:href="#DejaVuSans-115"/>
      <use x="613.769531" xlink:href="#DejaVuSans-117"/>
      <use x="677.148438" xlink:href="#DejaVuSans-98"/>
      <use x="740.625" xlink:href="#DejaVuSans-106"/>
      <use x="768.408203" xlink:href="#DejaVuSans-101"/>
      <use x="829.931641" xlink:href="#DejaVuSans-99"/>
      <use x="884.912109" xlink:href="#DejaVuSans-116"/>
      <use x="924.121094" xlink:href="#DejaVuSans-115"/>
     </g>
    </g>
   </g>
   <g id="matplotlib.axis_2">
    <g id="ytick_1">
     <g id="line2d_6">
      <defs>
       <path d="M 0 0 
L -3.5 0 
" id="m796b39c551" style="stroke:#000000;stroke-width:0.8;"/>
      </defs>
      <g>
       <use style="stroke:#000000;stroke-width:0.8;" x="77.55" xlink:href="#m796b39c551" y="413.844551"/>
      </g>
     </g>
     <g id="text_7">
      <!-- 0.2 -->
      <g transform="translate(38.74375 421.442988)scale(0.2 -0.2)">
       <defs>
        <path d="M 10.6875 12.40625 
L 21 12.40625 
L 21 0 
L 10.6875 0 
z
" id="DejaVuSans-46"/>
       </defs>
       <use xlink:href="#DejaVuSans-48"/>
       <use x="63.623047" xlink:href="#DejaVuSans-46"/>
       <use x="95.410156" xlink:href="#DejaVuSans-50"/>
      </g>
     </g>
    </g>
    <g id="ytick_2">
     <g id="line2d_7">
      <g>
       <use style="stroke:#000000;stroke-width:0.8;" x="77.55" xlink:href="#m796b39c551" y="362.654974"/>
      </g>
     </g>
     <g id="text_8">
      <!-- 0.3 -->
      <g transform="translate(38.74375 370.253412)scale(0.2 -0.2)">
       <defs>
        <path d="M 40.578125 39.3125 
Q 47.65625 37.796875 51.625 33 
Q 55.609375 28.21875 55.609375 21.1875 
Q 55.609375 10.40625 48.1875 4.484375 
Q 40.765625 -1.421875 27.09375 -1.421875 
Q 22.515625 -1.421875 17.65625 -0.515625 
Q 12.796875 0.390625 7.625 2.203125 
L 7.625 11.71875 
Q 11.71875 9.328125 16.59375 8.109375 
Q 21.484375 6.890625 26.8125 6.890625 
Q 36.078125 6.890625 40.9375 10.546875 
Q 45.796875 14.203125 45.796875 21.1875 
Q 45.796875 27.640625 41.28125 31.265625 
Q 36.765625 34.90625 28.71875 34.90625 
L 20.21875 34.90625 
L 20.21875 43.015625 
L 29.109375 43.015625 
Q 36.375 43.015625 40.234375 45.921875 
Q 44.09375 48.828125 44.09375 54.296875 
Q 44.09375 59.90625 40.109375 62.90625 
Q 36.140625 65.921875 28.71875 65.921875 
Q 24.65625 65.921875 20.015625 65.03125 
Q 15.375 64.15625 9.8125 62.3125 
L 9.8125 71.09375 
Q 15.4375 72.65625 20.34375 73.4375 
Q 25.25 74.21875 29.59375 74.21875 
Q 40.828125 74.21875 47.359375 69.109375 
Q 53.90625 64.015625 53.90625 55.328125 
Q 53.90625 49.265625 50.4375 45.09375 
Q 46.96875 40.921875 40.578125 39.3125 
z
" id="DejaVuSans-51"/>
       </defs>
       <use xlink:href="#DejaVuSans-48"/>
       <use x="63.623047" xlink:href="#DejaVuSans-46"/>
       <use x="95.410156" xlink:href="#DejaVuSans-51"/>
      </g>
     </g>
    </g>
    <g id="ytick_3">
     <g id="line2d_8">
      <g>
       <use style="stroke:#000000;stroke-width:0.8;" x="77.55" xlink:href="#m796b39c551" y="311.465398"/>
      </g>
     </g>
     <g id="text_9">
      <!-- 0.4 -->
      <g transform="translate(38.74375 319.063836)scale(0.2 -0.2)">
       <defs>
        <path d="M 37.796875 64.3125 
L 12.890625 25.390625 
L 37.796875 25.390625 
z
M 35.203125 72.90625 
L 47.609375 72.90625 
L 47.609375 25.390625 
L 58.015625 25.390625 
L 58.015625 17.1875 
L 47.609375 17.1875 
L 47.609375 0 
L 37.796875 0 
L 37.796875 17.1875 
L 4.890625 17.1875 
L 4.890625 26.703125 
z
" id="DejaVuSans-52"/>
       </defs>
       <use xlink:href="#DejaVuSans-48"/>
       <use x="63.623047" xlink:href="#DejaVuSans-46"/>
       <use x="95.410156" xlink:href="#DejaVuSans-52"/>
      </g>
     </g>
    </g>
    <g id="ytick_4">
     <g id="line2d_9">
      <g>
       <use style="stroke:#000000;stroke-width:0.8;" x="77.55" xlink:href="#m796b39c551" y="260.275822"/>
      </g>
     </g>
     <g id="text_10">
      <!-- 0.5 -->
      <g transform="translate(38.74375 267.874259)scale(0.2 -0.2)">
       <use xlink:href="#DejaVuSans-48"/>
       <use x="63.623047" xlink:href="#DejaVuSans-46"/>
       <use x="95.410156" xlink:href="#DejaVuSans-53"/>
      </g>
     </g>
    </g>
    <g id="ytick_5">
     <g id="line2d_10">
      <g>
       <use style="stroke:#000000;stroke-width:0.8;" x="77.55" xlink:href="#m796b39c551" y="209.086246"/>
      </g>
     </g>
     <g id="text_11">
      <!-- 0.6 -->
      <g transform="translate(38.74375 216.684683)scale(0.2 -0.2)">
       <defs>
        <path d="M 33.015625 40.375 
Q 26.375 40.375 22.484375 35.828125 
Q 18.609375 31.296875 18.609375 23.390625 
Q 18.609375 15.53125 22.484375 10.953125 
Q 26.375 6.390625 33.015625 6.390625 
Q 39.65625 6.390625 43.53125 10.953125 
Q 47.40625 15.53125 47.40625 23.390625 
Q 47.40625 31.296875 43.53125 35.828125 
Q 39.65625 40.375 33.015625 40.375 
z
M 52.59375 71.296875 
L 52.59375 62.3125 
Q 48.875 64.0625 45.09375 64.984375 
Q 41.3125 65.921875 37.59375 65.921875 
Q 27.828125 65.921875 22.671875 59.328125 
Q 17.53125 52.734375 16.796875 39.40625 
Q 19.671875 43.65625 24.015625 45.921875 
Q 28.375 48.1875 33.59375 48.1875 
Q 44.578125 48.1875 50.953125 41.515625 
Q 57.328125 34.859375 57.328125 23.390625 
Q 57.328125 12.15625 50.6875 5.359375 
Q 44.046875 -1.421875 33.015625 -1.421875 
Q 20.359375 -1.421875 13.671875 8.265625 
Q 6.984375 17.96875 6.984375 36.375 
Q 6.984375 53.65625 15.1875 63.9375 
Q 23.390625 74.21875 37.203125 74.21875 
Q 40.921875 74.21875 44.703125 73.484375 
Q 48.484375 72.75 52.59375 71.296875 
z
" id="DejaVuSans-54"/>
       </defs>
       <use xlink:href="#DejaVuSans-48"/>
       <use x="63.623047" xlink:href="#DejaVuSans-46"/>
       <use x="95.410156" xlink:href="#DejaVuSans-54"/>
      </g>
     </g>
    </g>
    <g id="ytick_6">
     <g id="line2d_11">
      <g>
       <use style="stroke:#000000;stroke-width:0.8;" x="77.55" xlink:href="#m796b39c551" y="157.896669"/>
      </g>
     </g>
     <g id="text_12">
      <!-- 0.7 -->
      <g transform="translate(38.74375 165.495107)scale(0.2 -0.2)">
       <defs>
        <path d="M 8.203125 72.90625 
L 55.078125 72.90625 
L 55.078125 68.703125 
L 28.609375 0 
L 18.3125 0 
L 43.21875 64.59375 
L 8.203125 64.59375 
z
" id="DejaVuSans-55"/>
       </defs>
       <use xlink:href="#DejaVuSans-48"/>
       <use x="63.623047" xlink:href="#DejaVuSans-46"/>
       <use x="95.410156" xlink:href="#DejaVuSans-55"/>
      </g>
     </g>
    </g>
    <g id="ytick_7">
     <g id="line2d_12">
      <g>
       <use style="stroke:#000000;stroke-width:0.8;" x="77.55" xlink:href="#m796b39c551" y="106.707093"/>
      </g>
     </g>
     <g id="text_13">
      <!-- 0.8 -->
      <g transform="translate(38.74375 114.305531)scale(0.2 -0.2)">
       <defs>
        <path d="M 31.78125 34.625 
Q 24.75 34.625 20.71875 30.859375 
Q 16.703125 27.09375 16.703125 20.515625 
Q 16.703125 13.921875 20.71875 10.15625 
Q 24.75 6.390625 31.78125 6.390625 
Q 38.8125 6.390625 42.859375 10.171875 
Q 46.921875 13.96875 46.921875 20.515625 
Q 46.921875 27.09375 42.890625 30.859375 
Q 38.875 34.625 31.78125 34.625 
z
M 21.921875 38.8125 
Q 15.578125 40.375 12.03125 44.71875 
Q 8.5 49.078125 8.5 55.328125 
Q 8.5 64.0625 14.71875 69.140625 
Q 20.953125 74.21875 31.78125 74.21875 
Q 42.671875 74.21875 48.875 69.140625 
Q 55.078125 64.0625 55.078125 55.328125 
Q 55.078125 49.078125 51.53125 44.71875 
Q 48 40.375 41.703125 38.8125 
Q 48.828125 37.15625 52.796875 32.3125 
Q 56.78125 27.484375 56.78125 20.515625 
Q 56.78125 9.90625 50.3125 4.234375 
Q 43.84375 -1.421875 31.78125 -1.421875 
Q 19.734375 -1.421875 13.25 4.234375 
Q 6.78125 9.90625 6.78125 20.515625 
Q 6.78125 27.484375 10.78125 32.3125 
Q 14.796875 37.15625 21.921875 38.8125 
z
M 18.3125 54.390625 
Q 18.3125 48.734375 21.84375 45.5625 
Q 25.390625 42.390625 31.78125 42.390625 
Q 38.140625 42.390625 41.71875 45.5625 
Q 45.3125 48.734375 45.3125 54.390625 
Q 45.3125 60.0625 41.71875 63.234375 
Q 38.140625 66.40625 31.78125 66.40625 
Q 25.390625 66.40625 21.84375 63.234375 
Q 18.3125 60.0625 18.3125 54.390625 
z
" id="DejaVuSans-56"/>
       </defs>
       <use xlink:href="#DejaVuSans-48"/>
       <use x="63.623047" xlink:href="#DejaVuSans-46"/>
       <use x="95.410156" xlink:href="#DejaVuSans-56"/>
      </g>
     </g>
    </g>
    <g id="text_14">
     <!-- Spearman correlation -->
     <g transform="translate(29.544531 391.239453)rotate(-90)scale(0.25 -0.25)">
      <defs>
       <path d="M 53.515625 70.515625 
L 53.515625 60.890625 
Q 47.90625 63.578125 42.921875 64.890625 
Q 37.9375 66.21875 33.296875 66.21875 
Q 25.25 66.21875 20.875 63.09375 
Q 16.5 59.96875 16.5 54.203125 
Q 16.5 49.359375 19.40625 46.890625 
Q 22.3125 44.4375 30.421875 42.921875 
L 36.375 41.703125 
Q 47.40625 39.59375 52.65625 34.296875 
Q 57.90625 29 57.90625 20.125 
Q 57.90625 9.515625 50.796875 4.046875 
Q 43.703125 -1.421875 29.984375 -1.421875 
Q 24.8125 -1.421875 18.96875 -0.25 
Q 13.140625 0.921875 6.890625 3.21875 
L 6.890625 13.375 
Q 12.890625 10.015625 18.65625 8.296875 
Q 24.421875 6.59375 29.984375 6.59375 
Q 38.421875 6.59375 43.015625 9.90625 
Q 47.609375 13.234375 47.609375 19.390625 
Q 47.609375 24.75 44.3125 27.78125 
Q 41.015625 30.8125 33.5 32.328125 
L 27.484375 33.5 
Q 16.453125 35.6875 11.515625 40.375 
Q 6.59375 45.0625 6.59375 53.421875 
Q 6.59375 63.09375 13.40625 68.65625 
Q 20.21875 74.21875 32.171875 74.21875 
Q 37.3125 74.21875 42.625 73.28125 
Q 47.953125 72.359375 53.515625 70.515625 
z
" id="DejaVuSans-83"/>
       <path d="M 18.109375 8.203125 
L 18.109375 -20.796875 
L 9.078125 -20.796875 
L 9.078125 54.6875 
L 18.109375 54.6875 
L 18.109375 46.390625 
Q 20.953125 51.265625 25.265625 53.625 
Q 29.59375 56 35.59375 56 
Q 45.5625 56 51.78125 48.09375 
Q 58.015625 40.1875 58.015625 27.296875 
Q 58.015625 14.40625 51.78125 6.484375 
Q 45.5625 -1.421875 35.59375 -1.421875 
Q 29.59375 -1.421875 25.265625 0.953125 
Q 20.953125 3.328125 18.109375 8.203125 
z
M 48.6875 27.296875 
Q 48.6875 37.203125 44.609375 42.84375 
Q 40.53125 48.484375 33.40625 48.484375 
Q 26.265625 48.484375 22.1875 42.84375 
Q 18.109375 37.203125 18.109375 27.296875 
Q 18.109375 17.390625 22.1875 11.75 
Q 26.265625 6.109375 33.40625 6.109375 
Q 40.53125 6.109375 44.609375 11.75 
Q 48.6875 17.390625 48.6875 27.296875 
z
" id="DejaVuSans-112"/>
       <path d="M 34.28125 27.484375 
Q 23.390625 27.484375 19.1875 25 
Q 14.984375 22.515625 14.984375 16.5 
Q 14.984375 11.71875 18.140625 8.90625 
Q 21.296875 6.109375 26.703125 6.109375 
Q 34.1875 6.109375 38.703125 11.40625 
Q 43.21875 16.703125 43.21875 25.484375 
L 43.21875 27.484375 
z
M 52.203125 31.203125 
L 52.203125 0 
L 43.21875 0 
L 43.21875 8.296875 
Q 40.140625 3.328125 35.546875 0.953125 
Q 30.953125 -1.421875 24.3125 -1.421875 
Q 15.921875 -1.421875 10.953125 3.296875 
Q 6 8.015625 6 15.921875 
Q 6 25.140625 12.171875 29.828125 
Q 18.359375 34.515625 30.609375 34.515625 
L 43.21875 34.515625 
L 43.21875 35.40625 
Q 43.21875 41.609375 39.140625 45 
Q 35.0625 48.390625 27.6875 48.390625 
Q 23 48.390625 18.546875 47.265625 
Q 14.109375 46.140625 10.015625 43.890625 
L 10.015625 52.203125 
Q 14.9375 54.109375 19.578125 55.046875 
Q 24.21875 56 28.609375 56 
Q 40.484375 56 46.34375 49.84375 
Q 52.203125 43.703125 52.203125 31.203125 
z
" id="DejaVuSans-97"/>
       <path d="M 54.890625 33.015625 
L 54.890625 0 
L 45.90625 0 
L 45.90625 32.71875 
Q 45.90625 40.484375 42.875 44.328125 
Q 39.84375 48.1875 33.796875 48.1875 
Q 26.515625 48.1875 22.3125 43.546875 
Q 18.109375 38.921875 18.109375 30.90625 
L 18.109375 0 
L 9.078125 0 
L 9.078125 54.6875 
L 18.109375 54.6875 
L 18.109375 46.1875 
Q 21.34375 51.125 25.703125 53.5625 
Q 30.078125 56 35.796875 56 
Q 45.21875 56 50.046875 50.171875 
Q 54.890625 44.34375 54.890625 33.015625 
z
" id="DejaVuSans-110"/>
       <path d="M 9.421875 75.984375 
L 18.40625 75.984375 
L 18.40625 0 
L 9.421875 0 
z
" id="DejaVuSans-108"/>
       <path d="M 9.421875 54.6875 
L 18.40625 54.6875 
L 18.40625 0 
L 9.421875 0 
z
M 9.421875 75.984375 
L 18.40625 75.984375 
L 18.40625 64.59375 
L 9.421875 64.59375 
z
" id="DejaVuSans-105"/>
      </defs>
      <use xlink:href="#DejaVuSans-83"/>
      <use x="63.476562" xlink:href="#DejaVuSans-112"/>
      <use x="126.953125" xlink:href="#DejaVuSans-101"/>
      <use x="188.476562" xlink:href="#DejaVuSans-97"/>
      <use x="249.755859" xlink:href="#DejaVuSans-114"/>
      <use x="289.119141" xlink:href="#DejaVuSans-109"/>
      <use x="386.53125" xlink:href="#DejaVuSans-97"/>
      <use x="447.810547" xlink:href="#DejaVuSans-110"/>
      <use x="511.189453" xlink:href="#DejaVuSans-32"/>
      <use x="542.976562" xlink:href="#DejaVuSans-99"/>
      <use x="597.957031" xlink:href="#DejaVuSans-111"/>
      <use x="659.138672" xlink:href="#DejaVuSans-114"/>
      <use x="698.501953" xlink:href="#DejaVuSans-114"/>
      <use x="737.365234" xlink:href="#DejaVuSans-101"/>
      <use x="798.888672" xlink:href="#DejaVuSans-108"/>
      <use x="826.671875" xlink:href="#DejaVuSans-97"/>
      <use x="887.951172" xlink:href="#DejaVuSans-116"/>
      <use x="927.160156" xlink:href="#DejaVuSans-105"/>
      <use x="954.943359" xlink:href="#DejaVuSans-111"/>
      <use x="1016.125" xlink:href="#DejaVuSans-110"/>
     </g>
    </g>
   </g>
   <g id="line2d_13">
    <path clip-path="url(#pe4bb75284d)" d="M 97.664818 177.051997 
L 141.954325 139.708873 
L 188.089229 121.227396 
L 232.378736 112.364566 
L 276.668243 102.867775 
L 320.95775 100.292351 
L 365.247257 97.894656 
L 411.382161 92.634177 
L 455.671668 92.150041 
L 499.961175 90.653671 
" style="fill:none;stroke:#1f77b4;stroke-linecap:square;stroke-width:1.5;"/>
   </g>
   <g id="line2d_14">
    <path clip-path="url(#pe4bb75284d)" d="M 97.664818 406.885219 
L 141.954325 360.55616 
L 188.089229 311.221513 
L 232.378736 286.462344 
L 276.668243 269.923556 
L 320.95775 253.272742 
L 365.247257 237.453756 
L 411.382161 225.545252 
L 455.671668 214.207554 
L 499.961175 205.598167 
" style="fill:none;stroke:#ff7f0e;stroke-linecap:square;stroke-width:1.5;"/>
   </g>
   <g id="patch_3">
    <path d="M 77.55 439.2 
L 77.55 73.4 
" style="fill:none;stroke:#000000;stroke-linecap:square;stroke-linejoin:miter;stroke-width:0.8;"/>
   </g>
   <g id="patch_4">
    <path d="M 520.075993 439.2 
L 520.075993 73.4 
" style="fill:none;stroke:#000000;stroke-linecap:square;stroke-linejoin:miter;stroke-width:0.8;"/>
   </g>
   <g id="patch_5">
    <path d="M 77.55 439.2 
L 520.075993 439.2 
" style="fill:none;stroke:#000000;stroke-linecap:square;stroke-linejoin:miter;stroke-width:0.8;"/>
   </g>
   <g id="patch_6">
    <path d="M 77.55 73.4 
L 520.075993 73.4 
" style="fill:none;stroke:#000000;stroke-linecap:square;stroke-linejoin:miter;stroke-width:0.8;"/>
   </g>
   <g id="text_15">
    <!-- T-STAT MAPS  -->
    <g transform="translate(198.52159 33.5675)scale(0.3 -0.3)">
     <defs>
      <path d="M -0.296875 72.90625 
L 61.375 72.90625 
L 61.375 64.59375 
L 35.5 64.59375 
L 35.5 0 
L 25.59375 0 
L 25.59375 64.59375 
L -0.296875 64.59375 
z
" id="DejaVuSans-84"/>
      <path d="M 4.890625 31.390625 
L 31.203125 31.390625 
L 31.203125 23.390625 
L 4.890625 23.390625 
z
" id="DejaVuSans-45"/>
      <path d="M 34.1875 63.1875 
L 20.796875 26.90625 
L 47.609375 26.90625 
z
M 28.609375 72.90625 
L 39.796875 72.90625 
L 67.578125 0 
L 57.328125 0 
L 50.6875 18.703125 
L 17.828125 18.703125 
L 11.1875 0 
L 0.78125 0 
z
" id="DejaVuSans-65"/>
      <path d="M 9.8125 72.90625 
L 24.515625 72.90625 
L 43.109375 23.296875 
L 61.8125 72.90625 
L 76.515625 72.90625 
L 76.515625 0 
L 66.890625 0 
L 66.890625 64.015625 
L 48.09375 14.015625 
L 38.1875 14.015625 
L 19.390625 64.015625 
L 19.390625 0 
L 9.8125 0 
z
" id="DejaVuSans-77"/>
      <path d="M 19.671875 64.796875 
L 19.671875 37.40625 
L 32.078125 37.40625 
Q 38.96875 37.40625 42.71875 40.96875 
Q 46.484375 44.53125 46.484375 51.125 
Q 46.484375 57.671875 42.71875 61.234375 
Q 38.96875 64.796875 32.078125 64.796875 
z
M 9.8125 72.90625 
L 32.078125 72.90625 
Q 44.34375 72.90625 50.609375 67.359375 
Q 56.890625 61.8125 56.890625 51.125 
Q 56.890625 40.328125 50.609375 34.8125 
Q 44.34375 29.296875 32.078125 29.296875 
L 19.671875 29.296875 
L 19.671875 0 
L 9.8125 0 
z
" id="DejaVuSans-80"/>
     </defs>
     <use xlink:href="#DejaVuSans-84"/>
     <use x="51.958984" xlink:href="#DejaVuSans-45"/>
     <use x="88.042969" xlink:href="#DejaVuSans-83"/>
     <use x="151.519531" xlink:href="#DejaVuSans-84"/>
     <use x="204.853516" xlink:href="#DejaVuSans-65"/>
     <use x="265.511719" xlink:href="#DejaVuSans-84"/>
     <use x="326.595703" xlink:href="#DejaVuSans-32"/>
     <use x="358.382812" xlink:href="#DejaVuSans-77"/>
     <use x="444.662109" xlink:href="#DejaVuSans-65"/>
     <use x="513.070312" xlink:href="#DejaVuSans-80"/>
     <use x="573.373047" xlink:href="#DejaVuSans-83"/>
     <use x="636.849609" xlink:href="#DejaVuSans-32"/>
    </g>
    <!--  SIMILARITY ANALYSIS -->
    <g transform="translate(135.09034 67.160937)scale(0.3 -0.3)">
     <defs>
      <path d="M 9.8125 72.90625 
L 19.671875 72.90625 
L 19.671875 0 
L 9.8125 0 
z
" id="DejaVuSans-73"/>
      <path d="M 9.8125 72.90625 
L 19.671875 72.90625 
L 19.671875 8.296875 
L 55.171875 8.296875 
L 55.171875 0 
L 9.8125 0 
z
" id="DejaVuSans-76"/>
      <path d="M 44.390625 34.1875 
Q 47.5625 33.109375 50.5625 29.59375 
Q 53.5625 26.078125 56.59375 19.921875 
L 66.609375 0 
L 56 0 
L 46.6875 18.703125 
Q 43.0625 26.03125 39.671875 28.421875 
Q 36.28125 30.8125 30.421875 30.8125 
L 19.671875 30.8125 
L 19.671875 0 
L 9.8125 0 
L 9.8125 72.90625 
L 32.078125 72.90625 
Q 44.578125 72.90625 50.734375 67.671875 
Q 56.890625 62.453125 56.890625 51.90625 
Q 56.890625 45.015625 53.6875 40.46875 
Q 50.484375 35.9375 44.390625 34.1875 
z
M 19.671875 64.796875 
L 19.671875 38.921875 
L 32.078125 38.921875 
Q 39.203125 38.921875 42.84375 42.21875 
Q 46.484375 45.515625 46.484375 51.90625 
Q 46.484375 58.296875 42.84375 61.546875 
Q 39.203125 64.796875 32.078125 64.796875 
z
" id="DejaVuSans-82"/>
      <path d="M -0.203125 72.90625 
L 10.40625 72.90625 
L 30.609375 42.921875 
L 50.6875 72.90625 
L 61.28125 72.90625 
L 35.5 34.71875 
L 35.5 0 
L 25.59375 0 
L 25.59375 34.71875 
z
" id="DejaVuSans-89"/>
     </defs>
     <use xlink:href="#DejaVuSans-32"/>
     <use x="31.787109" xlink:href="#DejaVuSans-83"/>
     <use x="95.263672" xlink:href="#DejaVuSans-73"/>
     <use x="124.755859" xlink:href="#DejaVuSans-77"/>
     <use x="211.035156" xlink:href="#DejaVuSans-73"/>
     <use x="240.527344" xlink:href="#DejaVuSans-76"/>
     <use x="298.490234" xlink:href="#DejaVuSans-65"/>
     <use x="366.898438" xlink:href="#DejaVuSans-82"/>
     <use x="436.380859" xlink:href="#DejaVuSans-73"/>
     <use x="465.873047" xlink:href="#DejaVuSans-84"/>
     <use x="526.957031" xlink:href="#DejaVuSans-89"/>
     <use x="588.041016" xlink:href="#DejaVuSans-32"/>
     <use x="619.828125" xlink:href="#DejaVuSans-65"/>
     <use x="688.236328" xlink:href="#DejaVuSans-78"/>
     <use x="763.041016" xlink:href="#DejaVuSans-65"/>
     <use x="831.449219" xlink:href="#DejaVuSans-76"/>
     <use x="873.912109" xlink:href="#DejaVuSans-89"/>
     <use x="934.996094" xlink:href="#DejaVuSans-83"/>
     <use x="998.472656" xlink:href="#DejaVuSans-73"/>
     <use x="1027.964844" xlink:href="#DejaVuSans-83"/>
    </g>
   </g>
   <g id="legend_1">
    <g id="patch_7">
     <path d="M 364.675993 431.7 
L 509.575993 431.7 
Q 512.575993 431.7 512.575993 428.7 
L 512.575993 364.148438 
Q 512.575993 361.148438 509.575993 361.148438 
L 364.675993 361.148438 
Q 361.675993 361.148438 361.675993 364.148438 
L 361.675993 428.7 
Q 361.675993 431.7 364.675993 431.7 
z
" style="fill:#ffffff;opacity:0.8;stroke:#cccccc;stroke-linejoin:miter;"/>
    </g>
    <g id="line2d_15">
     <path d="M 367.675993 373.296094 
L 397.675993 373.296094 
" style="fill:none;stroke:#1f77b4;stroke-linecap:square;stroke-width:1.5;"/>
    </g>
    <g id="line2d_16"/>
    <g id="text_16">
     <!-- Activation -->
     <g transform="translate(409.675993 378.546094)scale(0.15 -0.15)">
      <defs>
       <path d="M 2.984375 54.6875 
L 12.5 54.6875 
L 29.59375 8.796875 
L 46.6875 54.6875 
L 56.203125 54.6875 
L 35.6875 0 
L 23.484375 0 
z
" id="DejaVuSans-118"/>
      </defs>
      <use xlink:href="#DejaVuSans-65"/>
      <use x="66.658203" xlink:href="#DejaVuSans-99"/>
      <use x="121.638672" xlink:href="#DejaVuSans-116"/>
      <use x="160.847656" xlink:href="#DejaVuSans-105"/>
      <use x="188.630859" xlink:href="#DejaVuSans-118"/>
      <use x="247.810547" xlink:href="#DejaVuSans-97"/>
      <use x="309.089844" xlink:href="#DejaVuSans-116"/>
      <use x="348.298828" xlink:href="#DejaVuSans-105"/>
      <use x="376.082031" xlink:href="#DejaVuSans-111"/>
      <use x="437.263672" xlink:href="#DejaVuSans-110"/>
     </g>
    </g>
    <g id="line2d_17">
     <path d="M 367.675993 395.313281 
L 397.675993 395.313281 
" style="fill:none;stroke:#ff7f0e;stroke-linecap:square;stroke-width:1.5;"/>
    </g>
    <g id="line2d_18"/>
    <g id="text_17">
     <!-- Connectivity -->
     <g transform="translate(409.675993 400.563281)scale(0.15 -0.15)">
      <defs>
       <path d="M 64.40625 67.28125 
L 64.40625 56.890625 
Q 59.421875 61.53125 53.78125 63.8125 
Q 48.140625 66.109375 41.796875 66.109375 
Q 29.296875 66.109375 22.65625 58.46875 
Q 16.015625 50.828125 16.015625 36.375 
Q 16.015625 21.96875 22.65625 14.328125 
Q 29.296875 6.6875 41.796875 6.6875 
Q 48.140625 6.6875 53.78125 8.984375 
Q 59.421875 11.28125 64.40625 15.921875 
L 64.40625 5.609375 
Q 59.234375 2.09375 53.4375 0.328125 
Q 47.65625 -1.421875 41.21875 -1.421875 
Q 24.65625 -1.421875 15.125 8.703125 
Q 5.609375 18.84375 5.609375 36.375 
Q 5.609375 53.953125 15.125 64.078125 
Q 24.65625 74.21875 41.21875 74.21875 
Q 47.75 74.21875 53.53125 72.484375 
Q 59.328125 70.75 64.40625 67.28125 
z
" id="DejaVuSans-67"/>
       <path d="M 32.171875 -5.078125 
Q 28.375 -14.84375 24.75 -17.8125 
Q 21.140625 -20.796875 15.09375 -20.796875 
L 7.90625 -20.796875 
L 7.90625 -13.28125 
L 13.1875 -13.28125 
Q 16.890625 -13.28125 18.9375 -11.515625 
Q 21 -9.765625 23.484375 -3.21875 
L 25.09375 0.875 
L 2.984375 54.6875 
L 12.5 54.6875 
L 29.59375 11.921875 
L 46.6875 54.6875 
L 56.203125 54.6875 
z
" id="DejaVuSans-121"/>
      </defs>
      <use xlink:href="#DejaVuSans-67"/>
      <use x="69.824219" xlink:href="#DejaVuSans-111"/>
      <use x="131.005859" xlink:href="#DejaVuSans-110"/>
      <use x="194.384766" xlink:href="#DejaVuSans-110"/>
      <use x="257.763672" xlink:href="#DejaVuSans-101"/>
      <use x="319.287109" xlink:href="#DejaVuSans-99"/>
      <use x="374.267578" xlink:href="#DejaVuSans-116"/>
      <use x="413.476562" xlink:href="#DejaVuSans-105"/>
      <use x="441.259766" xlink:href="#DejaVuSans-118"/>
      <use x="500.439453" xlink:href="#DejaVuSans-105"/>
      <use x="528.222656" xlink:href="#DejaVuSans-116"/>
      <use x="567.431641" xlink:href="#DejaVuSans-121"/>
     </g>
    </g>
    <g id="patch_8">
     <path d="M 367.675993 422.580469 
L 397.675993 422.580469 
L 397.675993 412.080469 
L 367.675993 412.080469 
z
" style="fill:#808080;opacity:0.2;stroke:#808080;stroke-linejoin:miter;"/>
    </g>
    <g id="text_18">
     <!-- $\pm$ 1 std. dev. -->
     <g transform="translate(409.675993 422.580469)scale(0.15 -0.15)">
      <defs>
       <path d="M 46 62.703125 
L 46 43.796875 
L 73.1875 43.796875 
L 73.1875 35.5 
L 46 35.5 
L 46 16.609375 
L 37.796875 16.609375 
L 37.796875 35.5 
L 10.59375 35.5 
L 10.59375 43.796875 
L 37.796875 43.796875 
L 37.796875 62.703125 
z
M 10.59375 8.296875 
L 73.1875 8.296875 
L 73.1875 0 
L 10.59375 0 
z
" id="DejaVuSans-177"/>
       <path d="M 45.40625 46.390625 
L 45.40625 75.984375 
L 54.390625 75.984375 
L 54.390625 0 
L 45.40625 0 
L 45.40625 8.203125 
Q 42.578125 3.328125 38.25 0.953125 
Q 33.9375 -1.421875 27.875 -1.421875 
Q 17.96875 -1.421875 11.734375 6.484375 
Q 5.515625 14.40625 5.515625 27.296875 
Q 5.515625 40.1875 11.734375 48.09375 
Q 17.96875 56 27.875 56 
Q 33.9375 56 38.25 53.625 
Q 42.578125 51.265625 45.40625 46.390625 
z
M 14.796875 27.296875 
Q 14.796875 17.390625 18.875 11.75 
Q 22.953125 6.109375 30.078125 6.109375 
Q 37.203125 6.109375 41.296875 11.75 
Q 45.40625 17.390625 45.40625 27.296875 
Q 45.40625 37.203125 41.296875 42.84375 
Q 37.203125 48.484375 30.078125 48.484375 
Q 22.953125 48.484375 18.875 42.84375 
Q 14.796875 37.203125 14.796875 27.296875 
z
" id="DejaVuSans-100"/>
      </defs>
      <use transform="translate(0 0.015625)" xlink:href="#DejaVuSans-177"/>
      <use transform="translate(83.789062 0.015625)" xlink:href="#DejaVuSans-32"/>
      <use transform="translate(115.576172 0.015625)" xlink:href="#DejaVuSans-49"/>
      <use transform="translate(179.199219 0.015625)" xlink:href="#DejaVuSans-32"/>
      <use transform="translate(210.986328 0.015625)" xlink:href="#DejaVuSans-115"/>
      <use transform="translate(263.085938 0.015625)" xlink:href="#DejaVuSans-116"/>
      <use transform="translate(302.294922 0.015625)" xlink:href="#DejaVuSans-100"/>
      <use transform="translate(365.771484 0.015625)" xlink:href="#DejaVuSans-46"/>
      <use transform="translate(397.558594 0.015625)" xlink:href="#DejaVuSans-32"/>
      <use transform="translate(429.345703 0.015625)" xlink:href="#DejaVuSans-100"/>
      <use transform="translate(492.822266 0.015625)" xlink:href="#DejaVuSans-101"/>
      <use transform="translate(554.345703 0.015625)" xlink:href="#DejaVuSans-118"/>
      <use transform="translate(613.525391 0.015625)" xlink:href="#DejaVuSans-46"/>
     </g>
    </g>
   </g>
  </g>
  <g id="axes_2">
   <g id="patch_9">
    <path d="M 612.15 439.2 
L 1054.675993 439.2 
L 1054.675993 73.4 
L 612.15 73.4 
z
" style="fill:#ffffff;"/>
   </g>
   <g id="PolyCollection_3">
    <defs>
     <path d="M 632.264818 -248.523068 
L 632.264818 -271.142245 
L 676.554325 -335.60227 
L 722.689229 -363.513299 
L 766.978736 -376.563211 
L 811.268243 -392.653379 
L 855.55775 -396.946314 
L 899.847257 -402.192565 
L 945.982161 -407.222429 
L 990.271668 -410.984751 
L 1034.561175 -413.972727 
L 1034.561175 -413.527693 
L 1034.561175 -413.527693 
L 990.271668 -409.263781 
L 945.982161 -404.419474 
L 899.847257 -397.715238 
L 855.55775 -392.199916 
L 811.268243 -382.682609 
L 766.978736 -369.136902 
L 722.689229 -352.536241 
L 676.554325 -317.575628 
L 632.264818 -248.523068 
z
" id="me985569174" style="stroke:#808080;stroke-opacity:0.2;"/>
    </defs>
    <g clip-path="url(#p76b842e87a)">
     <use style="fill:#808080;fill-opacity:0.2;stroke:#808080;stroke-opacity:0.2;" x="0" xlink:href="#me985569174" y="504"/>
    </g>
   </g>
   <g id="PolyCollection_4">
    <defs>
     <path d="M 632.264818 -143.661778 
L 632.264818 -165.463045 
L 676.554325 -275.624164 
L 722.689229 -320.983345 
L 766.978736 -339.534047 
L 811.268243 -364.40828 
L 855.55775 -370.504003 
L 899.847257 -378.009536 
L 945.982161 -384.787723 
L 990.271668 -388.335631 
L 1034.561175 -392.655241 
L 1034.561175 -392.007014 
L 1034.561175 -392.007014 
L 990.271668 -386.224298 
L 945.982161 -379.902125 
L 899.847257 -371.56058 
L 855.55775 -364.5953 
L 811.268243 -350.391077 
L 766.978736 -328.881323 
L 722.689229 -304.482412 
L 676.554325 -252.038554 
L 632.264818 -143.661778 
z
" id="me3aa8cd42b" style="stroke:#808080;stroke-opacity:0.2;"/>
    </defs>
    <g clip-path="url(#p76b842e87a)">
     <use style="fill:#808080;fill-opacity:0.2;stroke:#808080;stroke-opacity:0.2;" x="0" xlink:href="#me3aa8cd42b" y="504"/>
    </g>
   </g>
   <g id="PolyCollection_5">
    <defs>
     <path d="M 632.264818 -110.635121 
L 632.264818 -126.207641 
L 676.554325 -167.994908 
L 722.689229 -201.058913 
L 766.978736 -225.12712 
L 811.268243 -235.469104 
L 855.55775 -246.779454 
L 899.847257 -256.276914 
L 945.982161 -265.05213 
L 990.271668 -271.398771 
L 1034.561175 -277.32412 
L 1034.561175 -275.952791 
L 1034.561175 -275.952791 
L 990.271668 -265.669299 
L 945.982161 -259.067933 
L 899.847257 -246.801505 
L 855.55775 -235.98244 
L 811.268243 -221.959301 
L 766.978736 -206.987605 
L 722.689229 -185.03301 
L 676.554325 -148.817306 
L 632.264818 -110.635121 
z
" id="m6cf733c58b" style="stroke:#808080;stroke-opacity:0.2;"/>
    </defs>
    <g clip-path="url(#p76b842e87a)">
     <use style="fill:#808080;fill-opacity:0.2;stroke:#808080;stroke-opacity:0.2;" x="0" xlink:href="#m6cf733c58b" y="504"/>
    </g>
   </g>
   <g id="PolyCollection_6">
    <defs>
     <path d="M 632.264818 -81.427273 
L 632.264818 -110.584317 
L 676.554325 -169.905862 
L 722.689229 -206.467697 
L 766.978736 -233.683471 
L 811.268243 -243.594747 
L 855.55775 -246.629272 
L 899.847257 -254.960969 
L 945.982161 -264.588575 
L 990.271668 -262.944217 
L 1034.561175 -267.172319 
L 1034.561175 -264.687674 
L 1034.561175 -264.687674 
L 990.271668 -255.339151 
L 945.982161 -250.258654 
L 899.847257 -242.503552 
L 855.55775 -236.091948 
L 811.268243 -219.219238 
L 766.978736 -202.339819 
L 722.689229 -188.490227 
L 676.554325 -129.345969 
L 632.264818 -81.427273 
z
" id="m2a3a5befa3" style="stroke:#808080;stroke-opacity:0.2;"/>
    </defs>
    <g clip-path="url(#p76b842e87a)">
     <use style="fill:#808080;fill-opacity:0.2;stroke:#808080;stroke-opacity:0.2;" x="0" xlink:href="#m2a3a5befa3" y="504"/>
    </g>
   </g>
   <g id="matplotlib.axis_3">
    <g id="xtick_6">
     <g id="line2d_19">
      <g>
       <use style="stroke:#000000;stroke-width:0.8;" x="680.245117" xlink:href="#md553d65688" y="439.2"/>
      </g>
     </g>
     <g id="text_19">
      <!-- 50 -->
      <g transform="translate(667.520117 461.396875)scale(0.2 -0.2)">
       <use xlink:href="#DejaVuSans-53"/>
       <use x="63.623047" xlink:href="#DejaVuSans-48"/>
      </g>
     </g>
    </g>
    <g id="xtick_7">
     <g id="line2d_20">
      <g>
       <use style="stroke:#000000;stroke-width:0.8;" x="772.514924" xlink:href="#md553d65688" y="439.2"/>
      </g>
     </g>
     <g id="text_20">
      <!-- 100 -->
      <g transform="translate(753.427424 461.396875)scale(0.2 -0.2)">
       <use xlink:href="#DejaVuSans-49"/>
       <use x="63.623047" xlink:href="#DejaVuSans-48"/>
       <use x="127.246094" xlink:href="#DejaVuSans-48"/>
      </g>
     </g>
    </g>
    <g id="xtick_8">
     <g id="line2d_21">
      <g>
       <use style="stroke:#000000;stroke-width:0.8;" x="864.784731" xlink:href="#md553d65688" y="439.2"/>
      </g>
     </g>
     <g id="text_21">
      <!-- 150 -->
      <g transform="translate(845.697231 461.396875)scale(0.2 -0.2)">
       <use xlink:href="#DejaVuSans-49"/>
       <use x="63.623047" xlink:href="#DejaVuSans-53"/>
       <use x="127.246094" xlink:href="#DejaVuSans-48"/>
      </g>
     </g>
    </g>
    <g id="xtick_9">
     <g id="line2d_22">
      <g>
       <use style="stroke:#000000;stroke-width:0.8;" x="957.054538" xlink:href="#md553d65688" y="439.2"/>
      </g>
     </g>
     <g id="text_22">
      <!-- 200 -->
      <g transform="translate(937.967038 461.396875)scale(0.2 -0.2)">
       <use xlink:href="#DejaVuSans-50"/>
       <use x="63.623047" xlink:href="#DejaVuSans-48"/>
       <use x="127.246094" xlink:href="#DejaVuSans-48"/>
      </g>
     </g>
    </g>
    <g id="xtick_10">
     <g id="line2d_23">
      <g>
       <use style="stroke:#000000;stroke-width:0.8;" x="1049.324344" xlink:href="#md553d65688" y="439.2"/>
      </g>
     </g>
     <g id="text_23">
      <!-- 250 -->
      <g transform="translate(1030.236844 461.396875)scale(0.2 -0.2)">
       <use xlink:href="#DejaVuSans-50"/>
       <use x="63.623047" xlink:href="#DejaVuSans-53"/>
       <use x="127.246094" xlink:href="#DejaVuSans-48"/>
      </g>
     </g>
    </g>
    <g id="text_24">
     <!-- Number of subjects -->
     <g transform="translate(711.385653 488.552344)scale(0.25 -0.25)">
      <use xlink:href="#DejaVuSans-78"/>
      <use x="74.804688" xlink:href="#DejaVuSans-117"/>
      <use x="138.183594" xlink:href="#DejaVuSans-109"/>
      <use x="235.595703" xlink:href="#DejaVuSans-98"/>
      <use x="299.072266" xlink:href="#DejaVuSans-101"/>
      <use x="360.595703" xlink:href="#DejaVuSans-114"/>
      <use x="401.708984" xlink:href="#DejaVuSans-32"/>
      <use x="433.496094" xlink:href="#DejaVuSans-111"/>
      <use x="494.677734" xlink:href="#DejaVuSans-102"/>
      <use x="529.882812" xlink:href="#DejaVuSans-32"/>
      <use x="561.669922" xlink:href="#DejaVuSans-115"/>
      <use x="613.769531" xlink:href="#DejaVuSans-117"/>
      <use x="677.148438" xlink:href="#DejaVuSans-98"/>
      <use x="740.625" xlink:href="#DejaVuSans-106"/>
      <use x="768.408203" xlink:href="#DejaVuSans-101"/>
      <use x="829.931641" xlink:href="#DejaVuSans-99"/>
      <use x="884.912109" xlink:href="#DejaVuSans-116"/>
      <use x="924.121094" xlink:href="#DejaVuSans-115"/>
     </g>
    </g>
   </g>
   <g id="matplotlib.axis_4">
    <g id="ytick_8">
     <g id="line2d_24">
      <g>
       <use style="stroke:#000000;stroke-width:0.8;" x="612.15" xlink:href="#m796b39c551" y="429.881324"/>
      </g>
     </g>
     <g id="text_25">
      <!-- 0.0 -->
      <g transform="translate(573.34375 437.479761)scale(0.2 -0.2)">
       <use xlink:href="#DejaVuSans-48"/>
       <use x="63.623047" xlink:href="#DejaVuSans-46"/>
       <use x="95.410156" xlink:href="#DejaVuSans-48"/>
      </g>
     </g>
    </g>
    <g id="ytick_9">
     <g id="line2d_25">
      <g>
       <use style="stroke:#000000;stroke-width:0.8;" x="612.15" xlink:href="#m796b39c551" y="386.899752"/>
      </g>
     </g>
     <g id="text_26">
      <!-- 0.1 -->
      <g transform="translate(573.34375 394.498189)scale(0.2 -0.2)">
       <use xlink:href="#DejaVuSans-48"/>
       <use x="63.623047" xlink:href="#DejaVuSans-46"/>
       <use x="95.410156" xlink:href="#DejaVuSans-49"/>
      </g>
     </g>
    </g>
    <g id="ytick_10">
     <g id="line2d_26">
      <g>
       <use style="stroke:#000000;stroke-width:0.8;" x="612.15" xlink:href="#m796b39c551" y="343.918179"/>
      </g>
     </g>
     <g id="text_27">
      <!-- 0.2 -->
      <g transform="translate(573.34375 351.516617)scale(0.2 -0.2)">
       <use xlink:href="#DejaVuSans-48"/>
       <use x="63.623047" xlink:href="#DejaVuSans-46"/>
       <use x="95.410156" xlink:href="#DejaVuSans-50"/>
      </g>
     </g>
    </g>
    <g id="ytick_11">
     <g id="line2d_27">
      <g>
       <use style="stroke:#000000;stroke-width:0.8;" x="612.15" xlink:href="#m796b39c551" y="300.936607"/>
      </g>
     </g>
     <g id="text_28">
      <!-- 0.3 -->
      <g transform="translate(573.34375 308.535045)scale(0.2 -0.2)">
       <use xlink:href="#DejaVuSans-48"/>
       <use x="63.623047" xlink:href="#DejaVuSans-46"/>
       <use x="95.410156" xlink:href="#DejaVuSans-51"/>
      </g>
     </g>
    </g>
    <g id="ytick_12">
     <g id="line2d_28">
      <g>
       <use style="stroke:#000000;stroke-width:0.8;" x="612.15" xlink:href="#m796b39c551" y="257.955035"/>
      </g>
     </g>
     <g id="text_29">
      <!-- 0.4 -->
      <g transform="translate(573.34375 265.553472)scale(0.2 -0.2)">
       <use xlink:href="#DejaVuSans-48"/>
       <use x="63.623047" xlink:href="#DejaVuSans-46"/>
       <use x="95.410156" xlink:href="#DejaVuSans-52"/>
      </g>
     </g>
    </g>
    <g id="ytick_13">
     <g id="line2d_29">
      <g>
       <use style="stroke:#000000;stroke-width:0.8;" x="612.15" xlink:href="#m796b39c551" y="214.973463"/>
      </g>
     </g>
     <g id="text_30">
      <!-- 0.5 -->
      <g transform="translate(573.34375 222.5719)scale(0.2 -0.2)">
       <use xlink:href="#DejaVuSans-48"/>
       <use x="63.623047" xlink:href="#DejaVuSans-46"/>
       <use x="95.410156" xlink:href="#DejaVuSans-53"/>
      </g>
     </g>
    </g>
    <g id="ytick_14">
     <g id="line2d_30">
      <g>
       <use style="stroke:#000000;stroke-width:0.8;" x="612.15" xlink:href="#m796b39c551" y="171.99189"/>
      </g>
     </g>
     <g id="text_31">
      <!-- 0.6 -->
      <g transform="translate(573.34375 179.590328)scale(0.2 -0.2)">
       <use xlink:href="#DejaVuSans-48"/>
       <use x="63.623047" xlink:href="#DejaVuSans-46"/>
       <use x="95.410156" xlink:href="#DejaVuSans-54"/>
      </g>
     </g>
    </g>
    <g id="ytick_15">
     <g id="line2d_31">
      <g>
       <use style="stroke:#000000;stroke-width:0.8;" x="612.15" xlink:href="#m796b39c551" y="129.010318"/>
      </g>
     </g>
     <g id="text_32">
      <!-- 0.7 -->
      <g transform="translate(573.34375 136.608756)scale(0.2 -0.2)">
       <use xlink:href="#DejaVuSans-48"/>
       <use x="63.623047" xlink:href="#DejaVuSans-46"/>
       <use x="95.410156" xlink:href="#DejaVuSans-55"/>
      </g>
     </g>
    </g>
    <g id="ytick_16">
     <g id="line2d_32">
      <g>
       <use style="stroke:#000000;stroke-width:0.8;" x="612.15" xlink:href="#m796b39c551" y="86.028746"/>
      </g>
     </g>
     <g id="text_33">
      <!-- 0.8 -->
      <g transform="translate(573.34375 93.627183)scale(0.2 -0.2)">
       <use xlink:href="#DejaVuSans-48"/>
       <use x="63.623047" xlink:href="#DejaVuSans-46"/>
       <use x="95.410156" xlink:href="#DejaVuSans-56"/>
      </g>
     </g>
    </g>
    <g id="text_34">
     <!-- Dice coefficient -->
     <g transform="translate(564.144531 353.280469)rotate(-90)scale(0.25 -0.25)">
      <defs>
       <path d="M 19.671875 64.796875 
L 19.671875 8.109375 
L 31.59375 8.109375 
Q 46.6875 8.109375 53.6875 14.9375 
Q 60.6875 21.78125 60.6875 36.53125 
Q 60.6875 51.171875 53.6875 57.984375 
Q 46.6875 64.796875 31.59375 64.796875 
z
M 9.8125 72.90625 
L 30.078125 72.90625 
Q 51.265625 72.90625 61.171875 64.09375 
Q 71.09375 55.28125 71.09375 36.53125 
Q 71.09375 17.671875 61.125 8.828125 
Q 51.171875 0 30.078125 0 
L 9.8125 0 
z
" id="DejaVuSans-68"/>
      </defs>
      <use xlink:href="#DejaVuSans-68"/>
      <use x="77.001953" xlink:href="#DejaVuSans-105"/>
      <use x="104.785156" xlink:href="#DejaVuSans-99"/>
      <use x="159.765625" xlink:href="#DejaVuSans-101"/>
      <use x="221.289062" xlink:href="#DejaVuSans-32"/>
      <use x="253.076172" xlink:href="#DejaVuSans-99"/>
      <use x="308.056641" xlink:href="#DejaVuSans-111"/>
      <use x="369.238281" xlink:href="#DejaVuSans-101"/>
      <use x="430.761719" xlink:href="#DejaVuSans-102"/>
      <use x="465.966797" xlink:href="#DejaVuSans-102"/>
      <use x="501.171875" xlink:href="#DejaVuSans-105"/>
      <use x="528.955078" xlink:href="#DejaVuSans-99"/>
      <use x="583.935547" xlink:href="#DejaVuSans-105"/>
      <use x="611.71875" xlink:href="#DejaVuSans-101"/>
      <use x="673.242188" xlink:href="#DejaVuSans-110"/>
      <use x="736.621094" xlink:href="#DejaVuSans-116"/>
     </g>
    </g>
   </g>
   <g id="line2d_33">
    <path clip-path="url(#p76b842e87a)" d="M 632.264818 244.167343 
L 676.554325 177.411051 
L 722.689229 145.97523 
L 766.978736 131.149944 
L 811.268243 116.332006 
L 855.55775 109.426885 
L 899.847257 104.046099 
L 945.982161 98.179049 
L 990.271668 93.875734 
L 1034.561175 90.24979 
" style="fill:none;stroke:#1f77b4;stroke-dasharray:5.55,2.4;stroke-dashoffset:0;stroke-width:1.5;"/>
   </g>
   <g id="line2d_34">
    <path clip-path="url(#p76b842e87a)" d="M 632.264818 349.437588 
L 676.554325 240.168641 
L 722.689229 191.267122 
L 766.978736 169.792315 
L 811.268243 146.600321 
L 855.55775 136.450349 
L 899.847257 129.214942 
L 945.982161 121.655076 
L 990.271668 116.720035 
L 1034.561175 111.668872 
" style="fill:none;stroke:#1f77b4;stroke-dasharray:1.5,2.475;stroke-dashoffset:0;stroke-width:1.5;"/>
   </g>
   <g id="line2d_35">
    <path clip-path="url(#p76b842e87a)" d="M 632.264818 385.578619 
L 676.554325 345.593893 
L 722.689229 310.954038 
L 766.978736 287.942637 
L 811.268243 275.285797 
L 855.55775 262.619053 
L 899.847257 252.460791 
L 945.982161 241.939969 
L 990.271668 235.465965 
L 1034.561175 227.361545 
" style="fill:none;stroke:#ff7f0e;stroke-dasharray:5.55,2.4;stroke-dashoffset:0;stroke-width:1.5;"/>
   </g>
   <g id="line2d_36">
    <path clip-path="url(#p76b842e87a)" d="M 632.264818 407.994205 
L 676.554325 354.374085 
L 722.689229 306.521038 
L 766.978736 285.988355 
L 811.268243 272.593008 
L 855.55775 262.63939 
L 899.847257 255.267739 
L 945.982161 246.576385 
L 990.271668 244.858316 
L 1034.561175 238.070003 
" style="fill:none;stroke:#ff7f0e;stroke-dasharray:1.5,2.475;stroke-dashoffset:0;stroke-width:1.5;"/>
   </g>
   <g id="patch_10">
    <path d="M 612.15 439.2 
L 612.15 73.4 
" style="fill:none;stroke:#000000;stroke-linecap:square;stroke-linejoin:miter;stroke-width:0.8;"/>
   </g>
   <g id="patch_11">
    <path d="M 1054.675993 439.2 
L 1054.675993 73.4 
" style="fill:none;stroke:#000000;stroke-linecap:square;stroke-linejoin:miter;stroke-width:0.8;"/>
   </g>
   <g id="patch_12">
    <path d="M 612.15 439.2 
L 1054.675993 439.2 
" style="fill:none;stroke:#000000;stroke-linecap:square;stroke-linejoin:miter;stroke-width:0.8;"/>
   </g>
   <g id="patch_13">
    <path d="M 612.15 73.4 
L 1054.675993 73.4 
" style="fill:none;stroke:#000000;stroke-linecap:square;stroke-linejoin:miter;stroke-width:0.8;"/>
   </g>
   <g id="text_35">
    <!-- SIGNIFICANT MAPS  -->
    <g transform="translate(686.720028 33.5675)scale(0.3 -0.3)">
     <defs>
      <path d="M 59.515625 10.40625 
L 59.515625 29.984375 
L 43.40625 29.984375 
L 43.40625 38.09375 
L 69.28125 38.09375 
L 69.28125 6.78125 
Q 63.578125 2.734375 56.6875 0.65625 
Q 49.8125 -1.421875 42 -1.421875 
Q 24.90625 -1.421875 15.25 8.5625 
Q 5.609375 18.5625 5.609375 36.375 
Q 5.609375 54.25 15.25 64.234375 
Q 24.90625 74.21875 42 74.21875 
Q 49.125 74.21875 55.546875 72.453125 
Q 61.96875 70.703125 67.390625 67.28125 
L 67.390625 56.78125 
Q 61.921875 61.421875 55.765625 63.765625 
Q 49.609375 66.109375 42.828125 66.109375 
Q 29.4375 66.109375 22.71875 58.640625 
Q 16.015625 51.171875 16.015625 36.375 
Q 16.015625 21.625 22.71875 14.15625 
Q 29.4375 6.6875 42.828125 6.6875 
Q 48.046875 6.6875 52.140625 7.59375 
Q 56.25 8.5 59.515625 10.40625 
z
" id="DejaVuSans-71"/>
      <path d="M 9.8125 72.90625 
L 51.703125 72.90625 
L 51.703125 64.59375 
L 19.671875 64.59375 
L 19.671875 43.109375 
L 48.578125 43.109375 
L 48.578125 34.8125 
L 19.671875 34.8125 
L 19.671875 0 
L 9.8125 0 
z
" id="DejaVuSans-70"/>
     </defs>
     <use xlink:href="#DejaVuSans-83"/>
     <use x="63.476562" xlink:href="#DejaVuSans-73"/>
     <use x="92.96875" xlink:href="#DejaVuSans-71"/>
     <use x="170.458984" xlink:href="#DejaVuSans-78"/>
     <use x="245.263672" xlink:href="#DejaVuSans-73"/>
     <use x="274.755859" xlink:href="#DejaVuSans-70"/>
     <use x="332.275391" xlink:href="#DejaVuSans-73"/>
     <use x="361.767578" xlink:href="#DejaVuSans-67"/>
     <use x="431.591797" xlink:href="#DejaVuSans-65"/>
     <use x="500" xlink:href="#DejaVuSans-78"/>
     <use x="574.804688" xlink:href="#DejaVuSans-84"/>
     <use x="635.888672" xlink:href="#DejaVuSans-32"/>
     <use x="667.675781" xlink:href="#DejaVuSans-77"/>
     <use x="753.955078" xlink:href="#DejaVuSans-65"/>
     <use x="822.363281" xlink:href="#DejaVuSans-80"/>
     <use x="882.666016" xlink:href="#DejaVuSans-83"/>
     <use x="946.142578" xlink:href="#DejaVuSans-32"/>
    </g>
    <!--  OVERLAPPING ANALYSIS -->
    <g transform="translate(647.110653 67.160937)scale(0.3 -0.3)">
     <defs>
      <path d="M 39.40625 66.21875 
Q 28.65625 66.21875 22.328125 58.203125 
Q 16.015625 50.203125 16.015625 36.375 
Q 16.015625 22.609375 22.328125 14.59375 
Q 28.65625 6.59375 39.40625 6.59375 
Q 50.140625 6.59375 56.421875 14.59375 
Q 62.703125 22.609375 62.703125 36.375 
Q 62.703125 50.203125 56.421875 58.203125 
Q 50.140625 66.21875 39.40625 66.21875 
z
M 39.40625 74.21875 
Q 54.734375 74.21875 63.90625 63.9375 
Q 73.09375 53.65625 73.09375 36.375 
Q 73.09375 19.140625 63.90625 8.859375 
Q 54.734375 -1.421875 39.40625 -1.421875 
Q 24.03125 -1.421875 14.8125 8.828125 
Q 5.609375 19.09375 5.609375 36.375 
Q 5.609375 53.65625 14.8125 63.9375 
Q 24.03125 74.21875 39.40625 74.21875 
z
" id="DejaVuSans-79"/>
      <path d="M 28.609375 0 
L 0.78125 72.90625 
L 11.078125 72.90625 
L 34.1875 11.53125 
L 57.328125 72.90625 
L 67.578125 72.90625 
L 39.796875 0 
z
" id="DejaVuSans-86"/>
      <path d="M 9.8125 72.90625 
L 55.90625 72.90625 
L 55.90625 64.59375 
L 19.671875 64.59375 
L 19.671875 43.015625 
L 54.390625 43.015625 
L 54.390625 34.71875 
L 19.671875 34.71875 
L 19.671875 8.296875 
L 56.78125 8.296875 
L 56.78125 0 
L 9.8125 0 
z
" id="DejaVuSans-69"/>
     </defs>
     <use xlink:href="#DejaVuSans-32"/>
     <use x="31.787109" xlink:href="#DejaVuSans-79"/>
     <use x="108.748047" xlink:href="#DejaVuSans-86"/>
     <use x="177.15625" xlink:href="#DejaVuSans-69"/>
     <use x="240.339844" xlink:href="#DejaVuSans-82"/>
     <use x="309.822266" xlink:href="#DejaVuSans-76"/>
     <use x="367.785156" xlink:href="#DejaVuSans-65"/>
     <use x="436.193359" xlink:href="#DejaVuSans-80"/>
     <use x="496.496094" xlink:href="#DejaVuSans-80"/>
     <use x="556.798828" xlink:href="#DejaVuSans-73"/>
     <use x="586.291016" xlink:href="#DejaVuSans-78"/>
     <use x="661.095703" xlink:href="#DejaVuSans-71"/>
     <use x="738.585938" xlink:href="#DejaVuSans-32"/>
     <use x="770.373047" xlink:href="#DejaVuSans-65"/>
     <use x="838.78125" xlink:href="#DejaVuSans-78"/>
     <use x="913.585938" xlink:href="#DejaVuSans-65"/>
     <use x="981.994141" xlink:href="#DejaVuSans-76"/>
     <use x="1024.457031" xlink:href="#DejaVuSans-89"/>
     <use x="1085.541016" xlink:href="#DejaVuSans-83"/>
     <use x="1149.017578" xlink:href="#DejaVuSans-73"/>
     <use x="1178.509766" xlink:href="#DejaVuSans-83"/>
    </g>
   </g>
   <g id="legend_2">
    <g id="patch_14">
     <path d="M 810.625993 431.7 
L 1044.175993 431.7 
Q 1047.175993 431.7 1047.175993 428.7 
L 1047.175993 320.048438 
Q 1047.175993 317.048438 1044.175993 317.048438 
L 810.625993 317.048438 
Q 807.625993 317.048438 807.625993 320.048438 
L 807.625993 428.7 
Q 807.625993 431.7 810.625993 431.7 
z
" style="fill:#ffffff;opacity:0.8;stroke:#cccccc;stroke-linejoin:miter;"/>
    </g>
    <g id="line2d_37">
     <path d="M 813.625993 329.196094 
L 843.625993 329.196094 
" style="fill:none;stroke:#1f77b4;stroke-dasharray:5.55,2.4;stroke-dashoffset:0;stroke-width:1.5;"/>
    </g>
    <g id="line2d_38"/>
    <g id="text_36">
     <!-- Activation ($\alpha$&lt;0.01) -->
     <g transform="translate(855.625993 334.446094)scale(0.15 -0.15)">
      <defs>
       <path d="M 31 75.875 
Q 24.46875 64.65625 21.28125 53.65625 
Q 18.109375 42.671875 18.109375 31.390625 
Q 18.109375 20.125 21.3125 9.0625 
Q 24.515625 -2 31 -13.1875 
L 23.1875 -13.1875 
Q 15.875 -1.703125 12.234375 9.375 
Q 8.59375 20.453125 8.59375 31.390625 
Q 8.59375 42.28125 12.203125 53.3125 
Q 15.828125 64.359375 23.1875 75.875 
z
" id="DejaVuSans-40"/>
       <path d="M 40.921875 25.4375 
L 40.96875 36.71875 
Q 41.015625 48.25 32.328125 48.296875 
Q 25.828125 48.34375 21.78125 42.921875 
Q 16.703125 36.234375 14.984375 27.296875 
Q 12.890625 16.546875 15.53125 11.421875 
Q 18.265625 6.203125 24.171875 6.203125 
Q 30.71875 6.203125 36.234375 16.609375 
z
M 33.84375 55.90625 
Q 49.078125 56.15625 48.875 40.375 
Q 48.875 40.375 56.5 54.6875 
L 64.5 54.6875 
L 48.734375 25.046875 
L 48.578125 14.359375 
Q 48.578125 11.96875 49.90625 9.96875 
Q 51.421875 7.625 52.984375 7.625 
L 57.328125 7.625 
L 55.859375 0 
L 50.4375 0 
Q 45.84375 0 42.53125 4.109375 
Q 40.96875 6.15625 40.921875 10.453125 
Q 37.75 5.21875 32.28125 0.78125 
Q 29.6875 -1.265625 22.703125 -1.21875 
Q 11.28125 -1.125 7.125 6.203125 
Q 2.875 13.8125 5.515625 27.296875 
Q 8.34375 41.796875 15.765625 48.390625 
Q 24.125 55.765625 33.84375 55.90625 
z
" id="DejaVuSans-Oblique-945"/>
       <path d="M 73.1875 49.21875 
L 22.796875 31.296875 
L 73.1875 13.484375 
L 73.1875 4.59375 
L 10.59375 27.296875 
L 10.59375 35.40625 
L 73.1875 58.109375 
z
" id="DejaVuSans-60"/>
       <path d="M 8.015625 75.875 
L 15.828125 75.875 
Q 23.140625 64.359375 26.78125 53.3125 
Q 30.421875 42.28125 30.421875 31.390625 
Q 30.421875 20.453125 26.78125 9.375 
Q 23.140625 -1.703125 15.828125 -13.1875 
L 8.015625 -13.1875 
Q 14.5 -2 17.703125 9.0625 
Q 20.90625 20.125 20.90625 31.390625 
Q 20.90625 42.671875 17.703125 53.65625 
Q 14.5 64.65625 8.015625 75.875 
z
" id="DejaVuSans-41"/>
      </defs>
      <use transform="translate(0 0.015625)" xlink:href="#DejaVuSans-65"/>
      <use transform="translate(68.408203 0.015625)" xlink:href="#DejaVuSans-99"/>
      <use transform="translate(123.388672 0.015625)" xlink:href="#DejaVuSans-116"/>
      <use transform="translate(162.597656 0.015625)" xlink:href="#DejaVuSans-105"/>
      <use transform="translate(190.380859 0.015625)" xlink:href="#DejaVuSans-118"/>
      <use transform="translate(249.560547 0.015625)" xlink:href="#DejaVuSans-97"/>
      <use transform="translate(310.839844 0.015625)" xlink:href="#DejaVuSans-116"/>
      <use transform="translate(350.048828 0.015625)" xlink:href="#DejaVuSans-105"/>
      <use transform="translate(377.832031 0.015625)" xlink:href="#DejaVuSans-111"/>
      <use transform="translate(439.013672 0.015625)" xlink:href="#DejaVuSans-110"/>
      <use transform="translate(502.392578 0.015625)" xlink:href="#DejaVuSans-32"/>
      <use transform="translate(534.179688 0.015625)" xlink:href="#DejaVuSans-40"/>
      <use transform="translate(573.193359 0.015625)" xlink:href="#DejaVuSans-Oblique-945"/>
      <use transform="translate(639.111328 0.015625)" xlink:href="#DejaVuSans-60"/>
      <use transform="translate(722.900391 0.015625)" xlink:href="#DejaVuSans-48"/>
      <use transform="translate(786.523438 0.015625)" xlink:href="#DejaVuSans-46"/>
      <use transform="translate(818.310547 0.015625)" xlink:href="#DejaVuSans-48"/>
      <use transform="translate(881.933594 0.015625)" xlink:href="#DejaVuSans-49"/>
      <use transform="translate(945.556641 0.015625)" xlink:href="#DejaVuSans-41"/>
     </g>
    </g>
    <g id="line2d_39">
     <path d="M 813.625993 351.213281 
L 843.625993 351.213281 
" style="fill:none;stroke:#1f77b4;stroke-dasharray:1.5,2.475;stroke-dashoffset:0;stroke-width:1.5;"/>
    </g>
    <g id="line2d_40"/>
    <g id="text_37">
     <!-- Activation ($\alpha$&lt;0.0001) -->
     <g transform="translate(855.625993 356.463281)scale(0.15 -0.15)">
      <use transform="translate(0 0.015625)" xlink:href="#DejaVuSans-65"/>
      <use transform="translate(68.408203 0.015625)" xlink:href="#DejaVuSans-99"/>
      <use transform="translate(123.388672 0.015625)" xlink:href="#DejaVuSans-116"/>
      <use transform="translate(162.597656 0.015625)" xlink:href="#DejaVuSans-105"/>
      <use transform="translate(190.380859 0.015625)" xlink:href="#DejaVuSans-118"/>
      <use transform="translate(249.560547 0.015625)" xlink:href="#DejaVuSans-97"/>
      <use transform="translate(310.839844 0.015625)" xlink:href="#DejaVuSans-116"/>
      <use transform="translate(350.048828 0.015625)" xlink:href="#DejaVuSans-105"/>
      <use transform="translate(377.832031 0.015625)" xlink:href="#DejaVuSans-111"/>
      <use transform="translate(439.013672 0.015625)" xlink:href="#DejaVuSans-110"/>
      <use transform="translate(502.392578 0.015625)" xlink:href="#DejaVuSans-32"/>
      <use transform="translate(534.179688 0.015625)" xlink:href="#DejaVuSans-40"/>
      <use transform="translate(573.193359 0.015625)" xlink:href="#DejaVuSans-Oblique-945"/>
      <use transform="translate(639.111328 0.015625)" xlink:href="#DejaVuSans-60"/>
      <use transform="translate(722.900391 0.015625)" xlink:href="#DejaVuSans-48"/>
      <use transform="translate(786.523438 0.015625)" xlink:href="#DejaVuSans-46"/>
      <use transform="translate(818.310547 0.015625)" xlink:href="#DejaVuSans-48"/>
      <use transform="translate(881.933594 0.015625)" xlink:href="#DejaVuSans-48"/>
      <use transform="translate(945.556641 0.015625)" xlink:href="#DejaVuSans-48"/>
      <use transform="translate(1009.179688 0.015625)" xlink:href="#DejaVuSans-49"/>
      <use transform="translate(1072.802734 0.015625)" xlink:href="#DejaVuSans-41"/>
     </g>
    </g>
    <g id="line2d_41">
     <path d="M 813.625993 373.232813 
L 843.625993 373.232813 
" style="fill:none;stroke:#ff7f0e;stroke-dasharray:5.55,2.4;stroke-dashoffset:0;stroke-width:1.5;"/>
    </g>
    <g id="line2d_42"/>
    <g id="text_38">
     <!-- Connectivity ($\alpha$&lt;0.01) -->
     <g transform="translate(855.625993 378.482813)scale(0.15 -0.15)">
      <use transform="translate(0 0.015625)" xlink:href="#DejaVuSans-67"/>
      <use transform="translate(69.824219 0.015625)" xlink:href="#DejaVuSans-111"/>
      <use transform="translate(131.005859 0.015625)" xlink:href="#DejaVuSans-110"/>
      <use transform="translate(194.384766 0.015625)" xlink:href="#DejaVuSans-110"/>
      <use transform="translate(257.763672 0.015625)" xlink:href="#DejaVuSans-101"/>
      <use transform="translate(319.287109 0.015625)" xlink:href="#DejaVuSans-99"/>
      <use transform="translate(374.267578 0.015625)" xlink:href="#DejaVuSans-116"/>
      <use transform="translate(413.476562 0.015625)" xlink:href="#DejaVuSans-105"/>
      <use transform="translate(441.259766 0.015625)" xlink:href="#DejaVuSans-118"/>
      <use transform="translate(500.439453 0.015625)" xlink:href="#DejaVuSans-105"/>
      <use transform="translate(528.222656 0.015625)" xlink:href="#DejaVuSans-116"/>
      <use transform="translate(567.431641 0.015625)" xlink:href="#DejaVuSans-121"/>
      <use transform="translate(626.611328 0.015625)" xlink:href="#DejaVuSans-32"/>
      <use transform="translate(658.398438 0.015625)" xlink:href="#DejaVuSans-40"/>
      <use transform="translate(697.412109 0.015625)" xlink:href="#DejaVuSans-Oblique-945"/>
      <use transform="translate(763.330078 0.015625)" xlink:href="#DejaVuSans-60"/>
      <use transform="translate(847.119141 0.015625)" xlink:href="#DejaVuSans-48"/>
      <use transform="translate(910.742188 0.015625)" xlink:href="#DejaVuSans-46"/>
      <use transform="translate(942.529297 0.015625)" xlink:href="#DejaVuSans-48"/>
      <use transform="translate(1006.152344 0.015625)" xlink:href="#DejaVuSans-49"/>
      <use transform="translate(1069.775391 0.015625)" xlink:href="#DejaVuSans-41"/>
     </g>
    </g>
    <g id="line2d_43">
     <path d="M 813.625993 395.282813 
L 843.625993 395.282813 
" style="fill:none;stroke:#ff7f0e;stroke-dasharray:1.5,2.475;stroke-dashoffset:0;stroke-width:1.5;"/>
    </g>
    <g id="line2d_44"/>
    <g id="text_39">
     <!-- Connectivity ($\alpha$&lt;0.0001) -->
     <g transform="translate(855.625993 400.532813)scale(0.15 -0.15)">
      <use transform="translate(0 0.015625)" xlink:href="#DejaVuSans-67"/>
      <use transform="translate(69.824219 0.015625)" xlink:href="#DejaVuSans-111"/>
      <use transform="translate(131.005859 0.015625)" xlink:href="#DejaVuSans-110"/>
      <use transform="translate(194.384766 0.015625)" xlink:href="#DejaVuSans-110"/>
      <use transform="translate(257.763672 0.015625)" xlink:href="#DejaVuSans-101"/>
      <use transform="translate(319.287109 0.015625)" xlink:href="#DejaVuSans-99"/>
      <use transform="translate(374.267578 0.015625)" xlink:href="#DejaVuSans-116"/>
      <use transform="translate(413.476562 0.015625)" xlink:href="#DejaVuSans-105"/>
      <use transform="translate(441.259766 0.015625)" xlink:href="#DejaVuSans-118"/>
      <use transform="translate(500.439453 0.015625)" xlink:href="#DejaVuSans-105"/>
      <use transform="translate(528.222656 0.015625)" xlink:href="#DejaVuSans-116"/>
      <use transform="translate(567.431641 0.015625)" xlink:href="#DejaVuSans-121"/>
      <use transform="translate(626.611328 0.015625)" xlink:href="#DejaVuSans-32"/>
      <use transform="translate(658.398438 0.015625)" xlink:href="#DejaVuSans-40"/>
      <use transform="translate(697.412109 0.015625)" xlink:href="#DejaVuSans-Oblique-945"/>
      <use transform="translate(763.330078 0.015625)" xlink:href="#DejaVuSans-60"/>
      <use transform="translate(847.119141 0.015625)" xlink:href="#DejaVuSans-48"/>
      <use transform="translate(910.742188 0.015625)" xlink:href="#DejaVuSans-46"/>
      <use transform="translate(942.529297 0.015625)" xlink:href="#DejaVuSans-48"/>
      <use transform="translate(1006.152344 0.015625)" xlink:href="#DejaVuSans-48"/>
      <use transform="translate(1069.775391 0.015625)" xlink:href="#DejaVuSans-48"/>
      <use transform="translate(1133.398438 0.015625)" xlink:href="#DejaVuSans-49"/>
      <use transform="translate(1197.021484 0.015625)" xlink:href="#DejaVuSans-41"/>
     </g>
    </g>
    <g id="patch_15">
     <path d="M 813.625993 422.580469 
L 843.625993 422.580469 
L 843.625993 412.080469 
L 813.625993 412.080469 
z
" style="fill:#808080;opacity:0.2;stroke:#808080;stroke-linejoin:miter;"/>
    </g>
    <g id="text_40">
     <!-- $\pm$ 1 std. dev. -->
     <g transform="translate(855.625993 422.580469)scale(0.15 -0.15)">
      <use transform="translate(0 0.015625)" xlink:href="#DejaVuSans-177"/>
      <use transform="translate(83.789062 0.015625)" xlink:href="#DejaVuSans-32"/>
      <use transform="translate(115.576172 0.015625)" xlink:href="#DejaVuSans-49"/>
      <use transform="translate(179.199219 0.015625)" xlink:href="#DejaVuSans-32"/>
      <use transform="translate(210.986328 0.015625)" xlink:href="#DejaVuSans-115"/>
      <use transform="translate(263.085938 0.015625)" xlink:href="#DejaVuSans-116"/>
      <use transform="translate(302.294922 0.015625)" xlink:href="#DejaVuSans-100"/>
      <use transform="translate(365.771484 0.015625)" xlink:href="#DejaVuSans-46"/>
      <use transform="translate(397.558594 0.015625)" xlink:href="#DejaVuSans-32"/>
      <use transform="translate(429.345703 0.015625)" xlink:href="#DejaVuSans-100"/>
      <use transform="translate(492.822266 0.015625)" xlink:href="#DejaVuSans-101"/>
      <use transform="translate(554.345703 0.015625)" xlink:href="#DejaVuSans-118"/>
      <use transform="translate(613.525391 0.015625)" xlink:href="#DejaVuSans-46"/>
     </g>
    </g>
   </g>
  </g>
 </g>
 <defs>
  <clipPath id="pe4bb75284d">
   <rect height="365.8" width="442.525993" x="77.55" y="73.4"/>
  </clipPath>
  <clipPath id="p76b842e87a">
   <rect height="365.8" width="442.525993" x="612.15" y="73.4"/>
  </clipPath>
 </defs>
</svg>
