<?xml version="1.0" encoding="utf-8" standalone="no"?>
<!DOCTYPE svg PUBLIC "-//W3C//DTD SVG 1.1//EN"
  "http://www.w3.org/Graphics/SVG/1.1/DTD/svg11.dtd">
<svg height="504pt" version="1.1" viewBox="0 0 720 504" width="720pt" xmlns="http://www.w3.org/2000/svg" xmlns:xlink="http://www.w3.org/1999/xlink">
 <metadata>
  <rdf:RDF xmlns:cc="http://creativecommons.org/ns#" xmlns:dc="http://purl.org/dc/elements/1.1/" xmlns:rdf="http://www.w3.org/1999/02/22-rdf-syntax-ns#">
   <cc:Work>
    <dc:type rdf:resource="http://purl.org/dc/dcmitype/StillImage"/>
    <dc:date>2021-10-02T11:07:22.243719</dc:date>
    <dc:format>image/svg+xml</dc:format>
    <dc:creator>
     <cc:Agent>
      <dc:title>Matplotlib v3.4.2, https://matplotlib.org/</dc:title>
     </cc:Agent>
    </dc:creator>
   </cc:Work>
  </rdf:RDF>
 </metadata>
 <defs>
  <style type="text/css">*{stroke-linecap:butt;stroke-linejoin:round;}</style>
 </defs>
 <g id="figure_1">
  <g id="patch_1">
   <path d="M 0 504 
L 720 504 
L 720 0 
L 0 0 
z
" style="fill:none;"/>
  </g>
  <g id="axes_1">
   <g id="patch_2">
    <path d="M 37.8 440.2 
L 689.7 440.2 
L 689.7 10.8 
L 37.8 10.8 
z
" style="fill:#ffffff;"/>
   </g>
   <g id="PolyCollection_1">
    <path clip-path="url(#p7cc3b168cb)" d="M -271004.969064 440.2 
L -271004.969064 440.2 
L 106.257186 264.191529 
L 188.094702 296.131982 
L 235.96658 313.999024 
L 269.932218 244.805928 
L 296.278014 339.861977 
L 317.804096 338.267624 
L 336.00414 329.845077 
L 351.769734 85.990598 
L 365.675974 338.492786 
L 378.11553 347.827677 
L 389.368477 345.864388 
L 399.641613 358.549395 
L 409.091981 359.276343 
L 417.841656 369.444052 
L 425.987408 377.123476 
L 433.607251 300.139425 
L 440.764992 373.478865 
L 447.513491 359.929377 
L 453.897022 372.24797 
L 459.953046 372.990881 
L 465.713534 378.930814 
L 471.205993 386.005803 
L 476.454261 388.01156 
L 481.479129 376.044935 
L 486.298842 384.313654 
L 490.929497 390.222149 
L 495.385369 388.2089 
L 499.679172 388.246963 
L 503.822284 382.829725 
L 507.824924 392.361141 
L 511.696307 389.735722 
L 515.444767 385.73535 
L 519.077871 395.495679 
L 522.602508 397.664212 
L 526.024968 392.617578 
L 529.351007 391.3986 
L 532.58591 389.718557 
L 535.734539 387.25127 
L 538.801375 392.751049 
L 541.790562 396.76989 
L 544.705935 394.626804 
L 547.55105 400.608856 
L 550.329215 401.32099 
L 553.043509 405.952233 
L 555.696802 396.864955 
L 558.291777 397.125801 
L 560.830941 402.344997 
L 563.316645 389.855647 
L 565.751094 403.960126 
L 568.136358 400.170143 
L 570.474387 401.238998 
L 572.767013 406.580028 
L 575.015969 405.631385 
L 577.222885 400.683827 
L 579.389305 404.047395 
L 581.516688 399.614447 
L 583.606417 404.513106 
L 585.6598 403.371446 
L 587.678082 404.899402 
L 589.66244 406.694426 
L 591.613999 404.215361 
L 593.533823 407.941742 
L 595.422928 406.276271 
L 597.282283 405.502038 
L 599.112809 403.980814 
L 600.915387 403.06772 
L 602.690858 410.618217 
L 604.440025 404.919028 
L 606.163655 403.992999 
L 607.862484 404.918136 
L 609.537215 406.043916 
L 611.188523 406.095839 
L 612.817053 411.232382 
L 614.423426 407.11996 
L 616.008236 403.75949 
L 617.572055 410.103203 
L 619.115431 408.265172 
L 620.638892 412.561262 
L 622.142945 412.320404 
L 623.628079 410.041659 
L 625.094763 411.252797 
L 626.543451 409.898513 
L 627.974578 412.419398 
L 629.388566 411.661966 
L 630.78582 412.366063 
L 632.166732 413.895548 
L 633.531678 412.298549 
L 634.881025 411.032542 
L 636.215125 414.520676 
L 637.534319 413.617023 
L 638.838935 410.309349 
L 640.129293 412.018915 
L 641.405701 412.070468 
L 642.668457 412.723209 
L 643.91785 412.58366 
L 645.154161 410.453056 
L 646.37766 414.238112 
L 647.58861 415.870406 
L 648.787265 410.433663 
L 649.973874 415.043434 
L 651.148676 415.520389 
L 652.311903 412.315663 
L 653.463781 415.03822 
L 654.60453 415.47299 
L 655.734362 415.932755 
L 656.853485 412.849233 
L 657.962099 417.357501 
L 659.060401 413.901363 
L 660.14858 416.180446 
L 661.226821 414.664343 
L 662.295304 413.368592 
L 663.354204 413.414552 
L 664.403692 412.6052 
L 665.443933 413.181756 
L 666.475089 418.948551 
L 667.497316 414.336047 
L 668.51077 416.72255 
L 669.515598 413.850833 
L 670.511946 414.339543 
L 671.499957 415.149515 
L 672.479768 415.361677 
L 673.451515 417.256322 
L 674.415329 416.763599 
L 675.371339 416.312451 
L 676.31967 417.21393 
L 677.260444 417.520788 
L 678.193782 416.661667 
L 679.119799 415.212089 
L 680.03861 418.24807 
L 680.950325 417.649752 
L 681.855054 415.49918 
L 682.752903 415.942626 
L 683.643976 419.222941 
L 684.528374 418.391548 
L 685.406197 417.126218 
L 686.277541 415.672413 
L 687.142501 418.563703 
L 688.001171 420.770085 
L 688.853641 419.453994 
L 689.7 428.827305 
L 689.7 424.94391 
L 689.7 424.94391 
L 688.853641 415.051361 
L 688.001171 416.969992 
L 687.142501 412.91516 
L 686.277541 409.664673 
L 685.406197 411.804811 
L 684.528374 413.472048 
L 683.643976 414.611479 
L 682.752903 410.869817 
L 681.855054 410.429566 
L 680.950325 412.965659 
L 680.03861 414.172198 
L 679.119799 408.910017 
L 678.193782 410.587497 
L 677.260444 412.425523 
L 676.31967 412.664398 
L 675.371339 410.398329 
L 674.415329 410.857119 
L 673.451515 412.645818 
L 672.479768 409.213859 
L 671.499957 409.635177 
L 670.511946 408.868134 
L 669.515598 407.745636 
L 668.51077 411.438626 
L 667.497316 408.505239 
L 666.475089 413.994207 
L 665.443933 407.093826 
L 664.403692 407.161644 
L 663.354204 408.106585 
L 662.295304 407.431326 
L 661.226821 408.430994 
L 660.14858 408.700725 
L 659.060401 407.240034 
L 657.962099 412.332521 
L 656.853485 406.200616 
L 655.734362 410.306616 
L 654.60453 410.366709 
L 653.463781 408.847019 
L 652.311903 406.328965 
L 651.148676 411.170767 
L 649.973874 409.58949 
L 648.787265 403.044146 
L 647.58861 409.339658 
L 646.37766 409.329291 
L 645.154161 404.513352 
L 643.91785 404.337858 
L 642.668457 406.098898 
L 641.405701 405.500829 
L 640.129293 404.586551 
L 638.838935 403.451139 
L 637.534319 407.038065 
L 636.215125 408.088569 
L 634.881025 403.050518 
L 633.531678 404.168497 
L 632.166732 407.816356 
L 630.78582 406.325218 
L 629.388566 405.755173 
L 627.974578 405.289895 
L 626.543451 402.351094 
L 625.094763 405.364483 
L 623.628079 402.704607 
L 622.142945 406.298576 
L 620.638892 406.695825 
L 619.115431 400.216505 
L 617.572055 402.224566 
L 616.008236 395.26366 
L 614.423426 399.608852 
L 612.817053 405.650545 
L 611.188523 398.817092 
L 609.537215 397.671006 
L 607.862484 396.212897 
L 606.163655 394.450721 
L 604.440025 395.296624 
L 602.690858 403.972859 
L 600.915387 394.533197 
L 599.112809 394.581199 
L 597.282283 397.302 
L 595.422928 398.859412 
L 593.533823 401.1 
L 591.613999 396.244971 
L 589.66244 399.298922 
L 587.678082 395.149332 
L 585.6598 395.107227 
L 583.606417 396.571656 
L 581.516688 390.680435 
L 579.389305 394.067328 
L 577.222885 389.634918 
L 575.015969 397.049554 
L 572.767013 398.772914 
L 570.474387 390.775281 
L 568.136358 389.134329 
L 565.751094 393.760409 
L 563.316645 376.221773 
L 560.830941 392.238649 
L 558.291777 387.070093 
L 555.696802 384.206187 
L 553.043509 396.352017 
L 550.329215 390.33069 
L 547.55105 391.08554 
L 544.705935 382.660067 
L 541.790562 385.031983 
L 538.801375 379.501344 
L 535.734539 372.262585 
L 532.58591 376.081776 
L 529.351007 379.539362 
L 526.024968 383.005062 
L 522.602508 386.970088 
L 519.077871 384.871013 
L 515.444767 372.554692 
L 511.696307 377.049121 
L 507.824924 382.183457 
L 503.822284 367.771487 
L 499.679172 374.663818 
L 495.385369 372.998129 
L 490.929497 373.098899 
L 486.298842 364.184563 
L 481.479129 358.533924 
L 476.454261 372.632217 
L 471.205993 371.009086 
L 465.713534 355.464382 
L 459.953046 344.209163 
L 453.897022 354.481415 
L 447.513491 334.23168 
L 440.764992 355.811749 
L 433.607251 261.71209 
L 425.987408 363.477696 
L 417.841656 353.318318 
L 409.091981 341.142438 
L 399.641613 338.138665 
L 389.368477 319.954596 
L 378.11553 323.222218 
L 365.675974 314.973266 
L 351.769734 28.171066 
L 336.00414 290.517276 
L 317.804096 303.343702 
L 296.278014 315.585772 
L 269.932218 193.880803 
L 235.96658 282.455666 
L 188.094702 247.81416 
L 106.257186 217.379621 
L -271004.969064 440.2 
z
" style="fill:#1b9e77;fill-opacity:0.2;stroke:#1b9e77;stroke-opacity:0.2;"/>
   </g>
   <g id="PolyCollection_2">
    <path clip-path="url(#p7cc3b168cb)" d="M -271004.969064 440.2 
L -271004.969064 440.2 
L 106.257186 299.026486 
L 188.094702 321.385306 
L 235.96658 346.298261 
L 269.932218 286.840267 
L 296.278014 358.043785 
L 317.804096 362.777347 
L 336.00414 370.966027 
L 351.769734 175.345973 
L 365.675974 363.919911 
L 378.11553 374.832233 
L 389.368477 367.538694 
L 399.641613 366.324721 
L 409.091981 376.409436 
L 417.841656 380.916207 
L 425.987408 378.14636 
L 433.607251 335.857476 
L 440.764992 378.744402 
L 447.513491 390.775501 
L 453.897022 385.2889 
L 459.953046 388.950105 
L 465.713534 393.377009 
L 471.205993 393.438932 
L 476.454261 400.528568 
L 481.479129 386.223346 
L 486.298842 402.773772 
L 490.929497 398.860503 
L 495.385369 402.137628 
L 499.679172 386.122068 
L 503.822284 398.377088 
L 507.824924 400.62858 
L 511.696307 406.062106 
L 515.444767 400.705518 
L 519.077871 397.759795 
L 522.602508 404.064851 
L 526.024968 408.032919 
L 529.351007 402.55453 
L 532.58591 406.396839 
L 535.734539 407.115074 
L 538.801375 410.301014 
L 541.790562 405.117852 
L 544.705935 406.565497 
L 547.55105 407.113509 
L 550.329215 403.249098 
L 553.043509 407.513756 
L 555.696802 404.469355 
L 558.291777 412.350475 
L 560.830941 405.681829 
L 563.316645 406.827106 
L 565.751094 413.02497 
L 568.136358 413.232195 
L 570.474387 407.683899 
L 572.767013 412.026265 
L 575.015969 412.538658 
L 577.222885 413.514497 
L 579.389305 410.367021 
L 581.516688 408.397397 
L 583.606417 413.307567 
L 585.6598 410.766524 
L 587.678082 414.126755 
L 589.66244 412.49613 
L 591.613999 415.880219 
L 593.533823 412.407715 
L 595.422928 411.241855 
L 597.282283 411.183862 
L 599.112809 414.382818 
L 600.915387 412.339517 
L 602.690858 413.29674 
L 604.440025 418.125201 
L 606.163655 412.155538 
L 607.862484 414.442026 
L 609.537215 417.573756 
L 611.188523 414.091969 
L 612.817053 415.918812 
L 614.423426 416.288638 
L 616.008236 417.137768 
L 617.572055 413.681696 
L 619.115431 416.236208 
L 620.638892 416.956112 
L 622.142945 416.584578 
L 623.628079 415.817485 
L 625.094763 420.572486 
L 626.543451 416.259064 
L 627.974578 417.807121 
L 629.388566 417.100886 
L 630.78582 419.781845 
L 632.166732 418.700119 
L 633.531678 418.950228 
L 634.881025 415.616235 
L 636.215125 416.131356 
L 637.534319 418.035022 
L 638.838935 415.586579 
L 640.129293 418.392173 
L 641.405701 418.792841 
L 642.668457 421.709335 
L 643.91785 420.942904 
L 645.154161 414.795575 
L 646.37766 418.331853 
L 647.58861 417.377286 
L 648.787265 421.153665 
L 649.973874 418.594707 
L 651.148676 420.258774 
L 652.311903 420.46107 
L 653.463781 419.966356 
L 654.60453 417.812372 
L 655.734362 418.125529 
L 656.853485 419.23233 
L 657.962099 420.933826 
L 659.060401 418.030951 
L 660.14858 420.040789 
L 661.226821 419.342645 
L 662.295304 423.034365 
L 663.354204 419.885748 
L 664.403692 422.200295 
L 665.443933 422.084338 
L 666.475089 421.298715 
L 667.497316 420.707581 
L 668.51077 421.749153 
L 669.515598 419.385711 
L 670.511946 422.152521 
L 671.499957 421.308513 
L 672.479768 420.684824 
L 673.451515 418.95767 
L 674.415329 420.464655 
L 675.371339 421.529346 
L 676.31967 421.162782 
L 677.260444 420.412276 
L 678.193782 421.706581 
L 679.119799 421.806893 
L 680.03861 420.224194 
L 680.950325 419.442243 
L 681.855054 420.157656 
L 682.752903 418.705613 
L 683.643976 423.576884 
L 684.528374 424.033125 
L 685.406197 422.350582 
L 686.277541 421.446983 
L 687.142501 423.644531 
L 688.001171 419.521603 
L 688.853641 420.86237 
L 689.7 431.981526 
L 689.7 428.107973 
L 689.7 428.107973 
L 688.853641 416.584353 
L 688.001171 410.493828 
L 687.142501 419.576635 
L 686.277541 415.935701 
L 685.406197 418.304087 
L 684.528374 420.445486 
L 683.643976 418.433963 
L 682.752903 412.306776 
L 681.855054 414.193684 
L 680.950325 414.900295 
L 680.03861 413.520088 
L 679.119799 417.516524 
L 678.193782 415.342683 
L 677.260444 415.542616 
L 676.31967 416.871654 
L 675.371339 417.332888 
L 674.415329 412.867549 
L 673.451515 414.186621 
L 672.479768 414.979966 
L 671.499957 417.224143 
L 670.511946 417.892708 
L 669.515598 413.934817 
L 668.51077 417.99017 
L 667.497316 414.125992 
L 666.475089 415.644876 
L 665.443933 417.193104 
L 664.403692 418.640003 
L 663.354204 412.430396 
L 662.295304 418.971929 
L 661.226821 412.507862 
L 660.14858 415.205719 
L 659.060401 412.866242 
L 657.962099 415.415127 
L 656.853485 414.032793 
L 655.734362 412.430594 
L 654.60453 410.074096 
L 653.463781 415.27512 
L 652.311903 413.710127 
L 651.148676 416.623135 
L 649.973874 413.900702 
L 648.787265 416.562926 
L 647.58861 412.108569 
L 646.37766 410.505968 
L 645.154161 406.860981 
L 643.91785 416.872714 
L 642.668457 417.310082 
L 641.405701 412.434412 
L 640.129293 412.926222 
L 638.838935 407.567547 
L 637.534319 413.250984 
L 636.215125 411.105432 
L 634.881025 408.932078 
L 633.531678 413.971016 
L 632.166732 411.742952 
L 630.78582 412.516587 
L 629.388566 407.693649 
L 627.974578 413.106276 
L 626.543451 410.480538 
L 625.094763 415.683309 
L 623.628079 410.615333 
L 622.142945 410.671805 
L 620.638892 410.662477 
L 619.115431 409.102983 
L 617.572055 404.932446 
L 616.008236 412.164345 
L 614.423426 408.223367 
L 612.817053 408.806351 
L 611.188523 407.325645 
L 609.537215 400.947904 
L 607.862484 408.486293 
L 606.163655 402.21291 
L 604.440025 412.538483 
L 602.690858 407.192069 
L 600.915387 405.150336 
L 599.112809 407.740816 
L 597.282283 401.943033 
L 595.422928 402.568144 
L 593.533823 403.654069 
L 591.613999 409.671351 
L 589.66244 402.957088 
L 587.678082 407.943083 
L 585.6598 401.025686 
L 583.606417 406.211412 
L 581.516688 398.524042 
L 579.389305 401.352045 
L 577.222885 405.25055 
L 575.015969 405.142096 
L 572.767013 405.713682 
L 570.474387 399.397101 
L 568.136358 405.888532 
L 565.751094 406.495341 
L 563.316645 396.416568 
L 560.830941 395.400504 
L 558.291777 405.467641 
L 555.696802 394.06874 
L 553.043509 398.594705 
L 550.329215 387.607601 
L 547.55105 398.399733 
L 544.705935 397.771523 
L 541.790562 397.384377 
L 538.801375 404.702498 
L 535.734539 397.066617 
L 532.58591 397.88631 
L 529.351007 385.639351 
L 526.024968 393.254409 
L 522.602508 394.123461 
L 519.077871 385.714505 
L 515.444767 392.996847 
L 511.696307 396.938553 
L 507.824924 387.980263 
L 503.822284 387.398307 
L 499.679172 368.681538 
L 495.385369 392.481253 
L 490.929497 383.120598 
L 486.298842 391.46147 
L 481.479129 372.098531 
L 476.454261 389.055675 
L 471.205993 381.215773 
L 465.713534 381.462121 
L 459.953046 373.271026 
L 453.897022 370.381862 
L 447.513491 376.015589 
L 440.764992 354.407508 
L 433.607251 311.428339 
L 425.987408 352.345355 
L 417.841656 363.967355 
L 409.091981 353.697332 
L 399.641613 336.236871 
L 389.368477 347.82643 
L 378.11553 358.131141 
L 365.675974 343.424001 
L 351.769734 119.217851 
L 336.00414 348.545651 
L 317.804096 345.274916 
L 296.278014 332.461334 
L 269.932218 246.832537 
L 235.96658 318.499214 
L 188.094702 283.734371 
L 106.257186 259.326516 
L -271004.969064 440.2 
z
" style="fill:#8b4513;fill-opacity:0.2;stroke:#8b4513;stroke-opacity:0.2;"/>
   </g>
   <g id="PolyCollection_3">
    <path clip-path="url(#p7cc3b168cb)" d="M -271004.969064 440.2 
L -271004.969064 440.2 
L 179.94895 303.838357 
L 261.786466 327.50735 
L 309.658344 354.389212 
L 343.623982 358.40513 
L 369.969778 372.686992 
L 391.49586 375.339563 
L 409.695904 377.936488 
L 425.461498 385.072868 
L 439.367738 386.61137 
L 451.807294 388.624195 
L 463.060241 389.29912 
L 473.333376 393.120106 
L 482.783745 391.821379 
L 491.53342 392.256779 
L 499.679172 391.694277 
L 507.299014 395.282628 
L 514.456756 390.871512 
L 521.205254 388.446595 
L 527.588786 393.047152 
L 533.64481 394.796919 
L 539.405298 397.02964 
L 544.897757 396.341006 
L 550.146024 394.618676 
L 555.170893 394.568002 
L 559.990606 398.026306 
L 564.621261 396.272568 
L 569.077133 397.405764 
L 573.370936 400.447754 
L 577.514048 401.648132 
L 581.516688 400.67784 
L 585.38807 395.723837 
L 589.136531 398.753177 
L 592.769635 403.484087 
L 596.294272 403.273561 
L 599.716732 405.395212 
L 603.042771 409.835377 
L 606.277674 409.247469 
L 609.426302 406.893829 
L 612.493139 411.008549 
L 615.482326 410.718456 
L 618.397699 405.323829 
L 621.242814 411.658336 
L 624.020979 411.960493 
L 626.735273 413.304202 
L 629.388566 412.759769 
L 631.983541 404.732923 
L 634.522705 409.808534 
L 637.008409 413.34564 
L 639.442857 411.86841 
L 641.828122 415.116478 
L 644.16615 414.961726 
L 646.458777 410.960266 
L 648.707733 414.394232 
L 650.914649 411.84577 
L 653.081069 414.098379 
L 655.208452 415.460928 
L 657.298181 411.576215 
L 659.351564 413.373711 
L 661.369845 413.465493 
L 663.354204 419.355472 
L 665.305762 415.735999 
L 667.225587 413.578488 
L 669.114692 417.239203 
L 670.974047 419.17785 
L 672.804573 414.548138 
L 674.607151 417.67692 
L 676.382622 418.404957 
L 678.131788 418.213365 
L 679.855419 417.026601 
L 681.554248 416.855881 
L 683.228979 417.397725 
L 684.880287 418.796822 
L 686.508817 417.533808 
L 688.11519 418.970819 
L 689.7 430.716721 
L 689.7 428.448712 
L 689.7 428.448712 
L 688.11519 415.189259 
L 686.508817 413.599055 
L 684.880287 414.799194 
L 683.228979 412.652869 
L 681.554248 412.955534 
L 679.855419 412.848107 
L 678.131788 414.246522 
L 676.382622 414.399751 
L 674.607151 413.242845 
L 672.804573 410.078251 
L 670.974047 415.608103 
L 669.114692 413.413769 
L 667.225587 407.271829 
L 665.305762 411.070243 
L 663.354204 415.935689 
L 661.369845 407.966909 
L 659.351564 408.001498 
L 657.298181 406.177611 
L 655.208452 410.831912 
L 653.081069 409.078266 
L 650.914649 406.305619 
L 648.707733 409.177718 
L 646.458777 404.995558 
L 644.16615 410.850627 
L 641.828122 410.263651 
L 639.442857 407.028297 
L 637.008409 408.380664 
L 634.522705 403.793905 
L 631.983541 397.916848 
L 629.388566 406.918038 
L 626.735273 407.931632 
L 624.020979 407.405699 
L 621.242814 407.17153 
L 618.397699 398.327407 
L 615.482326 405.384862 
L 612.493139 405.37059 
L 609.426302 399.926304 
L 606.277674 404.265872 
L 603.042771 405.156763 
L 599.716732 398.631186 
L 596.294272 396.273522 
L 592.769635 395.371258 
L 589.136531 389.961674 
L 585.38807 387.215889 
L 581.516688 392.305352 
L 577.514048 394.31489 
L 573.370936 394.021622 
L 569.077133 389.495023 
L 564.621261 388.481121 
L 559.990606 390.052309 
L 555.170893 387.288079 
L 550.146024 387.081265 
L 544.897757 388.975088 
L 539.405298 389.079517 
L 533.64481 386.019293 
L 527.588786 383.653234 
L 521.205254 379.070785 
L 514.456756 381.775033 
L 507.299014 387.707054 
L 499.679172 383.679837 
L 491.53342 384.964622 
L 482.783745 382.364078 
L 473.333376 385.961602 
L 463.060241 380.522813 
L 451.807294 381.358807 
L 439.367738 377.249814 
L 425.461498 376.009887 
L 409.695904 368.378478 
L 391.49586 365.299736 
L 369.969778 362.295054 
L 343.623982 342.38728 
L 309.658344 336.919055 
L 261.786466 306.187758 
L 179.94895 283.796036 
L -271004.969064 440.2 
z
" style="fill:#7570b3;fill-opacity:0.2;stroke:#7570b3;stroke-opacity:0.2;"/>
   </g>
   <g id="matplotlib.axis_1">
    <g id="xtick_1">
     <g id="line2d_1">
      <defs>
       <path d="M 0 0 
L 0 3.5 
" id="m82218b7dbc" style="stroke:#000000;stroke-width:0.8;"/>
      </defs>
      <g>
       <use style="stroke:#000000;stroke-width:0.8;" x="37.8" xlink:href="#m82218b7dbc" y="440.2"/>
      </g>
     </g>
     <g id="text_1">
      <!-- 0.001 -->
      <g transform="translate(12.778125 461.515625)scale(0.2 -0.2)">
       <defs>
        <path d="M 266 2259 
Q 266 3072 433 3567 
Q 600 4063 929 4331 
Q 1259 4600 1759 4600 
Q 2128 4600 2406 4451 
Q 2684 4303 2865 4023 
Q 3047 3744 3150 3342 
Q 3253 2941 3253 2259 
Q 3253 1453 3087 958 
Q 2922 463 2592 192 
Q 2263 -78 1759 -78 
Q 1097 -78 719 397 
Q 266 969 266 2259 
z
M 844 2259 
Q 844 1131 1108 757 
Q 1372 384 1759 384 
Q 2147 384 2411 759 
Q 2675 1134 2675 2259 
Q 2675 3391 2411 3762 
Q 2147 4134 1753 4134 
Q 1366 4134 1134 3806 
Q 844 3388 844 2259 
z
" id="ArialMT-30" transform="scale(0.015625)"/>
        <path d="M 581 0 
L 581 641 
L 1222 641 
L 1222 0 
L 581 0 
z
" id="ArialMT-2e" transform="scale(0.015625)"/>
        <path d="M 2384 0 
L 1822 0 
L 1822 3584 
Q 1619 3391 1289 3197 
Q 959 3003 697 2906 
L 697 3450 
Q 1169 3672 1522 3987 
Q 1875 4303 2022 4600 
L 2384 4600 
L 2384 0 
z
" id="ArialMT-31" transform="scale(0.015625)"/>
       </defs>
       <use xlink:href="#ArialMT-30"/>
       <use x="55.615234" xlink:href="#ArialMT-2e"/>
       <use x="83.398438" xlink:href="#ArialMT-30"/>
       <use x="139.013672" xlink:href="#ArialMT-30"/>
       <use x="194.628906" xlink:href="#ArialMT-31"/>
      </g>
     </g>
    </g>
    <g id="xtick_2">
     <g id="line2d_2">
      <g>
       <use style="stroke:#000000;stroke-width:0.8;" x="227.820828" xlink:href="#m82218b7dbc" y="440.2"/>
      </g>
     </g>
     <g id="text_2">
      <!-- 0.005 -->
      <g transform="translate(202.798953 461.515625)scale(0.2 -0.2)">
       <defs>
        <path d="M 266 1200 
L 856 1250 
Q 922 819 1161 601 
Q 1400 384 1738 384 
Q 2144 384 2425 690 
Q 2706 997 2706 1503 
Q 2706 1984 2436 2262 
Q 2166 2541 1728 2541 
Q 1456 2541 1237 2417 
Q 1019 2294 894 2097 
L 366 2166 
L 809 4519 
L 3088 4519 
L 3088 3981 
L 1259 3981 
L 1013 2750 
Q 1425 3038 1878 3038 
Q 2478 3038 2890 2622 
Q 3303 2206 3303 1553 
Q 3303 931 2941 478 
Q 2500 -78 1738 -78 
Q 1113 -78 717 272 
Q 322 622 266 1200 
z
" id="ArialMT-35" transform="scale(0.015625)"/>
       </defs>
       <use xlink:href="#ArialMT-30"/>
       <use x="55.615234" xlink:href="#ArialMT-2e"/>
       <use x="83.398438" xlink:href="#ArialMT-30"/>
       <use x="139.013672" xlink:href="#ArialMT-30"/>
       <use x="194.628906" xlink:href="#ArialMT-35"/>
      </g>
     </g>
    </g>
    <g id="xtick_3">
     <g id="line2d_3">
      <g>
       <use style="stroke:#000000;stroke-width:0.8;" x="309.658344" xlink:href="#m82218b7dbc" y="440.2"/>
      </g>
     </g>
     <g id="text_3">
      <!-- 0.01 -->
      <g transform="translate(290.197407 461.515625)scale(0.2 -0.2)">
       <use xlink:href="#ArialMT-30"/>
       <use x="55.615234" xlink:href="#ArialMT-2e"/>
       <use x="83.398438" xlink:href="#ArialMT-30"/>
       <use x="139.013672" xlink:href="#ArialMT-31"/>
      </g>
     </g>
    </g>
    <g id="xtick_4">
     <g id="line2d_4">
      <g>
       <use style="stroke:#000000;stroke-width:0.8;" x="499.679172" xlink:href="#m82218b7dbc" y="440.2"/>
      </g>
     </g>
     <g id="text_4">
      <!-- 0.05 -->
      <g transform="translate(480.218235 461.515625)scale(0.2 -0.2)">
       <use xlink:href="#ArialMT-30"/>
       <use x="55.615234" xlink:href="#ArialMT-2e"/>
       <use x="83.398438" xlink:href="#ArialMT-30"/>
       <use x="139.013672" xlink:href="#ArialMT-35"/>
      </g>
     </g>
    </g>
    <g id="xtick_5">
     <g id="line2d_5">
      <g>
       <use style="stroke:#000000;stroke-width:0.8;" x="581.516688" xlink:href="#m82218b7dbc" y="440.2"/>
      </g>
     </g>
     <g id="text_5">
      <!-- 0.1 -->
      <g transform="translate(567.616688 461.515625)scale(0.2 -0.2)">
       <use xlink:href="#ArialMT-30"/>
       <use x="55.615234" xlink:href="#ArialMT-2e"/>
       <use x="83.398438" xlink:href="#ArialMT-31"/>
      </g>
     </g>
    </g>
    <g id="xtick_6">
     <g id="line2d_6">
      <g>
       <use style="stroke:#000000;stroke-width:0.8;" x="689.7" xlink:href="#m82218b7dbc" y="440.2"/>
      </g>
     </g>
     <g id="text_6">
      <!-- 0.25 -->
      <g transform="translate(670.239063 461.515625)scale(0.2 -0.2)">
       <defs>
        <path d="M 3222 541 
L 3222 0 
L 194 0 
Q 188 203 259 391 
Q 375 700 629 1000 
Q 884 1300 1366 1694 
Q 2113 2306 2375 2664 
Q 2638 3022 2638 3341 
Q 2638 3675 2398 3904 
Q 2159 4134 1775 4134 
Q 1369 4134 1125 3890 
Q 881 3647 878 3216 
L 300 3275 
Q 359 3922 746 4261 
Q 1134 4600 1788 4600 
Q 2447 4600 2831 4234 
Q 3216 3869 3216 3328 
Q 3216 3053 3103 2787 
Q 2991 2522 2730 2228 
Q 2469 1934 1863 1422 
Q 1356 997 1212 845 
Q 1069 694 975 541 
L 3222 541 
z
" id="ArialMT-32" transform="scale(0.015625)"/>
       </defs>
       <use xlink:href="#ArialMT-30"/>
       <use x="55.615234" xlink:href="#ArialMT-2e"/>
       <use x="83.398438" xlink:href="#ArialMT-32"/>
       <use x="139.013672" xlink:href="#ArialMT-35"/>
      </g>
     </g>
    </g>
    <g id="xtick_7">
     <g id="line2d_7">
      <defs>
       <path d="M 0 0 
L 0 2 
" id="m99228b2c1a" style="stroke:#000000;stroke-width:0.6;"/>
      </defs>
      <g>
       <use style="stroke:#000000;stroke-width:0.6;" x="119.637516" xlink:href="#m99228b2c1a" y="440.2"/>
      </g>
     </g>
    </g>
    <g id="xtick_8">
     <g id="line2d_8">
      <g>
       <use style="stroke:#000000;stroke-width:0.6;" x="167.509394" xlink:href="#m99228b2c1a" y="440.2"/>
      </g>
     </g>
    </g>
    <g id="xtick_9">
     <g id="line2d_9">
      <g>
       <use style="stroke:#000000;stroke-width:0.6;" x="201.475032" xlink:href="#m99228b2c1a" y="440.2"/>
      </g>
     </g>
    </g>
    <g id="xtick_10">
     <g id="line2d_10">
      <g>
       <use style="stroke:#000000;stroke-width:0.6;" x="249.34691" xlink:href="#m99228b2c1a" y="440.2"/>
      </g>
     </g>
    </g>
    <g id="xtick_11">
     <g id="line2d_11">
      <g>
       <use style="stroke:#000000;stroke-width:0.6;" x="267.546954" xlink:href="#m99228b2c1a" y="440.2"/>
      </g>
     </g>
    </g>
    <g id="xtick_12">
     <g id="line2d_12">
      <g>
       <use style="stroke:#000000;stroke-width:0.6;" x="283.312548" xlink:href="#m99228b2c1a" y="440.2"/>
      </g>
     </g>
    </g>
    <g id="xtick_13">
     <g id="line2d_13">
      <g>
       <use style="stroke:#000000;stroke-width:0.6;" x="297.218788" xlink:href="#m99228b2c1a" y="440.2"/>
      </g>
     </g>
    </g>
    <g id="xtick_14">
     <g id="line2d_14">
      <g>
       <use style="stroke:#000000;stroke-width:0.6;" x="391.49586" xlink:href="#m99228b2c1a" y="440.2"/>
      </g>
     </g>
    </g>
    <g id="xtick_15">
     <g id="line2d_15">
      <g>
       <use style="stroke:#000000;stroke-width:0.6;" x="439.367738" xlink:href="#m99228b2c1a" y="440.2"/>
      </g>
     </g>
    </g>
    <g id="xtick_16">
     <g id="line2d_16">
      <g>
       <use style="stroke:#000000;stroke-width:0.6;" x="473.333376" xlink:href="#m99228b2c1a" y="440.2"/>
      </g>
     </g>
    </g>
    <g id="xtick_17">
     <g id="line2d_17">
      <g>
       <use style="stroke:#000000;stroke-width:0.6;" x="521.205254" xlink:href="#m99228b2c1a" y="440.2"/>
      </g>
     </g>
    </g>
    <g id="xtick_18">
     <g id="line2d_18">
      <g>
       <use style="stroke:#000000;stroke-width:0.6;" x="539.405298" xlink:href="#m99228b2c1a" y="440.2"/>
      </g>
     </g>
    </g>
    <g id="xtick_19">
     <g id="line2d_19">
      <g>
       <use style="stroke:#000000;stroke-width:0.6;" x="555.170893" xlink:href="#m99228b2c1a" y="440.2"/>
      </g>
     </g>
    </g>
    <g id="xtick_20">
     <g id="line2d_20">
      <g>
       <use style="stroke:#000000;stroke-width:0.6;" x="569.077133" xlink:href="#m99228b2c1a" y="440.2"/>
      </g>
     </g>
    </g>
    <g id="xtick_21">
     <g id="line2d_21">
      <g>
       <use style="stroke:#000000;stroke-width:0.6;" x="663.354204" xlink:href="#m99228b2c1a" y="440.2"/>
      </g>
     </g>
    </g>
    <g id="text_7">
     <!-- Frequency (Hz) -->
     <g transform="translate(277.623047 487.689844)scale(0.25 -0.25)">
      <defs>
       <path d="M 525 0 
L 525 4581 
L 3616 4581 
L 3616 4041 
L 1131 4041 
L 1131 2622 
L 3281 2622 
L 3281 2081 
L 1131 2081 
L 1131 0 
L 525 0 
z
" id="ArialMT-46" transform="scale(0.015625)"/>
       <path d="M 416 0 
L 416 3319 
L 922 3319 
L 922 2816 
Q 1116 3169 1280 3281 
Q 1444 3394 1641 3394 
Q 1925 3394 2219 3213 
L 2025 2691 
Q 1819 2813 1613 2813 
Q 1428 2813 1281 2702 
Q 1134 2591 1072 2394 
Q 978 2094 978 1738 
L 978 0 
L 416 0 
z
" id="ArialMT-72" transform="scale(0.015625)"/>
       <path d="M 2694 1069 
L 3275 997 
Q 3138 488 2766 206 
Q 2394 -75 1816 -75 
Q 1088 -75 661 373 
Q 234 822 234 1631 
Q 234 2469 665 2931 
Q 1097 3394 1784 3394 
Q 2450 3394 2872 2941 
Q 3294 2488 3294 1666 
Q 3294 1616 3291 1516 
L 816 1516 
Q 847 969 1125 678 
Q 1403 388 1819 388 
Q 2128 388 2347 550 
Q 2566 713 2694 1069 
z
M 847 1978 
L 2700 1978 
Q 2663 2397 2488 2606 
Q 2219 2931 1791 2931 
Q 1403 2931 1139 2672 
Q 875 2413 847 1978 
z
" id="ArialMT-65" transform="scale(0.015625)"/>
       <path d="M 2538 -1272 
L 2538 353 
Q 2406 169 2170 47 
Q 1934 -75 1669 -75 
Q 1078 -75 651 397 
Q 225 869 225 1691 
Q 225 2191 398 2587 
Q 572 2984 901 3189 
Q 1231 3394 1625 3394 
Q 2241 3394 2594 2875 
L 2594 3319 
L 3100 3319 
L 3100 -1272 
L 2538 -1272 
z
M 803 1669 
Q 803 1028 1072 708 
Q 1341 388 1716 388 
Q 2075 388 2334 692 
Q 2594 997 2594 1619 
Q 2594 2281 2320 2615 
Q 2047 2950 1678 2950 
Q 1313 2950 1058 2639 
Q 803 2328 803 1669 
z
" id="ArialMT-71" transform="scale(0.015625)"/>
       <path d="M 2597 0 
L 2597 488 
Q 2209 -75 1544 -75 
Q 1250 -75 995 37 
Q 741 150 617 320 
Q 494 491 444 738 
Q 409 903 409 1263 
L 409 3319 
L 972 3319 
L 972 1478 
Q 972 1038 1006 884 
Q 1059 663 1231 536 
Q 1403 409 1656 409 
Q 1909 409 2131 539 
Q 2353 669 2445 892 
Q 2538 1116 2538 1541 
L 2538 3319 
L 3100 3319 
L 3100 0 
L 2597 0 
z
" id="ArialMT-75" transform="scale(0.015625)"/>
       <path d="M 422 0 
L 422 3319 
L 928 3319 
L 928 2847 
Q 1294 3394 1984 3394 
Q 2284 3394 2536 3286 
Q 2788 3178 2913 3003 
Q 3038 2828 3088 2588 
Q 3119 2431 3119 2041 
L 3119 0 
L 2556 0 
L 2556 2019 
Q 2556 2363 2490 2533 
Q 2425 2703 2258 2804 
Q 2091 2906 1866 2906 
Q 1506 2906 1245 2678 
Q 984 2450 984 1813 
L 984 0 
L 422 0 
z
" id="ArialMT-6e" transform="scale(0.015625)"/>
       <path d="M 2588 1216 
L 3141 1144 
Q 3050 572 2676 248 
Q 2303 -75 1759 -75 
Q 1078 -75 664 370 
Q 250 816 250 1647 
Q 250 2184 428 2587 
Q 606 2991 970 3192 
Q 1334 3394 1763 3394 
Q 2303 3394 2647 3120 
Q 2991 2847 3088 2344 
L 2541 2259 
Q 2463 2594 2264 2762 
Q 2066 2931 1784 2931 
Q 1359 2931 1093 2626 
Q 828 2322 828 1663 
Q 828 994 1084 691 
Q 1341 388 1753 388 
Q 2084 388 2306 591 
Q 2528 794 2588 1216 
z
" id="ArialMT-63" transform="scale(0.015625)"/>
       <path d="M 397 -1278 
L 334 -750 
Q 519 -800 656 -800 
Q 844 -800 956 -737 
Q 1069 -675 1141 -563 
Q 1194 -478 1313 -144 
Q 1328 -97 1363 -6 
L 103 3319 
L 709 3319 
L 1400 1397 
Q 1534 1031 1641 628 
Q 1738 1016 1872 1384 
L 2581 3319 
L 3144 3319 
L 1881 -56 
Q 1678 -603 1566 -809 
Q 1416 -1088 1222 -1217 
Q 1028 -1347 759 -1347 
Q 597 -1347 397 -1278 
z
" id="ArialMT-79" transform="scale(0.015625)"/>
       <path id="ArialMT-20" transform="scale(0.015625)"/>
       <path d="M 1497 -1347 
Q 1031 -759 709 28 
Q 388 816 388 1659 
Q 388 2403 628 3084 
Q 909 3875 1497 4659 
L 1900 4659 
Q 1522 4009 1400 3731 
Q 1209 3300 1100 2831 
Q 966 2247 966 1656 
Q 966 153 1900 -1347 
L 1497 -1347 
z
" id="ArialMT-28" transform="scale(0.015625)"/>
       <path d="M 513 0 
L 513 4581 
L 1119 4581 
L 1119 2700 
L 3500 2700 
L 3500 4581 
L 4106 4581 
L 4106 0 
L 3500 0 
L 3500 2159 
L 1119 2159 
L 1119 0 
L 513 0 
z
" id="ArialMT-48" transform="scale(0.015625)"/>
       <path d="M 125 0 
L 125 456 
L 2238 2881 
Q 1878 2863 1603 2863 
L 250 2863 
L 250 3319 
L 2963 3319 
L 2963 2947 
L 1166 841 
L 819 456 
Q 1197 484 1528 484 
L 3063 484 
L 3063 0 
L 125 0 
z
" id="ArialMT-7a" transform="scale(0.015625)"/>
       <path d="M 791 -1347 
L 388 -1347 
Q 1322 153 1322 1656 
Q 1322 2244 1188 2822 
Q 1081 3291 891 3722 
Q 769 4003 388 4659 
L 791 4659 
Q 1378 3875 1659 3084 
Q 1900 2403 1900 1659 
Q 1900 816 1576 28 
Q 1253 -759 791 -1347 
z
" id="ArialMT-29" transform="scale(0.015625)"/>
      </defs>
      <use xlink:href="#ArialMT-46"/>
      <use x="61.083984" xlink:href="#ArialMT-72"/>
      <use x="94.384766" xlink:href="#ArialMT-65"/>
      <use x="150" xlink:href="#ArialMT-71"/>
      <use x="205.615234" xlink:href="#ArialMT-75"/>
      <use x="261.230469" xlink:href="#ArialMT-65"/>
      <use x="316.845703" xlink:href="#ArialMT-6e"/>
      <use x="372.460938" xlink:href="#ArialMT-63"/>
      <use x="422.460938" xlink:href="#ArialMT-79"/>
      <use x="472.460938" xlink:href="#ArialMT-20"/>
      <use x="500.244141" xlink:href="#ArialMT-28"/>
      <use x="533.544922" xlink:href="#ArialMT-48"/>
      <use x="605.761719" xlink:href="#ArialMT-7a"/>
      <use x="655.761719" xlink:href="#ArialMT-29"/>
     </g>
    </g>
   </g>
   <g id="matplotlib.axis_2">
    <g id="text_8">
     <!-- Power Spectrum -->
     <g transform="translate(28.83125 317.890625)rotate(-90)scale(0.25 -0.25)">
      <defs>
       <path d="M 494 0 
L 494 4581 
L 2222 4581 
Q 2678 4581 2919 4538 
Q 3256 4481 3484 4323 
Q 3713 4166 3852 3881 
Q 3991 3597 3991 3256 
Q 3991 2672 3619 2267 
Q 3247 1863 2275 1863 
L 1100 1863 
L 1100 0 
L 494 0 
z
M 1100 2403 
L 2284 2403 
Q 2872 2403 3119 2622 
Q 3366 2841 3366 3238 
Q 3366 3525 3220 3729 
Q 3075 3934 2838 4000 
Q 2684 4041 2272 4041 
L 1100 4041 
L 1100 2403 
z
" id="ArialMT-50" transform="scale(0.015625)"/>
       <path d="M 213 1659 
Q 213 2581 725 3025 
Q 1153 3394 1769 3394 
Q 2453 3394 2887 2945 
Q 3322 2497 3322 1706 
Q 3322 1066 3130 698 
Q 2938 331 2570 128 
Q 2203 -75 1769 -75 
Q 1072 -75 642 372 
Q 213 819 213 1659 
z
M 791 1659 
Q 791 1022 1069 705 
Q 1347 388 1769 388 
Q 2188 388 2466 706 
Q 2744 1025 2744 1678 
Q 2744 2294 2464 2611 
Q 2184 2928 1769 2928 
Q 1347 2928 1069 2612 
Q 791 2297 791 1659 
z
" id="ArialMT-6f" transform="scale(0.015625)"/>
       <path d="M 1034 0 
L 19 3319 
L 600 3319 
L 1128 1403 
L 1325 691 
Q 1338 744 1497 1375 
L 2025 3319 
L 2603 3319 
L 3100 1394 
L 3266 759 
L 3456 1400 
L 4025 3319 
L 4572 3319 
L 3534 0 
L 2950 0 
L 2422 1988 
L 2294 2553 
L 1622 0 
L 1034 0 
z
" id="ArialMT-77" transform="scale(0.015625)"/>
       <path d="M 288 1472 
L 859 1522 
Q 900 1178 1048 958 
Q 1197 738 1509 602 
Q 1822 466 2213 466 
Q 2559 466 2825 569 
Q 3091 672 3220 851 
Q 3350 1031 3350 1244 
Q 3350 1459 3225 1620 
Q 3100 1781 2813 1891 
Q 2628 1963 1997 2114 
Q 1366 2266 1113 2400 
Q 784 2572 623 2826 
Q 463 3081 463 3397 
Q 463 3744 659 4045 
Q 856 4347 1234 4503 
Q 1613 4659 2075 4659 
Q 2584 4659 2973 4495 
Q 3363 4331 3572 4012 
Q 3781 3694 3797 3291 
L 3216 3247 
Q 3169 3681 2898 3903 
Q 2628 4125 2100 4125 
Q 1550 4125 1298 3923 
Q 1047 3722 1047 3438 
Q 1047 3191 1225 3031 
Q 1400 2872 2139 2705 
Q 2878 2538 3153 2413 
Q 3553 2228 3743 1945 
Q 3934 1663 3934 1294 
Q 3934 928 3725 604 
Q 3516 281 3123 101 
Q 2731 -78 2241 -78 
Q 1619 -78 1198 103 
Q 778 284 539 648 
Q 300 1013 288 1472 
z
" id="ArialMT-53" transform="scale(0.015625)"/>
       <path d="M 422 -1272 
L 422 3319 
L 934 3319 
L 934 2888 
Q 1116 3141 1344 3267 
Q 1572 3394 1897 3394 
Q 2322 3394 2647 3175 
Q 2972 2956 3137 2557 
Q 3303 2159 3303 1684 
Q 3303 1175 3120 767 
Q 2938 359 2589 142 
Q 2241 -75 1856 -75 
Q 1575 -75 1351 44 
Q 1128 163 984 344 
L 984 -1272 
L 422 -1272 
z
M 931 1641 
Q 931 1000 1190 694 
Q 1450 388 1819 388 
Q 2194 388 2461 705 
Q 2728 1022 2728 1688 
Q 2728 2322 2467 2637 
Q 2206 2953 1844 2953 
Q 1484 2953 1207 2617 
Q 931 2281 931 1641 
z
" id="ArialMT-70" transform="scale(0.015625)"/>
       <path d="M 1650 503 
L 1731 6 
Q 1494 -44 1306 -44 
Q 1000 -44 831 53 
Q 663 150 594 308 
Q 525 466 525 972 
L 525 2881 
L 113 2881 
L 113 3319 
L 525 3319 
L 525 4141 
L 1084 4478 
L 1084 3319 
L 1650 3319 
L 1650 2881 
L 1084 2881 
L 1084 941 
Q 1084 700 1114 631 
Q 1144 563 1211 522 
Q 1278 481 1403 481 
Q 1497 481 1650 503 
z
" id="ArialMT-74" transform="scale(0.015625)"/>
       <path d="M 422 0 
L 422 3319 
L 925 3319 
L 925 2853 
Q 1081 3097 1340 3245 
Q 1600 3394 1931 3394 
Q 2300 3394 2536 3241 
Q 2772 3088 2869 2813 
Q 3263 3394 3894 3394 
Q 4388 3394 4653 3120 
Q 4919 2847 4919 2278 
L 4919 0 
L 4359 0 
L 4359 2091 
Q 4359 2428 4304 2576 
Q 4250 2725 4106 2815 
Q 3963 2906 3769 2906 
Q 3419 2906 3187 2673 
Q 2956 2441 2956 1928 
L 2956 0 
L 2394 0 
L 2394 2156 
Q 2394 2531 2256 2718 
Q 2119 2906 1806 2906 
Q 1569 2906 1367 2781 
Q 1166 2656 1075 2415 
Q 984 2175 984 1722 
L 984 0 
L 422 0 
z
" id="ArialMT-6d" transform="scale(0.015625)"/>
      </defs>
      <use xlink:href="#ArialMT-50"/>
      <use x="66.699219" xlink:href="#ArialMT-6f"/>
      <use x="122.314453" xlink:href="#ArialMT-77"/>
      <use x="194.53125" xlink:href="#ArialMT-65"/>
      <use x="250.146484" xlink:href="#ArialMT-72"/>
      <use x="283.447266" xlink:href="#ArialMT-20"/>
      <use x="311.230469" xlink:href="#ArialMT-53"/>
      <use x="377.929688" xlink:href="#ArialMT-70"/>
      <use x="433.544922" xlink:href="#ArialMT-65"/>
      <use x="489.160156" xlink:href="#ArialMT-63"/>
      <use x="539.160156" xlink:href="#ArialMT-74"/>
      <use x="566.943359" xlink:href="#ArialMT-72"/>
      <use x="600.244141" xlink:href="#ArialMT-75"/>
      <use x="655.859375" xlink:href="#ArialMT-6d"/>
     </g>
    </g>
   </g>
   <g id="line2d_22">
    <path clip-path="url(#p7cc3b168cb)" d="M -1 241.841459 
L 106.257186 241.762953 
L 188.094702 272.776652 
L 235.96658 298.700604 
L 269.932218 219.759558 
L 296.278014 327.95333 
L 317.804096 321.224542 
L 336.00414 311.232024 
L 351.769734 57.571394 
L 365.675974 327.069003 
L 378.11553 335.804476 
L 389.368477 333.137831 
L 399.641613 348.463884 
L 409.091981 350.43259 
L 417.841656 361.255894 
L 425.987408 370.426346 
L 433.607251 281.285988 
L 440.764992 364.854648 
L 447.513491 347.276839 
L 453.897022 363.705605 
L 459.953046 359.25209 
L 465.713534 367.496357 
L 471.205993 378.622468 
L 476.454261 380.447949 
L 481.479129 367.575289 
L 486.298842 374.411186 
L 490.929497 382.10901 
L 495.385369 380.585009 
L 499.679172 381.454858 
L 503.822284 375.456672 
L 507.824924 387.445797 
L 511.696307 383.591959 
L 515.444767 379.287599 
L 519.077871 390.341269 
L 522.602508 392.365806 
L 526.024968 387.89194 
L 529.351007 385.72057 
L 532.58591 383.115423 
L 535.734539 379.993323 
L 538.801375 386.091736 
L 541.790562 390.953295 
L 544.705935 388.820746 
L 547.55105 395.929735 
L 550.329215 396.053824 
L 553.043509 401.277084 
L 555.696802 390.717721 
L 558.291777 392.312492 
L 560.830941 397.438304 
L 563.316645 383.301749 
L 565.751094 398.907866 
L 568.136358 394.828407 
L 570.474387 396.075639 
L 572.767013 402.812476 
L 575.015969 401.476229 
L 577.222885 395.260451 
L 579.389305 399.154421 
L 581.516688 395.243196 
L 583.606417 400.621551 
L 585.6598 399.393827 
L 587.678082 400.174453 
L 589.66244 403.086178 
L 591.613999 400.32569 
L 593.533823 404.595853 
L 595.422928 402.705255 
L 597.282283 401.507541 
L 599.112809 399.287531 
L 600.915387 398.908116 
L 602.690858 407.373048 
L 604.440025 400.215728 
L 606.163655 399.401897 
L 607.862484 400.758943 
L 609.537215 401.895554 
L 611.188523 402.533014 
L 612.817053 408.542939 
L 614.423426 403.289531 
L 616.008236 399.614567 
L 617.572055 406.237469 
L 619.115431 404.350642 
L 620.638892 409.72966 
L 622.142945 409.437167 
L 623.628079 406.405925 
L 625.094763 408.360943 
L 626.543451 406.243142 
L 627.974578 408.89393 
L 629.388566 408.784263 
L 630.78582 409.34663 
L 632.166732 410.95939 
L 633.531678 408.472503 
L 634.881025 407.097884 
L 636.215125 411.320344 
L 637.534319 410.396686 
L 638.838935 406.913628 
L 640.129293 408.388703 
L 641.405701 408.868722 
L 642.668457 409.498595 
L 645.154161 407.571277 
L 646.37766 411.866795 
L 647.58861 412.697668 
L 648.787265 406.805476 
L 649.973874 412.326716 
L 651.148676 413.378364 
L 652.311903 409.437807 
L 653.463781 412.02219 
L 654.60453 413.035071 
L 655.734362 413.25206 
L 656.853485 409.605428 
L 657.962099 414.859568 
L 659.060401 410.626224 
L 660.14858 412.47166 
L 661.226821 411.576369 
L 662.295304 410.484131 
L 663.354204 410.725778 
L 664.403692 409.907588 
L 665.443933 410.196715 
L 666.475089 416.565357 
L 667.497316 411.460616 
L 668.51077 414.168628 
L 669.515598 410.903691 
L 671.499957 412.423278 
L 672.479768 412.358791 
L 673.451515 414.952978 
L 674.415329 413.798464 
L 675.371339 413.3516 
L 676.31967 414.954212 
L 677.260444 414.993962 
L 678.193782 413.659874 
L 679.119799 412.138033 
L 680.03861 416.271921 
L 680.950325 415.346352 
L 681.855054 413.067519 
L 682.752903 413.420259 
L 683.643976 416.974767 
L 684.528374 416.050486 
L 686.277541 412.752556 
L 688.001171 418.915433 
L 688.853641 417.361886 
L 689.7 426.902367 
L 689.7 426.902367 
" style="fill:none;stroke:#1b9e77;stroke-dasharray:12,4;stroke-dashoffset:0;stroke-width:2;"/>
   </g>
   <g id="line2d_23">
    <path clip-path="url(#p7cc3b168cb)" d="M -1 279.942592 
L 106.257186 279.879166 
L 188.094702 303.197495 
L 235.96658 332.768719 
L 269.932218 267.437072 
L 296.278014 345.492327 
L 317.804096 354.202973 
L 336.00414 360.035346 
L 351.769734 147.548117 
L 365.675974 353.883804 
L 378.11553 366.624905 
L 389.368477 357.677807 
L 399.641613 351.752951 
L 409.091981 365.233894 
L 417.841656 372.648434 
L 425.987408 365.387003 
L 433.607251 323.629368 
L 440.764992 367.24813 
L 447.513491 383.564697 
L 453.897022 377.954728 
L 459.953046 381.395403 
L 465.713534 387.46716 
L 471.205993 387.453131 
L 476.454261 394.958561 
L 481.479129 379.412068 
L 486.298842 397.140167 
L 490.929497 391.018421 
L 495.385369 397.389722 
L 499.679172 377.714275 
L 503.822284 393.020236 
L 507.824924 394.433738 
L 511.696307 401.701933 
L 515.444767 396.997663 
L 519.077871 391.902409 
L 522.602508 399.192894 
L 526.024968 400.822511 
L 529.351007 394.437762 
L 532.58591 402.303316 
L 535.734539 402.257762 
L 538.801375 407.586365 
L 541.790562 401.29782 
L 544.705935 402.2021 
L 547.55105 402.776872 
L 550.329215 395.656612 
L 553.043509 403.223745 
L 555.696802 399.372433 
L 558.291777 408.962321 
L 560.830941 400.726046 
L 563.316645 401.68459 
L 565.751094 409.820554 
L 568.136358 409.671364 
L 570.474387 403.642651 
L 572.767013 408.926007 
L 575.015969 408.884266 
L 577.222885 409.409762 
L 579.389305 405.927837 
L 581.516688 403.660015 
L 583.606417 409.946387 
L 585.6598 405.940225 
L 587.678082 411.098823 
L 589.66244 407.791033 
L 591.613999 412.877887 
L 593.533823 408.109611 
L 595.422928 407.115602 
L 597.282283 406.701423 
L 599.112809 411.100744 
L 600.915387 408.875732 
L 602.690858 410.311299 
L 604.440025 415.392349 
L 606.163655 407.266995 
L 607.862484 411.499424 
L 609.537215 409.284408 
L 611.188523 410.782095 
L 612.817053 412.49125 
L 614.423426 412.44795 
L 616.008236 414.753673 
L 617.572055 409.393316 
L 619.115431 412.825453 
L 620.638892 413.87312 
L 622.142945 413.73605 
L 623.628079 413.299902 
L 625.094763 418.17001 
L 626.543451 413.46904 
L 627.974578 415.538166 
L 629.388566 412.581526 
L 630.78582 416.220864 
L 632.166732 415.33789 
L 633.531678 416.476819 
L 634.881025 412.351917 
L 636.215125 413.640838 
L 637.534319 415.686415 
L 638.838935 411.761895 
L 640.129293 415.658763 
L 641.405701 415.678887 
L 642.668457 419.591873 
L 643.91785 418.990603 
L 645.154161 410.857408 
L 646.37766 414.516849 
L 647.58861 414.820933 
L 648.787265 418.894911 
L 649.973874 416.254908 
L 651.148676 418.459122 
L 652.311903 417.179601 
L 653.463781 417.640188 
L 654.60453 414.124379 
L 656.853485 416.678908 
L 657.962099 418.201147 
L 659.060401 415.5559 
L 660.14858 417.650576 
L 661.226821 416.024835 
L 662.295304 421.031419 
L 663.354204 416.255841 
L 664.403692 420.488301 
L 665.443933 419.63297 
L 667.497316 417.47092 
L 668.51077 419.890017 
L 669.515598 416.675711 
L 670.511946 420.080623 
L 671.499957 419.345894 
L 673.451515 416.633602 
L 674.415329 416.791821 
L 675.371339 419.476911 
L 676.31967 419.034228 
L 677.260444 418.006536 
L 678.193782 418.573103 
L 679.119799 419.632162 
L 680.03861 416.984493 
L 680.950325 417.25054 
L 681.855054 417.255336 
L 682.752903 415.657729 
L 683.643976 421.02936 
L 684.528374 422.277167 
L 685.406197 420.353199 
L 686.277541 418.792021 
L 687.142501 421.693699 
L 688.001171 415.155582 
L 688.853641 418.766811 
L 689.7 430.117749 
L 689.7 430.117749 
" style="fill:none;stroke:#8b4513;stroke-dasharray:4,4,20,4;stroke-dashoffset:0;stroke-width:2;"/>
   </g>
   <g id="line2d_24">
    <path clip-path="url(#p7cc3b168cb)" d="M -1 294.161873 
L 179.94895 294.064364 
L 261.786466 317.004053 
L 309.658344 345.645796 
L 343.623982 350.553615 
L 369.969778 367.513827 
L 391.49586 370.334395 
L 409.695904 373.287212 
L 425.461498 380.642244 
L 439.367738 382.003923 
L 451.807294 385.086097 
L 463.060241 384.917417 
L 473.333376 389.632626 
L 482.783745 387.164646 
L 491.53342 388.675317 
L 499.679172 387.834031 
L 507.299014 391.466706 
L 514.456756 386.527665 
L 521.205254 383.745602 
L 527.588786 388.474623 
L 533.64481 390.51895 
L 539.405298 393.101904 
L 544.897757 392.68762 
L 550.146024 390.97488 
L 555.170893 391.026651 
L 559.990606 394.152387 
L 564.621261 392.405737 
L 569.077133 393.527648 
L 573.370936 397.241844 
L 577.514048 397.975058 
L 581.516688 396.493539 
L 585.38807 391.511948 
L 589.136531 394.292255 
L 592.769635 399.520145 
L 596.294272 399.898552 
L 599.716732 402.024401 
L 603.042771 407.517731 
L 606.277674 406.812032 
L 609.426302 403.459646 
L 612.493139 408.270751 
L 615.482326 408.09036 
L 618.397699 401.875069 
L 621.242814 409.464574 
L 624.020979 409.719349 
L 626.735273 410.682291 
L 629.388566 409.995053 
L 631.983541 401.390504 
L 634.522705 406.860099 
L 637.008409 410.968422 
L 639.442857 409.500644 
L 641.828122 412.700973 
L 644.16615 412.909343 
L 646.458777 408.054377 
L 648.707733 411.854121 
L 650.914649 409.176373 
L 653.081069 411.599649 
L 655.208452 413.178198 
L 657.298181 408.96227 
L 659.351564 410.736283 
L 661.369845 410.758298 
L 663.354204 417.682829 
L 665.305762 413.366831 
L 667.225587 410.516879 
L 669.114692 415.359371 
L 670.974047 417.406817 
L 672.804573 412.365414 
L 674.607151 415.489628 
L 676.382622 416.454475 
L 678.131788 416.263318 
L 679.855419 414.966244 
L 681.554248 414.93412 
L 683.228979 415.080514 
L 684.880287 416.870546 
L 686.508817 415.597364 
L 688.11519 417.13376 
L 689.7 429.607407 
" style="fill:none;stroke:#7570b3;stroke-dasharray:2,2;stroke-dashoffset:0;stroke-width:2;"/>
   </g>
   <g id="line2d_25"/>
   <g id="line2d_26"/>
   <g id="line2d_27"/>
   <g id="patch_3">
    <path d="M 37.8 440.2 
L 37.8 10.8 
" style="fill:none;stroke:#000000;stroke-linecap:square;stroke-linejoin:miter;stroke-width:0.8;"/>
   </g>
   <g id="patch_4">
    <path d="M 37.8 440.2 
L 689.7 440.2 
" style="fill:none;stroke:#000000;stroke-linecap:square;stroke-linejoin:miter;stroke-width:0.8;"/>
   </g>
   <g id="legend_1">
    <g id="patch_5">
     <path d="M 552.778125 111.915625 
L 675.7 111.915625 
Q 679.7 111.915625 679.7 107.915625 
L 679.7 24.8 
Q 679.7 20.8 675.7 20.8 
L 552.778125 20.8 
Q 548.778125 20.8 548.778125 24.8 
L 548.778125 107.915625 
Q 548.778125 111.915625 552.778125 111.915625 
z
" style="fill:#ffffff;opacity:0.8;stroke:#cccccc;stroke-linejoin:miter;"/>
    </g>
    <g id="line2d_28">
     <path d="M 556.778125 36.359375 
L 596.778125 36.359375 
" style="fill:none;stroke:#1b9e77;stroke-dasharray:9,3;stroke-dashoffset:0;stroke-width:1.5;"/>
    </g>
    <g id="line2d_29"/>
    <g id="text_9">
     <!-- Stroop -->
     <g transform="translate(612.778125 43.359375)scale(0.2 -0.2)">
      <use xlink:href="#ArialMT-53"/>
      <use x="66.699219" xlink:href="#ArialMT-74"/>
      <use x="94.482422" xlink:href="#ArialMT-72"/>
      <use x="127.783203" xlink:href="#ArialMT-6f"/>
      <use x="183.398438" xlink:href="#ArialMT-6f"/>
      <use x="239.013672" xlink:href="#ArialMT-70"/>
     </g>
    </g>
    <g id="line2d_30">
     <path d="M 556.778125 64.65 
L 596.778125 64.65 
" style="fill:none;stroke:#8b4513;stroke-dasharray:3,3,15,3;stroke-dashoffset:0;stroke-width:1.5;"/>
    </g>
    <g id="line2d_31"/>
    <g id="text_10">
     <!-- MSIT -->
     <g transform="translate(612.778125 71.65)scale(0.2 -0.2)">
      <defs>
       <path d="M 475 0 
L 475 4581 
L 1388 4581 
L 2472 1338 
Q 2622 884 2691 659 
Q 2769 909 2934 1394 
L 4031 4581 
L 4847 4581 
L 4847 0 
L 4263 0 
L 4263 3834 
L 2931 0 
L 2384 0 
L 1059 3900 
L 1059 0 
L 475 0 
z
" id="ArialMT-4d" transform="scale(0.015625)"/>
       <path d="M 597 0 
L 597 4581 
L 1203 4581 
L 1203 0 
L 597 0 
z
" id="ArialMT-49" transform="scale(0.015625)"/>
       <path d="M 1659 0 
L 1659 4041 
L 150 4041 
L 150 4581 
L 3781 4581 
L 3781 4041 
L 2266 4041 
L 2266 0 
L 1659 0 
z
" id="ArialMT-54" transform="scale(0.015625)"/>
      </defs>
      <use xlink:href="#ArialMT-4d"/>
      <use x="83.300781" xlink:href="#ArialMT-53"/>
      <use x="150" xlink:href="#ArialMT-49"/>
      <use x="177.783203" xlink:href="#ArialMT-54"/>
     </g>
    </g>
    <g id="line2d_32">
     <path d="M 556.778125 92.940625 
L 596.778125 92.940625 
" style="fill:none;stroke:#7570b3;stroke-dasharray:1.5,1.5;stroke-dashoffset:0;stroke-width:1.5;"/>
    </g>
    <g id="line2d_33"/>
    <g id="text_11">
     <!-- Rest -->
     <g transform="translate(612.778125 99.940625)scale(0.2 -0.2)">
      <defs>
       <path d="M 503 0 
L 503 4581 
L 2534 4581 
Q 3147 4581 3465 4457 
Q 3784 4334 3975 4021 
Q 4166 3709 4166 3331 
Q 4166 2844 3850 2509 
Q 3534 2175 2875 2084 
Q 3116 1969 3241 1856 
Q 3506 1613 3744 1247 
L 4541 0 
L 3778 0 
L 3172 953 
Q 2906 1366 2734 1584 
Q 2563 1803 2427 1890 
Q 2291 1978 2150 2013 
Q 2047 2034 1813 2034 
L 1109 2034 
L 1109 0 
L 503 0 
z
M 1109 2559 
L 2413 2559 
Q 2828 2559 3062 2645 
Q 3297 2731 3419 2920 
Q 3541 3109 3541 3331 
Q 3541 3656 3305 3865 
Q 3069 4075 2559 4075 
L 1109 4075 
L 1109 2559 
z
" id="ArialMT-52" transform="scale(0.015625)"/>
       <path d="M 197 991 
L 753 1078 
Q 800 744 1014 566 
Q 1228 388 1613 388 
Q 2000 388 2187 545 
Q 2375 703 2375 916 
Q 2375 1106 2209 1216 
Q 2094 1291 1634 1406 
Q 1016 1563 777 1677 
Q 538 1791 414 1992 
Q 291 2194 291 2438 
Q 291 2659 392 2848 
Q 494 3038 669 3163 
Q 800 3259 1026 3326 
Q 1253 3394 1513 3394 
Q 1903 3394 2198 3281 
Q 2494 3169 2634 2976 
Q 2775 2784 2828 2463 
L 2278 2388 
Q 2241 2644 2061 2787 
Q 1881 2931 1553 2931 
Q 1166 2931 1000 2803 
Q 834 2675 834 2503 
Q 834 2394 903 2306 
Q 972 2216 1119 2156 
Q 1203 2125 1616 2013 
Q 2213 1853 2448 1751 
Q 2684 1650 2818 1456 
Q 2953 1263 2953 975 
Q 2953 694 2789 445 
Q 2625 197 2315 61 
Q 2006 -75 1616 -75 
Q 969 -75 630 194 
Q 291 463 197 991 
z
" id="ArialMT-73" transform="scale(0.015625)"/>
      </defs>
      <use xlink:href="#ArialMT-52"/>
      <use x="72.216797" xlink:href="#ArialMT-65"/>
      <use x="127.832031" xlink:href="#ArialMT-73"/>
      <use x="177.832031" xlink:href="#ArialMT-74"/>
     </g>
    </g>
   </g>
  </g>
 </g>
 <defs>
  <clipPath id="p7cc3b168cb">
   <rect height="429.4" width="651.9" x="37.8" y="10.8"/>
  </clipPath>
 </defs>
</svg>
