<?xml version="1.0" encoding="utf-8" standalone="no"?>
<!DOCTYPE svg PUBLIC "-//W3C//DTD SVG 1.1//EN"
  "http://www.w3.org/Graphics/SVG/1.1/DTD/svg11.dtd">
<!-- Created with matplotlib (https://matplotlib.org/) -->
<svg height="504pt" version="1.1" viewBox="0 0 720 504" width="720pt" xmlns="http://www.w3.org/2000/svg" xmlns:xlink="http://www.w3.org/1999/xlink">
 <metadata>
  <rdf:RDF xmlns:cc="http://creativecommons.org/ns#" xmlns:dc="http://purl.org/dc/elements/1.1/" xmlns:rdf="http://www.w3.org/1999/02/22-rdf-syntax-ns#">
   <cc:Work>
    <dc:type rdf:resource="http://purl.org/dc/dcmitype/StillImage"/>
    <dc:date>2021-06-08T16:23:05.149593</dc:date>
    <dc:format>image/svg+xml</dc:format>
    <dc:creator>
     <cc:Agent>
      <dc:title>Matplotlib v3.3.4, https://matplotlib.org/</dc:title>
     </cc:Agent>
    </dc:creator>
   </cc:Work>
  </rdf:RDF>
 </metadata>
 <defs>
  <style type="text/css">*{stroke-linecap:butt;stroke-linejoin:round;}</style>
 </defs>
 <g id="figure_1">
  <g id="patch_1">
   <path d="M 0 504 
L 720 504 
L 720 0 
L 0 0 
z
" style="fill:none;"/>
  </g>
  <g id="axes_1">
   <g id="patch_2">
    <path d="M 39.425 439.2 
L 686.95 439.2 
L 686.95 10.8 
L 39.425 10.8 
z
" style="fill:#ffffff;"/>
   </g>
   <g id="PolyCollection_1">
    <path clip-path="url(#p450a501259)" d="M -269184.334838 439.2 
L -269184.334838 439.2 
L 107.422759 263.601423 
L 188.711052 295.467492 
L 236.261654 313.292925 
L 269.999344 244.260968 
L 296.168329 339.095647 
L 317.549946 337.505008 
L 335.627846 329.102075 
L 351.287636 85.815492 
L 365.100549 337.729645 
L 377.456621 347.042797 
L 388.634047 345.084079 
L 398.838238 357.739545 
L 408.225184 358.464801 
L 416.916139 368.608831 
L 425.007223 376.27037 
L 432.575928 299.465602 
L 439.685633 372.634247 
L 446.388841 359.116314 
L 452.729532 371.406219 
L 458.744913 372.147399 
L 464.466741 378.073499 
L 469.92234 385.132012 
L 475.135385 387.133098 
L 480.126531 375.194341 
L 484.913898 383.443804 
L 489.513476 389.338539 
L 493.939444 387.329979 
L 498.204431 387.367953 
L 502.319738 381.963331 
L 506.295516 391.47255 
L 510.140916 388.853245 
L 513.86422 384.862189 
L 517.472942 394.599788 
L 520.973925 396.763271 
L 524.373416 391.728389 
L 527.677133 390.51225 
L 530.890326 388.83612 
L 534.017824 386.374579 
L 537.064079 391.861549 
L 540.033205 395.871031 
L 542.929012 393.732936 
L 545.755033 399.701057 
L 548.514554 400.411532 
L 551.210632 405.03199 
L 553.846118 395.965875 
L 556.423677 396.226113 
L 558.945801 401.433155 
L 561.414823 388.97289 
L 563.832933 403.044522 
L 566.20219 399.263366 
L 568.524528 400.329732 
L 570.801769 405.658324 
L 573.035631 404.71189 
L 575.227736 399.775854 
L 577.379617 403.131588 
L 579.492723 398.708964 
L 581.568427 403.596215 
L 583.60803 402.457213 
L 585.612766 403.981611 
L 587.583808 405.772455 
L 589.522269 403.299163 
L 591.429209 407.016866 
L 593.305636 405.355273 
L 595.152512 404.582843 
L 596.970754 403.065162 
L 598.761234 402.154195 
L 600.52479 409.687108 
L 602.262217 404.001191 
L 603.97428 403.077319 
L 605.661708 404.000301 
L 607.3252 405.123459 
L 608.965425 405.175262 
L 610.583026 410.299843 
L 612.178619 406.196997 
L 613.752793 402.844354 
L 615.306116 409.173293 
L 616.839134 407.339543 
L 618.352371 411.625628 
L 619.84633 411.385331 
L 621.321497 409.111893 
L 622.778339 410.32021 
L 624.217304 408.96908 
L 625.638827 411.484094 
L 627.043325 410.728427 
L 628.431202 411.430883 
L 629.802846 412.956806 
L 631.158633 411.363527 
L 632.498924 410.100468 
L 633.82407 413.580479 
L 635.13441 412.67893 
L 636.430271 409.378959 
L 637.711969 411.084544 
L 638.979811 411.135977 
L 640.234093 411.787198 
L 641.475101 411.647974 
L 642.703115 409.522332 
L 643.918403 413.298573 
L 645.121226 414.927065 
L 646.311837 409.502984 
L 647.490482 414.102019 
L 648.6574 414.577864 
L 649.81282 411.380601 
L 650.956968 414.096817 
L 652.090061 414.530575 
L 653.212311 414.989269 
L 654.323923 411.912928 
L 655.425097 416.410698 
L 656.516028 412.962608 
L 657.596904 415.236383 
L 658.667909 413.723812 
L 659.729221 412.431078 
L 660.781015 412.476931 
L 661.823459 411.669463 
L 662.856719 412.244676 
L 663.880954 417.998042 
L 664.896322 413.39628 
L 665.902974 415.777225 
L 666.901058 412.912196 
L 667.89072 413.399768 
L 668.8721 414.207853 
L 669.845335 414.419521 
L 670.810561 416.309754 
L 671.767907 415.818178 
L 672.717501 415.368081 
L 673.659467 416.267461 
L 674.593928 416.573604 
L 675.521002 415.716484 
L 676.440804 414.270281 
L 677.353449 417.299192 
L 678.259046 416.702268 
L 679.157703 414.556704 
L 680.049526 414.999117 
L 680.934619 418.271793 
L 681.813082 417.442337 
L 682.685013 416.179953 
L 683.550509 414.729534 
L 684.409665 417.61409 
L 685.262572 419.815334 
L 686.109321 418.502308 
L 686.95 427.85379 
L 686.95 423.979439 
L 686.95 423.979439 
L 686.109321 414.109927 
L 685.262572 416.024091 
L 684.409665 411.978702 
L 683.550509 408.735785 
L 682.685013 410.870938 
L 681.813082 412.534293 
L 680.934619 413.67107 
L 680.049526 409.938122 
L 679.157703 409.498896 
L 678.259046 412.029083 
L 677.353449 413.232812 
L 676.440804 407.982886 
L 675.521002 409.65646 
L 674.593928 411.490205 
L 673.659467 411.728524 
L 672.717501 409.467732 
L 671.767907 409.925454 
L 670.810561 411.709987 
L 669.845335 408.286021 
L 668.8721 408.706358 
L 667.89072 407.941101 
L 666.901058 406.821217 
L 665.902974 410.505606 
L 664.896322 407.57905 
L 663.880954 413.055235 
L 662.856719 406.170925 
L 661.823459 406.238585 
L 660.781015 407.181325 
L 659.729221 406.507638 
L 658.667909 407.504979 
L 657.596904 407.774082 
L 656.516028 406.316792 
L 655.425097 411.397419 
L 654.323923 405.279794 
L 653.212311 409.376233 
L 652.090061 409.436186 
L 650.956968 407.920035 
L 649.81282 405.407845 
L 648.6574 410.238371 
L 647.490482 408.660777 
L 646.311837 402.130676 
L 645.121226 408.411527 
L 643.918403 408.401184 
L 642.703115 403.59646 
L 641.475101 403.421375 
L 640.234093 405.178314 
L 638.979811 404.581638 
L 637.711969 403.669489 
L 636.430271 402.536721 
L 635.13441 406.115293 
L 633.82407 407.163351 
L 632.498924 402.137033 
L 631.158633 403.252409 
L 629.802846 406.891772 
L 628.431202 405.404107 
L 627.043325 404.835389 
L 625.638827 404.371194 
L 624.217304 401.439238 
L 622.778339 404.445609 
L 621.321497 401.791927 
L 619.84633 405.377527 
L 618.352371 405.77385 
L 616.839134 399.30962 
L 615.306116 401.313004 
L 613.752793 394.368309 
L 612.178619 398.703382 
L 610.583026 404.731005 
L 608.965425 397.913466 
L 607.3252 396.770048 
L 605.661708 395.315336 
L 603.97428 393.557263 
L 602.262217 394.401197 
L 600.52479 403.057226 
L 598.761234 393.639547 
L 596.970754 393.687437 
L 595.152512 396.401902 
L 593.305636 397.955687 
L 591.429209 400.191058 
L 589.522269 395.347335 
L 587.583808 398.394174 
L 585.612766 394.254247 
L 583.60803 394.212241 
L 581.568427 395.673259 
L 579.492723 389.795758 
L 577.379617 393.174763 
L 575.227736 388.752676 
L 573.035631 396.150044 
L 570.801769 397.869391 
L 568.524528 389.890383 
L 566.20219 388.253252 
L 563.832933 392.868559 
L 561.414823 375.370768 
L 558.945801 391.350343 
L 556.423677 386.193824 
L 553.846118 383.336587 
L 551.210632 395.454132 
L 548.514554 389.446828 
L 545.755033 390.199919 
L 542.929012 381.794068 
L 540.033205 384.16046 
L 537.064079 378.642701 
L 534.017824 371.4208 
L 530.890326 375.231097 
L 527.677133 378.68063 
L 524.373416 382.13826 
L 520.973925 386.094051 
L 517.472942 383.999865 
L 513.86422 371.712226 
L 510.140916 376.196189 
L 506.295516 381.318568 
L 502.319738 366.94016 
L 498.204431 373.816441 
L 493.939444 372.154631 
L 489.513476 372.255166 
L 484.913898 363.361591 
L 480.126531 357.72411 
L 475.135385 371.789571 
L 469.92234 370.17022 
L 464.466741 354.661717 
L 458.744913 343.43271 
L 452.729532 353.68104 
L 446.388841 333.478462 
L 439.685633 355.008275 
L 432.575928 261.127758 
L 425.007223 362.656369 
L 416.916139 352.52065 
L 408.225184 340.373126 
L 398.838238 337.376349 
L 388.634047 319.234627 
L 377.456621 322.494639 
L 365.100549 314.264898 
L 351.287636 28.130612 
L 335.627846 289.865862 
L 317.549946 302.662417 
L 296.168329 314.875978 
L 269.999344 193.454439 
L 236.261654 281.823026 
L 188.711052 247.262194 
L 107.422759 216.898532 
L -269184.334838 439.2 
z
" style="fill:#1b9e77;fill-opacity:0.2;stroke:#1b9e77;stroke-opacity:0.2;"/>
   </g>
   <g id="PolyCollection_2">
    <path clip-path="url(#p450a501259)" d="M -269184.334838 439.2 
L -269184.334838 439.2 
L 107.422759 298.355256 
L 188.711052 320.662005 
L 236.261654 345.516943 
L 269.999344 286.197416 
L 296.168329 357.235113 
L 317.549946 361.957651 
L 335.627846 370.127261 
L 351.287636 174.962773 
L 365.100549 363.097555 
L 377.456621 373.984463 
L 388.634047 366.70791 
L 398.838238 365.496764 
L 408.225184 375.557993 
L 416.916139 380.054269 
L 425.007223 377.290873 
L 432.575928 335.100472 
L 439.685633 377.887522 
L 446.388841 389.890602 
L 452.729532 384.416778 
L 458.744913 388.069457 
L 464.466741 392.486052 
L 469.92234 392.547831 
L 475.135385 399.620956 
L 480.126531 385.349048 
L 484.913898 401.860932 
L 489.513476 397.956776 
L 493.939444 401.226269 
L 498.204431 385.248007 
L 502.319738 397.474486 
L 506.295516 399.720735 
L 510.140916 405.141607 
L 513.86422 399.797494 
L 517.472942 396.858631 
L 520.973925 403.149004 
L 524.373416 407.10783 
L 527.677133 401.6422 
L 530.890326 405.475561 
L 534.017824 406.192123 
L 537.064079 409.370643 
L 540.033205 404.199552 
L 542.929012 405.643826 
L 545.755033 406.190562 
L 548.514554 402.335151 
L 551.210632 406.589877 
L 553.846118 403.552566 
L 556.423677 411.415331 
L 558.945801 404.762216 
L 561.414823 405.904825 
L 563.832933 412.088256 
L 566.20219 412.294999 
L 568.524528 406.759623 
L 570.801769 411.091877 
L 573.035631 411.603076 
L 575.227736 412.576643 
L 577.379617 409.436497 
L 579.492723 407.471459 
L 581.568427 412.370195 
L 583.60803 409.83507 
L 585.612766 413.187475 
L 587.583808 411.560647 
L 589.522269 414.936856 
L 591.429209 411.472439 
L 593.305636 410.309294 
L 595.152512 410.251436 
L 596.970754 413.442941 
L 598.761234 411.404399 
L 600.52479 412.359394 
L 602.262217 417.176609 
L 603.97428 411.220849 
L 605.661708 413.502012 
L 607.3252 416.626448 
L 608.965425 413.15277 
L 610.583026 414.975358 
L 612.178619 415.344323 
L 613.752793 416.191476 
L 615.306116 412.743452 
L 616.839134 415.292015 
L 618.352371 416.010243 
L 619.84633 415.639574 
L 621.321497 414.874268 
L 622.778339 419.618196 
L 624.217304 415.314818 
L 625.638827 416.859271 
L 627.043325 416.15468 
L 628.431202 418.829395 
L 629.802846 417.750188 
L 631.158633 417.999715 
L 632.498924 414.673487 
L 633.82407 415.187408 
L 635.13441 417.086641 
L 636.430271 414.643899 
L 637.711969 417.44296 
L 638.979811 417.842694 
L 640.234093 420.752396 
L 641.475101 419.98775 
L 642.703115 413.854738 
L 643.918403 417.38278 
L 645.121226 416.430436 
L 646.311837 420.19802 
L 647.490482 417.645022 
L 648.6574 419.305213 
L 649.81282 419.507039 
L 650.956968 419.013476 
L 652.090061 416.864509 
L 653.212311 417.176937 
L 654.323923 418.281161 
L 655.425097 419.978694 
L 656.516028 417.082579 
L 657.596904 419.087736 
L 658.667909 418.391218 
L 659.729221 422.074341 
L 660.781015 418.933057 
L 661.823459 421.242213 
L 662.856719 421.126527 
L 663.880954 420.342733 
L 664.896322 419.752976 
L 665.902974 420.792121 
L 666.901058 418.434184 
L 667.89072 421.19455 
L 668.8721 420.352508 
L 669.845335 419.730272 
L 670.810561 418.007139 
L 671.767907 419.510615 
L 672.717501 420.572827 
L 673.659467 420.207117 
L 674.593928 419.458358 
L 675.521002 420.749649 
L 676.440804 420.849727 
L 677.353449 419.270714 
L 678.259046 418.490584 
L 679.157703 419.204331 
L 680.049526 417.75567 
L 680.934619 422.615596 
L 681.813082 423.070775 
L 682.685013 421.39215 
L 683.550509 420.490655 
L 684.409665 422.683086 
L 685.262572 418.569759 
L 686.109321 419.907404 
L 686.95 431.000665 
L 686.95 427.136134 
L 686.95 427.136134 
L 686.109321 415.63935 
L 685.262572 409.563008 
L 684.409665 418.624664 
L 683.550509 414.992209 
L 682.685013 417.355079 
L 681.813082 419.491491 
L 680.934619 417.484652 
L 680.049526 411.371735 
L 679.157703 413.254248 
L 678.259046 413.959213 
L 677.353449 412.582221 
L 676.440804 416.56935 
L 675.521002 414.400572 
L 674.593928 414.600039 
L 673.659467 415.925981 
L 672.717501 416.386142 
L 671.767907 411.931202 
L 670.810561 413.247201 
L 669.845335 414.0387 
L 668.8721 416.277649 
L 667.89072 416.944658 
L 666.901058 412.995984 
L 665.902974 417.041893 
L 664.896322 413.186714 
L 663.880954 414.702061 
L 662.856719 416.246683 
L 661.823459 417.690213 
L 660.781015 411.495067 
L 659.729221 418.021366 
L 658.667909 411.572352 
L 657.596904 414.263926 
L 656.516028 411.929898 
L 655.425097 414.472847 
L 654.323923 413.093732 
L 653.212311 411.495265 
L 652.090061 409.144254 
L 650.956968 414.333165 
L 649.81282 412.771817 
L 648.6574 415.678042 
L 647.490482 412.961948 
L 646.311837 415.617973 
L 645.121226 411.173989 
L 643.918403 409.57512 
L 642.703115 405.938622 
L 641.475101 415.927039 
L 640.234093 416.363389 
L 638.979811 411.499073 
L 637.711969 411.989738 
L 636.430271 406.643542 
L 635.13441 412.313744 
L 633.82407 410.173188 
L 632.498924 408.004896 
L 631.158633 413.032099 
L 629.802846 410.809224 
L 628.431202 411.581057 
L 627.043325 406.769351 
L 625.638827 412.169373 
L 624.217304 409.54975 
L 622.778339 414.740404 
L 621.321497 409.684231 
L 619.84633 409.740572 
L 618.352371 409.731265 
L 616.839134 408.175403 
L 615.306116 404.014578 
L 613.752793 411.229635 
L 612.178619 407.297835 
L 610.583026 407.879462 
L 608.965425 406.402204 
L 607.3252 400.039315 
L 605.661708 407.560149 
L 603.97428 401.301376 
L 602.262217 411.602902 
L 600.52479 406.268939 
L 598.761234 404.231961 
L 596.970754 406.816408 
L 595.152512 401.032127 
L 593.305636 401.655783 
L 591.429209 402.739179 
L 589.522269 408.742447 
L 587.583808 402.04382 
L 585.612766 407.018204 
L 583.60803 400.116916 
L 581.568427 405.290566 
L 579.492723 397.621098 
L 577.379617 400.442515 
L 575.227736 404.331942 
L 573.035631 404.22374 
L 570.801769 404.793995 
L 568.524528 398.492124 
L 566.20219 404.968437 
L 563.832933 405.573834 
L 561.414823 395.518532 
L 558.945801 394.504835 
L 556.423677 404.548527 
L 553.846118 393.176172 
L 551.210632 397.691597 
L 548.514554 386.73008 
L 545.755033 397.497078 
L 542.929012 396.870331 
L 540.033205 396.484088 
L 537.064079 403.785166 
L 534.017824 396.167068 
L 530.890326 396.984852 
L 527.677133 384.766413 
L 524.373416 392.363737 
L 520.973925 393.230766 
L 517.472942 384.841392 
L 513.86422 392.106775 
L 510.140916 396.039302 
L 506.295516 387.101874 
L 502.319738 386.521273 
L 498.204431 367.848093 
L 493.939444 391.592382 
L 489.513476 382.253526 
L 484.913898 390.574974 
L 480.126531 371.257128 
L 475.135385 388.174782 
L 469.92234 380.353137 
L 464.466741 380.598912 
L 458.744913 372.426892 
L 452.729532 369.544456 
L 446.388841 375.165064 
L 439.685633 353.607305 
L 432.575928 310.728226 
L 425.007223 351.549953 
L 416.916139 363.144888 
L 408.225184 352.898782 
L 398.838238 335.478983 
L 388.634047 347.041552 
L 377.456621 357.322266 
L 365.100549 342.649376 
L 351.287636 118.965364 
L 335.627846 347.759099 
L 317.549946 344.495981 
L 296.168329 331.71224 
L 269.999344 246.282857 
L 236.261654 317.782634 
L 188.711052 283.098753 
L 107.422759 258.74774 
L -269184.334838 439.2 
z
" style="fill:#8b4513;fill-opacity:0.2;stroke:#8b4513;stroke-opacity:0.2;"/>
   </g>
   <g id="PolyCollection_3">
    <path clip-path="url(#p450a501259)" d="M -269184.334838 439.2 
L -269184.334838 439.2 
L 180.619967 303.15592 
L 261.908259 326.769793 
L 309.458861 353.58905 
L 343.196551 357.595616 
L 369.365536 371.844219 
L 390.747154 374.490612 
L 408.825054 377.081489 
L 424.484843 384.20125 
L 438.297756 385.736168 
L 450.653828 387.744307 
L 461.831255 388.41766 
L 472.035446 392.229747 
L 481.422391 390.934044 
L 490.113346 391.368431 
L 498.204431 390.807238 
L 505.773135 394.387233 
L 512.88284 389.98639 
L 519.586048 387.56712 
L 525.926739 392.156963 
L 531.94212 393.902655 
L 537.663948 396.130177 
L 543.119547 395.443146 
L 548.332592 393.724828 
L 553.323738 393.674271 
L 558.111105 397.124522 
L 562.710684 395.374868 
L 567.136651 396.505424 
L 571.401638 399.540331 
L 575.516945 400.737913 
L 579.492723 399.769881 
L 583.338124 394.827414 
L 587.061427 397.8497 
L 590.670149 402.569592 
L 594.171132 402.359556 
L 597.570623 404.476267 
L 600.87434 408.906091 
L 604.087534 408.319553 
L 607.215031 405.971393 
L 610.261286 410.076531 
L 613.230412 409.787114 
L 616.126219 404.405049 
L 618.952241 410.724804 
L 621.711761 411.026259 
L 624.407839 412.366838 
L 627.043325 411.823673 
L 629.620885 403.81552 
L 632.143008 408.879311 
L 634.61203 412.408179 
L 637.030141 410.93439 
L 639.399397 414.174893 
L 641.721735 414.020502 
L 643.998976 410.02836 
L 646.232838 413.454329 
L 648.424943 410.911802 
L 650.576824 413.159165 
L 652.68993 414.518541 
L 654.765634 410.642875 
L 656.805237 412.436185 
L 658.809973 412.527753 
L 660.781015 418.404016 
L 662.719476 414.792971 
L 664.626416 412.640485 
L 666.502843 416.292675 
L 668.349719 418.226807 
L 670.167961 413.607877 
L 671.958442 416.729372 
L 673.721997 417.455714 
L 675.459424 417.264568 
L 677.171487 416.080568 
L 678.858915 415.910246 
L 680.522407 416.450828 
L 682.162633 417.846666 
L 683.780234 416.586594 
L 685.375826 418.020259 
L 686.95 429.738806 
L 686.95 427.476079 
L 686.95 427.476079 
L 685.375826 414.247504 
L 683.780234 412.661004 
L 682.162633 413.858348 
L 680.522407 411.717022 
L 678.858915 412.018982 
L 677.171487 411.911805 
L 675.459424 413.306964 
L 673.721997 413.459836 
L 671.958442 412.305624 
L 670.167961 409.1484 
L 668.349719 414.665373 
L 666.502843 412.476149 
L 664.626416 406.348513 
L 662.719476 410.138081 
L 660.781015 414.992197 
L 658.809973 407.041975 
L 656.805237 407.076483 
L 654.765634 405.256843 
L 652.68993 409.900305 
L 650.576824 408.150743 
L 648.424943 405.384553 
L 646.232838 408.249964 
L 643.998976 404.077543 
L 641.721735 409.918977 
L 639.399397 409.333368 
L 637.030141 406.105548 
L 634.61203 407.454766 
L 632.143008 402.878689 
L 629.620885 397.015318 
L 627.043325 405.995546 
L 624.407839 407.00678 
L 621.711761 406.482072 
L 618.952241 406.248448 
L 616.126219 397.424922 
L 613.230412 404.465941 
L 610.261286 404.451702 
L 607.215031 399.020095 
L 604.087534 403.349557 
L 600.87434 404.238372 
L 597.570623 397.727992 
L 594.171132 395.375819 
L 590.670149 394.475656 
L 587.061427 389.078671 
L 583.338124 386.33928 
L 579.492723 391.41689 
L 575.516945 393.421748 
L 571.401638 393.129164 
L 567.136651 388.613106 
L 562.710684 387.601565 
L 558.111105 389.169095 
L 553.323738 386.411302 
L 548.332592 386.20497 
L 543.119547 388.094382 
L 537.663948 388.198568 
L 531.94212 385.145471 
L 525.926739 382.784922 
L 519.586048 378.213145 
L 512.88284 380.911095 
L 505.773135 386.829301 
L 498.204431 382.811463 
L 490.113346 384.093256 
L 481.422391 381.498768 
L 472.035446 385.087914 
L 461.831255 379.661791 
L 450.653828 380.495838 
L 438.297756 376.396414 
L 424.484843 375.159375 
L 408.825054 367.545738 
L 390.747154 364.474166 
L 369.365536 361.476481 
L 343.196551 341.615069 
L 309.458861 336.159579 
L 261.908259 305.49985 
L 180.619967 283.160274 
L -269184.334838 439.2 
z
" style="fill:#7570b3;fill-opacity:0.2;stroke:#7570b3;stroke-opacity:0.2;"/>
   </g>
   <g id="matplotlib.axis_1">
    <g id="xtick_1">
     <g id="line2d_1">
      <defs>
       <path d="M 0 0 
L 0 3.5 
" id="ma18b46a31c" style="stroke:#000000;stroke-width:0.8;"/>
      </defs>
      <g>
       <use style="stroke:#000000;stroke-width:0.8;" x="39.425" xlink:href="#ma18b46a31c" y="439.2"/>
      </g>
     </g>
     <g id="text_1">
      <!-- 0.001 -->
      <g transform="translate(10.796875 461.396875)scale(0.2 -0.2)">
       <defs>
        <path d="M 31.78125 66.40625 
Q 24.171875 66.40625 20.328125 58.90625 
Q 16.5 51.421875 16.5 36.375 
Q 16.5 21.390625 20.328125 13.890625 
Q 24.171875 6.390625 31.78125 6.390625 
Q 39.453125 6.390625 43.28125 13.890625 
Q 47.125 21.390625 47.125 36.375 
Q 47.125 51.421875 43.28125 58.90625 
Q 39.453125 66.40625 31.78125 66.40625 
z
M 31.78125 74.21875 
Q 44.046875 74.21875 50.515625 64.515625 
Q 56.984375 54.828125 56.984375 36.375 
Q 56.984375 17.96875 50.515625 8.265625 
Q 44.046875 -1.421875 31.78125 -1.421875 
Q 19.53125 -1.421875 13.0625 8.265625 
Q 6.59375 17.96875 6.59375 36.375 
Q 6.59375 54.828125 13.0625 64.515625 
Q 19.53125 74.21875 31.78125 74.21875 
z
" id="DejaVuSans-48"/>
        <path d="M 10.6875 12.40625 
L 21 12.40625 
L 21 0 
L 10.6875 0 
z
" id="DejaVuSans-46"/>
        <path d="M 12.40625 8.296875 
L 28.515625 8.296875 
L 28.515625 63.921875 
L 10.984375 60.40625 
L 10.984375 69.390625 
L 28.421875 72.90625 
L 38.28125 72.90625 
L 38.28125 8.296875 
L 54.390625 8.296875 
L 54.390625 0 
L 12.40625 0 
z
" id="DejaVuSans-49"/>
       </defs>
       <use xlink:href="#DejaVuSans-48"/>
       <use x="63.623047" xlink:href="#DejaVuSans-46"/>
       <use x="95.410156" xlink:href="#DejaVuSans-48"/>
       <use x="159.033203" xlink:href="#DejaVuSans-48"/>
       <use x="222.65625" xlink:href="#DejaVuSans-49"/>
      </g>
     </g>
    </g>
    <g id="xtick_2">
     <g id="line2d_2">
      <g>
       <use style="stroke:#000000;stroke-width:0.8;" x="228.170569" xlink:href="#ma18b46a31c" y="439.2"/>
      </g>
     </g>
     <g id="text_2">
      <!-- 0.005 -->
      <g transform="translate(199.542444 461.396875)scale(0.2 -0.2)">
       <defs>
        <path d="M 10.796875 72.90625 
L 49.515625 72.90625 
L 49.515625 64.59375 
L 19.828125 64.59375 
L 19.828125 46.734375 
Q 21.96875 47.46875 24.109375 47.828125 
Q 26.265625 48.1875 28.421875 48.1875 
Q 40.625 48.1875 47.75 41.5 
Q 54.890625 34.8125 54.890625 23.390625 
Q 54.890625 11.625 47.5625 5.09375 
Q 40.234375 -1.421875 26.90625 -1.421875 
Q 22.3125 -1.421875 17.546875 -0.640625 
Q 12.796875 0.140625 7.71875 1.703125 
L 7.71875 11.625 
Q 12.109375 9.234375 16.796875 8.0625 
Q 21.484375 6.890625 26.703125 6.890625 
Q 35.15625 6.890625 40.078125 11.328125 
Q 45.015625 15.765625 45.015625 23.390625 
Q 45.015625 31 40.078125 35.4375 
Q 35.15625 39.890625 26.703125 39.890625 
Q 22.75 39.890625 18.8125 39.015625 
Q 14.890625 38.140625 10.796875 36.28125 
z
" id="DejaVuSans-53"/>
       </defs>
       <use xlink:href="#DejaVuSans-48"/>
       <use x="63.623047" xlink:href="#DejaVuSans-46"/>
       <use x="95.410156" xlink:href="#DejaVuSans-48"/>
       <use x="159.033203" xlink:href="#DejaVuSans-48"/>
       <use x="222.65625" xlink:href="#DejaVuSans-53"/>
      </g>
     </g>
    </g>
    <g id="xtick_3">
     <g id="line2d_3">
      <g>
       <use style="stroke:#000000;stroke-width:0.8;" x="309.458861" xlink:href="#ma18b46a31c" y="439.2"/>
      </g>
     </g>
     <g id="text_3">
      <!-- 0.01 -->
      <g transform="translate(287.193236 461.396875)scale(0.2 -0.2)">
       <use xlink:href="#DejaVuSans-48"/>
       <use x="63.623047" xlink:href="#DejaVuSans-46"/>
       <use x="95.410156" xlink:href="#DejaVuSans-48"/>
       <use x="159.033203" xlink:href="#DejaVuSans-49"/>
      </g>
     </g>
    </g>
    <g id="xtick_4">
     <g id="line2d_4">
      <g>
       <use style="stroke:#000000;stroke-width:0.8;" x="498.204431" xlink:href="#ma18b46a31c" y="439.2"/>
      </g>
     </g>
     <g id="text_4">
      <!-- 0.05 -->
      <g transform="translate(475.938806 461.396875)scale(0.2 -0.2)">
       <use xlink:href="#DejaVuSans-48"/>
       <use x="63.623047" xlink:href="#DejaVuSans-46"/>
       <use x="95.410156" xlink:href="#DejaVuSans-48"/>
       <use x="159.033203" xlink:href="#DejaVuSans-53"/>
      </g>
     </g>
    </g>
    <g id="xtick_5">
     <g id="line2d_5">
      <g>
       <use style="stroke:#000000;stroke-width:0.8;" x="579.492723" xlink:href="#ma18b46a31c" y="439.2"/>
      </g>
     </g>
     <g id="text_5">
      <!-- 0.1 -->
      <g transform="translate(563.589598 461.396875)scale(0.2 -0.2)">
       <use xlink:href="#DejaVuSans-48"/>
       <use x="63.623047" xlink:href="#DejaVuSans-46"/>
       <use x="95.410156" xlink:href="#DejaVuSans-49"/>
      </g>
     </g>
    </g>
    <g id="xtick_6">
     <g id="line2d_6">
      <g>
       <use style="stroke:#000000;stroke-width:0.8;" x="686.95" xlink:href="#ma18b46a31c" y="439.2"/>
      </g>
     </g>
     <g id="text_6">
      <!-- 0.25 -->
      <g transform="translate(664.684375 461.396875)scale(0.2 -0.2)">
       <defs>
        <path d="M 19.1875 8.296875 
L 53.609375 8.296875 
L 53.609375 0 
L 7.328125 0 
L 7.328125 8.296875 
Q 12.9375 14.109375 22.625 23.890625 
Q 32.328125 33.6875 34.8125 36.53125 
Q 39.546875 41.84375 41.421875 45.53125 
Q 43.3125 49.21875 43.3125 52.78125 
Q 43.3125 58.59375 39.234375 62.25 
Q 35.15625 65.921875 28.609375 65.921875 
Q 23.96875 65.921875 18.8125 64.3125 
Q 13.671875 62.703125 7.8125 59.421875 
L 7.8125 69.390625 
Q 13.765625 71.78125 18.9375 73 
Q 24.125 74.21875 28.421875 74.21875 
Q 39.75 74.21875 46.484375 68.546875 
Q 53.21875 62.890625 53.21875 53.421875 
Q 53.21875 48.921875 51.53125 44.890625 
Q 49.859375 40.875 45.40625 35.40625 
Q 44.1875 33.984375 37.640625 27.21875 
Q 31.109375 20.453125 19.1875 8.296875 
z
" id="DejaVuSans-50"/>
       </defs>
       <use xlink:href="#DejaVuSans-48"/>
       <use x="63.623047" xlink:href="#DejaVuSans-46"/>
       <use x="95.410156" xlink:href="#DejaVuSans-50"/>
       <use x="159.033203" xlink:href="#DejaVuSans-53"/>
      </g>
     </g>
    </g>
    <g id="xtick_7">
     <g id="line2d_7">
      <defs>
       <path d="M 0 0 
L 0 2 
" id="mffec006f5e" style="stroke:#000000;stroke-width:0.6;"/>
      </defs>
      <g>
       <use style="stroke:#000000;stroke-width:0.6;" x="120.713292" xlink:href="#mffec006f5e" y="439.2"/>
      </g>
     </g>
    </g>
    <g id="xtick_8">
     <g id="line2d_8">
      <g>
       <use style="stroke:#000000;stroke-width:0.6;" x="168.263895" xlink:href="#mffec006f5e" y="439.2"/>
      </g>
     </g>
    </g>
    <g id="xtick_9">
     <g id="line2d_9">
      <g>
       <use style="stroke:#000000;stroke-width:0.6;" x="202.001584" xlink:href="#mffec006f5e" y="439.2"/>
      </g>
     </g>
    </g>
    <g id="xtick_10">
     <g id="line2d_10">
      <g>
       <use style="stroke:#000000;stroke-width:0.6;" x="249.552187" xlink:href="#mffec006f5e" y="439.2"/>
      </g>
     </g>
    </g>
    <g id="xtick_11">
     <g id="line2d_11">
      <g>
       <use style="stroke:#000000;stroke-width:0.6;" x="267.630087" xlink:href="#mffec006f5e" y="439.2"/>
      </g>
     </g>
    </g>
    <g id="xtick_12">
     <g id="line2d_12">
      <g>
       <use style="stroke:#000000;stroke-width:0.6;" x="283.289876" xlink:href="#mffec006f5e" y="439.2"/>
      </g>
     </g>
    </g>
    <g id="xtick_13">
     <g id="line2d_13">
      <g>
       <use style="stroke:#000000;stroke-width:0.6;" x="297.10279" xlink:href="#mffec006f5e" y="439.2"/>
      </g>
     </g>
    </g>
    <g id="xtick_14">
     <g id="line2d_14">
      <g>
       <use style="stroke:#000000;stroke-width:0.6;" x="390.747154" xlink:href="#mffec006f5e" y="439.2"/>
      </g>
     </g>
    </g>
    <g id="xtick_15">
     <g id="line2d_15">
      <g>
       <use style="stroke:#000000;stroke-width:0.6;" x="438.297756" xlink:href="#mffec006f5e" y="439.2"/>
      </g>
     </g>
    </g>
    <g id="xtick_16">
     <g id="line2d_16">
      <g>
       <use style="stroke:#000000;stroke-width:0.6;" x="472.035446" xlink:href="#mffec006f5e" y="439.2"/>
      </g>
     </g>
    </g>
    <g id="xtick_17">
     <g id="line2d_17">
      <g>
       <use style="stroke:#000000;stroke-width:0.6;" x="519.586048" xlink:href="#mffec006f5e" y="439.2"/>
      </g>
     </g>
    </g>
    <g id="xtick_18">
     <g id="line2d_18">
      <g>
       <use style="stroke:#000000;stroke-width:0.6;" x="537.663948" xlink:href="#mffec006f5e" y="439.2"/>
      </g>
     </g>
    </g>
    <g id="xtick_19">
     <g id="line2d_19">
      <g>
       <use style="stroke:#000000;stroke-width:0.6;" x="553.323738" xlink:href="#mffec006f5e" y="439.2"/>
      </g>
     </g>
    </g>
    <g id="xtick_20">
     <g id="line2d_20">
      <g>
       <use style="stroke:#000000;stroke-width:0.6;" x="567.136651" xlink:href="#mffec006f5e" y="439.2"/>
      </g>
     </g>
    </g>
    <g id="xtick_21">
     <g id="line2d_21">
      <g>
       <use style="stroke:#000000;stroke-width:0.6;" x="660.781015" xlink:href="#mffec006f5e" y="439.2"/>
      </g>
     </g>
    </g>
    <g id="text_7">
     <!-- Frequency (Hz) -->
     <g transform="translate(268.925781 488.552344)scale(0.25 -0.25)">
      <defs>
       <path d="M 9.8125 72.90625 
L 51.703125 72.90625 
L 51.703125 64.59375 
L 19.671875 64.59375 
L 19.671875 43.109375 
L 48.578125 43.109375 
L 48.578125 34.8125 
L 19.671875 34.8125 
L 19.671875 0 
L 9.8125 0 
z
" id="DejaVuSans-70"/>
       <path d="M 41.109375 46.296875 
Q 39.59375 47.171875 37.8125 47.578125 
Q 36.03125 48 33.890625 48 
Q 26.265625 48 22.1875 43.046875 
Q 18.109375 38.09375 18.109375 28.8125 
L 18.109375 0 
L 9.078125 0 
L 9.078125 54.6875 
L 18.109375 54.6875 
L 18.109375 46.1875 
Q 20.953125 51.171875 25.484375 53.578125 
Q 30.03125 56 36.53125 56 
Q 37.453125 56 38.578125 55.875 
Q 39.703125 55.765625 41.0625 55.515625 
z
" id="DejaVuSans-114"/>
       <path d="M 56.203125 29.59375 
L 56.203125 25.203125 
L 14.890625 25.203125 
Q 15.484375 15.921875 20.484375 11.0625 
Q 25.484375 6.203125 34.421875 6.203125 
Q 39.59375 6.203125 44.453125 7.46875 
Q 49.3125 8.734375 54.109375 11.28125 
L 54.109375 2.78125 
Q 49.265625 0.734375 44.1875 -0.34375 
Q 39.109375 -1.421875 33.890625 -1.421875 
Q 20.796875 -1.421875 13.15625 6.1875 
Q 5.515625 13.8125 5.515625 26.8125 
Q 5.515625 40.234375 12.765625 48.109375 
Q 20.015625 56 32.328125 56 
Q 43.359375 56 49.78125 48.890625 
Q 56.203125 41.796875 56.203125 29.59375 
z
M 47.21875 32.234375 
Q 47.125 39.59375 43.09375 43.984375 
Q 39.0625 48.390625 32.421875 48.390625 
Q 24.90625 48.390625 20.390625 44.140625 
Q 15.875 39.890625 15.1875 32.171875 
z
" id="DejaVuSans-101"/>
       <path d="M 14.796875 27.296875 
Q 14.796875 17.390625 18.875 11.75 
Q 22.953125 6.109375 30.078125 6.109375 
Q 37.203125 6.109375 41.296875 11.75 
Q 45.40625 17.390625 45.40625 27.296875 
Q 45.40625 37.203125 41.296875 42.84375 
Q 37.203125 48.484375 30.078125 48.484375 
Q 22.953125 48.484375 18.875 42.84375 
Q 14.796875 37.203125 14.796875 27.296875 
z
M 45.40625 8.203125 
Q 42.578125 3.328125 38.25 0.953125 
Q 33.9375 -1.421875 27.875 -1.421875 
Q 17.96875 -1.421875 11.734375 6.484375 
Q 5.515625 14.40625 5.515625 27.296875 
Q 5.515625 40.1875 11.734375 48.09375 
Q 17.96875 56 27.875 56 
Q 33.9375 56 38.25 53.625 
Q 42.578125 51.265625 45.40625 46.390625 
L 45.40625 54.6875 
L 54.390625 54.6875 
L 54.390625 -20.796875 
L 45.40625 -20.796875 
z
" id="DejaVuSans-113"/>
       <path d="M 8.5 21.578125 
L 8.5 54.6875 
L 17.484375 54.6875 
L 17.484375 21.921875 
Q 17.484375 14.15625 20.5 10.265625 
Q 23.53125 6.390625 29.59375 6.390625 
Q 36.859375 6.390625 41.078125 11.03125 
Q 45.3125 15.671875 45.3125 23.6875 
L 45.3125 54.6875 
L 54.296875 54.6875 
L 54.296875 0 
L 45.3125 0 
L 45.3125 8.40625 
Q 42.046875 3.421875 37.71875 1 
Q 33.40625 -1.421875 27.6875 -1.421875 
Q 18.265625 -1.421875 13.375 4.4375 
Q 8.5 10.296875 8.5 21.578125 
z
M 31.109375 56 
z
" id="DejaVuSans-117"/>
       <path d="M 54.890625 33.015625 
L 54.890625 0 
L 45.90625 0 
L 45.90625 32.71875 
Q 45.90625 40.484375 42.875 44.328125 
Q 39.84375 48.1875 33.796875 48.1875 
Q 26.515625 48.1875 22.3125 43.546875 
Q 18.109375 38.921875 18.109375 30.90625 
L 18.109375 0 
L 9.078125 0 
L 9.078125 54.6875 
L 18.109375 54.6875 
L 18.109375 46.1875 
Q 21.34375 51.125 25.703125 53.5625 
Q 30.078125 56 35.796875 56 
Q 45.21875 56 50.046875 50.171875 
Q 54.890625 44.34375 54.890625 33.015625 
z
" id="DejaVuSans-110"/>
       <path d="M 48.78125 52.59375 
L 48.78125 44.1875 
Q 44.96875 46.296875 41.140625 47.34375 
Q 37.3125 48.390625 33.40625 48.390625 
Q 24.65625 48.390625 19.8125 42.84375 
Q 14.984375 37.3125 14.984375 27.296875 
Q 14.984375 17.28125 19.8125 11.734375 
Q 24.65625 6.203125 33.40625 6.203125 
Q 37.3125 6.203125 41.140625 7.25 
Q 44.96875 8.296875 48.78125 10.40625 
L 48.78125 2.09375 
Q 45.015625 0.34375 40.984375 -0.53125 
Q 36.96875 -1.421875 32.421875 -1.421875 
Q 20.0625 -1.421875 12.78125 6.34375 
Q 5.515625 14.109375 5.515625 27.296875 
Q 5.515625 40.671875 12.859375 48.328125 
Q 20.21875 56 33.015625 56 
Q 37.15625 56 41.109375 55.140625 
Q 45.0625 54.296875 48.78125 52.59375 
z
" id="DejaVuSans-99"/>
       <path d="M 32.171875 -5.078125 
Q 28.375 -14.84375 24.75 -17.8125 
Q 21.140625 -20.796875 15.09375 -20.796875 
L 7.90625 -20.796875 
L 7.90625 -13.28125 
L 13.1875 -13.28125 
Q 16.890625 -13.28125 18.9375 -11.515625 
Q 21 -9.765625 23.484375 -3.21875 
L 25.09375 0.875 
L 2.984375 54.6875 
L 12.5 54.6875 
L 29.59375 11.921875 
L 46.6875 54.6875 
L 56.203125 54.6875 
z
" id="DejaVuSans-121"/>
       <path id="DejaVuSans-32"/>
       <path d="M 31 75.875 
Q 24.46875 64.65625 21.28125 53.65625 
Q 18.109375 42.671875 18.109375 31.390625 
Q 18.109375 20.125 21.3125 9.0625 
Q 24.515625 -2 31 -13.1875 
L 23.1875 -13.1875 
Q 15.875 -1.703125 12.234375 9.375 
Q 8.59375 20.453125 8.59375 31.390625 
Q 8.59375 42.28125 12.203125 53.3125 
Q 15.828125 64.359375 23.1875 75.875 
z
" id="DejaVuSans-40"/>
       <path d="M 9.8125 72.90625 
L 19.671875 72.90625 
L 19.671875 43.015625 
L 55.515625 43.015625 
L 55.515625 72.90625 
L 65.375 72.90625 
L 65.375 0 
L 55.515625 0 
L 55.515625 34.71875 
L 19.671875 34.71875 
L 19.671875 0 
L 9.8125 0 
z
" id="DejaVuSans-72"/>
       <path d="M 5.515625 54.6875 
L 48.1875 54.6875 
L 48.1875 46.484375 
L 14.40625 7.171875 
L 48.1875 7.171875 
L 48.1875 0 
L 4.296875 0 
L 4.296875 8.203125 
L 38.09375 47.515625 
L 5.515625 47.515625 
z
" id="DejaVuSans-122"/>
       <path d="M 8.015625 75.875 
L 15.828125 75.875 
Q 23.140625 64.359375 26.78125 53.3125 
Q 30.421875 42.28125 30.421875 31.390625 
Q 30.421875 20.453125 26.78125 9.375 
Q 23.140625 -1.703125 15.828125 -13.1875 
L 8.015625 -13.1875 
Q 14.5 -2 17.703125 9.0625 
Q 20.90625 20.125 20.90625 31.390625 
Q 20.90625 42.671875 17.703125 53.65625 
Q 14.5 64.65625 8.015625 75.875 
z
" id="DejaVuSans-41"/>
      </defs>
      <use xlink:href="#DejaVuSans-70"/>
      <use x="50.269531" xlink:href="#DejaVuSans-114"/>
      <use x="89.132812" xlink:href="#DejaVuSans-101"/>
      <use x="150.65625" xlink:href="#DejaVuSans-113"/>
      <use x="214.132812" xlink:href="#DejaVuSans-117"/>
      <use x="277.511719" xlink:href="#DejaVuSans-101"/>
      <use x="339.035156" xlink:href="#DejaVuSans-110"/>
      <use x="402.414062" xlink:href="#DejaVuSans-99"/>
      <use x="457.394531" xlink:href="#DejaVuSans-121"/>
      <use x="516.574219" xlink:href="#DejaVuSans-32"/>
      <use x="548.361328" xlink:href="#DejaVuSans-40"/>
      <use x="587.375" xlink:href="#DejaVuSans-72"/>
      <use x="662.570312" xlink:href="#DejaVuSans-122"/>
      <use x="715.060547" xlink:href="#DejaVuSans-41"/>
     </g>
    </g>
   </g>
   <g id="matplotlib.axis_2">
    <g id="text_8">
     <!-- Power Spectrum -->
     <g transform="translate(30.225781 327.330078)rotate(-90)scale(0.25 -0.25)">
      <defs>
       <path d="M 19.671875 64.796875 
L 19.671875 37.40625 
L 32.078125 37.40625 
Q 38.96875 37.40625 42.71875 40.96875 
Q 46.484375 44.53125 46.484375 51.125 
Q 46.484375 57.671875 42.71875 61.234375 
Q 38.96875 64.796875 32.078125 64.796875 
z
M 9.8125 72.90625 
L 32.078125 72.90625 
Q 44.34375 72.90625 50.609375 67.359375 
Q 56.890625 61.8125 56.890625 51.125 
Q 56.890625 40.328125 50.609375 34.8125 
Q 44.34375 29.296875 32.078125 29.296875 
L 19.671875 29.296875 
L 19.671875 0 
L 9.8125 0 
z
" id="DejaVuSans-80"/>
       <path d="M 30.609375 48.390625 
Q 23.390625 48.390625 19.1875 42.75 
Q 14.984375 37.109375 14.984375 27.296875 
Q 14.984375 17.484375 19.15625 11.84375 
Q 23.34375 6.203125 30.609375 6.203125 
Q 37.796875 6.203125 41.984375 11.859375 
Q 46.1875 17.53125 46.1875 27.296875 
Q 46.1875 37.015625 41.984375 42.703125 
Q 37.796875 48.390625 30.609375 48.390625 
z
M 30.609375 56 
Q 42.328125 56 49.015625 48.375 
Q 55.71875 40.765625 55.71875 27.296875 
Q 55.71875 13.875 49.015625 6.21875 
Q 42.328125 -1.421875 30.609375 -1.421875 
Q 18.84375 -1.421875 12.171875 6.21875 
Q 5.515625 13.875 5.515625 27.296875 
Q 5.515625 40.765625 12.171875 48.375 
Q 18.84375 56 30.609375 56 
z
" id="DejaVuSans-111"/>
       <path d="M 4.203125 54.6875 
L 13.1875 54.6875 
L 24.421875 12.015625 
L 35.59375 54.6875 
L 46.1875 54.6875 
L 57.421875 12.015625 
L 68.609375 54.6875 
L 77.59375 54.6875 
L 63.28125 0 
L 52.6875 0 
L 40.921875 44.828125 
L 29.109375 0 
L 18.5 0 
z
" id="DejaVuSans-119"/>
       <path d="M 53.515625 70.515625 
L 53.515625 60.890625 
Q 47.90625 63.578125 42.921875 64.890625 
Q 37.9375 66.21875 33.296875 66.21875 
Q 25.25 66.21875 20.875 63.09375 
Q 16.5 59.96875 16.5 54.203125 
Q 16.5 49.359375 19.40625 46.890625 
Q 22.3125 44.4375 30.421875 42.921875 
L 36.375 41.703125 
Q 47.40625 39.59375 52.65625 34.296875 
Q 57.90625 29 57.90625 20.125 
Q 57.90625 9.515625 50.796875 4.046875 
Q 43.703125 -1.421875 29.984375 -1.421875 
Q 24.8125 -1.421875 18.96875 -0.25 
Q 13.140625 0.921875 6.890625 3.21875 
L 6.890625 13.375 
Q 12.890625 10.015625 18.65625 8.296875 
Q 24.421875 6.59375 29.984375 6.59375 
Q 38.421875 6.59375 43.015625 9.90625 
Q 47.609375 13.234375 47.609375 19.390625 
Q 47.609375 24.75 44.3125 27.78125 
Q 41.015625 30.8125 33.5 32.328125 
L 27.484375 33.5 
Q 16.453125 35.6875 11.515625 40.375 
Q 6.59375 45.0625 6.59375 53.421875 
Q 6.59375 63.09375 13.40625 68.65625 
Q 20.21875 74.21875 32.171875 74.21875 
Q 37.3125 74.21875 42.625 73.28125 
Q 47.953125 72.359375 53.515625 70.515625 
z
" id="DejaVuSans-83"/>
       <path d="M 18.109375 8.203125 
L 18.109375 -20.796875 
L 9.078125 -20.796875 
L 9.078125 54.6875 
L 18.109375 54.6875 
L 18.109375 46.390625 
Q 20.953125 51.265625 25.265625 53.625 
Q 29.59375 56 35.59375 56 
Q 45.5625 56 51.78125 48.09375 
Q 58.015625 40.1875 58.015625 27.296875 
Q 58.015625 14.40625 51.78125 6.484375 
Q 45.5625 -1.421875 35.59375 -1.421875 
Q 29.59375 -1.421875 25.265625 0.953125 
Q 20.953125 3.328125 18.109375 8.203125 
z
M 48.6875 27.296875 
Q 48.6875 37.203125 44.609375 42.84375 
Q 40.53125 48.484375 33.40625 48.484375 
Q 26.265625 48.484375 22.1875 42.84375 
Q 18.109375 37.203125 18.109375 27.296875 
Q 18.109375 17.390625 22.1875 11.75 
Q 26.265625 6.109375 33.40625 6.109375 
Q 40.53125 6.109375 44.609375 11.75 
Q 48.6875 17.390625 48.6875 27.296875 
z
" id="DejaVuSans-112"/>
       <path d="M 18.3125 70.21875 
L 18.3125 54.6875 
L 36.8125 54.6875 
L 36.8125 47.703125 
L 18.3125 47.703125 
L 18.3125 18.015625 
Q 18.3125 11.328125 20.140625 9.421875 
Q 21.96875 7.515625 27.59375 7.515625 
L 36.8125 7.515625 
L 36.8125 0 
L 27.59375 0 
Q 17.1875 0 13.234375 3.875 
Q 9.28125 7.765625 9.28125 18.015625 
L 9.28125 47.703125 
L 2.6875 47.703125 
L 2.6875 54.6875 
L 9.28125 54.6875 
L 9.28125 70.21875 
z
" id="DejaVuSans-116"/>
       <path d="M 52 44.1875 
Q 55.375 50.25 60.0625 53.125 
Q 64.75 56 71.09375 56 
Q 79.640625 56 84.28125 50.015625 
Q 88.921875 44.046875 88.921875 33.015625 
L 88.921875 0 
L 79.890625 0 
L 79.890625 32.71875 
Q 79.890625 40.578125 77.09375 44.375 
Q 74.3125 48.1875 68.609375 48.1875 
Q 61.625 48.1875 57.5625 43.546875 
Q 53.515625 38.921875 53.515625 30.90625 
L 53.515625 0 
L 44.484375 0 
L 44.484375 32.71875 
Q 44.484375 40.625 41.703125 44.40625 
Q 38.921875 48.1875 33.109375 48.1875 
Q 26.21875 48.1875 22.15625 43.53125 
Q 18.109375 38.875 18.109375 30.90625 
L 18.109375 0 
L 9.078125 0 
L 9.078125 54.6875 
L 18.109375 54.6875 
L 18.109375 46.1875 
Q 21.1875 51.21875 25.484375 53.609375 
Q 29.78125 56 35.6875 56 
Q 41.65625 56 45.828125 52.96875 
Q 50 49.953125 52 44.1875 
z
" id="DejaVuSans-109"/>
      </defs>
      <use xlink:href="#DejaVuSans-80"/>
      <use x="56.677734" xlink:href="#DejaVuSans-111"/>
      <use x="117.859375" xlink:href="#DejaVuSans-119"/>
      <use x="199.646484" xlink:href="#DejaVuSans-101"/>
      <use x="261.169922" xlink:href="#DejaVuSans-114"/>
      <use x="302.283203" xlink:href="#DejaVuSans-32"/>
      <use x="334.070312" xlink:href="#DejaVuSans-83"/>
      <use x="397.546875" xlink:href="#DejaVuSans-112"/>
      <use x="461.023438" xlink:href="#DejaVuSans-101"/>
      <use x="522.546875" xlink:href="#DejaVuSans-99"/>
      <use x="577.527344" xlink:href="#DejaVuSans-116"/>
      <use x="616.736328" xlink:href="#DejaVuSans-114"/>
      <use x="657.849609" xlink:href="#DejaVuSans-117"/>
      <use x="721.228516" xlink:href="#DejaVuSans-109"/>
     </g>
    </g>
   </g>
   <g id="line2d_22">
    <path clip-path="url(#p450a501259)" d="M -1 241.304788 
L 107.422759 241.225079 
L 188.711052 272.166552 
L 236.261654 298.030132 
L 269.999344 219.272926 
L 296.168329 327.214733 
L 317.549946 320.501616 
L 335.627846 310.532369 
L 351.287636 57.462471 
L 365.100549 326.332466 
L 377.456621 335.047596 
L 388.634047 332.387161 
L 398.838238 347.677522 
L 408.225184 349.641643 
L 416.916139 360.439741 
L 425.007223 369.588837 
L 432.575928 280.656071 
L 439.685633 364.030115 
L 446.388841 346.493241 
L 452.729532 362.883747 
L 458.744913 358.440604 
L 464.466741 366.665671 
L 469.92234 377.765872 
L 475.135385 379.587102 
L 480.126531 366.744419 
L 484.913898 373.564398 
L 489.513476 381.244294 
L 493.939444 379.723842 
L 498.204431 380.591666 
L 502.319738 374.607448 
L 506.295516 386.568652 
L 510.140916 382.72379 
L 513.86422 378.429454 
L 517.472942 389.457382 
L 520.973925 391.477204 
L 524.373416 387.013756 
L 527.677133 384.847443 
L 530.890326 382.248363 
L 534.017824 379.133534 
L 537.064079 385.217745 
L 540.033205 390.067983 
L 542.929012 387.9404 
L 545.755033 395.032833 
L 548.514554 395.156633 
L 551.210632 400.367729 
L 553.846118 389.832956 
L 556.423677 391.424014 
L 558.945801 396.537889 
L 561.414823 382.434255 
L 563.832933 398.004028 
L 566.20219 393.93407 
L 568.524528 395.178397 
L 570.801769 401.899545 
L 573.035631 400.56641 
L 575.227736 394.365108 
L 577.379617 398.250009 
L 579.492723 394.347893 
L 581.568427 399.713722 
L 583.60803 398.488858 
L 585.612766 399.267665 
L 587.583808 402.17261 
L 589.522269 399.41855 
L 591.429209 403.678769 
L 593.305636 401.792574 
L 595.152512 400.597649 
L 596.970754 398.382809 
L 598.761234 398.004277 
L 600.52479 406.449497 
L 602.262217 399.308845 
L 603.97428 398.496909 
L 605.661708 399.850795 
L 607.3252 400.984758 
L 608.965425 401.620734 
L 610.583026 407.616663 
L 612.178619 402.375489 
L 613.752793 398.709083 
L 615.306116 405.316562 
L 616.839134 403.434129 
L 618.352371 408.80062 
L 619.84633 408.508809 
L 621.321497 405.484625 
L 622.778339 407.435091 
L 624.217304 405.322221 
L 625.638827 407.966837 
L 627.043325 407.857425 
L 628.431202 408.418482 
L 629.802846 410.027487 
L 631.158633 407.546391 
L 632.498924 406.174973 
L 633.82407 410.387599 
L 635.13441 409.466093 
L 636.430271 405.991146 
L 637.711969 407.462786 
L 638.979811 407.941687 
L 640.234093 408.570093 
L 642.703115 406.647263 
L 643.918403 410.932778 
L 645.121226 411.761716 
L 646.311837 405.883247 
L 647.490482 411.391628 
L 648.6574 412.440827 
L 649.81282 408.509447 
L 650.956968 411.087811 
L 652.090061 412.098333 
L 653.212311 412.314818 
L 654.323923 408.676677 
L 655.425097 413.918581 
L 656.516028 409.695096 
L 657.596904 411.536235 
L 658.667909 410.643028 
L 659.729221 409.553334 
L 660.781015 409.794419 
L 661.823459 408.978134 
L 662.856719 409.266588 
L 663.880954 415.620398 
L 664.896322 410.527545 
L 665.902974 413.229251 
L 666.901058 409.971917 
L 668.8721 411.487965 
L 669.845335 411.423628 
L 670.810561 414.011774 
L 671.767907 412.859948 
L 672.717501 412.414125 
L 673.659467 414.013005 
L 674.593928 414.052663 
L 675.521002 412.721682 
L 676.440804 411.203385 
L 677.353449 415.327646 
L 678.259046 414.404232 
L 679.157703 412.130706 
L 680.049526 412.482625 
L 680.934619 416.028854 
L 681.813082 415.106726 
L 683.550509 411.816476 
L 685.262572 417.965001 
L 686.109321 416.415072 
L 686.95 425.933335 
L 686.95 425.933335 
" style="fill:none;stroke:#1b9e77;stroke-dasharray:12,4;stroke-dashoffset:0;stroke-width:2;"/>
   </g>
   <g id="line2d_23">
    <path clip-path="url(#p450a501259)" d="M -1 279.316924 
L 107.422759 279.252526 
L 188.711052 302.51655 
L 236.261654 332.018908 
L 269.999344 266.839408 
L 296.168329 344.712885 
L 317.549946 353.403245 
L 335.627846 359.222036 
L 351.287636 147.229654 
L 365.100549 353.08482 
L 377.456621 365.796249 
L 388.634047 356.869988 
L 398.838238 350.95893 
L 408.225184 364.408477 
L 416.916139 371.80575 
L 425.007223 364.56123 
L 432.575928 322.900842 
L 439.685633 366.418023 
L 446.388841 382.696591 
L 452.729532 377.099687 
L 458.744913 380.532349 
L 464.466741 386.589966 
L 469.92234 386.57597 
L 475.135385 394.06392 
L 480.126531 378.553633 
L 484.913898 396.240446 
L 489.513476 390.132957 
L 493.939444 396.48942 
L 498.204431 376.859794 
L 502.319738 392.130109 
L 506.295516 393.54032 
L 510.140916 400.791589 
L 513.86422 396.098274 
L 517.472942 391.014885 
L 520.973925 398.288392 
L 524.373416 399.914215 
L 527.677133 393.544335 
L 530.890326 401.391571 
L 534.017824 401.346123 
L 537.064079 406.662316 
L 540.033205 400.388416 
L 542.929012 401.290591 
L 545.755033 401.864024 
L 548.514554 394.760346 
L 551.210632 402.309856 
L 553.846118 398.467514 
L 556.423677 408.035068 
L 558.945801 399.817975 
L 561.414823 400.774286 
L 563.832933 408.891302 
L 566.20219 408.74246 
L 568.524528 402.727787 
L 570.801769 407.998839 
L 573.035631 407.957195 
L 575.227736 408.481467 
L 577.379617 405.007651 
L 579.492723 402.745111 
L 581.568427 409.016843 
L 583.60803 405.020011 
L 585.612766 410.166595 
L 587.583808 406.866508 
L 589.522269 411.941516 
L 591.429209 407.184345 
L 593.305636 406.19265 
L 595.152512 405.779436 
L 596.970754 410.168511 
L 598.761234 407.948681 
L 600.52479 409.380904 
L 602.262217 414.450122 
L 603.97428 406.34369 
L 605.661708 410.566262 
L 607.3252 408.356405 
L 608.965425 409.850605 
L 610.583026 411.555779 
L 612.178619 411.51258 
L 613.752793 413.812933 
L 615.306116 408.46506 
L 616.839134 411.889204 
L 618.352371 412.934431 
L 619.84633 412.79768 
L 621.321497 412.362548 
L 622.778339 417.221314 
L 624.217304 412.531292 
L 625.638827 414.595599 
L 627.043325 411.645845 
L 628.431202 415.276707 
L 629.802846 414.39579 
L 631.158633 415.532066 
L 632.498924 411.416771 
L 633.82407 412.70269 
L 635.13441 414.743503 
L 636.430271 410.828123 
L 637.711969 414.715915 
L 638.979811 414.735993 
L 640.234093 418.639866 
L 641.475101 418.039996 
L 642.703115 409.925742 
L 643.918403 413.576661 
L 645.121226 413.880037 
L 646.311837 417.944527 
L 647.490482 415.310672 
L 648.6574 417.509753 
L 649.81282 416.233212 
L 650.956968 416.692726 
L 652.090061 413.185104 
L 654.323923 415.733684 
L 655.425097 417.252379 
L 656.516028 414.613292 
L 657.596904 416.70309 
L 658.667909 415.081135 
L 659.729221 420.076059 
L 660.781015 415.311603 
L 661.823459 419.534206 
L 662.856719 418.680867 
L 664.896322 416.523852 
L 665.902974 418.937315 
L 666.901058 415.730495 
L 667.89072 419.127477 
L 668.8721 418.39446 
L 670.810561 415.688484 
L 671.767907 415.846335 
L 672.717501 418.525172 
L 673.659467 418.083519 
L 674.593928 417.058221 
L 675.521002 417.623469 
L 676.440804 418.680061 
L 677.353449 416.038558 
L 678.259046 416.303986 
L 679.157703 416.30877 
L 680.049526 414.714884 
L 680.934619 420.074006 
L 681.813082 421.318906 
L 682.685013 419.399419 
L 683.550509 417.841877 
L 684.409665 420.736797 
L 685.262572 414.213906 
L 686.109321 417.816725 
L 686.95 429.141229 
L 686.95 429.141229 
" style="fill:none;stroke:#8b4513;stroke-dasharray:4,4,20,4;stroke-dashoffset:0;stroke-width:2;"/>
   </g>
   <g id="line2d_24">
    <path clip-path="url(#p450a501259)" d="M -1 293.502992 
L 180.619967 293.404689 
L 261.908259 316.290956 
L 309.458861 344.865997 
L 343.196551 349.762386 
L 369.365536 366.683101 
L 390.747154 369.4971 
L 408.825054 372.443041 
L 424.484843 379.780944 
L 438.297756 381.139451 
L 450.653828 384.214448 
L 461.831255 384.046161 
L 472.035446 388.750388 
L 481.422391 386.288157 
L 490.113346 387.795309 
L 498.204431 386.955983 
L 505.773135 390.580198 
L 512.88284 385.652659 
L 519.586048 382.877075 
L 525.926739 387.595083 
L 531.94212 389.634648 
L 537.663948 392.211588 
L 543.119547 391.798268 
L 548.332592 390.089517 
L 553.323738 390.141167 
L 558.111105 393.259625 
L 562.710684 391.517042 
L 567.136651 392.63634 
L 571.401638 396.341887 
L 575.516945 397.073393 
L 579.492723 395.595324 
L 583.338124 390.625334 
L 587.061427 393.399166 
L 590.670149 398.614881 
L 594.171132 398.992407 
L 597.570623 401.113306 
L 600.87434 406.593843 
L 604.087534 405.889787 
L 607.215031 402.545208 
L 610.261286 407.345109 
L 613.230412 407.165138 
L 616.126219 400.964321 
L 618.952241 408.536151 
L 621.711761 408.790334 
L 624.407839 409.751032 
L 627.043325 409.065395 
L 629.620885 400.480885 
L 632.143008 405.937742 
L 634.61203 410.036498 
L 637.030141 408.572138 
L 639.399397 411.765014 
L 641.721735 411.972899 
L 643.998976 407.129239 
L 646.232838 410.920134 
L 648.424943 408.248622 
L 650.576824 410.666254 
L 652.68993 412.241127 
L 654.765634 408.035018 
L 656.805237 409.804899 
L 658.809973 409.826863 
L 660.781015 416.735268 
L 662.719476 412.429321 
L 664.626416 409.586006 
L 666.502843 414.417221 
L 668.349719 416.459899 
L 670.167961 411.430236 
L 671.958442 414.547174 
L 673.721997 415.509775 
L 675.459424 415.319062 
L 677.171487 414.025009 
L 678.858915 413.99296 
L 680.522407 414.139013 
L 682.162633 415.924876 
L 683.780234 414.654659 
L 685.375826 416.187477 
L 686.95 428.632075 
" style="fill:none;stroke:#7570b3;stroke-dasharray:2,2;stroke-dashoffset:0;stroke-width:2;"/>
   </g>
   <g id="line2d_25"/>
   <g id="line2d_26"/>
   <g id="line2d_27"/>
   <g id="patch_3">
    <path d="M 39.425 439.2 
L 39.425 10.8 
" style="fill:none;stroke:#000000;stroke-linecap:square;stroke-linejoin:miter;stroke-width:0.8;"/>
   </g>
   <g id="patch_4">
    <path d="M 39.425 439.2 
L 686.95 439.2 
" style="fill:none;stroke:#000000;stroke-linecap:square;stroke-linejoin:miter;stroke-width:0.8;"/>
   </g>
   <g id="legend_1">
    <g id="patch_5">
     <path d="M 543.46875 114.86875 
L 672.95 114.86875 
Q 676.95 114.86875 676.95 110.86875 
L 676.95 24.8 
Q 676.95 20.8 672.95 20.8 
L 543.46875 20.8 
Q 539.46875 20.8 539.46875 24.8 
L 539.46875 110.86875 
Q 539.46875 114.86875 543.46875 114.86875 
z
" style="fill:#ffffff;opacity:0.8;stroke:#cccccc;stroke-linejoin:miter;"/>
    </g>
    <g id="line2d_28">
     <path d="M 547.46875 36.996875 
L 587.46875 36.996875 
" style="fill:none;stroke:#1b9e77;stroke-dasharray:9,3;stroke-dashoffset:0;stroke-width:1.5;"/>
    </g>
    <g id="line2d_29"/>
    <g id="text_9">
     <!-- Stroop -->
     <g transform="translate(603.46875 43.996875)scale(0.2 -0.2)">
      <use xlink:href="#DejaVuSans-83"/>
      <use x="63.476562" xlink:href="#DejaVuSans-116"/>
      <use x="102.685547" xlink:href="#DejaVuSans-114"/>
      <use x="141.548828" xlink:href="#DejaVuSans-111"/>
      <use x="202.730469" xlink:href="#DejaVuSans-111"/>
      <use x="263.912109" xlink:href="#DejaVuSans-112"/>
     </g>
    </g>
    <g id="line2d_30">
     <path d="M 547.46875 66.353125 
L 587.46875 66.353125 
" style="fill:none;stroke:#8b4513;stroke-dasharray:3,3,15,3;stroke-dashoffset:0;stroke-width:1.5;"/>
    </g>
    <g id="line2d_31"/>
    <g id="text_10">
     <!-- MSIT -->
     <g transform="translate(603.46875 73.353125)scale(0.2 -0.2)">
      <defs>
       <path d="M 9.8125 72.90625 
L 24.515625 72.90625 
L 43.109375 23.296875 
L 61.8125 72.90625 
L 76.515625 72.90625 
L 76.515625 0 
L 66.890625 0 
L 66.890625 64.015625 
L 48.09375 14.015625 
L 38.1875 14.015625 
L 19.390625 64.015625 
L 19.390625 0 
L 9.8125 0 
z
" id="DejaVuSans-77"/>
       <path d="M 9.8125 72.90625 
L 19.671875 72.90625 
L 19.671875 0 
L 9.8125 0 
z
" id="DejaVuSans-73"/>
       <path d="M -0.296875 72.90625 
L 61.375 72.90625 
L 61.375 64.59375 
L 35.5 64.59375 
L 35.5 0 
L 25.59375 0 
L 25.59375 64.59375 
L -0.296875 64.59375 
z
" id="DejaVuSans-84"/>
      </defs>
      <use xlink:href="#DejaVuSans-77"/>
      <use x="86.279297" xlink:href="#DejaVuSans-83"/>
      <use x="149.755859" xlink:href="#DejaVuSans-73"/>
      <use x="179.248047" xlink:href="#DejaVuSans-84"/>
     </g>
    </g>
    <g id="line2d_32">
     <path d="M 547.46875 95.709375 
L 587.46875 95.709375 
" style="fill:none;stroke:#7570b3;stroke-dasharray:1.5,1.5;stroke-dashoffset:0;stroke-width:1.5;"/>
    </g>
    <g id="line2d_33"/>
    <g id="text_11">
     <!-- Rest -->
     <g transform="translate(603.46875 102.709375)scale(0.2 -0.2)">
      <defs>
       <path d="M 44.390625 34.1875 
Q 47.5625 33.109375 50.5625 29.59375 
Q 53.5625 26.078125 56.59375 19.921875 
L 66.609375 0 
L 56 0 
L 46.6875 18.703125 
Q 43.0625 26.03125 39.671875 28.421875 
Q 36.28125 30.8125 30.421875 30.8125 
L 19.671875 30.8125 
L 19.671875 0 
L 9.8125 0 
L 9.8125 72.90625 
L 32.078125 72.90625 
Q 44.578125 72.90625 50.734375 67.671875 
Q 56.890625 62.453125 56.890625 51.90625 
Q 56.890625 45.015625 53.6875 40.46875 
Q 50.484375 35.9375 44.390625 34.1875 
z
M 19.671875 64.796875 
L 19.671875 38.921875 
L 32.078125 38.921875 
Q 39.203125 38.921875 42.84375 42.21875 
Q 46.484375 45.515625 46.484375 51.90625 
Q 46.484375 58.296875 42.84375 61.546875 
Q 39.203125 64.796875 32.078125 64.796875 
z
" id="DejaVuSans-82"/>
       <path d="M 44.28125 53.078125 
L 44.28125 44.578125 
Q 40.484375 46.53125 36.375 47.5 
Q 32.28125 48.484375 27.875 48.484375 
Q 21.1875 48.484375 17.84375 46.4375 
Q 14.5 44.390625 14.5 40.28125 
Q 14.5 37.15625 16.890625 35.375 
Q 19.28125 33.59375 26.515625 31.984375 
L 29.59375 31.296875 
Q 39.15625 29.25 43.1875 25.515625 
Q 47.21875 21.78125 47.21875 15.09375 
Q 47.21875 7.46875 41.1875 3.015625 
Q 35.15625 -1.421875 24.609375 -1.421875 
Q 20.21875 -1.421875 15.453125 -0.5625 
Q 10.6875 0.296875 5.421875 2 
L 5.421875 11.28125 
Q 10.40625 8.6875 15.234375 7.390625 
Q 20.0625 6.109375 24.8125 6.109375 
Q 31.15625 6.109375 34.5625 8.28125 
Q 37.984375 10.453125 37.984375 14.40625 
Q 37.984375 18.0625 35.515625 20.015625 
Q 33.0625 21.96875 24.703125 23.78125 
L 21.578125 24.515625 
Q 13.234375 26.265625 9.515625 29.90625 
Q 5.8125 33.546875 5.8125 39.890625 
Q 5.8125 47.609375 11.28125 51.796875 
Q 16.75 56 26.8125 56 
Q 31.78125 56 36.171875 55.265625 
Q 40.578125 54.546875 44.28125 53.078125 
z
" id="DejaVuSans-115"/>
      </defs>
      <use xlink:href="#DejaVuSans-82"/>
      <use x="64.982422" xlink:href="#DejaVuSans-101"/>
      <use x="126.505859" xlink:href="#DejaVuSans-115"/>
      <use x="178.605469" xlink:href="#DejaVuSans-116"/>
     </g>
    </g>
   </g>
  </g>
 </g>
 <defs>
  <clipPath id="p450a501259">
   <rect height="428.4" width="647.525" x="39.425" y="10.8"/>
  </clipPath>
 </defs>
</svg>
