<?xml version="1.0" encoding="utf-8" standalone="no"?>
<!DOCTYPE svg PUBLIC "-//W3C//DTD SVG 1.1//EN"
  "http://www.w3.org/Graphics/SVG/1.1/DTD/svg11.dtd">
<svg height="504pt" version="1.1" viewBox="0 0 720 504" width="720pt" xmlns="http://www.w3.org/2000/svg" xmlns:xlink="http://www.w3.org/1999/xlink">
 <metadata>
  <rdf:RDF xmlns:cc="http://creativecommons.org/ns#" xmlns:dc="http://purl.org/dc/elements/1.1/" xmlns:rdf="http://www.w3.org/1999/02/22-rdf-syntax-ns#">
   <cc:Work>
    <dc:type rdf:resource="http://purl.org/dc/dcmitype/StillImage"/>
    <dc:date>2023-08-09T15:18:06.159513</dc:date>
    <dc:format>image/svg+xml</dc:format>
    <dc:creator>
     <cc:Agent>
      <dc:title>Matplotlib v3.4.2, https://matplotlib.org/</dc:title>
     </cc:Agent>
    </dc:creator>
   </cc:Work>
  </rdf:RDF>
 </metadata>
 <defs>
  <style type="text/css">*{stroke-linecap:butt;stroke-linejoin:round;}</style>
 </defs>
 <g id="figure_1">
  <g id="patch_1">
   <path d="M 0 504 
L 720 504 
L 720 0 
L 0 0 
z
" style="fill:none;"/>
  </g>
  <g id="axes_1">
   <g id="patch_2">
    <path d="M 48.2375 421.2 
L 680.075 421.2 
L 680.075 10.8 
L 48.2375 10.8 
z
" style="fill:#ffffff;"/>
   </g>
   <g id="PolyCollection_1">
    <path clip-path="url(#p8934ee6d36)" d="M -262653.074969 421.2 
L -262653.074969 421.2 
L 114.587887 253.332869 
L 193.906819 282.571558 
L 240.305419 301.522959 
L 273.22575 236.032649 
L 298.760743 325.059619 
L 319.624351 324.477074 
L 337.26428 317.179945 
L 352.544682 85.693309 
L 366.022952 324.501083 
L 378.079675 333.161073 
L 388.986307 331.957038 
L 398.943283 344.456846 
L 408.102812 342.959708 
L 416.583212 353.57504 
L 424.478275 359.928924 
L 431.863614 287.54147 
L 438.801073 357.930067 
L 445.341884 344.081927 
L 451.528959 358.083518 
L 457.398607 357.860713 
L 462.981813 363.531139 
L 468.305239 369.775478 
L 473.391989 371.022877 
L 478.262215 361.038675 
L 482.933599 367.584865 
L 487.421744 372.801274 
L 491.740484 371.491181 
L 495.902144 372.636124 
L 499.91775 366.115041 
L 503.797207 375.307245 
L 507.549446 372.94201 
L 511.182546 369.318835 
L 514.70384 378.412299 
L 518.120005 380.46409 
L 521.437137 375.876072 
L 524.660815 375.132561 
L 527.796163 373.58539 
L 530.847891 370.602988 
L 533.820345 376.750564 
L 536.717538 379.67083 
L 539.543189 377.783753 
L 542.300745 383.383526 
L 544.993411 384.508538 
L 547.624171 388.491048 
L 550.195808 379.601149 
L 552.710921 380.510989 
L 555.171941 385.130356 
L 557.581146 373.784366 
L 559.940674 386.727459 
L 562.252531 383.284766 
L 564.518606 383.984727 
L 566.740676 388.38958 
L 568.920419 387.951097 
L 571.059416 383.775151 
L 573.159163 386.541473 
L 575.221076 382.392727 
L 577.246492 387.060439 
L 579.236682 386.693598 
L 581.192849 387.990445 
L 583.116139 389.360596 
L 585.007637 387.051523 
L 586.868378 389.957801 
L 588.699345 389.003923 
L 590.501477 388.220452 
L 592.275668 386.741627 
L 594.022772 386.129358 
L 595.743601 393.160631 
L 597.438937 387.254147 
L 599.109521 386.732906 
L 600.756068 387.620327 
L 602.379259 388.253199 
L 603.979747 389.410408 
L 605.558159 393.112208 
L 607.115095 389.516375 
L 608.651132 386.858227 
L 610.166823 392.520408 
L 611.662701 390.369015 
L 613.139277 394.367488 
L 614.597042 394.693821 
L 616.03647 392.606853 
L 617.458017 393.927589 
L 618.862121 391.749871 
L 620.249205 394.799352 
L 621.619676 393.680804 
L 622.973929 394.715206 
L 624.312342 396.00352 
L 625.635282 394.310464 
L 626.943103 393.051775 
L 628.236145 396.941742 
L 629.51474 395.099086 
L 630.779206 392.695623 
L 632.029853 394.508503 
L 633.266978 394.565932 
L 634.490873 395.121462 
L 635.701816 394.73856 
L 636.900078 392.890367 
L 638.085923 396.546536 
L 639.259606 398.03437 
L 640.421372 393.010951 
L 641.571463 397.535458 
L 642.710109 397.515177 
L 643.837537 394.674989 
L 644.953966 397.176284 
L 646.059608 397.861532 
L 647.154669 397.90737 
L 648.23935 395.09498 
L 649.313847 399.596539 
L 650.378348 396.501689 
L 651.433037 398.219918 
L 652.478095 397.053948 
L 653.513695 396.106899 
L 654.540007 396.042618 
L 655.557197 395.270123 
L 656.565424 395.09603 
L 657.564845 401.006692 
L 658.555613 396.537804 
L 659.537877 399.067224 
L 660.511781 396.529999 
L 661.477467 396.925998 
L 662.435071 397.270935 
L 663.384728 397.576744 
L 664.326569 399.455028 
L 665.260721 398.913833 
L 666.187309 398.638735 
L 667.106455 399.49419 
L 668.018277 400.138559 
L 668.922891 399.1796 
L 669.820409 396.940252 
L 670.710943 400.66184 
L 671.5946 399.952541 
L 672.471486 397.322369 
L 673.341703 397.915763 
L 674.205353 401.512264 
L 675.062533 400.564533 
L 675.91334 399.334761 
L 676.757868 397.900958 
L 677.596209 400.991711 
L 678.428453 402.560293 
L 679.254688 401.566858 
L 680.075 410.316584 
L 680.075 406.628601 
L 680.075 406.628601 
L 679.254688 397.161806 
L 678.428453 398.754298 
L 677.596209 395.889061 
L 676.757868 392.460556 
L 675.91334 394.178061 
L 675.062533 395.929513 
L 674.205353 397.374102 
L 673.341703 393.01743 
L 672.471486 392.32541 
L 671.5946 395.34885 
L 670.710943 396.905631 
L 669.820409 390.480312 
L 668.922891 393.410457 
L 668.018277 395.434267 
L 667.106455 395.183569 
L 666.187309 393.135415 
L 665.260721 393.357366 
L 664.326569 395.106543 
L 663.384728 391.812193 
L 662.435071 391.970204 
L 661.477467 391.699966 
L 660.511781 390.995396 
L 659.537877 394.102097 
L 658.555613 390.925693 
L 657.564845 396.207449 
L 656.565424 389.211468 
L 655.557197 389.915489 
L 654.540007 391.11655 
L 653.513695 390.502541 
L 652.478095 391.155572 
L 651.433037 391.26322 
L 650.378348 390.31213 
L 649.313847 395.001123 
L 648.23935 388.760026 
L 647.154669 392.528014 
L 646.059608 392.915496 
L 644.953966 391.371176 
L 643.837537 389.042525 
L 642.710109 393.288349 
L 641.571463 392.425975 
L 640.421372 386.185643 
L 639.259606 391.849244 
L 638.085923 391.929528 
L 636.900078 387.407771 
L 635.701816 386.929453 
L 634.490873 389.104472 
L 633.266978 388.407136 
L 632.029853 387.590658 
L 630.779206 386.113885 
L 629.51474 388.806199 
L 628.236145 391.044941 
L 626.943103 385.611031 
L 625.635282 386.564657 
L 624.312342 390.340324 
L 622.973929 388.947758 
L 621.619676 388.092718 
L 620.249205 388.07312 
L 618.862121 384.54199 
L 617.458017 388.448337 
L 616.03647 385.584111 
L 614.597042 389.172215 
L 613.139277 388.695542 
L 611.662701 382.751554 
L 610.166823 385.080598 
L 608.651132 378.915141 
L 607.115095 382.368421 
L 605.558159 387.857646 
L 603.979747 382.717656 
L 602.379259 380.056411 
L 600.756068 379.341786 
L 599.109521 377.644823 
L 597.438937 378.02553 
L 595.743601 386.850958 
L 594.022772 378.097913 
L 592.275668 378.014594 
L 590.501477 380.581207 
L 588.699345 381.831137 
L 586.868378 383.423544 
L 585.007637 379.825098 
L 583.116139 382.292536 
L 581.192849 378.865116 
L 579.236682 378.874595 
L 577.246492 379.507897 
L 575.221076 374.011859 
L 573.159163 377.19922 
L 571.059416 373.559364 
L 568.920419 379.976939 
L 566.740676 380.877325 
L 564.518606 374.223515 
L 562.252531 373.103087 
L 559.940674 377.22861 
L 557.581146 361.407342 
L 555.171941 375.485198 
L 552.710921 371.093842 
L 550.195808 367.314416 
L 547.624171 379.401107 
L 544.993411 373.997109 
L 542.300745 374.472886 
L 539.543189 366.629096 
L 536.717538 368.759496 
L 533.820345 364.201302 
L 530.847891 356.543021 
L 527.796163 360.915693 
L 524.660815 364.064017 
L 521.437137 366.575477 
L 518.120005 370.838844 
L 514.70384 368.256608 
L 511.182546 357.393455 
L 507.549446 360.483355 
L 503.797207 365.30894 
L 499.91775 351.691797 
L 495.902144 359.636302 
L 491.740484 358.378738 
L 487.421744 356.483165 
L 482.933599 348.225127 
L 478.262215 345.613664 
L 473.391989 355.980986 
L 468.305239 355.57445 
L 462.981813 341.899654 
L 457.398607 330.487867 
L 451.528959 340.899136 
L 445.341884 319.931991 
L 438.801073 341.227417 
L 431.863614 251.086084 
L 424.478275 346.771489 
L 416.583212 337.692936 
L 408.102812 325.384554 
L 398.943283 325.263488 
L 388.986307 307.358676 
L 378.079675 309.907219 
L 366.022952 301.335531 
L 352.544682 30.543386 
L 337.26428 279.887661 
L 319.624351 291.388331 
L 298.760743 301.894637 
L 273.22575 186.035245 
L 240.305419 271.373449 
L 193.906819 236.140486 
L 114.587887 208.671383 
L -262653.074969 421.2 
z
" style="fill:#1b9e77;fill-opacity:0.2;stroke:#1b9e77;stroke-opacity:0.2;"/>
   </g>
   <g id="PolyCollection_2">
    <path clip-path="url(#p8934ee6d36)" d="M -262653.074969 421.2 
L -262653.074969 421.2 
L 114.587887 287.711177 
L 193.906819 308.70221 
L 240.305419 330.720717 
L 273.22575 276.080614 
L 298.760743 340.165629 
L 319.624351 346.791021 
L 337.26428 357.435658 
L 352.544682 172.534402 
L 366.022952 349.834177 
L 378.079675 359.617102 
L 388.986307 352.97829 
L 398.943283 350.99379 
L 408.102812 360.736745 
L 416.583212 365.960603 
L 424.478275 363.712305 
L 431.863614 324.225478 
L 438.801073 363.844448 
L 445.341884 374.82661 
L 451.528959 370.450155 
L 457.398607 372.972001 
L 462.981813 375.747464 
L 468.305239 376.487921 
L 473.391989 384.24737 
L 478.262215 371.520816 
L 482.933599 386.497317 
L 487.421744 381.954286 
L 491.740484 385.766994 
L 495.902144 371.349257 
L 499.91775 381.960957 
L 503.797207 383.793034 
L 507.549446 389.200585 
L 511.182546 383.890366 
L 514.70384 381.748913 
L 518.120005 386.9621 
L 521.437137 390.997617 
L 524.660815 386.153683 
L 527.796163 388.964445 
L 530.847891 390.256918 
L 533.820345 393.278755 
L 536.717538 388.399974 
L 539.543189 389.382362 
L 542.300745 389.985817 
L 544.993411 385.886976 
L 547.624171 390.018595 
L 550.195808 387.114873 
L 552.710921 393.998997 
L 555.171941 388.279755 
L 557.581146 389.761753 
L 559.940674 395.379175 
L 562.252531 395.427658 
L 564.518606 390.75846 
L 566.740676 394.0162 
L 568.920419 394.568588 
L 571.059416 395.402537 
L 573.159163 392.790125 
L 575.221076 391.021227 
L 577.246492 395.542244 
L 579.236682 392.857285 
L 581.192849 396.896725 
L 583.116139 394.654535 
L 585.007637 398.17845 
L 586.868378 394.957331 
L 588.699345 393.446173 
L 590.501477 393.465637 
L 592.275668 396.61337 
L 594.022772 395.645868 
L 595.743601 395.750393 
L 597.438937 400.243108 
L 599.109521 394.994861 
L 600.756068 396.503304 
L 602.379259 399.865313 
L 603.979747 396.361114 
L 605.558159 397.929274 
L 607.115095 398.613281 
L 608.651132 399.472378 
L 610.166823 396.022579 
L 611.662701 398.552763 
L 613.139277 399.251623 
L 614.597042 398.741833 
L 616.03647 397.95745 
L 617.458017 402.71044 
L 618.862121 398.602873 
L 620.249205 399.972919 
L 621.619676 399.109062 
L 622.973929 401.812801 
L 624.312342 400.918641 
L 625.635282 400.746877 
L 626.943103 397.854616 
L 628.236145 397.945063 
L 629.51474 400.136928 
L 630.779206 398.300959 
L 632.029853 400.655069 
L 633.266978 401.027097 
L 634.490873 403.538621 
L 635.701816 402.900661 
L 636.900078 396.866906 
L 638.085923 400.326391 
L 639.259606 399.464452 
L 640.421372 403.008969 
L 641.571463 400.72118 
L 642.710109 402.333805 
L 643.837537 402.309929 
L 644.953966 401.784664 
L 646.059608 400.078096 
L 647.154669 400.28853 
L 648.23935 401.420125 
L 649.313847 403.023728 
L 650.378348 400.009746 
L 651.433037 402.579742 
L 652.478095 401.558705 
L 653.513695 404.975768 
L 654.540007 401.759138 
L 655.557197 403.919748 
L 656.565424 403.82105 
L 657.564845 403.339818 
L 658.555613 402.592944 
L 659.537877 403.801337 
L 660.511781 401.698786 
L 661.477467 403.924557 
L 662.435071 403.628465 
L 663.384728 402.693895 
L 664.326569 401.528806 
L 665.260721 402.494199 
L 666.187309 403.282764 
L 667.106455 402.888091 
L 668.018277 402.298396 
L 668.922891 403.523939 
L 669.820409 403.96498 
L 670.710943 402.326095 
L 671.5946 401.140751 
L 672.471486 402.264975 
L 673.341703 400.899936 
L 674.205353 405.194874 
L 675.062533 405.933736 
L 675.91334 404.360854 
L 676.757868 403.354913 
L 677.596209 405.809601 
L 678.428453 401.486164 
L 679.254688 403.331962 
L 680.075 413.647463 
L 680.075 410.262103 
L 680.075 410.262103 
L 679.254688 399.535317 
L 678.428453 393.366107 
L 677.596209 402.034945 
L 676.757868 398.412408 
L 675.91334 400.551778 
L 675.062533 402.564028 
L 674.205353 400.668538 
L 673.341703 394.882164 
L 672.471486 396.739082 
L 671.5946 396.764649 
L 670.710943 395.984169 
L 669.820409 400.205607 
L 668.922891 397.581042 
L 668.018277 397.581124 
L 667.106455 398.958812 
L 666.187309 399.374168 
L 665.260721 395.571614 
L 664.326569 397.125017 
L 663.384728 397.281363 
L 662.435071 399.806239 
L 661.477467 399.974062 
L 660.511781 396.562042 
L 659.537877 400.129828 
L 658.555613 396.278678 
L 657.564845 397.98022 
L 656.565424 399.237045 
L 655.557197 400.535602 
L 654.540007 394.667059 
L 653.513695 401.060326 
L 652.478095 395.002408 
L 651.433037 398.106541 
L 650.378348 395.108547 
L 649.313847 397.822019 
L 648.23935 396.494991 
L 647.154669 395.092215 
L 646.059608 392.941367 
L 644.953966 396.977688 
L 643.837537 395.659466 
L 642.710109 398.913956 
L 641.571463 396.279817 
L 640.421372 398.594377 
L 639.259606 394.493328 
L 638.085923 393.021409 
L 636.900078 389.236659 
L 635.701816 399.105495 
L 634.490873 399.508143 
L 633.266978 395.327963 
L 632.029853 395.557465 
L 630.779206 390.866246 
L 629.51474 395.790789 
L 628.236145 393.110691 
L 626.943103 391.433132 
L 625.635282 396.103866 
L 624.312342 394.384262 
L 622.973929 395.030212 
L 621.619676 390.791339 
L 620.249205 395.577471 
L 618.862121 393.23937 
L 617.458017 398.028567 
L 616.03647 393.169324 
L 614.597042 393.23332 
L 613.139277 393.366063 
L 611.662701 391.67334 
L 610.166823 387.764418 
L 608.651132 394.891389 
L 607.115095 391.015714 
L 605.558159 391.310517 
L 603.979747 389.755315 
L 602.379259 384.343936 
L 600.756068 390.817893 
L 599.109521 385.534134 
L 597.438937 394.940031 
L 595.743601 390.143999 
L 594.022772 389.06176 
L 592.275668 390.354411 
L 590.501477 384.76001 
L 588.699345 385.418672 
L 586.868378 386.740993 
L 585.007637 392.248731 
L 583.116139 385.713783 
L 581.192849 391.179876 
L 579.236682 383.675744 
L 577.246492 389.023555 
L 575.221076 381.689683 
L 573.159163 384.483241 
L 571.059416 387.202041 
L 568.920419 387.447068 
L 566.740676 387.836141 
L 564.518606 383.063423 
L 562.252531 388.359122 
L 559.940674 389.393343 
L 557.581146 380.440787 
L 555.171941 378.668337 
L 552.710921 387.284966 
L 550.195808 377.160035 
L 547.624171 381.865463 
L 544.993411 371.051666 
L 542.300745 381.834254 
L 539.543189 381.356184 
L 536.717538 380.913216 
L 533.820345 388.038814 
L 530.847891 380.923449 
L 527.796163 380.649608 
L 524.660815 370.281663 
L 521.437137 376.946371 
L 518.120005 377.410988 
L 514.70384 371.019345 
L 511.182546 376.763884 
L 507.549446 380.885214 
L 503.797207 372.065183 
L 499.91775 371.384458 
L 495.902144 355.153931 
L 491.740484 376.965358 
L 487.421744 367.035003 
L 482.933599 375.859131 
L 478.262215 358.741732 
L 473.391989 373.262678 
L 468.305239 364.454522 
L 462.981813 364.51273 
L 457.398607 357.828372 
L 451.528959 356.257558 
L 445.341884 361.082886 
L 438.801073 341.238574 
L 431.863614 302.123748 
L 424.478275 339.681761 
L 416.583212 349.867557 
L 408.102812 339.940529 
L 398.943283 322.630863 
L 388.986307 334.578677 
L 378.079675 344.132715 
L 366.022952 330.763776 
L 352.544682 120.241711 
L 337.26428 336.253729 
L 319.624351 330.336597 
L 298.760743 315.464316 
L 273.22575 237.665751 
L 240.305419 304.056835 
L 193.906819 273.291458 
L 114.587887 250.366568 
L -262653.074969 421.2 
z
" style="fill:#8b4513;fill-opacity:0.2;stroke:#8b4513;stroke-opacity:0.2;"/>
   </g>
   <g id="PolyCollection_3">
    <path clip-path="url(#p8934ee6d36)" d="M -262653.074969 421.2 
L -262653.074969 421.2 
L 186.011755 291.893525 
L 265.330687 314.38119 
L 311.729288 339.107723 
L 344.649619 346.117826 
L 370.184611 359.895649 
L 391.04822 358.978147 
L 408.688149 363.869347 
L 423.968551 368.896128 
L 437.44682 370.542083 
L 449.503543 374.006636 
L 460.410176 372.576007 
L 470.367151 378.099762 
L 479.526681 375.335668 
L 488.007081 375.077124 
L 495.902144 375.019056 
L 503.287482 379.490578 
L 510.224942 373.803109 
L 516.765752 372.441399 
L 522.952828 376.783473 
L 528.822475 379.046732 
L 534.405681 381.237526 
L 539.729108 378.979137 
L 544.815857 377.84269 
L 549.686083 377.569974 
L 554.357468 381.124507 
L 558.845613 378.727413 
L 563.164353 379.165517 
L 567.326012 383.600072 
L 571.341618 385.309303 
L 575.221076 384.734314 
L 578.973314 379.057437 
L 582.606414 383.448759 
L 586.127708 385.729408 
L 589.543873 386.867487 
L 592.861005 389.10298 
L 596.084684 392.722994 
L 599.220031 392.729281 
L 602.27176 389.115512 
L 605.244213 393.340433 
L 608.141407 393.724794 
L 610.967057 389.013885 
L 613.724613 394.804195 
L 616.417279 394.179057 
L 619.048039 396.237378 
L 621.619676 395.642005 
L 624.134789 386.83928 
L 626.595809 392.703986 
L 629.005015 395.92157 
L 631.364542 395.351781 
L 633.676399 397.65895 
L 635.942474 397.477386 
L 638.164544 394.153983 
L 640.344287 397.456409 
L 642.483284 396.2015 
L 644.583032 396.877617 
L 646.644944 398.214005 
L 648.67036 394.151858 
L 650.66055 396.689106 
L 652.616718 397.211881 
L 654.540007 401.537291 
L 656.431506 397.577007 
L 658.292246 397.899935 
L 660.123214 399.89487 
L 661.925346 401.707986 
L 663.699537 397.392101 
L 665.44664 400.550878 
L 667.16747 401.697432 
L 668.862805 400.865923 
L 670.53339 399.985033 
L 672.179937 400.14301 
L 673.803127 400.605363 
L 675.403615 402.040631 
L 676.982027 400.179688 
L 678.538963 401.33867 
L 680.075 411.773593 
L 680.075 409.705932 
L 680.075 409.705932 
L 678.538963 397.758377 
L 676.982027 396.566959 
L 675.403615 398.497793 
L 673.803127 396.602846 
L 672.179937 396.865684 
L 670.53339 396.29074 
L 668.862805 397.135418 
L 667.16747 398.277366 
L 665.44664 396.744061 
L 663.699537 393.448159 
L 661.925346 398.399014 
L 660.123214 396.380685 
L 658.292246 392.505731 
L 656.431506 393.160116 
L 654.540007 398.117254 
L 652.616718 392.002145 
L 650.66055 391.823344 
L 648.67036 389.116421 
L 646.644944 393.719381 
L 644.583032 392.460035 
L 642.483284 391.493128 
L 640.344287 392.857107 
L 638.164544 388.643214 
L 635.942474 393.656062 
L 633.676399 393.127515 
L 631.364542 391.080456 
L 629.005015 391.514736 
L 626.595809 386.666671 
L 624.134789 379.980429 
L 621.619676 390.282345 
L 619.048039 391.428123 
L 616.417279 389.978593 
L 613.724613 390.713368 
L 610.967057 382.479625 
L 608.141407 388.92644 
L 605.244213 387.89613 
L 602.27176 382.216743 
L 599.220031 388.24894 
L 596.084684 387.981123 
L 592.861005 382.973876 
L 589.543873 380.08771 
L 586.127708 377.914432 
L 582.606414 375.22329 
L 578.973314 370.763392 
L 575.221076 377.533348 
L 571.341618 378.938454 
L 567.326012 377.337199 
L 563.164353 371.466311 
L 558.845613 371.399218 
L 554.357468 373.760038 
L 549.686083 370.573063 
L 544.815857 370.690181 
L 539.729108 371.616418 
L 534.405681 373.784329 
L 528.822475 371.531663 
L 522.952828 367.546682 
L 516.765752 363.395237 
L 510.224942 365.293385 
L 503.287482 372.770019 
L 495.902144 366.952287 
L 488.007081 368.088551 
L 479.526681 366.261593 
L 470.367151 371.449415 
L 460.410176 364.550773 
L 449.503543 367.66454 
L 437.44682 361.695021 
L 423.968551 360.345728 
L 408.688149 354.920107 
L 391.04822 349.121517 
L 370.184611 350.506473 
L 344.649619 331.349621 
L 311.729288 322.328194 
L 265.330687 293.435009 
L 186.011755 272.940383 
L -262653.074969 421.2 
z
" style="fill:#7570b3;fill-opacity:0.2;stroke:#7570b3;stroke-opacity:0.2;"/>
   </g>
   <g id="matplotlib.axis_1">
    <g id="xtick_1">
     <g id="line2d_1">
      <defs>
       <path d="M 0 0 
L 0 3.5 
" id="m2e3c2846fe" style="stroke:#000000;stroke-width:0.8;"/>
      </defs>
      <g>
       <use style="stroke:#000000;stroke-width:0.8;" x="48.2375" xlink:href="#m2e3c2846fe" y="421.2"/>
      </g>
     </g>
     <g id="text_1">
      <!-- 0.001 -->
      <g transform="translate(10.704688 449.673438)scale(0.3 -0.3)">
       <defs>
        <path d="M 266 2259 
Q 266 3072 433 3567 
Q 600 4063 929 4331 
Q 1259 4600 1759 4600 
Q 2128 4600 2406 4451 
Q 2684 4303 2865 4023 
Q 3047 3744 3150 3342 
Q 3253 2941 3253 2259 
Q 3253 1453 3087 958 
Q 2922 463 2592 192 
Q 2263 -78 1759 -78 
Q 1097 -78 719 397 
Q 266 969 266 2259 
z
M 844 2259 
Q 844 1131 1108 757 
Q 1372 384 1759 384 
Q 2147 384 2411 759 
Q 2675 1134 2675 2259 
Q 2675 3391 2411 3762 
Q 2147 4134 1753 4134 
Q 1366 4134 1134 3806 
Q 844 3388 844 2259 
z
" id="ArialMT-30" transform="scale(0.015625)"/>
        <path d="M 581 0 
L 581 641 
L 1222 641 
L 1222 0 
L 581 0 
z
" id="ArialMT-2e" transform="scale(0.015625)"/>
        <path d="M 2384 0 
L 1822 0 
L 1822 3584 
Q 1619 3391 1289 3197 
Q 959 3003 697 2906 
L 697 3450 
Q 1169 3672 1522 3987 
Q 1875 4303 2022 4600 
L 2384 4600 
L 2384 0 
z
" id="ArialMT-31" transform="scale(0.015625)"/>
       </defs>
       <use xlink:href="#ArialMT-30"/>
       <use x="55.615234" xlink:href="#ArialMT-2e"/>
       <use x="83.398438" xlink:href="#ArialMT-30"/>
       <use x="139.013672" xlink:href="#ArialMT-30"/>
       <use x="194.628906" xlink:href="#ArialMT-31"/>
      </g>
     </g>
    </g>
    <g id="xtick_2">
     <g id="line2d_2">
      <g>
       <use style="stroke:#000000;stroke-width:0.8;" x="232.410356" xlink:href="#m2e3c2846fe" y="421.2"/>
      </g>
     </g>
     <g id="text_2">
      <!-- 0.005 -->
      <g transform="translate(194.877544 449.673438)scale(0.3 -0.3)">
       <defs>
        <path d="M 266 1200 
L 856 1250 
Q 922 819 1161 601 
Q 1400 384 1738 384 
Q 2144 384 2425 690 
Q 2706 997 2706 1503 
Q 2706 1984 2436 2262 
Q 2166 2541 1728 2541 
Q 1456 2541 1237 2417 
Q 1019 2294 894 2097 
L 366 2166 
L 809 4519 
L 3088 4519 
L 3088 3981 
L 1259 3981 
L 1013 2750 
Q 1425 3038 1878 3038 
Q 2478 3038 2890 2622 
Q 3303 2206 3303 1553 
Q 3303 931 2941 478 
Q 2500 -78 1738 -78 
Q 1113 -78 717 272 
Q 322 622 266 1200 
z
" id="ArialMT-35" transform="scale(0.015625)"/>
       </defs>
       <use xlink:href="#ArialMT-30"/>
       <use x="55.615234" xlink:href="#ArialMT-2e"/>
       <use x="83.398438" xlink:href="#ArialMT-30"/>
       <use x="139.013672" xlink:href="#ArialMT-30"/>
       <use x="194.628906" xlink:href="#ArialMT-35"/>
      </g>
     </g>
    </g>
    <g id="xtick_3">
     <g id="line2d_3">
      <g>
       <use style="stroke:#000000;stroke-width:0.8;" x="311.729288" xlink:href="#m2e3c2846fe" y="421.2"/>
      </g>
     </g>
     <g id="text_3">
      <!-- 0.01 -->
      <g transform="translate(282.537882 449.673438)scale(0.3 -0.3)">
       <use xlink:href="#ArialMT-30"/>
       <use x="55.615234" xlink:href="#ArialMT-2e"/>
       <use x="83.398438" xlink:href="#ArialMT-30"/>
       <use x="139.013672" xlink:href="#ArialMT-31"/>
      </g>
     </g>
    </g>
    <g id="xtick_4">
     <g id="line2d_4">
      <g>
       <use style="stroke:#000000;stroke-width:0.8;" x="495.902144" xlink:href="#m2e3c2846fe" y="421.2"/>
      </g>
     </g>
     <g id="text_4">
      <!-- 0.05 -->
      <g transform="translate(466.710738 449.673438)scale(0.3 -0.3)">
       <use xlink:href="#ArialMT-30"/>
       <use x="55.615234" xlink:href="#ArialMT-2e"/>
       <use x="83.398438" xlink:href="#ArialMT-30"/>
       <use x="139.013672" xlink:href="#ArialMT-35"/>
      </g>
     </g>
    </g>
    <g id="xtick_5">
     <g id="line2d_5">
      <g>
       <use style="stroke:#000000;stroke-width:0.8;" x="575.221076" xlink:href="#m2e3c2846fe" y="421.2"/>
      </g>
     </g>
     <g id="text_5">
      <!-- 0.1 -->
      <g transform="translate(554.371076 449.673438)scale(0.3 -0.3)">
       <use xlink:href="#ArialMT-30"/>
       <use x="55.615234" xlink:href="#ArialMT-2e"/>
       <use x="83.398438" xlink:href="#ArialMT-31"/>
      </g>
     </g>
    </g>
    <g id="xtick_6">
     <g id="line2d_6">
      <g>
       <use style="stroke:#000000;stroke-width:0.8;" x="680.075" xlink:href="#m2e3c2846fe" y="421.2"/>
      </g>
     </g>
     <g id="text_6">
      <!-- 0.25 -->
      <g transform="translate(650.883594 449.673438)scale(0.3 -0.3)">
       <defs>
        <path d="M 3222 541 
L 3222 0 
L 194 0 
Q 188 203 259 391 
Q 375 700 629 1000 
Q 884 1300 1366 1694 
Q 2113 2306 2375 2664 
Q 2638 3022 2638 3341 
Q 2638 3675 2398 3904 
Q 2159 4134 1775 4134 
Q 1369 4134 1125 3890 
Q 881 3647 878 3216 
L 300 3275 
Q 359 3922 746 4261 
Q 1134 4600 1788 4600 
Q 2447 4600 2831 4234 
Q 3216 3869 3216 3328 
Q 3216 3053 3103 2787 
Q 2991 2522 2730 2228 
Q 2469 1934 1863 1422 
Q 1356 997 1212 845 
Q 1069 694 975 541 
L 3222 541 
z
" id="ArialMT-32" transform="scale(0.015625)"/>
       </defs>
       <use xlink:href="#ArialMT-30"/>
       <use x="55.615234" xlink:href="#ArialMT-2e"/>
       <use x="83.398438" xlink:href="#ArialMT-32"/>
       <use x="139.013672" xlink:href="#ArialMT-35"/>
      </g>
     </g>
    </g>
    <g id="xtick_7">
     <g id="line2d_7">
      <defs>
       <path d="M 0 0 
L 0 2 
" id="m46e3f40fe0" style="stroke:#000000;stroke-width:0.6;"/>
      </defs>
      <g>
       <use style="stroke:#000000;stroke-width:0.6;" x="127.556432" xlink:href="#m46e3f40fe0" y="421.2"/>
      </g>
     </g>
    </g>
    <g id="xtick_8">
     <g id="line2d_8">
      <g>
       <use style="stroke:#000000;stroke-width:0.6;" x="173.955032" xlink:href="#m46e3f40fe0" y="421.2"/>
      </g>
     </g>
    </g>
    <g id="xtick_9">
     <g id="line2d_9">
      <g>
       <use style="stroke:#000000;stroke-width:0.6;" x="206.875363" xlink:href="#m46e3f40fe0" y="421.2"/>
      </g>
     </g>
    </g>
    <g id="xtick_10">
     <g id="line2d_10">
      <g>
       <use style="stroke:#000000;stroke-width:0.6;" x="253.273964" xlink:href="#m46e3f40fe0" y="421.2"/>
      </g>
     </g>
    </g>
    <g id="xtick_11">
     <g id="line2d_11">
      <g>
       <use style="stroke:#000000;stroke-width:0.6;" x="270.913893" xlink:href="#m46e3f40fe0" y="421.2"/>
      </g>
     </g>
    </g>
    <g id="xtick_12">
     <g id="line2d_12">
      <g>
       <use style="stroke:#000000;stroke-width:0.6;" x="286.194295" xlink:href="#m46e3f40fe0" y="421.2"/>
      </g>
     </g>
    </g>
    <g id="xtick_13">
     <g id="line2d_13">
      <g>
       <use style="stroke:#000000;stroke-width:0.6;" x="299.672565" xlink:href="#m46e3f40fe0" y="421.2"/>
      </g>
     </g>
    </g>
    <g id="xtick_14">
     <g id="line2d_14">
      <g>
       <use style="stroke:#000000;stroke-width:0.6;" x="391.04822" xlink:href="#m46e3f40fe0" y="421.2"/>
      </g>
     </g>
    </g>
    <g id="xtick_15">
     <g id="line2d_15">
      <g>
       <use style="stroke:#000000;stroke-width:0.6;" x="437.44682" xlink:href="#m46e3f40fe0" y="421.2"/>
      </g>
     </g>
    </g>
    <g id="xtick_16">
     <g id="line2d_16">
      <g>
       <use style="stroke:#000000;stroke-width:0.6;" x="470.367151" xlink:href="#m46e3f40fe0" y="421.2"/>
      </g>
     </g>
    </g>
    <g id="xtick_17">
     <g id="line2d_17">
      <g>
       <use style="stroke:#000000;stroke-width:0.6;" x="516.765752" xlink:href="#m46e3f40fe0" y="421.2"/>
      </g>
     </g>
    </g>
    <g id="xtick_18">
     <g id="line2d_18">
      <g>
       <use style="stroke:#000000;stroke-width:0.6;" x="534.405681" xlink:href="#m46e3f40fe0" y="421.2"/>
      </g>
     </g>
    </g>
    <g id="xtick_19">
     <g id="line2d_19">
      <g>
       <use style="stroke:#000000;stroke-width:0.6;" x="549.686083" xlink:href="#m46e3f40fe0" y="421.2"/>
      </g>
     </g>
    </g>
    <g id="xtick_20">
     <g id="line2d_20">
      <g>
       <use style="stroke:#000000;stroke-width:0.6;" x="563.164353" xlink:href="#m46e3f40fe0" y="421.2"/>
      </g>
     </g>
    </g>
    <g id="xtick_21">
     <g id="line2d_21">
      <g>
       <use style="stroke:#000000;stroke-width:0.6;" x="654.540007" xlink:href="#m46e3f40fe0" y="421.2"/>
      </g>
     </g>
    </g>
    <g id="text_7">
     <!-- Frequency (Hz) -->
     <g transform="translate(243.578516 485.114844)scale(0.35 -0.35)">
      <defs>
       <path d="M 525 0 
L 525 4581 
L 3616 4581 
L 3616 4041 
L 1131 4041 
L 1131 2622 
L 3281 2622 
L 3281 2081 
L 1131 2081 
L 1131 0 
L 525 0 
z
" id="ArialMT-46" transform="scale(0.015625)"/>
       <path d="M 416 0 
L 416 3319 
L 922 3319 
L 922 2816 
Q 1116 3169 1280 3281 
Q 1444 3394 1641 3394 
Q 1925 3394 2219 3213 
L 2025 2691 
Q 1819 2813 1613 2813 
Q 1428 2813 1281 2702 
Q 1134 2591 1072 2394 
Q 978 2094 978 1738 
L 978 0 
L 416 0 
z
" id="ArialMT-72" transform="scale(0.015625)"/>
       <path d="M 2694 1069 
L 3275 997 
Q 3138 488 2766 206 
Q 2394 -75 1816 -75 
Q 1088 -75 661 373 
Q 234 822 234 1631 
Q 234 2469 665 2931 
Q 1097 3394 1784 3394 
Q 2450 3394 2872 2941 
Q 3294 2488 3294 1666 
Q 3294 1616 3291 1516 
L 816 1516 
Q 847 969 1125 678 
Q 1403 388 1819 388 
Q 2128 388 2347 550 
Q 2566 713 2694 1069 
z
M 847 1978 
L 2700 1978 
Q 2663 2397 2488 2606 
Q 2219 2931 1791 2931 
Q 1403 2931 1139 2672 
Q 875 2413 847 1978 
z
" id="ArialMT-65" transform="scale(0.015625)"/>
       <path d="M 2538 -1272 
L 2538 353 
Q 2406 169 2170 47 
Q 1934 -75 1669 -75 
Q 1078 -75 651 397 
Q 225 869 225 1691 
Q 225 2191 398 2587 
Q 572 2984 901 3189 
Q 1231 3394 1625 3394 
Q 2241 3394 2594 2875 
L 2594 3319 
L 3100 3319 
L 3100 -1272 
L 2538 -1272 
z
M 803 1669 
Q 803 1028 1072 708 
Q 1341 388 1716 388 
Q 2075 388 2334 692 
Q 2594 997 2594 1619 
Q 2594 2281 2320 2615 
Q 2047 2950 1678 2950 
Q 1313 2950 1058 2639 
Q 803 2328 803 1669 
z
" id="ArialMT-71" transform="scale(0.015625)"/>
       <path d="M 2597 0 
L 2597 488 
Q 2209 -75 1544 -75 
Q 1250 -75 995 37 
Q 741 150 617 320 
Q 494 491 444 738 
Q 409 903 409 1263 
L 409 3319 
L 972 3319 
L 972 1478 
Q 972 1038 1006 884 
Q 1059 663 1231 536 
Q 1403 409 1656 409 
Q 1909 409 2131 539 
Q 2353 669 2445 892 
Q 2538 1116 2538 1541 
L 2538 3319 
L 3100 3319 
L 3100 0 
L 2597 0 
z
" id="ArialMT-75" transform="scale(0.015625)"/>
       <path d="M 422 0 
L 422 3319 
L 928 3319 
L 928 2847 
Q 1294 3394 1984 3394 
Q 2284 3394 2536 3286 
Q 2788 3178 2913 3003 
Q 3038 2828 3088 2588 
Q 3119 2431 3119 2041 
L 3119 0 
L 2556 0 
L 2556 2019 
Q 2556 2363 2490 2533 
Q 2425 2703 2258 2804 
Q 2091 2906 1866 2906 
Q 1506 2906 1245 2678 
Q 984 2450 984 1813 
L 984 0 
L 422 0 
z
" id="ArialMT-6e" transform="scale(0.015625)"/>
       <path d="M 2588 1216 
L 3141 1144 
Q 3050 572 2676 248 
Q 2303 -75 1759 -75 
Q 1078 -75 664 370 
Q 250 816 250 1647 
Q 250 2184 428 2587 
Q 606 2991 970 3192 
Q 1334 3394 1763 3394 
Q 2303 3394 2647 3120 
Q 2991 2847 3088 2344 
L 2541 2259 
Q 2463 2594 2264 2762 
Q 2066 2931 1784 2931 
Q 1359 2931 1093 2626 
Q 828 2322 828 1663 
Q 828 994 1084 691 
Q 1341 388 1753 388 
Q 2084 388 2306 591 
Q 2528 794 2588 1216 
z
" id="ArialMT-63" transform="scale(0.015625)"/>
       <path d="M 397 -1278 
L 334 -750 
Q 519 -800 656 -800 
Q 844 -800 956 -737 
Q 1069 -675 1141 -563 
Q 1194 -478 1313 -144 
Q 1328 -97 1363 -6 
L 103 3319 
L 709 3319 
L 1400 1397 
Q 1534 1031 1641 628 
Q 1738 1016 1872 1384 
L 2581 3319 
L 3144 3319 
L 1881 -56 
Q 1678 -603 1566 -809 
Q 1416 -1088 1222 -1217 
Q 1028 -1347 759 -1347 
Q 597 -1347 397 -1278 
z
" id="ArialMT-79" transform="scale(0.015625)"/>
       <path id="ArialMT-20" transform="scale(0.015625)"/>
       <path d="M 1497 -1347 
Q 1031 -759 709 28 
Q 388 816 388 1659 
Q 388 2403 628 3084 
Q 909 3875 1497 4659 
L 1900 4659 
Q 1522 4009 1400 3731 
Q 1209 3300 1100 2831 
Q 966 2247 966 1656 
Q 966 153 1900 -1347 
L 1497 -1347 
z
" id="ArialMT-28" transform="scale(0.015625)"/>
       <path d="M 513 0 
L 513 4581 
L 1119 4581 
L 1119 2700 
L 3500 2700 
L 3500 4581 
L 4106 4581 
L 4106 0 
L 3500 0 
L 3500 2159 
L 1119 2159 
L 1119 0 
L 513 0 
z
" id="ArialMT-48" transform="scale(0.015625)"/>
       <path d="M 125 0 
L 125 456 
L 2238 2881 
Q 1878 2863 1603 2863 
L 250 2863 
L 250 3319 
L 2963 3319 
L 2963 2947 
L 1166 841 
L 819 456 
Q 1197 484 1528 484 
L 3063 484 
L 3063 0 
L 125 0 
z
" id="ArialMT-7a" transform="scale(0.015625)"/>
       <path d="M 791 -1347 
L 388 -1347 
Q 1322 153 1322 1656 
Q 1322 2244 1188 2822 
Q 1081 3291 891 3722 
Q 769 4003 388 4659 
L 791 4659 
Q 1378 3875 1659 3084 
Q 1900 2403 1900 1659 
Q 1900 816 1576 28 
Q 1253 -759 791 -1347 
z
" id="ArialMT-29" transform="scale(0.015625)"/>
      </defs>
      <use xlink:href="#ArialMT-46"/>
      <use x="61.083984" xlink:href="#ArialMT-72"/>
      <use x="94.384766" xlink:href="#ArialMT-65"/>
      <use x="150" xlink:href="#ArialMT-71"/>
      <use x="205.615234" xlink:href="#ArialMT-75"/>
      <use x="261.230469" xlink:href="#ArialMT-65"/>
      <use x="316.845703" xlink:href="#ArialMT-6e"/>
      <use x="372.460938" xlink:href="#ArialMT-63"/>
      <use x="422.460938" xlink:href="#ArialMT-79"/>
      <use x="472.460938" xlink:href="#ArialMT-20"/>
      <use x="500.244141" xlink:href="#ArialMT-28"/>
      <use x="533.544922" xlink:href="#ArialMT-48"/>
      <use x="605.761719" xlink:href="#ArialMT-7a"/>
      <use x="655.761719" xlink:href="#ArialMT-29"/>
     </g>
    </g>
   </g>
   <g id="matplotlib.axis_2">
    <g id="text_8">
     <!-- Power Spectrum -->
     <g transform="translate(37.28125 345.346875)rotate(-90)scale(0.35 -0.35)">
      <defs>
       <path d="M 494 0 
L 494 4581 
L 2222 4581 
Q 2678 4581 2919 4538 
Q 3256 4481 3484 4323 
Q 3713 4166 3852 3881 
Q 3991 3597 3991 3256 
Q 3991 2672 3619 2267 
Q 3247 1863 2275 1863 
L 1100 1863 
L 1100 0 
L 494 0 
z
M 1100 2403 
L 2284 2403 
Q 2872 2403 3119 2622 
Q 3366 2841 3366 3238 
Q 3366 3525 3220 3729 
Q 3075 3934 2838 4000 
Q 2684 4041 2272 4041 
L 1100 4041 
L 1100 2403 
z
" id="ArialMT-50" transform="scale(0.015625)"/>
       <path d="M 213 1659 
Q 213 2581 725 3025 
Q 1153 3394 1769 3394 
Q 2453 3394 2887 2945 
Q 3322 2497 3322 1706 
Q 3322 1066 3130 698 
Q 2938 331 2570 128 
Q 2203 -75 1769 -75 
Q 1072 -75 642 372 
Q 213 819 213 1659 
z
M 791 1659 
Q 791 1022 1069 705 
Q 1347 388 1769 388 
Q 2188 388 2466 706 
Q 2744 1025 2744 1678 
Q 2744 2294 2464 2611 
Q 2184 2928 1769 2928 
Q 1347 2928 1069 2612 
Q 791 2297 791 1659 
z
" id="ArialMT-6f" transform="scale(0.015625)"/>
       <path d="M 1034 0 
L 19 3319 
L 600 3319 
L 1128 1403 
L 1325 691 
Q 1338 744 1497 1375 
L 2025 3319 
L 2603 3319 
L 3100 1394 
L 3266 759 
L 3456 1400 
L 4025 3319 
L 4572 3319 
L 3534 0 
L 2950 0 
L 2422 1988 
L 2294 2553 
L 1622 0 
L 1034 0 
z
" id="ArialMT-77" transform="scale(0.015625)"/>
       <path d="M 288 1472 
L 859 1522 
Q 900 1178 1048 958 
Q 1197 738 1509 602 
Q 1822 466 2213 466 
Q 2559 466 2825 569 
Q 3091 672 3220 851 
Q 3350 1031 3350 1244 
Q 3350 1459 3225 1620 
Q 3100 1781 2813 1891 
Q 2628 1963 1997 2114 
Q 1366 2266 1113 2400 
Q 784 2572 623 2826 
Q 463 3081 463 3397 
Q 463 3744 659 4045 
Q 856 4347 1234 4503 
Q 1613 4659 2075 4659 
Q 2584 4659 2973 4495 
Q 3363 4331 3572 4012 
Q 3781 3694 3797 3291 
L 3216 3247 
Q 3169 3681 2898 3903 
Q 2628 4125 2100 4125 
Q 1550 4125 1298 3923 
Q 1047 3722 1047 3438 
Q 1047 3191 1225 3031 
Q 1400 2872 2139 2705 
Q 2878 2538 3153 2413 
Q 3553 2228 3743 1945 
Q 3934 1663 3934 1294 
Q 3934 928 3725 604 
Q 3516 281 3123 101 
Q 2731 -78 2241 -78 
Q 1619 -78 1198 103 
Q 778 284 539 648 
Q 300 1013 288 1472 
z
" id="ArialMT-53" transform="scale(0.015625)"/>
       <path d="M 422 -1272 
L 422 3319 
L 934 3319 
L 934 2888 
Q 1116 3141 1344 3267 
Q 1572 3394 1897 3394 
Q 2322 3394 2647 3175 
Q 2972 2956 3137 2557 
Q 3303 2159 3303 1684 
Q 3303 1175 3120 767 
Q 2938 359 2589 142 
Q 2241 -75 1856 -75 
Q 1575 -75 1351 44 
Q 1128 163 984 344 
L 984 -1272 
L 422 -1272 
z
M 931 1641 
Q 931 1000 1190 694 
Q 1450 388 1819 388 
Q 2194 388 2461 705 
Q 2728 1022 2728 1688 
Q 2728 2322 2467 2637 
Q 2206 2953 1844 2953 
Q 1484 2953 1207 2617 
Q 931 2281 931 1641 
z
" id="ArialMT-70" transform="scale(0.015625)"/>
       <path d="M 1650 503 
L 1731 6 
Q 1494 -44 1306 -44 
Q 1000 -44 831 53 
Q 663 150 594 308 
Q 525 466 525 972 
L 525 2881 
L 113 2881 
L 113 3319 
L 525 3319 
L 525 4141 
L 1084 4478 
L 1084 3319 
L 1650 3319 
L 1650 2881 
L 1084 2881 
L 1084 941 
Q 1084 700 1114 631 
Q 1144 563 1211 522 
Q 1278 481 1403 481 
Q 1497 481 1650 503 
z
" id="ArialMT-74" transform="scale(0.015625)"/>
       <path d="M 422 0 
L 422 3319 
L 925 3319 
L 925 2853 
Q 1081 3097 1340 3245 
Q 1600 3394 1931 3394 
Q 2300 3394 2536 3241 
Q 2772 3088 2869 2813 
Q 3263 3394 3894 3394 
Q 4388 3394 4653 3120 
Q 4919 2847 4919 2278 
L 4919 0 
L 4359 0 
L 4359 2091 
Q 4359 2428 4304 2576 
Q 4250 2725 4106 2815 
Q 3963 2906 3769 2906 
Q 3419 2906 3187 2673 
Q 2956 2441 2956 1928 
L 2956 0 
L 2394 0 
L 2394 2156 
Q 2394 2531 2256 2718 
Q 2119 2906 1806 2906 
Q 1569 2906 1367 2781 
Q 1166 2656 1075 2415 
Q 984 2175 984 1722 
L 984 0 
L 422 0 
z
" id="ArialMT-6d" transform="scale(0.015625)"/>
      </defs>
      <use xlink:href="#ArialMT-50"/>
      <use x="66.699219" xlink:href="#ArialMT-6f"/>
      <use x="122.314453" xlink:href="#ArialMT-77"/>
      <use x="194.53125" xlink:href="#ArialMT-65"/>
      <use x="250.146484" xlink:href="#ArialMT-72"/>
      <use x="283.447266" xlink:href="#ArialMT-20"/>
      <use x="311.230469" xlink:href="#ArialMT-53"/>
      <use x="377.929688" xlink:href="#ArialMT-70"/>
      <use x="433.544922" xlink:href="#ArialMT-65"/>
      <use x="489.160156" xlink:href="#ArialMT-63"/>
      <use x="539.160156" xlink:href="#ArialMT-74"/>
      <use x="566.943359" xlink:href="#ArialMT-72"/>
      <use x="600.244141" xlink:href="#ArialMT-75"/>
      <use x="655.859375" xlink:href="#ArialMT-6d"/>
     </g>
    </g>
   </g>
   <g id="line2d_22">
    <path clip-path="url(#p8934ee6d36)" d="M -1 231.738977 
L 114.587887 231.655599 
L 193.906819 260.031581 
L 240.305419 286.664435 
L 273.22575 211.244738 
L 298.760743 313.622552 
L 319.624351 308.274919 
L 337.26428 299.357729 
L 352.544682 58.916776 
L 366.022952 313.109216 
L 378.079675 321.820701 
L 388.986307 319.798612 
L 398.943283 335.003787 
L 408.102812 334.389976 
L 416.583212 345.470717 
L 424.478275 353.506275 
L 431.863614 269.797409 
L 438.801073 349.681754 
L 445.341884 332.175407 
L 451.528959 349.819676 
L 457.398607 344.714046 
L 462.981813 353.054643 
L 468.305239 362.792404 
L 473.391989 363.530397 
L 478.262215 353.482944 
L 482.933599 358.026372 
L 487.421744 364.958542 
L 491.740484 365.016349 
L 495.902144 366.144997 
L 499.91775 359.072851 
L 503.797207 370.429145 
L 511.182546 363.469599 
L 514.70384 373.408665 
L 518.120005 375.807398 
L 521.437137 371.302661 
L 524.660815 369.894496 
L 527.796163 367.433894 
L 530.847891 363.616113 
L 533.820345 370.488511 
L 536.717538 374.266275 
L 539.543189 372.301545 
L 542.300745 379.017804 
L 544.993411 379.450909 
L 547.624171 384.043069 
L 550.195808 373.590217 
L 552.710921 375.905077 
L 555.171941 380.379526 
L 557.581146 367.848919 
L 559.940674 382.041387 
L 562.252531 378.364132 
L 564.518606 379.178021 
L 566.740676 384.731431 
L 568.920419 384.06962 
L 571.059416 378.809279 
L 573.159163 381.996607 
L 575.221076 378.255181 
L 577.246492 383.418434 
L 579.236682 382.925193 
L 581.192849 383.589131 
L 583.116139 385.874903 
L 585.007637 383.496087 
L 586.868378 386.790255 
L 590.501477 384.411906 
L 592.275668 382.406185 
L 594.022772 382.197312 
L 595.743601 390.104238 
L 597.438937 382.766626 
L 599.109521 382.318527 
L 600.756068 383.594701 
L 602.379259 384.261197 
L 603.979747 386.133729 
L 605.558159 390.535306 
L 607.115095 385.883348 
L 608.651132 382.991159 
L 610.166823 388.909481 
L 611.662701 386.628604 
L 613.139277 391.636018 
L 614.597042 392.050766 
L 616.03647 389.014723 
L 617.458017 391.210181 
L 618.862121 388.311162 
L 620.249205 391.483708 
L 621.619676 390.95353 
L 622.973929 391.846472 
L 624.312342 393.286487 
L 625.635282 390.652866 
L 626.943103 389.388763 
L 628.236145 394.002648 
L 629.51474 392.030297 
L 630.779206 389.396425 
L 632.029853 391.112246 
L 633.266978 391.58182 
L 634.490873 392.196203 
L 635.701816 390.994495 
L 636.900078 390.236057 
L 638.085923 394.234512 
L 639.259606 394.974328 
L 640.421372 389.60723 
L 641.571463 395.010871 
L 642.710109 395.436227 
L 643.837537 391.938856 
L 644.953966 394.367804 
L 646.059608 395.495121 
L 647.154669 395.34329 
L 648.23935 392.052736 
L 649.313847 397.345603 
L 650.378348 393.474086 
L 651.433037 394.762041 
L 652.478095 394.176279 
L 653.513695 393.417123 
L 654.540007 393.595724 
L 655.557197 392.654753 
L 656.565424 392.203478 
L 657.564845 398.714971 
L 658.555613 393.776923 
L 659.537877 396.632073 
L 660.511781 393.838376 
L 661.477467 394.318927 
L 662.435071 394.661841 
L 663.384728 394.746251 
L 664.326569 397.261934 
L 665.260721 396.115017 
L 666.187309 395.926914 
L 667.106455 397.409911 
L 668.018277 397.832733 
L 668.922891 396.362519 
L 669.820409 393.764761 
L 670.710943 398.854593 
L 671.5946 397.689262 
L 672.471486 394.91825 
L 673.341703 395.470286 
L 674.205353 399.5037 
L 675.062533 398.329819 
L 676.757868 395.313181 
L 677.596209 398.482257 
L 678.428453 400.691574 
L 679.254688 399.431625 
L 680.075 408.496312 
L 680.075 408.496312 
" style="fill:none;stroke:#1b9e77;stroke-dasharray:12,4;stroke-dashoffset:0;stroke-width:2;"/>
   </g>
   <g id="line2d_23">
    <path clip-path="url(#p8934ee6d36)" d="M -1 269.89902 
L 114.587887 269.832436 
L 193.906819 291.39358 
L 240.305419 317.71073 
L 273.22575 257.467271 
L 298.760743 327.953368 
L 319.624351 338.733465 
L 337.26428 347.09614 
L 352.544682 146.435509 
L 366.022952 340.43785 
L 378.079675 351.975187 
L 388.986307 343.828145 
L 398.943283 337.23026 
L 408.102812 350.400642 
L 416.583212 358.053959 
L 424.478275 351.887109 
L 431.863614 313.123994 
L 438.801073 353.010855 
L 445.341884 368.183796 
L 451.528959 363.569296 
L 457.398607 365.711334 
L 462.981813 370.299711 
L 468.305239 370.558422 
L 473.391989 378.797232 
L 478.262215 365.323394 
L 482.933599 381.344307 
L 487.421744 374.518251 
L 491.740484 381.443936 
L 495.902144 363.449375 
L 499.91775 376.844998 
L 503.797207 378.001249 
L 507.549446 385.234746 
L 511.182546 380.354568 
L 514.70384 376.496055 
L 518.120005 382.297747 
L 521.437137 384.193872 
L 524.660815 378.50405 
L 527.796163 384.945752 
L 530.847891 385.704242 
L 533.820345 390.714541 
L 536.717538 384.675827 
L 539.543189 385.372232 
L 542.300745 385.897855 
L 544.993411 378.679213 
L 547.624171 386.014055 
L 550.195808 382.228337 
L 552.710921 390.746207 
L 555.171941 383.56577 
L 557.581146 385.191046 
L 559.940674 392.439412 
L 562.252531 392.044872 
L 564.518606 386.955192 
L 566.740676 391.002467 
L 568.920419 391.056566 
L 571.059416 391.361878 
L 573.159163 388.618338 
L 575.221076 386.478534 
L 577.246492 392.422165 
L 579.236682 388.351972 
L 581.192849 394.061301 
L 583.116139 390.219227 
L 585.007637 395.277863 
L 586.868378 390.941387 
L 588.699345 389.506393 
L 590.501477 389.227366 
L 592.275668 393.540329 
L 594.022772 392.463199 
L 595.743601 393.025809 
L 597.438937 397.636573 
L 599.109521 390.422055 
L 600.756068 393.653209 
L 602.379259 392.13091 
L 603.979747 393.127236 
L 605.558159 394.725838 
L 607.115095 394.976252 
L 608.651132 397.229712 
L 610.166823 392.058561 
L 611.662701 395.2621 
L 613.139277 396.335078 
L 614.597042 396.058832 
L 616.03647 395.648546 
L 617.458017 400.415585 
L 618.862121 395.971212 
L 620.249205 397.820067 
L 621.619676 395.083593 
L 622.973929 398.517379 
L 624.312342 397.79282 
L 625.635282 398.465665 
L 626.943103 394.711269 
L 628.236145 395.556921 
L 629.51474 398.017616 
L 630.779206 394.696195 
L 632.029853 398.131734 
L 633.266978 398.216612 
L 634.490873 401.581986 
L 635.701816 401.067919 
L 636.900078 393.129356 
L 638.085923 396.73584 
L 639.259606 397.074559 
L 640.421372 400.822643 
L 641.571463 398.558753 
L 642.710109 400.646385 
L 643.837537 399.112622 
L 644.953966 399.398504 
L 646.059608 396.729613 
L 647.154669 397.747251 
L 648.23935 398.983683 
L 649.313847 400.450534 
L 650.378348 397.601863 
L 651.433037 400.358361 
L 652.478095 398.358404 
L 653.513695 403.026156 
L 654.540007 398.301821 
L 655.557197 402.27654 
L 657.564845 400.698362 
L 658.555613 399.484336 
L 659.537877 401.998737 
L 660.511781 399.195518 
L 661.477467 402.00372 
L 662.435071 401.779917 
L 663.384728 400.032406 
L 664.326569 399.397466 
L 665.260721 399.158966 
L 666.187309 401.390026 
L 667.106455 400.94384 
L 668.018277 399.96789 
L 668.922891 400.621375 
L 669.820409 402.126427 
L 670.710943 399.277202 
L 671.5946 399.011545 
L 672.471486 399.557854 
L 673.341703 398.005235 
L 674.205353 402.956215 
L 675.062533 404.282074 
L 676.757868 400.976342 
L 677.596209 403.967101 
L 678.428453 397.578962 
L 679.254688 401.440869 
L 680.075 412.019951 
L 680.075 412.019951 
" style="fill:none;stroke:#8b4513;stroke-dasharray:4,4,20,4;stroke-dashoffset:0;stroke-width:2;"/>
   </g>
   <g id="line2d_24">
    <path clip-path="url(#p8934ee6d36)" d="M -1 282.885009 
L 186.011755 282.786527 
L 265.330687 304.150991 
L 311.729288 330.723912 
L 344.649619 338.788116 
L 370.184611 355.244699 
L 391.04822 354.152963 
L 408.688149 359.460129 
L 423.968551 364.699743 
L 437.44682 366.192203 
L 449.503543 370.902241 
L 460.410176 368.61224 
L 470.367151 374.819493 
L 479.526681 370.936765 
L 488.007081 371.635901 
L 495.902144 371.067662 
L 503.287482 376.192587 
L 510.224942 369.707582 
L 516.765752 367.823676 
L 522.952828 372.26587 
L 528.822475 375.361935 
L 534.405681 377.589208 
L 539.729108 375.346856 
L 544.815857 374.390372 
L 549.686083 374.181533 
L 554.357468 377.604828 
L 558.845613 375.034279 
L 563.164353 375.42383 
L 567.326012 380.539225 
L 571.341618 382.188827 
L 575.221076 381.14842 
L 578.973314 375.01178 
L 582.606414 379.275906 
L 586.127708 381.981288 
L 589.543873 383.590005 
L 592.861005 386.054516 
L 596.084684 390.335538 
L 599.220031 390.508777 
L 602.27176 385.73353 
L 605.244213 390.714587 
L 608.141407 391.353972 
L 610.967057 385.760957 
L 613.724613 392.844206 
L 616.417279 392.111578 
L 619.048039 393.927367 
L 621.619676 393.069115 
L 624.134789 383.524313 
L 626.595809 389.72461 
L 629.005015 393.810639 
L 631.364542 393.260621 
L 633.676399 395.419782 
L 635.942474 395.587957 
L 638.164544 391.520307 
L 640.344287 395.238944 
L 642.483284 393.913963 
L 644.583032 394.732883 
L 646.644944 396.026449 
L 648.67036 391.723821 
L 650.66055 394.34009 
L 652.616718 394.64395 
L 654.540007 399.898231 
L 656.431506 395.359675 
L 658.292246 395.204023 
L 660.123214 398.157662 
L 661.925346 400.074525 
L 663.699537 395.460552 
L 665.44664 398.663041 
L 667.16747 400.04918 
L 668.862805 399.092665 
L 670.53339 398.142568 
L 672.179937 398.516268 
L 673.803127 398.708423 
L 675.403615 400.328478 
L 676.982027 398.442953 
L 678.538963 399.602314 
L 680.075 410.77611 
" style="fill:none;stroke:#7570b3;stroke-dasharray:2,2;stroke-dashoffset:0;stroke-width:2;"/>
   </g>
   <g id="line2d_25"/>
   <g id="line2d_26"/>
   <g id="line2d_27"/>
   <g id="patch_3">
    <path d="M 48.2375 421.2 
L 48.2375 10.8 
" style="fill:none;stroke:#000000;stroke-linecap:square;stroke-linejoin:miter;stroke-width:0.8;"/>
   </g>
   <g id="patch_4">
    <path d="M 48.2375 421.2 
L 680.075 421.2 
" style="fill:none;stroke:#000000;stroke-linecap:square;stroke-linejoin:miter;stroke-width:0.8;"/>
   </g>
   <g id="legend_1">
    <g id="patch_5">
     <path d="M 508.922656 137.194531 
L 662.575 137.194531 
Q 667.575 137.194531 667.575 132.194531 
L 667.575 28.3 
Q 667.575 23.3 662.575 23.3 
L 508.922656 23.3 
Q 503.922656 23.3 503.922656 28.3 
L 503.922656 132.194531 
Q 503.922656 137.194531 508.922656 137.194531 
z
" style="fill:#ffffff;opacity:0.8;stroke:#cccccc;stroke-linejoin:miter;"/>
    </g>
    <g id="line2d_28">
     <path d="M 513.922656 42.749219 
L 563.922656 42.749219 
" style="fill:none;stroke:#1b9e77;stroke-dasharray:9,3;stroke-dashoffset:0;stroke-width:1.5;"/>
    </g>
    <g id="line2d_29"/>
    <g id="text_9">
     <!-- Stroop -->
     <g transform="translate(583.922656 51.499219)scale(0.25 -0.25)">
      <use xlink:href="#ArialMT-53"/>
      <use x="66.699219" xlink:href="#ArialMT-74"/>
      <use x="94.482422" xlink:href="#ArialMT-72"/>
      <use x="127.783203" xlink:href="#ArialMT-6f"/>
      <use x="183.398438" xlink:href="#ArialMT-6f"/>
      <use x="239.013672" xlink:href="#ArialMT-70"/>
     </g>
    </g>
    <g id="line2d_30">
     <path d="M 513.922656 78.1125 
L 563.922656 78.1125 
" style="fill:none;stroke:#8b4513;stroke-dasharray:3,3,15,3;stroke-dashoffset:0;stroke-width:1.5;"/>
    </g>
    <g id="line2d_31"/>
    <g id="text_10">
     <!-- MSIT -->
     <g transform="translate(583.922656 86.8625)scale(0.25 -0.25)">
      <defs>
       <path d="M 475 0 
L 475 4581 
L 1388 4581 
L 2472 1338 
Q 2622 884 2691 659 
Q 2769 909 2934 1394 
L 4031 4581 
L 4847 4581 
L 4847 0 
L 4263 0 
L 4263 3834 
L 2931 0 
L 2384 0 
L 1059 3900 
L 1059 0 
L 475 0 
z
" id="ArialMT-4d" transform="scale(0.015625)"/>
       <path d="M 597 0 
L 597 4581 
L 1203 4581 
L 1203 0 
L 597 0 
z
" id="ArialMT-49" transform="scale(0.015625)"/>
       <path d="M 1659 0 
L 1659 4041 
L 150 4041 
L 150 4581 
L 3781 4581 
L 3781 4041 
L 2266 4041 
L 2266 0 
L 1659 0 
z
" id="ArialMT-54" transform="scale(0.015625)"/>
      </defs>
      <use xlink:href="#ArialMT-4d"/>
      <use x="83.300781" xlink:href="#ArialMT-53"/>
      <use x="150" xlink:href="#ArialMT-49"/>
      <use x="177.783203" xlink:href="#ArialMT-54"/>
     </g>
    </g>
    <g id="line2d_32">
     <path d="M 513.922656 113.475781 
L 563.922656 113.475781 
" style="fill:none;stroke:#7570b3;stroke-dasharray:1.5,1.5;stroke-dashoffset:0;stroke-width:1.5;"/>
    </g>
    <g id="line2d_33"/>
    <g id="text_11">
     <!-- Rest -->
     <g transform="translate(583.922656 122.225781)scale(0.25 -0.25)">
      <defs>
       <path d="M 503 0 
L 503 4581 
L 2534 4581 
Q 3147 4581 3465 4457 
Q 3784 4334 3975 4021 
Q 4166 3709 4166 3331 
Q 4166 2844 3850 2509 
Q 3534 2175 2875 2084 
Q 3116 1969 3241 1856 
Q 3506 1613 3744 1247 
L 4541 0 
L 3778 0 
L 3172 953 
Q 2906 1366 2734 1584 
Q 2563 1803 2427 1890 
Q 2291 1978 2150 2013 
Q 2047 2034 1813 2034 
L 1109 2034 
L 1109 0 
L 503 0 
z
M 1109 2559 
L 2413 2559 
Q 2828 2559 3062 2645 
Q 3297 2731 3419 2920 
Q 3541 3109 3541 3331 
Q 3541 3656 3305 3865 
Q 3069 4075 2559 4075 
L 1109 4075 
L 1109 2559 
z
" id="ArialMT-52" transform="scale(0.015625)"/>
       <path d="M 197 991 
L 753 1078 
Q 800 744 1014 566 
Q 1228 388 1613 388 
Q 2000 388 2187 545 
Q 2375 703 2375 916 
Q 2375 1106 2209 1216 
Q 2094 1291 1634 1406 
Q 1016 1563 777 1677 
Q 538 1791 414 1992 
Q 291 2194 291 2438 
Q 291 2659 392 2848 
Q 494 3038 669 3163 
Q 800 3259 1026 3326 
Q 1253 3394 1513 3394 
Q 1903 3394 2198 3281 
Q 2494 3169 2634 2976 
Q 2775 2784 2828 2463 
L 2278 2388 
Q 2241 2644 2061 2787 
Q 1881 2931 1553 2931 
Q 1166 2931 1000 2803 
Q 834 2675 834 2503 
Q 834 2394 903 2306 
Q 972 2216 1119 2156 
Q 1203 2125 1616 2013 
Q 2213 1853 2448 1751 
Q 2684 1650 2818 1456 
Q 2953 1263 2953 975 
Q 2953 694 2789 445 
Q 2625 197 2315 61 
Q 2006 -75 1616 -75 
Q 969 -75 630 194 
Q 291 463 197 991 
z
" id="ArialMT-73" transform="scale(0.015625)"/>
      </defs>
      <use xlink:href="#ArialMT-52"/>
      <use x="72.216797" xlink:href="#ArialMT-65"/>
      <use x="127.832031" xlink:href="#ArialMT-73"/>
      <use x="177.832031" xlink:href="#ArialMT-74"/>
     </g>
    </g>
   </g>
  </g>
 </g>
 <defs>
  <clipPath id="p8934ee6d36">
   <rect height="410.4" width="631.8375" x="48.2375" y="10.8"/>
  </clipPath>
 </defs>
</svg>
