<?xml version="1.0" encoding="utf-8" standalone="no"?>
<!DOCTYPE svg PUBLIC "-//W3C//DTD SVG 1.1//EN"
  "http://www.w3.org/Graphics/SVG/1.1/DTD/svg11.dtd">
<svg height="504pt" version="1.1" viewBox="0 0 720 504" width="720pt" xmlns="http://www.w3.org/2000/svg" xmlns:xlink="http://www.w3.org/1999/xlink">
 <metadata>
  <rdf:RDF xmlns:cc="http://creativecommons.org/ns#" xmlns:dc="http://purl.org/dc/elements/1.1/" xmlns:rdf="http://www.w3.org/1999/02/22-rdf-syntax-ns#">
   <cc:Work>
    <dc:type rdf:resource="http://purl.org/dc/dcmitype/StillImage"/>
    <dc:date>2022-02-09T18:38:04.422366</dc:date>
    <dc:format>image/svg+xml</dc:format>
    <dc:creator>
     <cc:Agent>
      <dc:title>Matplotlib v3.4.2, https://matplotlib.org/</dc:title>
     </cc:Agent>
    </dc:creator>
   </cc:Work>
  </rdf:RDF>
 </metadata>
 <defs>
  <style type="text/css">*{stroke-linecap:butt;stroke-linejoin:round;}</style>
 </defs>
 <g id="figure_1">
  <g id="patch_1">
   <path d="M 0 504 
L 720 504 
L 720 0 
L 0 0 
z
" style="fill:none;"/>
  </g>
  <g id="axes_1">
   <g id="patch_2">
    <path d="M 48.2375 421.2 
L 680.075 421.2 
L 680.075 10.8 
L 48.2375 10.8 
z
" style="fill:#ffffff;"/>
   </g>
   <g id="PolyCollection_1">
    <path clip-path="url(#p23432def8e)" d="M -262653.074969 421.2 
L -262653.074969 421.2 
L 114.587887 252.979515 
L 193.906819 283.506673 
L 240.305419 300.583138 
L 273.22575 234.451683 
L 298.760743 325.301713 
L 319.624351 323.777907 
L 337.26428 315.728039 
L 352.544682 82.663581 
L 366.022952 323.993105 
L 378.079675 332.914948 
L 388.986307 331.03853 
L 398.943283 343.162254 
L 408.102812 343.857036 
L 416.583212 353.574846 
L 424.478275 360.914473 
L 431.863614 287.336796 
L 438.801073 357.431128 
L 445.341884 344.481175 
L 451.528959 356.254697 
L 457.398607 356.964736 
L 462.981813 362.641839 
L 468.305239 369.403777 
L 473.391989 371.320783 
L 478.262215 359.883655 
L 482.933599 367.786501 
L 487.421744 373.433558 
L 491.740484 371.509391 
L 495.902144 371.54577 
L 499.91775 366.368233 
L 503.797207 375.477905 
L 507.549446 372.968655 
L 511.182546 369.14529 
L 514.70384 378.473746 
L 518.120005 380.546327 
L 521.437137 375.722995 
L 524.660815 374.557954 
L 527.796163 372.952249 
L 530.847891 370.594134 
L 533.820345 375.85056 
L 536.717538 379.691576 
L 539.543189 377.643317 
L 542.300745 383.360676 
L 544.993411 384.0413 
L 547.624171 388.467621 
L 550.195808 379.782434 
L 552.710921 380.031739 
L 555.171941 385.019997 
L 557.581146 373.083273 
L 559.940674 386.56366 
L 562.252531 382.941376 
L 564.518606 383.962937 
L 566.740676 389.067638 
L 568.920419 388.16097 
L 571.059416 383.43233 
L 573.159163 386.647068 
L 575.221076 382.410268 
L 577.246492 387.092172 
L 579.236682 386.001028 
L 581.192849 387.461375 
L 583.116139 389.176973 
L 585.007637 386.807601 
L 586.868378 390.369098 
L 588.699345 388.777321 
L 590.501477 388.037346 
L 592.275668 386.583433 
L 594.022772 385.710741 
L 595.743601 392.927146 
L 597.438937 387.480133 
L 599.109521 386.595079 
L 600.756068 387.47928 
L 602.379259 388.555247 
L 603.979747 388.604873 
L 605.558159 393.514135 
L 607.115095 389.583678 
L 608.651132 386.371902 
L 610.166823 392.434919 
L 611.662701 390.678218 
L 613.139277 394.784215 
L 614.597042 394.554014 
L 616.03647 392.376099 
L 617.458017 393.533647 
L 618.862121 392.239286 
L 620.249205 394.648628 
L 621.619676 393.924711 
L 622.973929 394.597653 
L 624.312342 396.059461 
L 625.635282 394.533126 
L 626.943103 393.323137 
L 628.236145 396.65693 
L 629.51474 395.793261 
L 630.779206 392.631944 
L 632.029853 394.265866 
L 633.266978 394.315137 
L 634.490873 394.938996 
L 635.701816 394.805622 
L 636.900078 392.769292 
L 638.085923 396.386868 
L 639.259606 397.946937 
L 640.421372 392.750758 
L 641.571463 397.156556 
L 642.710109 397.612408 
L 643.837537 394.549483 
L 644.953966 397.151573 
L 646.059608 397.567105 
L 647.154669 398.006527 
L 648.23935 395.059444 
L 649.313847 399.368231 
L 650.378348 396.065019 
L 651.433037 398.243258 
L 652.478095 396.79424 
L 653.513695 395.555823 
L 654.540007 395.599749 
L 655.557197 394.826209 
L 656.565424 395.377253 
L 657.564845 400.888881 
L 658.555613 396.48047 
L 659.537877 398.761375 
L 660.511781 396.016726 
L 661.477467 396.483811 
L 662.435071 397.257943 
L 663.384728 397.460718 
L 664.326569 399.271529 
L 665.260721 398.800608 
L 666.187309 398.369422 
L 667.106455 399.231013 
L 668.018277 399.524293 
L 668.922891 398.703186 
L 669.820409 397.317748 
L 670.710943 400.219394 
L 671.5946 399.647551 
L 672.471486 397.592137 
L 673.341703 398.015961 
L 674.205353 401.151129 
L 675.062533 400.356524 
L 675.91334 399.147182 
L 676.757868 397.757705 
L 677.596209 400.521061 
L 678.428453 402.629816 
L 679.254688 401.371959 
L 680.075 410.330521 
L 680.075 406.618958 
L 680.075 406.618958 
L 679.254688 397.164132 
L 678.428453 398.997868 
L 677.596209 395.122454 
L 676.757868 392.015794 
L 675.91334 394.061235 
L 675.062533 395.654701 
L 674.205353 396.743715 
L 673.341703 393.167613 
L 672.471486 392.746842 
L 671.5946 395.170718 
L 670.710943 396.323871 
L 669.820409 391.294529 
L 668.922891 392.897785 
L 668.018277 394.654482 
L 667.106455 394.882788 
L 666.187309 392.716987 
L 665.260721 393.155477 
L 664.326569 394.86503 
L 663.384728 391.584927 
L 662.435071 391.987603 
L 661.477467 391.2545 
L 660.511781 390.18167 
L 659.537877 393.711253 
L 658.555613 390.907662 
L 657.564845 396.153755 
L 656.565424 389.558701 
L 655.557197 389.623519 
L 654.540007 390.526647 
L 653.513695 389.881267 
L 652.478095 390.836702 
L 651.433037 391.094499 
L 650.378348 389.698439 
L 649.313847 394.565595 
L 648.23935 388.705013 
L 647.154669 392.629332 
L 646.059608 392.686766 
L 644.953966 391.234319 
L 643.837537 388.827683 
L 642.710109 393.455246 
L 641.571463 391.943937 
L 640.421372 385.68821 
L 639.259606 391.70516 
L 638.085923 391.695252 
L 636.900078 387.092408 
L 635.701816 386.924678 
L 634.490873 388.607797 
L 633.266978 388.036191 
L 632.029853 387.162367 
L 630.779206 386.077195 
L 629.51474 389.505407 
L 628.236145 390.509429 
L 626.943103 385.694301 
L 625.635282 386.762812 
L 624.312342 390.249261 
L 622.973929 388.824102 
L 621.619676 388.27928 
L 620.249205 387.83459 
L 618.862121 385.025825 
L 617.458017 387.905878 
L 616.03647 385.363695 
L 614.597042 388.798639 
L 613.139277 389.178311 
L 611.662701 382.985686 
L 610.166823 384.904895 
L 608.651132 378.251993 
L 607.115095 382.40492 
L 605.558159 388.179282 
L 603.979747 381.648194 
L 602.379259 380.552819 
L 600.756068 379.159229 
L 599.109521 377.475025 
L 597.438937 378.283499 
L 595.743601 386.57583 
L 594.022772 377.553852 
L 592.275668 377.59973 
L 590.501477 380.200141 
L 588.699345 381.688642 
L 586.868378 383.830089 
L 585.007637 379.189884 
L 583.116139 382.108705 
L 581.192849 378.142724 
L 579.236682 378.102483 
L 577.246492 379.502114 
L 575.221076 373.871567 
L 573.159163 377.108597 
L 571.059416 372.872311 
L 568.920419 379.958865 
L 566.740676 381.605971 
L 564.518606 373.962216 
L 562.252531 372.393872 
L 559.940674 376.815258 
L 557.581146 360.052668 
L 555.171941 375.360832 
L 552.710921 370.420974 
L 550.195808 367.68379 
L 547.624171 379.292194 
L 544.993411 373.537297 
L 542.300745 374.258746 
L 539.543189 366.206082 
L 536.717538 368.473045 
L 533.820345 363.187125 
L 530.847891 356.268665 
L 527.796163 359.918866 
L 524.660815 363.223461 
L 521.437137 366.535812 
L 518.120005 370.325394 
L 514.70384 368.319198 
L 511.182546 356.547847 
L 507.549446 360.843408 
L 503.797207 365.750561 
L 499.91775 351.976288 
L 495.902144 358.563649 
L 491.740484 356.971664 
L 487.421744 357.067974 
L 482.933599 348.548078 
L 478.262215 343.147467 
L 473.391989 356.621942 
L 468.305239 355.070631 
L 462.981813 340.213746 
L 457.398607 329.456546 
L 451.528959 339.274273 
L 445.341884 319.920543 
L 438.801073 340.545742 
L 431.863614 250.609785 
L 424.478275 347.872488 
L 416.583212 338.16264 
L 408.102812 326.525516 
L 398.943283 323.654653 
L 388.986307 306.275189 
L 378.079675 309.398226 
L 366.022952 301.514272 
L 352.544682 27.402435 
L 337.26428 278.140406 
L 319.624351 290.39929 
L 298.760743 302.099676 
L 273.22575 185.779883 
L 240.305419 270.435504 
L 193.906819 237.326808 
L 114.587887 208.23893 
L -262653.074969 421.2 
z
" style="fill:#1b9e77;fill-opacity:0.2;stroke:#1b9e77;stroke-opacity:0.2;"/>
   </g>
   <g id="PolyCollection_2">
    <path clip-path="url(#p23432def8e)" d="M -262653.074969 421.2 
L -262653.074969 421.2 
L 114.587887 286.273102 
L 193.906819 307.642593 
L 240.305419 331.453205 
L 273.22575 274.626096 
L 298.760743 342.679016 
L 319.624351 347.203128 
L 337.26428 355.029477 
L 352.544682 168.065178 
L 366.022952 348.295136 
L 378.079675 358.724612 
L 388.986307 351.753796 
L 398.943283 350.593538 
L 408.102812 360.232027 
L 416.583212 364.539384 
L 424.478275 361.892097 
L 431.863614 321.474402 
L 438.801073 362.463676 
L 445.341884 373.962426 
L 451.528959 368.718594 
L 457.398607 372.2178 
L 462.981813 376.448823 
L 468.305239 376.508006 
L 473.391989 383.283941 
L 478.262215 369.611693 
L 482.933599 385.4298 
L 487.421744 381.689685 
L 491.740484 384.821804 
L 495.902144 369.514897 
L 499.91775 381.227659 
L 503.797207 383.379528 
L 507.549446 388.572632 
L 511.182546 383.453061 
L 514.70384 380.637681 
L 518.120005 386.663752 
L 521.437137 390.456241 
L 524.660815 385.220259 
L 527.796163 388.892554 
L 530.847891 389.579009 
L 533.820345 392.623978 
L 536.717538 387.670159 
L 539.543189 389.053749 
L 542.300745 389.577513 
L 544.993411 385.884094 
L 547.624171 389.96005 
L 550.195808 387.050357 
L 552.710921 394.582755 
L 555.171941 388.209182 
L 557.581146 389.303782 
L 559.940674 395.227405 
L 562.252531 395.425461 
L 564.518606 390.122664 
L 566.740676 394.27289 
L 568.920419 394.762611 
L 571.059416 395.695272 
L 573.159163 392.687064 
L 575.221076 390.804591 
L 577.246492 395.497497 
L 579.236682 393.06889 
L 581.192849 396.280439 
L 583.116139 394.721965 
L 585.007637 397.956316 
L 586.868378 394.637462 
L 588.699345 393.523189 
L 590.501477 393.467762 
L 592.275668 396.525171 
L 594.022772 394.572282 
L 595.743601 395.48715 
L 597.438937 400.101962 
L 599.109521 394.396444 
L 600.756068 396.581759 
L 602.379259 399.574917 
L 603.979747 396.247192 
L 605.558159 397.9932 
L 607.115095 398.346662 
L 608.651132 399.158221 
L 610.166823 395.855072 
L 611.662701 398.296553 
L 613.139277 398.984602 
L 614.597042 398.629508 
L 616.03647 397.896357 
L 617.458017 402.44096 
L 618.862121 398.318397 
L 620.249205 399.797957 
L 621.619676 399.122971 
L 622.973929 401.685303 
L 624.312342 400.651441 
L 625.635282 400.890483 
L 626.943103 397.704012 
L 628.236145 398.196341 
L 629.51474 400.015773 
L 630.779206 397.675668 
L 632.029853 400.357121 
L 633.266978 400.74006 
L 634.490873 403.527506 
L 635.701816 402.794988 
L 636.900078 396.919665 
L 638.085923 400.29947 
L 639.259606 399.387141 
L 640.421372 402.996423 
L 641.571463 400.550693 
L 642.710109 402.141129 
L 643.837537 402.334474 
L 644.953966 401.86165 
L 646.059608 399.802975 
L 647.154669 400.102275 
L 648.23935 401.160103 
L 649.313847 402.786312 
L 650.378348 400.011882 
L 651.433037 401.932789 
L 652.478095 401.265537 
L 653.513695 404.793907 
L 654.540007 401.784609 
L 655.557197 403.996742 
L 656.565424 403.885916 
L 657.564845 403.135055 
L 658.555613 402.570078 
L 659.537877 403.565562 
L 660.511781 401.306698 
L 661.477467 403.951082 
L 662.435071 403.14442 
L 663.384728 402.548328 
L 664.326569 400.897596 
L 665.260721 402.3379 
L 666.187309 403.355481 
L 667.106455 403.005137 
L 668.018277 402.287839 
L 668.922891 403.524874 
L 669.820409 403.620747 
L 670.710943 402.108079 
L 671.5946 401.360727 
L 672.471486 402.044485 
L 673.341703 400.656692 
L 674.205353 405.31242 
L 675.062533 405.748473 
L 675.91334 404.140379 
L 676.757868 403.276762 
L 677.596209 405.377074 
L 678.428453 401.436576 
L 679.254688 402.718018 
L 680.075 413.345175 
L 680.075 409.643019 
L 680.075 409.643019 
L 679.254688 398.629294 
L 678.428453 392.80826 
L 677.596209 401.489174 
L 676.757868 398.009343 
L 675.91334 400.272933 
L 675.062533 402.31958 
L 674.205353 400.397062 
L 673.341703 394.540989 
L 672.471486 396.344406 
L 671.5946 397.019751 
L 670.710943 395.700615 
L 669.820409 399.520218 
L 668.922891 397.442565 
L 668.018277 397.63365 
L 667.106455 398.903881 
L 666.187309 399.344707 
L 665.260721 395.07695 
L 664.326569 396.337655 
L 663.384728 397.095897 
L 662.435071 399.240773 
L 661.477467 399.879757 
L 660.511781 396.096993 
L 659.537877 399.972906 
L 658.555613 396.279709 
L 657.564845 397.731386 
L 656.565424 399.211108 
L 655.557197 400.593985 
L 654.540007 394.65914 
L 653.513695 400.911224 
L 652.478095 394.733178 
L 651.433037 397.31166 
L 650.378348 395.0757 
L 649.313847 397.511803 
L 648.23935 396.190634 
L 647.154669 394.659329 
L 646.059608 392.407101 
L 644.953966 397.37799 
L 643.837537 395.882245 
L 642.710109 398.666359 
L 641.571463 396.064387 
L 640.421372 398.608814 
L 639.259606 394.351553 
L 638.085923 392.819863 
L 636.900078 389.336159 
L 635.701816 398.904894 
L 634.490873 399.322911 
L 633.266978 394.662978 
L 632.029853 395.133026 
L 630.779206 390.011461 
L 629.51474 395.443418 
L 628.236145 393.392802 
L 626.943103 391.315614 
L 625.635282 396.131591 
L 624.312342 394.002113 
L 622.973929 394.741517 
L 621.619676 390.131983 
L 620.249205 395.305114 
L 618.862121 392.795559 
L 617.458017 397.768118 
L 616.03647 392.924389 
L 614.597042 392.978363 
L 613.139277 392.969447 
L 611.662701 391.478957 
L 610.166823 387.492957 
L 608.651132 394.404861 
L 607.115095 390.638262 
L 605.558159 391.195451 
L 603.979747 389.780262 
L 602.379259 383.684722 
L 600.756068 390.889555 
L 599.109521 384.893755 
L 597.438937 394.762444 
L 595.743601 389.652597 
L 594.022772 387.701206 
L 592.275668 390.177063 
L 590.501477 384.63582 
L 588.699345 385.233271 
L 586.868378 386.271146 
L 585.007637 392.022176 
L 583.116139 385.605004 
L 581.192849 390.370381 
L 579.236682 383.759063 
L 577.246492 388.715332 
L 575.221076 381.368111 
L 573.159163 384.070981 
L 571.059416 387.796986 
L 568.920419 387.693331 
L 566.740676 388.239625 
L 564.518606 382.202539 
L 562.252531 388.406738 
L 559.940674 388.986698 
L 557.581146 379.353888 
L 555.171941 378.382783 
L 552.710921 388.004471 
L 550.195808 377.109947 
L 547.624171 381.435648 
L 544.993411 370.934698 
L 542.300745 381.249302 
L 539.543189 380.648889 
L 536.717538 380.278874 
L 533.820345 387.273184 
L 530.847891 379.975174 
L 527.796163 380.758598 
L 524.660815 369.053539 
L 521.437137 376.331647 
L 518.120005 377.162246 
L 514.70384 369.125367 
L 511.182546 376.085482 
L 507.549446 379.852776 
L 503.797207 371.29087 
L 499.91775 370.734665 
L 495.902144 352.846072 
L 491.740484 375.592702 
L 487.421744 366.646235 
L 482.933599 374.618042 
L 478.262215 356.11187 
L 473.391989 372.318699 
L 468.305239 364.825695 
L 462.981813 365.061142 
L 457.398607 357.232485 
L 451.528959 354.47116 
L 445.341884 359.855608 
L 438.801073 339.203636 
L 431.863614 298.1262 
L 424.478275 337.232728 
L 416.583212 348.340481 
L 408.102812 338.524884 
L 398.943283 321.837009 
L 388.986307 332.913756 
L 378.079675 342.762507 
L 366.022952 328.706125 
L 352.544682 114.420601 
L 337.26428 333.601153 
L 319.624351 330.475141 
L 298.760743 318.228532 
L 273.22575 236.388619 
L 240.305419 304.884204 
L 193.906819 271.657629 
L 114.587887 248.329768 
L -262653.074969 421.2 
z
" style="fill:#8b4513;fill-opacity:0.2;stroke:#8b4513;stroke-opacity:0.2;"/>
   </g>
   <g id="PolyCollection_3">
    <path clip-path="url(#p23432def8e)" d="M -262653.074969 421.2 
L -262653.074969 421.2 
L 186.011755 290.872058 
L 265.330687 313.493751 
L 311.729288 339.186149 
L 344.649619 343.024372 
L 370.184611 356.674294 
L 391.04822 359.209494 
L 408.688149 361.691511 
L 423.968551 368.512122 
L 437.44682 369.982548 
L 449.503543 371.906311 
L 460.410176 372.551372 
L 470.367151 376.203287 
L 479.526681 374.962025 
L 488.007081 375.378161 
L 495.902144 374.840548 
L 503.287482 378.270122 
L 510.224942 374.054189 
L 516.765752 371.736569 
L 522.952828 376.133561 
L 528.822475 377.805905 
L 534.405681 379.939833 
L 539.729108 379.281669 
L 544.815857 377.635549 
L 549.686083 377.587117 
L 554.357468 380.892399 
L 558.845613 379.21626 
L 563.164353 380.299314 
L 567.326012 383.206703 
L 571.341618 384.353967 
L 575.221076 383.426608 
L 578.973314 378.691809 
L 582.606414 381.587108 
L 586.127708 386.108685 
L 589.543873 385.907474 
L 592.861005 387.935247 
L 596.084684 392.178944 
L 599.220031 391.61705 
L 602.27176 389.367553 
L 605.244213 393.300206 
L 608.141407 393.022949 
L 610.967057 387.867022 
L 613.724613 393.921241 
L 616.417279 394.210029 
L 619.048039 395.494282 
L 621.619676 394.973939 
L 624.134789 387.302263 
L 626.595809 392.153289 
L 629.005015 395.533886 
L 631.364542 394.12202 
L 633.676399 397.226368 
L 635.942474 397.078464 
L 638.164544 393.254059 
L 640.344287 396.53608 
L 642.483284 394.100382 
L 644.583032 396.253318 
L 646.644944 397.555577 
L 648.67036 393.842754 
L 650.66055 395.560715 
L 652.616718 395.648436 
L 654.540007 401.277796 
L 656.431506 397.818477 
L 658.292246 395.756431 
L 660.123214 399.255168 
L 661.925346 401.108034 
L 663.699537 396.683176 
L 665.44664 399.673516 
L 667.16747 400.36934 
L 668.862805 400.186225 
L 670.53339 399.051973 
L 672.179937 398.888807 
L 673.803127 399.406676 
L 675.403615 400.743865 
L 676.982027 399.536737 
L 678.538963 400.910164 
L 680.075 412.136335 
L 680.075 409.968681 
L 680.075 409.968681 
L 678.538963 397.295929 
L 676.982027 395.776088 
L 675.403615 396.923123 
L 673.803127 394.871769 
L 672.179937 395.161042 
L 670.53339 395.058368 
L 668.862805 396.394906 
L 667.16747 396.541355 
L 665.44664 395.43564 
L 663.699537 392.411072 
L 661.925346 397.69624 
L 660.123214 395.599 
L 658.292246 389.728828 
L 656.431506 393.35917 
L 654.540007 398.009332 
L 652.616718 390.393152 
L 650.66055 390.42621 
L 648.67036 388.683026 
L 646.644944 393.131385 
L 644.583032 391.455334 
L 642.483284 388.805371 
L 640.344287 391.550386 
L 638.164544 387.553276 
L 635.942474 393.149272 
L 633.676399 392.588268 
L 631.364542 389.496072 
L 629.005015 390.788599 
L 626.595809 386.404794 
L 624.134789 380.787784 
L 621.619676 389.390691 
L 619.048039 390.359436 
L 616.417279 389.856774 
L 613.724613 389.632967 
L 610.967057 381.180177 
L 608.141407 387.925355 
L 605.244213 387.911715 
L 602.27176 382.708326 
L 599.220031 386.855878 
L 596.084684 387.707348 
L 592.861005 381.470514 
L 589.543873 379.217171 
L 586.127708 378.35483 
L 582.606414 373.184609 
L 578.973314 370.560318 
L 575.221076 375.424584 
L 571.341618 377.345204 
L 567.326012 377.064913 
L 563.164353 372.738606 
L 558.845613 371.769567 
L 554.357468 373.271234 
L 549.686083 370.629315 
L 544.815857 370.431652 
L 539.729108 372.241677 
L 534.405681 372.341486 
L 528.822475 369.416669 
L 522.952828 367.155303 
L 516.765752 362.775618 
L 510.224942 365.360209 
L 503.287482 371.029751 
L 495.902144 367.180729 
L 488.007081 368.408665 
L 479.526681 365.923189 
L 470.367151 369.361531 
L 460.410176 364.163397 
L 449.503543 364.9624 
L 437.44682 361.03522 
L 423.968551 359.850158 
L 408.688149 352.556421 
L 391.04822 349.613907 
L 370.184611 346.742175 
L 344.649619 327.715276 
L 311.729288 322.489008 
L 265.330687 293.117503 
L 186.011755 271.716565 
L -262653.074969 421.2 
z
" style="fill:#7570b3;fill-opacity:0.2;stroke:#7570b3;stroke-opacity:0.2;"/>
   </g>
   <g id="matplotlib.axis_1">
    <g id="xtick_1">
     <g id="line2d_1">
      <defs>
       <path d="M 0 0 
L 0 3.5 
" id="m95fa08bb32" style="stroke:#000000;stroke-width:0.8;"/>
      </defs>
      <g>
       <use style="stroke:#000000;stroke-width:0.8;" x="48.2375" xlink:href="#m95fa08bb32" y="421.2"/>
      </g>
     </g>
     <g id="text_1">
      <!-- 0.001 -->
      <g transform="translate(10.704688 449.673438)scale(0.3 -0.3)">
       <defs>
        <path d="M 266 2259 
Q 266 3072 433 3567 
Q 600 4063 929 4331 
Q 1259 4600 1759 4600 
Q 2128 4600 2406 4451 
Q 2684 4303 2865 4023 
Q 3047 3744 3150 3342 
Q 3253 2941 3253 2259 
Q 3253 1453 3087 958 
Q 2922 463 2592 192 
Q 2263 -78 1759 -78 
Q 1097 -78 719 397 
Q 266 969 266 2259 
z
M 844 2259 
Q 844 1131 1108 757 
Q 1372 384 1759 384 
Q 2147 384 2411 759 
Q 2675 1134 2675 2259 
Q 2675 3391 2411 3762 
Q 2147 4134 1753 4134 
Q 1366 4134 1134 3806 
Q 844 3388 844 2259 
z
" id="ArialMT-30" transform="scale(0.015625)"/>
        <path d="M 581 0 
L 581 641 
L 1222 641 
L 1222 0 
L 581 0 
z
" id="ArialMT-2e" transform="scale(0.015625)"/>
        <path d="M 2384 0 
L 1822 0 
L 1822 3584 
Q 1619 3391 1289 3197 
Q 959 3003 697 2906 
L 697 3450 
Q 1169 3672 1522 3987 
Q 1875 4303 2022 4600 
L 2384 4600 
L 2384 0 
z
" id="ArialMT-31" transform="scale(0.015625)"/>
       </defs>
       <use xlink:href="#ArialMT-30"/>
       <use x="55.615234" xlink:href="#ArialMT-2e"/>
       <use x="83.398438" xlink:href="#ArialMT-30"/>
       <use x="139.013672" xlink:href="#ArialMT-30"/>
       <use x="194.628906" xlink:href="#ArialMT-31"/>
      </g>
     </g>
    </g>
    <g id="xtick_2">
     <g id="line2d_2">
      <g>
       <use style="stroke:#000000;stroke-width:0.8;" x="232.410356" xlink:href="#m95fa08bb32" y="421.2"/>
      </g>
     </g>
     <g id="text_2">
      <!-- 0.005 -->
      <g transform="translate(194.877544 449.673438)scale(0.3 -0.3)">
       <defs>
        <path d="M 266 1200 
L 856 1250 
Q 922 819 1161 601 
Q 1400 384 1738 384 
Q 2144 384 2425 690 
Q 2706 997 2706 1503 
Q 2706 1984 2436 2262 
Q 2166 2541 1728 2541 
Q 1456 2541 1237 2417 
Q 1019 2294 894 2097 
L 366 2166 
L 809 4519 
L 3088 4519 
L 3088 3981 
L 1259 3981 
L 1013 2750 
Q 1425 3038 1878 3038 
Q 2478 3038 2890 2622 
Q 3303 2206 3303 1553 
Q 3303 931 2941 478 
Q 2500 -78 1738 -78 
Q 1113 -78 717 272 
Q 322 622 266 1200 
z
" id="ArialMT-35" transform="scale(0.015625)"/>
       </defs>
       <use xlink:href="#ArialMT-30"/>
       <use x="55.615234" xlink:href="#ArialMT-2e"/>
       <use x="83.398438" xlink:href="#ArialMT-30"/>
       <use x="139.013672" xlink:href="#ArialMT-30"/>
       <use x="194.628906" xlink:href="#ArialMT-35"/>
      </g>
     </g>
    </g>
    <g id="xtick_3">
     <g id="line2d_3">
      <g>
       <use style="stroke:#000000;stroke-width:0.8;" x="311.729288" xlink:href="#m95fa08bb32" y="421.2"/>
      </g>
     </g>
     <g id="text_3">
      <!-- 0.01 -->
      <g transform="translate(282.537882 449.673438)scale(0.3 -0.3)">
       <use xlink:href="#ArialMT-30"/>
       <use x="55.615234" xlink:href="#ArialMT-2e"/>
       <use x="83.398438" xlink:href="#ArialMT-30"/>
       <use x="139.013672" xlink:href="#ArialMT-31"/>
      </g>
     </g>
    </g>
    <g id="xtick_4">
     <g id="line2d_4">
      <g>
       <use style="stroke:#000000;stroke-width:0.8;" x="495.902144" xlink:href="#m95fa08bb32" y="421.2"/>
      </g>
     </g>
     <g id="text_4">
      <!-- 0.05 -->
      <g transform="translate(466.710738 449.673438)scale(0.3 -0.3)">
       <use xlink:href="#ArialMT-30"/>
       <use x="55.615234" xlink:href="#ArialMT-2e"/>
       <use x="83.398438" xlink:href="#ArialMT-30"/>
       <use x="139.013672" xlink:href="#ArialMT-35"/>
      </g>
     </g>
    </g>
    <g id="xtick_5">
     <g id="line2d_5">
      <g>
       <use style="stroke:#000000;stroke-width:0.8;" x="575.221076" xlink:href="#m95fa08bb32" y="421.2"/>
      </g>
     </g>
     <g id="text_5">
      <!-- 0.1 -->
      <g transform="translate(554.371076 449.673438)scale(0.3 -0.3)">
       <use xlink:href="#ArialMT-30"/>
       <use x="55.615234" xlink:href="#ArialMT-2e"/>
       <use x="83.398438" xlink:href="#ArialMT-31"/>
      </g>
     </g>
    </g>
    <g id="xtick_6">
     <g id="line2d_6">
      <g>
       <use style="stroke:#000000;stroke-width:0.8;" x="680.075" xlink:href="#m95fa08bb32" y="421.2"/>
      </g>
     </g>
     <g id="text_6">
      <!-- 0.25 -->
      <g transform="translate(650.883594 449.673438)scale(0.3 -0.3)">
       <defs>
        <path d="M 3222 541 
L 3222 0 
L 194 0 
Q 188 203 259 391 
Q 375 700 629 1000 
Q 884 1300 1366 1694 
Q 2113 2306 2375 2664 
Q 2638 3022 2638 3341 
Q 2638 3675 2398 3904 
Q 2159 4134 1775 4134 
Q 1369 4134 1125 3890 
Q 881 3647 878 3216 
L 300 3275 
Q 359 3922 746 4261 
Q 1134 4600 1788 4600 
Q 2447 4600 2831 4234 
Q 3216 3869 3216 3328 
Q 3216 3053 3103 2787 
Q 2991 2522 2730 2228 
Q 2469 1934 1863 1422 
Q 1356 997 1212 845 
Q 1069 694 975 541 
L 3222 541 
z
" id="ArialMT-32" transform="scale(0.015625)"/>
       </defs>
       <use xlink:href="#ArialMT-30"/>
       <use x="55.615234" xlink:href="#ArialMT-2e"/>
       <use x="83.398438" xlink:href="#ArialMT-32"/>
       <use x="139.013672" xlink:href="#ArialMT-35"/>
      </g>
     </g>
    </g>
    <g id="xtick_7">
     <g id="line2d_7">
      <defs>
       <path d="M 0 0 
L 0 2 
" id="md03dff908a" style="stroke:#000000;stroke-width:0.6;"/>
      </defs>
      <g>
       <use style="stroke:#000000;stroke-width:0.6;" x="127.556432" xlink:href="#md03dff908a" y="421.2"/>
      </g>
     </g>
    </g>
    <g id="xtick_8">
     <g id="line2d_8">
      <g>
       <use style="stroke:#000000;stroke-width:0.6;" x="173.955032" xlink:href="#md03dff908a" y="421.2"/>
      </g>
     </g>
    </g>
    <g id="xtick_9">
     <g id="line2d_9">
      <g>
       <use style="stroke:#000000;stroke-width:0.6;" x="206.875363" xlink:href="#md03dff908a" y="421.2"/>
      </g>
     </g>
    </g>
    <g id="xtick_10">
     <g id="line2d_10">
      <g>
       <use style="stroke:#000000;stroke-width:0.6;" x="253.273964" xlink:href="#md03dff908a" y="421.2"/>
      </g>
     </g>
    </g>
    <g id="xtick_11">
     <g id="line2d_11">
      <g>
       <use style="stroke:#000000;stroke-width:0.6;" x="270.913893" xlink:href="#md03dff908a" y="421.2"/>
      </g>
     </g>
    </g>
    <g id="xtick_12">
     <g id="line2d_12">
      <g>
       <use style="stroke:#000000;stroke-width:0.6;" x="286.194295" xlink:href="#md03dff908a" y="421.2"/>
      </g>
     </g>
    </g>
    <g id="xtick_13">
     <g id="line2d_13">
      <g>
       <use style="stroke:#000000;stroke-width:0.6;" x="299.672565" xlink:href="#md03dff908a" y="421.2"/>
      </g>
     </g>
    </g>
    <g id="xtick_14">
     <g id="line2d_14">
      <g>
       <use style="stroke:#000000;stroke-width:0.6;" x="391.04822" xlink:href="#md03dff908a" y="421.2"/>
      </g>
     </g>
    </g>
    <g id="xtick_15">
     <g id="line2d_15">
      <g>
       <use style="stroke:#000000;stroke-width:0.6;" x="437.44682" xlink:href="#md03dff908a" y="421.2"/>
      </g>
     </g>
    </g>
    <g id="xtick_16">
     <g id="line2d_16">
      <g>
       <use style="stroke:#000000;stroke-width:0.6;" x="470.367151" xlink:href="#md03dff908a" y="421.2"/>
      </g>
     </g>
    </g>
    <g id="xtick_17">
     <g id="line2d_17">
      <g>
       <use style="stroke:#000000;stroke-width:0.6;" x="516.765752" xlink:href="#md03dff908a" y="421.2"/>
      </g>
     </g>
    </g>
    <g id="xtick_18">
     <g id="line2d_18">
      <g>
       <use style="stroke:#000000;stroke-width:0.6;" x="534.405681" xlink:href="#md03dff908a" y="421.2"/>
      </g>
     </g>
    </g>
    <g id="xtick_19">
     <g id="line2d_19">
      <g>
       <use style="stroke:#000000;stroke-width:0.6;" x="549.686083" xlink:href="#md03dff908a" y="421.2"/>
      </g>
     </g>
    </g>
    <g id="xtick_20">
     <g id="line2d_20">
      <g>
       <use style="stroke:#000000;stroke-width:0.6;" x="563.164353" xlink:href="#md03dff908a" y="421.2"/>
      </g>
     </g>
    </g>
    <g id="xtick_21">
     <g id="line2d_21">
      <g>
       <use style="stroke:#000000;stroke-width:0.6;" x="654.540007" xlink:href="#md03dff908a" y="421.2"/>
      </g>
     </g>
    </g>
    <g id="text_7">
     <!-- Frequency (Hz) -->
     <g transform="translate(243.578516 485.114844)scale(0.35 -0.35)">
      <defs>
       <path d="M 525 0 
L 525 4581 
L 3616 4581 
L 3616 4041 
L 1131 4041 
L 1131 2622 
L 3281 2622 
L 3281 2081 
L 1131 2081 
L 1131 0 
L 525 0 
z
" id="ArialMT-46" transform="scale(0.015625)"/>
       <path d="M 416 0 
L 416 3319 
L 922 3319 
L 922 2816 
Q 1116 3169 1280 3281 
Q 1444 3394 1641 3394 
Q 1925 3394 2219 3213 
L 2025 2691 
Q 1819 2813 1613 2813 
Q 1428 2813 1281 2702 
Q 1134 2591 1072 2394 
Q 978 2094 978 1738 
L 978 0 
L 416 0 
z
" id="ArialMT-72" transform="scale(0.015625)"/>
       <path d="M 2694 1069 
L 3275 997 
Q 3138 488 2766 206 
Q 2394 -75 1816 -75 
Q 1088 -75 661 373 
Q 234 822 234 1631 
Q 234 2469 665 2931 
Q 1097 3394 1784 3394 
Q 2450 3394 2872 2941 
Q 3294 2488 3294 1666 
Q 3294 1616 3291 1516 
L 816 1516 
Q 847 969 1125 678 
Q 1403 388 1819 388 
Q 2128 388 2347 550 
Q 2566 713 2694 1069 
z
M 847 1978 
L 2700 1978 
Q 2663 2397 2488 2606 
Q 2219 2931 1791 2931 
Q 1403 2931 1139 2672 
Q 875 2413 847 1978 
z
" id="ArialMT-65" transform="scale(0.015625)"/>
       <path d="M 2538 -1272 
L 2538 353 
Q 2406 169 2170 47 
Q 1934 -75 1669 -75 
Q 1078 -75 651 397 
Q 225 869 225 1691 
Q 225 2191 398 2587 
Q 572 2984 901 3189 
Q 1231 3394 1625 3394 
Q 2241 3394 2594 2875 
L 2594 3319 
L 3100 3319 
L 3100 -1272 
L 2538 -1272 
z
M 803 1669 
Q 803 1028 1072 708 
Q 1341 388 1716 388 
Q 2075 388 2334 692 
Q 2594 997 2594 1619 
Q 2594 2281 2320 2615 
Q 2047 2950 1678 2950 
Q 1313 2950 1058 2639 
Q 803 2328 803 1669 
z
" id="ArialMT-71" transform="scale(0.015625)"/>
       <path d="M 2597 0 
L 2597 488 
Q 2209 -75 1544 -75 
Q 1250 -75 995 37 
Q 741 150 617 320 
Q 494 491 444 738 
Q 409 903 409 1263 
L 409 3319 
L 972 3319 
L 972 1478 
Q 972 1038 1006 884 
Q 1059 663 1231 536 
Q 1403 409 1656 409 
Q 1909 409 2131 539 
Q 2353 669 2445 892 
Q 2538 1116 2538 1541 
L 2538 3319 
L 3100 3319 
L 3100 0 
L 2597 0 
z
" id="ArialMT-75" transform="scale(0.015625)"/>
       <path d="M 422 0 
L 422 3319 
L 928 3319 
L 928 2847 
Q 1294 3394 1984 3394 
Q 2284 3394 2536 3286 
Q 2788 3178 2913 3003 
Q 3038 2828 3088 2588 
Q 3119 2431 3119 2041 
L 3119 0 
L 2556 0 
L 2556 2019 
Q 2556 2363 2490 2533 
Q 2425 2703 2258 2804 
Q 2091 2906 1866 2906 
Q 1506 2906 1245 2678 
Q 984 2450 984 1813 
L 984 0 
L 422 0 
z
" id="ArialMT-6e" transform="scale(0.015625)"/>
       <path d="M 2588 1216 
L 3141 1144 
Q 3050 572 2676 248 
Q 2303 -75 1759 -75 
Q 1078 -75 664 370 
Q 250 816 250 1647 
Q 250 2184 428 2587 
Q 606 2991 970 3192 
Q 1334 3394 1763 3394 
Q 2303 3394 2647 3120 
Q 2991 2847 3088 2344 
L 2541 2259 
Q 2463 2594 2264 2762 
Q 2066 2931 1784 2931 
Q 1359 2931 1093 2626 
Q 828 2322 828 1663 
Q 828 994 1084 691 
Q 1341 388 1753 388 
Q 2084 388 2306 591 
Q 2528 794 2588 1216 
z
" id="ArialMT-63" transform="scale(0.015625)"/>
       <path d="M 397 -1278 
L 334 -750 
Q 519 -800 656 -800 
Q 844 -800 956 -737 
Q 1069 -675 1141 -563 
Q 1194 -478 1313 -144 
Q 1328 -97 1363 -6 
L 103 3319 
L 709 3319 
L 1400 1397 
Q 1534 1031 1641 628 
Q 1738 1016 1872 1384 
L 2581 3319 
L 3144 3319 
L 1881 -56 
Q 1678 -603 1566 -809 
Q 1416 -1088 1222 -1217 
Q 1028 -1347 759 -1347 
Q 597 -1347 397 -1278 
z
" id="ArialMT-79" transform="scale(0.015625)"/>
       <path id="ArialMT-20" transform="scale(0.015625)"/>
       <path d="M 1497 -1347 
Q 1031 -759 709 28 
Q 388 816 388 1659 
Q 388 2403 628 3084 
Q 909 3875 1497 4659 
L 1900 4659 
Q 1522 4009 1400 3731 
Q 1209 3300 1100 2831 
Q 966 2247 966 1656 
Q 966 153 1900 -1347 
L 1497 -1347 
z
" id="ArialMT-28" transform="scale(0.015625)"/>
       <path d="M 513 0 
L 513 4581 
L 1119 4581 
L 1119 2700 
L 3500 2700 
L 3500 4581 
L 4106 4581 
L 4106 0 
L 3500 0 
L 3500 2159 
L 1119 2159 
L 1119 0 
L 513 0 
z
" id="ArialMT-48" transform="scale(0.015625)"/>
       <path d="M 125 0 
L 125 456 
L 2238 2881 
Q 1878 2863 1603 2863 
L 250 2863 
L 250 3319 
L 2963 3319 
L 2963 2947 
L 1166 841 
L 819 456 
Q 1197 484 1528 484 
L 3063 484 
L 3063 0 
L 125 0 
z
" id="ArialMT-7a" transform="scale(0.015625)"/>
       <path d="M 791 -1347 
L 388 -1347 
Q 1322 153 1322 1656 
Q 1322 2244 1188 2822 
Q 1081 3291 891 3722 
Q 769 4003 388 4659 
L 791 4659 
Q 1378 3875 1659 3084 
Q 1900 2403 1900 1659 
Q 1900 816 1576 28 
Q 1253 -759 791 -1347 
z
" id="ArialMT-29" transform="scale(0.015625)"/>
      </defs>
      <use xlink:href="#ArialMT-46"/>
      <use x="61.083984" xlink:href="#ArialMT-72"/>
      <use x="94.384766" xlink:href="#ArialMT-65"/>
      <use x="150" xlink:href="#ArialMT-71"/>
      <use x="205.615234" xlink:href="#ArialMT-75"/>
      <use x="261.230469" xlink:href="#ArialMT-65"/>
      <use x="316.845703" xlink:href="#ArialMT-6e"/>
      <use x="372.460938" xlink:href="#ArialMT-63"/>
      <use x="422.460938" xlink:href="#ArialMT-79"/>
      <use x="472.460938" xlink:href="#ArialMT-20"/>
      <use x="500.244141" xlink:href="#ArialMT-28"/>
      <use x="533.544922" xlink:href="#ArialMT-48"/>
      <use x="605.761719" xlink:href="#ArialMT-7a"/>
      <use x="655.761719" xlink:href="#ArialMT-29"/>
     </g>
    </g>
   </g>
   <g id="matplotlib.axis_2">
    <g id="text_8">
     <!-- Power Spectrum -->
     <g transform="translate(37.28125 345.346875)rotate(-90)scale(0.35 -0.35)">
      <defs>
       <path d="M 494 0 
L 494 4581 
L 2222 4581 
Q 2678 4581 2919 4538 
Q 3256 4481 3484 4323 
Q 3713 4166 3852 3881 
Q 3991 3597 3991 3256 
Q 3991 2672 3619 2267 
Q 3247 1863 2275 1863 
L 1100 1863 
L 1100 0 
L 494 0 
z
M 1100 2403 
L 2284 2403 
Q 2872 2403 3119 2622 
Q 3366 2841 3366 3238 
Q 3366 3525 3220 3729 
Q 3075 3934 2838 4000 
Q 2684 4041 2272 4041 
L 1100 4041 
L 1100 2403 
z
" id="ArialMT-50" transform="scale(0.015625)"/>
       <path d="M 213 1659 
Q 213 2581 725 3025 
Q 1153 3394 1769 3394 
Q 2453 3394 2887 2945 
Q 3322 2497 3322 1706 
Q 3322 1066 3130 698 
Q 2938 331 2570 128 
Q 2203 -75 1769 -75 
Q 1072 -75 642 372 
Q 213 819 213 1659 
z
M 791 1659 
Q 791 1022 1069 705 
Q 1347 388 1769 388 
Q 2188 388 2466 706 
Q 2744 1025 2744 1678 
Q 2744 2294 2464 2611 
Q 2184 2928 1769 2928 
Q 1347 2928 1069 2612 
Q 791 2297 791 1659 
z
" id="ArialMT-6f" transform="scale(0.015625)"/>
       <path d="M 1034 0 
L 19 3319 
L 600 3319 
L 1128 1403 
L 1325 691 
Q 1338 744 1497 1375 
L 2025 3319 
L 2603 3319 
L 3100 1394 
L 3266 759 
L 3456 1400 
L 4025 3319 
L 4572 3319 
L 3534 0 
L 2950 0 
L 2422 1988 
L 2294 2553 
L 1622 0 
L 1034 0 
z
" id="ArialMT-77" transform="scale(0.015625)"/>
       <path d="M 288 1472 
L 859 1522 
Q 900 1178 1048 958 
Q 1197 738 1509 602 
Q 1822 466 2213 466 
Q 2559 466 2825 569 
Q 3091 672 3220 851 
Q 3350 1031 3350 1244 
Q 3350 1459 3225 1620 
Q 3100 1781 2813 1891 
Q 2628 1963 1997 2114 
Q 1366 2266 1113 2400 
Q 784 2572 623 2826 
Q 463 3081 463 3397 
Q 463 3744 659 4045 
Q 856 4347 1234 4503 
Q 1613 4659 2075 4659 
Q 2584 4659 2973 4495 
Q 3363 4331 3572 4012 
Q 3781 3694 3797 3291 
L 3216 3247 
Q 3169 3681 2898 3903 
Q 2628 4125 2100 4125 
Q 1550 4125 1298 3923 
Q 1047 3722 1047 3438 
Q 1047 3191 1225 3031 
Q 1400 2872 2139 2705 
Q 2878 2538 3153 2413 
Q 3553 2228 3743 1945 
Q 3934 1663 3934 1294 
Q 3934 928 3725 604 
Q 3516 281 3123 101 
Q 2731 -78 2241 -78 
Q 1619 -78 1198 103 
Q 778 284 539 648 
Q 300 1013 288 1472 
z
" id="ArialMT-53" transform="scale(0.015625)"/>
       <path d="M 422 -1272 
L 422 3319 
L 934 3319 
L 934 2888 
Q 1116 3141 1344 3267 
Q 1572 3394 1897 3394 
Q 2322 3394 2647 3175 
Q 2972 2956 3137 2557 
Q 3303 2159 3303 1684 
Q 3303 1175 3120 767 
Q 2938 359 2589 142 
Q 2241 -75 1856 -75 
Q 1575 -75 1351 44 
Q 1128 163 984 344 
L 984 -1272 
L 422 -1272 
z
M 931 1641 
Q 931 1000 1190 694 
Q 1450 388 1819 388 
Q 2194 388 2461 705 
Q 2728 1022 2728 1688 
Q 2728 2322 2467 2637 
Q 2206 2953 1844 2953 
Q 1484 2953 1207 2617 
Q 931 2281 931 1641 
z
" id="ArialMT-70" transform="scale(0.015625)"/>
       <path d="M 1650 503 
L 1731 6 
Q 1494 -44 1306 -44 
Q 1000 -44 831 53 
Q 663 150 594 308 
Q 525 466 525 972 
L 525 2881 
L 113 2881 
L 113 3319 
L 525 3319 
L 525 4141 
L 1084 4478 
L 1084 3319 
L 1650 3319 
L 1650 2881 
L 1084 2881 
L 1084 941 
Q 1084 700 1114 631 
Q 1144 563 1211 522 
Q 1278 481 1403 481 
Q 1497 481 1650 503 
z
" id="ArialMT-74" transform="scale(0.015625)"/>
       <path d="M 422 0 
L 422 3319 
L 925 3319 
L 925 2853 
Q 1081 3097 1340 3245 
Q 1600 3394 1931 3394 
Q 2300 3394 2536 3241 
Q 2772 3088 2869 2813 
Q 3263 3394 3894 3394 
Q 4388 3394 4653 3120 
Q 4919 2847 4919 2278 
L 4919 0 
L 4359 0 
L 4359 2091 
Q 4359 2428 4304 2576 
Q 4250 2725 4106 2815 
Q 3963 2906 3769 2906 
Q 3419 2906 3187 2673 
Q 2956 2441 2956 1928 
L 2956 0 
L 2394 0 
L 2394 2156 
Q 2394 2531 2256 2718 
Q 2119 2906 1806 2906 
Q 1569 2906 1367 2781 
Q 1166 2656 1075 2415 
Q 984 2175 984 1722 
L 984 0 
L 422 0 
z
" id="ArialMT-6d" transform="scale(0.015625)"/>
      </defs>
      <use xlink:href="#ArialMT-50"/>
      <use x="66.699219" xlink:href="#ArialMT-6f"/>
      <use x="122.314453" xlink:href="#ArialMT-77"/>
      <use x="194.53125" xlink:href="#ArialMT-65"/>
      <use x="250.146484" xlink:href="#ArialMT-72"/>
      <use x="283.447266" xlink:href="#ArialMT-20"/>
      <use x="311.230469" xlink:href="#ArialMT-53"/>
      <use x="377.929688" xlink:href="#ArialMT-70"/>
      <use x="433.544922" xlink:href="#ArialMT-65"/>
      <use x="489.160156" xlink:href="#ArialMT-63"/>
      <use x="539.160156" xlink:href="#ArialMT-74"/>
      <use x="566.943359" xlink:href="#ArialMT-72"/>
      <use x="600.244141" xlink:href="#ArialMT-75"/>
      <use x="655.859375" xlink:href="#ArialMT-6d"/>
     </g>
    </g>
   </g>
   <g id="line2d_22">
    <path clip-path="url(#p23432def8e)" d="M -1 231.626781 
L 114.587887 231.543353 
L 193.906819 261.184764 
L 240.305419 285.961639 
L 273.22575 210.51356 
L 298.760743 313.919997 
L 319.624351 307.488943 
L 337.26428 297.938572 
L 352.544682 55.501863 
L 366.022952 313.074799 
L 378.079675 321.423747 
L 388.986307 318.875095 
L 398.943283 333.523004 
L 408.102812 335.404599 
L 416.583212 345.748996 
L 424.478275 354.513676 
L 431.863614 269.317581 
L 438.801073 349.188513 
L 445.341884 332.388483 
L 451.528959 348.090313 
L 457.398607 343.833856 
L 462.981813 351.713332 
L 468.305239 362.347138 
L 473.391989 364.091845 
L 478.262215 351.788771 
L 482.933599 358.322196 
L 487.421744 365.679408 
L 491.740484 364.22284 
L 495.902144 365.054201 
L 499.91775 359.321421 
L 503.797207 370.780054 
L 507.549446 367.09674 
L 511.182546 362.982838 
L 514.70384 373.547408 
L 518.120005 375.482363 
L 521.437137 371.206456 
L 524.660815 369.131164 
L 527.796163 366.641289 
L 530.847891 363.657335 
L 533.820345 369.485907 
L 536.717538 374.132353 
L 539.543189 372.094164 
L 542.300745 378.888596 
L 544.993411 379.007194 
L 547.624171 383.999337 
L 550.195808 373.907202 
L 552.710921 375.431408 
L 555.171941 380.330415 
L 557.581146 366.819371 
L 559.940674 381.734952 
L 562.252531 377.836 
L 564.518606 379.028044 
L 566.740676 385.466791 
L 568.920419 384.18967 
L 571.059416 378.248927 
L 573.159163 381.970597 
L 575.221076 378.232436 
L 577.246492 383.37281 
L 579.236682 382.19941 
L 581.192849 382.945494 
L 583.116139 385.728382 
L 585.007637 383.09004 
L 586.868378 387.171258 
L 588.699345 385.364314 
L 590.501477 384.219597 
L 592.275668 382.097817 
L 594.022772 381.73519 
L 595.743601 389.825568 
L 597.438937 382.984944 
L 599.109521 382.207123 
L 600.756068 383.504123 
L 602.379259 384.590441 
L 603.979747 385.199695 
L 605.558159 390.943694 
L 607.115095 385.922737 
L 608.651132 382.410382 
L 610.166823 388.740236 
L 611.662701 386.936897 
L 613.139277 392.077905 
L 614.597042 391.798355 
L 616.03647 388.901238 
L 617.458017 390.769751 
L 618.862121 388.745657 
L 620.249205 391.279154 
L 621.619676 391.17434 
L 622.973929 391.711823 
L 624.312342 393.253223 
L 625.635282 390.876375 
L 626.943103 389.56258 
L 628.236145 393.598204 
L 629.51474 392.715417 
L 630.779206 389.386476 
L 632.029853 390.796282 
L 633.266978 391.255061 
L 634.490873 391.857064 
L 636.900078 390.015025 
L 638.085923 394.120477 
L 639.259606 394.914585 
L 640.421372 389.28311 
L 641.571463 394.560047 
L 642.710109 395.565162 
L 643.837537 391.798966 
L 644.953966 394.268996 
L 646.059608 395.237059 
L 647.154669 395.444447 
L 648.23935 391.95917 
L 649.313847 396.980826 
L 650.378348 392.934798 
L 651.433037 394.698578 
L 652.478095 393.842901 
L 653.513695 392.798992 
L 654.540007 393.029947 
L 655.557197 392.24796 
L 656.565424 392.524294 
L 657.564845 398.611138 
L 658.555613 393.73227 
L 659.537877 396.320459 
L 660.511781 393.199988 
L 662.435071 394.652337 
L 663.384728 394.590703 
L 664.326569 397.070103 
L 665.260721 395.966673 
L 666.187309 395.539582 
L 667.106455 397.071282 
L 668.018277 397.109274 
L 669.820409 394.379713 
L 670.710943 398.330686 
L 671.5946 397.446071 
L 672.471486 395.268071 
L 673.341703 395.605204 
L 674.205353 399.002432 
L 675.062533 398.119049 
L 676.757868 394.967044 
L 678.428453 400.857228 
L 679.254688 399.372422 
L 680.075 408.490758 
L 680.075 408.490758 
" style="fill:none;stroke:#1b9e77;stroke-dasharray:12,4;stroke-dashoffset:0;stroke-width:2;"/>
   </g>
   <g id="line2d_23">
    <path clip-path="url(#p23432def8e)" d="M -1 268.040411 
L 114.587887 267.973008 
L 193.906819 290.259552 
L 240.305419 318.522315 
L 273.22575 256.08145 
L 298.760743 330.682932 
L 319.624351 339.008151 
L 337.26428 344.582455 
L 352.544682 141.497316 
L 366.022952 338.703105 
L 378.079675 350.88044 
L 388.986307 342.329232 
L 398.943283 336.666538 
L 408.102812 349.550978 
L 416.583212 356.637441 
L 424.478275 349.697312 
L 431.863614 309.787361 
L 438.801073 351.476089 
L 445.341884 367.070684 
L 451.528959 361.708944 
L 457.398607 364.997376 
L 462.981813 370.800472 
L 468.305239 370.787064 
L 473.391989 377.960394 
L 478.262215 363.101799 
L 482.933599 380.045469 
L 487.421744 374.194597 
L 491.740484 380.283982 
L 495.902144 361.47913 
L 499.91775 376.107836 
L 503.797207 377.458794 
L 507.549446 384.405388 
L 511.182546 379.909271 
L 514.70384 375.03947 
L 518.120005 382.007368 
L 521.437137 383.564878 
L 524.660815 377.46264 
L 527.796163 384.98016 
L 530.847891 384.936622 
L 533.820345 390.029446 
L 536.717538 384.019155 
L 539.543189 384.883423 
L 542.300745 385.432762 
L 544.993411 378.627558 
L 547.624171 385.859862 
L 550.195808 382.178963 
L 552.710921 391.344519 
L 555.171941 383.472682 
L 557.581146 384.388812 
L 559.940674 392.164777 
L 562.252531 392.022189 
L 564.518606 386.260233 
L 566.740676 391.309812 
L 568.920419 391.269918 
L 571.059416 391.772162 
L 573.159163 388.444304 
L 575.221076 386.276829 
L 577.246492 392.285043 
L 579.236682 388.456145 
L 581.192849 393.386486 
L 583.116139 390.225058 
L 585.007637 395.08683 
L 586.868378 390.52954 
L 588.699345 389.579514 
L 590.501477 389.183661 
L 592.275668 393.388322 
L 594.022772 391.261761 
L 595.743601 392.633808 
L 597.438937 397.490033 
L 599.109521 389.724207 
L 600.756068 393.769361 
L 602.379259 391.652354 
L 603.979747 393.083773 
L 605.558159 394.717301 
L 607.115095 394.675917 
L 608.651132 396.879617 
L 610.166823 391.756444 
L 611.662701 395.036717 
L 613.139277 396.038026 
L 614.597042 395.907021 
L 616.03647 395.490172 
L 617.458017 400.144788 
L 618.862121 395.651826 
L 620.249205 397.629398 
L 621.619676 394.803582 
L 622.973929 398.281887 
L 624.312342 397.437984 
L 625.635282 398.526517 
L 626.943103 394.584133 
L 628.236145 395.816022 
L 629.51474 397.771087 
L 630.779206 394.020219 
L 632.029853 397.744658 
L 633.266978 397.763892 
L 634.490873 401.503737 
L 635.701816 400.929071 
L 636.900078 393.155752 
L 638.085923 396.653272 
L 639.259606 396.943901 
L 640.421372 400.837614 
L 641.571463 398.314426 
L 642.710109 400.421108 
L 643.837537 399.198203 
L 644.953966 399.63841 
L 646.059608 396.278167 
L 648.23935 398.719664 
L 649.313847 400.174548 
L 650.378348 397.646347 
L 651.433037 399.648338 
L 652.478095 398.094532 
L 653.513695 402.879586 
L 654.540007 398.315317 
L 655.557197 402.3605 
L 656.565424 401.543015 
L 658.555613 399.476631 
L 659.537877 401.788689 
L 660.511781 398.716609 
L 661.477467 401.970861 
L 662.435071 401.268642 
L 664.326569 398.676363 
L 665.260721 398.827581 
L 666.187309 401.393862 
L 667.106455 400.970766 
L 668.018277 399.988548 
L 668.922891 400.530045 
L 669.820409 401.542243 
L 670.710943 399.011728 
L 671.5946 399.266003 
L 672.471486 399.270587 
L 673.341703 397.743671 
L 674.205353 402.877619 
L 675.062533 404.070213 
L 675.91334 402.231376 
L 676.757868 400.739277 
L 677.596209 403.512562 
L 678.428453 397.263742 
L 679.254688 400.715182 
L 680.075 411.563866 
L 680.075 411.563866 
" style="fill:none;stroke:#8b4513;stroke-dasharray:4,4,20,4;stroke-dashoffset:0;stroke-width:2;"/>
   </g>
   <g id="line2d_24">
    <path clip-path="url(#p23432def8e)" d="M -1 281.629918 
L 186.011755 281.530542 
L 265.330687 303.455201 
L 311.729288 330.82961 
L 344.649619 335.520269 
L 370.184611 351.730029 
L 391.04822 354.425794 
L 408.688149 357.247955 
L 423.968551 364.277543 
L 437.44682 365.57897 
L 449.503543 368.524766 
L 460.410176 368.363549 
L 470.367151 372.87012 
L 479.526681 370.511344 
L 488.007081 371.95517 
L 495.902144 371.15111 
L 503.287482 374.623047 
L 510.224942 369.902547 
L 516.765752 367.243584 
L 522.952828 371.763357 
L 528.822475 373.717226 
L 534.405681 376.185891 
L 539.729108 375.789938 
L 544.815857 374.152983 
L 549.686083 374.202463 
L 554.357468 377.189892 
L 558.845613 375.520527 
L 563.164353 376.592796 
L 567.326012 380.142648 
L 571.341618 380.843418 
L 575.221076 379.427453 
L 578.973314 374.666286 
L 582.606414 377.323571 
L 586.127708 382.320138 
L 589.543873 382.681802 
L 592.861005 384.713587 
L 596.084684 389.963849 
L 599.220031 389.289375 
L 602.27176 386.085325 
L 605.244213 390.68355 
L 608.141407 390.51114 
L 610.967057 384.570862 
L 613.724613 391.824548 
L 616.417279 392.068051 
L 619.048039 392.988384 
L 621.619676 392.331555 
L 624.134789 384.107739 
L 626.595809 389.335316 
L 629.005015 393.261855 
L 631.364542 391.859023 
L 633.676399 394.917744 
L 635.942474 395.116895 
L 638.164544 390.47675 
L 640.344287 394.108364 
L 642.483284 391.5491 
L 644.583032 393.865151 
L 646.644944 395.373853 
L 648.67036 391.344471 
L 650.66055 393.039987 
L 652.616718 393.061028 
L 654.540007 399.679164 
L 656.431506 395.554139 
L 658.292246 392.830292 
L 660.123214 397.458514 
L 661.925346 399.415365 
L 663.699537 394.597033 
L 665.44664 397.583007 
L 667.16747 398.505162 
L 668.862805 398.322463 
L 670.53339 397.082782 
L 672.179937 397.052079 
L 673.803127 397.191996 
L 675.403615 398.902823 
L 676.982027 397.685976 
L 678.538963 399.15439 
L 680.075 411.076106 
" style="fill:none;stroke:#7570b3;stroke-dasharray:2,2;stroke-dashoffset:0;stroke-width:2;"/>
   </g>
   <g id="line2d_25"/>
   <g id="line2d_26"/>
   <g id="line2d_27"/>
   <g id="patch_3">
    <path d="M 48.2375 421.2 
L 48.2375 10.8 
" style="fill:none;stroke:#000000;stroke-linecap:square;stroke-linejoin:miter;stroke-width:0.8;"/>
   </g>
   <g id="patch_4">
    <path d="M 48.2375 421.2 
L 680.075 421.2 
" style="fill:none;stroke:#000000;stroke-linecap:square;stroke-linejoin:miter;stroke-width:0.8;"/>
   </g>
   <g id="legend_1">
    <g id="patch_5">
     <path d="M 508.922656 137.194531 
L 662.575 137.194531 
Q 667.575 137.194531 667.575 132.194531 
L 667.575 28.3 
Q 667.575 23.3 662.575 23.3 
L 508.922656 23.3 
Q 503.922656 23.3 503.922656 28.3 
L 503.922656 132.194531 
Q 503.922656 137.194531 508.922656 137.194531 
z
" style="fill:#ffffff;opacity:0.8;stroke:#cccccc;stroke-linejoin:miter;"/>
    </g>
    <g id="line2d_28">
     <path d="M 513.922656 42.749219 
L 563.922656 42.749219 
" style="fill:none;stroke:#1b9e77;stroke-dasharray:9,3;stroke-dashoffset:0;stroke-width:1.5;"/>
    </g>
    <g id="line2d_29"/>
    <g id="text_9">
     <!-- Stroop -->
     <g transform="translate(583.922656 51.499219)scale(0.25 -0.25)">
      <use xlink:href="#ArialMT-53"/>
      <use x="66.699219" xlink:href="#ArialMT-74"/>
      <use x="94.482422" xlink:href="#ArialMT-72"/>
      <use x="127.783203" xlink:href="#ArialMT-6f"/>
      <use x="183.398438" xlink:href="#ArialMT-6f"/>
      <use x="239.013672" xlink:href="#ArialMT-70"/>
     </g>
    </g>
    <g id="line2d_30">
     <path d="M 513.922656 78.1125 
L 563.922656 78.1125 
" style="fill:none;stroke:#8b4513;stroke-dasharray:3,3,15,3;stroke-dashoffset:0;stroke-width:1.5;"/>
    </g>
    <g id="line2d_31"/>
    <g id="text_10">
     <!-- MSIT -->
     <g transform="translate(583.922656 86.8625)scale(0.25 -0.25)">
      <defs>
       <path d="M 475 0 
L 475 4581 
L 1388 4581 
L 2472 1338 
Q 2622 884 2691 659 
Q 2769 909 2934 1394 
L 4031 4581 
L 4847 4581 
L 4847 0 
L 4263 0 
L 4263 3834 
L 2931 0 
L 2384 0 
L 1059 3900 
L 1059 0 
L 475 0 
z
" id="ArialMT-4d" transform="scale(0.015625)"/>
       <path d="M 597 0 
L 597 4581 
L 1203 4581 
L 1203 0 
L 597 0 
z
" id="ArialMT-49" transform="scale(0.015625)"/>
       <path d="M 1659 0 
L 1659 4041 
L 150 4041 
L 150 4581 
L 3781 4581 
L 3781 4041 
L 2266 4041 
L 2266 0 
L 1659 0 
z
" id="ArialMT-54" transform="scale(0.015625)"/>
      </defs>
      <use xlink:href="#ArialMT-4d"/>
      <use x="83.300781" xlink:href="#ArialMT-53"/>
      <use x="150" xlink:href="#ArialMT-49"/>
      <use x="177.783203" xlink:href="#ArialMT-54"/>
     </g>
    </g>
    <g id="line2d_32">
     <path d="M 513.922656 113.475781 
L 563.922656 113.475781 
" style="fill:none;stroke:#7570b3;stroke-dasharray:1.5,1.5;stroke-dashoffset:0;stroke-width:1.5;"/>
    </g>
    <g id="line2d_33"/>
    <g id="text_11">
     <!-- Rest -->
     <g transform="translate(583.922656 122.225781)scale(0.25 -0.25)">
      <defs>
       <path d="M 503 0 
L 503 4581 
L 2534 4581 
Q 3147 4581 3465 4457 
Q 3784 4334 3975 4021 
Q 4166 3709 4166 3331 
Q 4166 2844 3850 2509 
Q 3534 2175 2875 2084 
Q 3116 1969 3241 1856 
Q 3506 1613 3744 1247 
L 4541 0 
L 3778 0 
L 3172 953 
Q 2906 1366 2734 1584 
Q 2563 1803 2427 1890 
Q 2291 1978 2150 2013 
Q 2047 2034 1813 2034 
L 1109 2034 
L 1109 0 
L 503 0 
z
M 1109 2559 
L 2413 2559 
Q 2828 2559 3062 2645 
Q 3297 2731 3419 2920 
Q 3541 3109 3541 3331 
Q 3541 3656 3305 3865 
Q 3069 4075 2559 4075 
L 1109 4075 
L 1109 2559 
z
" id="ArialMT-52" transform="scale(0.015625)"/>
       <path d="M 197 991 
L 753 1078 
Q 800 744 1014 566 
Q 1228 388 1613 388 
Q 2000 388 2187 545 
Q 2375 703 2375 916 
Q 2375 1106 2209 1216 
Q 2094 1291 1634 1406 
Q 1016 1563 777 1677 
Q 538 1791 414 1992 
Q 291 2194 291 2438 
Q 291 2659 392 2848 
Q 494 3038 669 3163 
Q 800 3259 1026 3326 
Q 1253 3394 1513 3394 
Q 1903 3394 2198 3281 
Q 2494 3169 2634 2976 
Q 2775 2784 2828 2463 
L 2278 2388 
Q 2241 2644 2061 2787 
Q 1881 2931 1553 2931 
Q 1166 2931 1000 2803 
Q 834 2675 834 2503 
Q 834 2394 903 2306 
Q 972 2216 1119 2156 
Q 1203 2125 1616 2013 
Q 2213 1853 2448 1751 
Q 2684 1650 2818 1456 
Q 2953 1263 2953 975 
Q 2953 694 2789 445 
Q 2625 197 2315 61 
Q 2006 -75 1616 -75 
Q 969 -75 630 194 
Q 291 463 197 991 
z
" id="ArialMT-73" transform="scale(0.015625)"/>
      </defs>
      <use xlink:href="#ArialMT-52"/>
      <use x="72.216797" xlink:href="#ArialMT-65"/>
      <use x="127.832031" xlink:href="#ArialMT-73"/>
      <use x="177.832031" xlink:href="#ArialMT-74"/>
     </g>
    </g>
   </g>
  </g>
 </g>
 <defs>
  <clipPath id="p23432def8e">
   <rect height="410.4" width="631.8375" x="48.2375" y="10.8"/>
  </clipPath>
 </defs>
</svg>
