<?xml version="1.0" encoding="utf-8" standalone="no"?>
<!DOCTYPE svg PUBLIC "-//W3C//DTD SVG 1.1//EN"
  "http://www.w3.org/Graphics/SVG/1.1/DTD/svg11.dtd">
<!-- Created with matplotlib (https://matplotlib.org/) -->
<svg height="504pt" version="1.1" viewBox="0 0 720 504" width="720pt" xmlns="http://www.w3.org/2000/svg" xmlns:xlink="http://www.w3.org/1999/xlink">
 <metadata>
  <rdf:RDF xmlns:cc="http://creativecommons.org/ns#" xmlns:dc="http://purl.org/dc/elements/1.1/" xmlns:rdf="http://www.w3.org/1999/02/22-rdf-syntax-ns#">
   <cc:Work>
    <dc:type rdf:resource="http://purl.org/dc/dcmitype/StillImage"/>
    <dc:date>2021-05-10T17:18:44.178588</dc:date>
    <dc:format>image/svg+xml</dc:format>
    <dc:creator>
     <cc:Agent>
      <dc:title>Matplotlib v3.3.2, https://matplotlib.org/</dc:title>
     </cc:Agent>
    </dc:creator>
   </cc:Work>
  </rdf:RDF>
 </metadata>
 <defs>
  <style type="text/css">*{stroke-linecap:butt;stroke-linejoin:round;}</style>
 </defs>
 <g id="figure_1">
  <g id="patch_1">
   <path d="M 0 504 
L 720 504 
L 720 0 
L 0 0 
z
" style="fill:none;"/>
  </g>
  <g id="axes_1">
   <g id="patch_2">
    <path d="M 39.425 439.2 
L 686.95 439.2 
L 686.95 10.8 
L 39.425 10.8 
z
" style="fill:#ffffff;"/>
   </g>
   <g id="PolyCollection_1">
    <path clip-path="url(#p756364e160)" d="M -269184.334838 444.622785 
L -269184.334838 444.622785 
L 107.422759 278.433271 
L 188.711052 313.945313 
L 236.261654 326.061208 
L 269.999344 260.603786 
L 296.168329 345.841072 
L 317.549946 353.772792 
L 335.627846 350.946899 
L 351.287636 66.070185 
L 365.100549 342.734388 
L 377.456621 355.810689 
L 388.634047 355.098324 
L 398.838238 358.284677 
L 408.225184 363.48758 
L 416.916139 366.62563 
L 425.007223 368.865705 
L 432.575928 297.632118 
L 439.685633 378.509409 
L 446.388841 375.679019 
L 452.729532 372.119651 
L 458.744913 382.010843 
L 464.466741 384.044825 
L 469.92234 386.938252 
L 475.135385 389.132959 
L 480.126531 373.689005 
L 484.913898 389.326305 
L 489.513476 389.972301 
L 493.939444 389.880223 
L 498.204431 388.339181 
L 502.319738 385.115619 
L 506.295516 392.59954 
L 510.140916 388.026609 
L 513.86422 381.396007 
L 517.472942 396.755402 
L 520.973925 398.92544 
L 524.373416 395.755734 
L 527.677133 391.09781 
L 530.890326 395.950058 
L 534.017824 392.170271 
L 537.064079 399.978629 
L 540.033205 391.594109 
L 542.929012 400.258869 
L 545.755033 401.974115 
L 548.514554 405.12382 
L 551.210632 403.428215 
L 553.846118 399.25169 
L 556.423677 399.787042 
L 558.945801 401.660454 
L 561.414823 389.881335 
L 563.832933 406.605714 
L 566.20219 403.602251 
L 568.524528 403.150071 
L 570.801769 405.342655 
L 573.035631 408.639421 
L 575.227736 400.83102 
L 577.379617 406.201635 
L 579.492723 400.038198 
L 581.568427 404.760392 
L 583.60803 406.860282 
L 585.612766 408.468408 
L 587.583808 408.338869 
L 589.522269 404.884059 
L 591.429209 407.5552 
L 593.305636 406.353693 
L 595.152512 407.704599 
L 596.970754 408.45499 
L 598.761234 404.581419 
L 600.52479 409.529326 
L 602.262217 408.448628 
L 603.97428 408.237937 
L 605.661708 406.510494 
L 607.3252 406.671604 
L 608.965425 405.782123 
L 610.583026 410.051516 
L 612.178619 408.139542 
L 613.752793 408.433404 
L 615.306116 412.921395 
L 616.839134 412.419436 
L 618.352371 412.589413 
L 619.84633 413.692511 
L 621.321497 413.576201 
L 622.778339 410.535679 
L 624.217304 411.984661 
L 625.638827 415.069036 
L 627.043325 411.471578 
L 628.431202 412.23135 
L 629.802846 415.335156 
L 631.158633 416.280908 
L 632.498924 412.4942 
L 633.82407 415.009103 
L 635.13441 414.317346 
L 636.430271 410.260905 
L 637.711969 416.32513 
L 638.979811 414.692875 
L 640.234093 414.49258 
L 641.475101 415.850539 
L 642.703115 409.779572 
L 643.918403 414.290217 
L 645.121226 415.677542 
L 646.311837 411.960525 
L 647.490482 416.803972 
L 648.6574 413.28047 
L 649.81282 414.613741 
L 650.956968 417.571824 
L 652.090061 415.252866 
L 653.212311 418.077726 
L 654.323923 416.018638 
L 655.425097 417.736994 
L 656.516028 413.948513 
L 657.596904 417.52871 
L 658.667909 418.135186 
L 659.729221 415.771159 
L 660.781015 415.364451 
L 661.823459 415.690937 
L 662.856719 414.053714 
L 663.880954 420.981308 
L 664.896322 415.804133 
L 665.902974 418.502766 
L 666.901058 416.532302 
L 667.89072 415.285378 
L 668.8721 416.853308 
L 669.845335 416.459004 
L 670.810561 417.74395 
L 671.767907 418.369845 
L 672.717501 418.005293 
L 673.659467 418.290112 
L 674.593928 418.801319 
L 675.521002 418.423176 
L 676.440804 415.906937 
L 677.353449 417.905752 
L 678.259046 420.544511 
L 679.157703 416.845255 
L 680.049526 415.745368 
L 680.934619 418.684258 
L 681.813082 420.215088 
L 682.685013 417.017223 
L 683.550509 418.830996 
L 684.409665 421.675805 
L 685.262572 421.469656 
L 686.109321 420.001218 
L 686.109321 411.80887 
L 686.109321 411.80887 
L 685.262572 414.350438 
L 684.409665 413.84147 
L 683.550509 411.376889 
L 682.685013 408.433348 
L 681.813082 413.314047 
L 680.934619 408.98478 
L 680.049526 406.037186 
L 679.157703 408.476458 
L 678.259046 413.826518 
L 677.353449 410.295923 
L 676.440804 407.07677 
L 675.521002 409.756015 
L 674.593928 410.625131 
L 673.659467 410.265309 
L 672.717501 409.240903 
L 671.767907 410.477797 
L 670.810561 408.809917 
L 669.845335 407.786102 
L 668.8721 408.753144 
L 667.89072 406.373011 
L 666.901058 407.697529 
L 665.902974 409.435104 
L 664.896322 406.789984 
L 663.880954 413.458077 
L 662.856719 405.087524 
L 661.823459 407.084256 
L 660.781015 403.911142 
L 659.729221 406.642276 
L 658.667909 410.486288 
L 657.596904 409.526765 
L 656.516028 404.023473 
L 655.425097 410.282306 
L 654.323923 407.087527 
L 653.212311 409.836478 
L 652.090061 406.771097 
L 650.956968 409.078721 
L 649.81282 404.554254 
L 648.6574 404.782182 
L 647.490482 408.479384 
L 646.311837 401.780669 
L 645.121226 405.093323 
L 643.918403 405.374551 
L 642.703115 398.922502 
L 641.475101 406.723218 
L 640.234093 405.87636 
L 638.979811 404.824007 
L 637.711969 405.391691 
L 636.430271 400.227179 
L 635.13441 401.797626 
L 633.82407 405.131748 
L 632.498924 403.846915 
L 631.158633 408.050978 
L 629.802846 405.693426 
L 628.431202 403.09209 
L 627.043325 400.026518 
L 625.638827 405.351814 
L 624.217304 401.361024 
L 622.778339 398.353055 
L 621.321497 404.171544 
L 619.84633 403.598318 
L 618.352371 402.32682 
L 616.839134 402.687357 
L 615.306116 404.137309 
L 613.752793 397.762528 
L 612.178619 396.307888 
L 610.583026 398.300347 
L 608.965425 393.709207 
L 607.3252 395.466181 
L 605.661708 394.592049 
L 603.97428 397.959915 
L 602.262217 396.826491 
L 600.52479 397.817994 
L 598.761234 391.377218 
L 596.970754 398.633618 
L 595.152512 396.585193 
L 593.305636 393.922144 
L 591.429209 396.089118 
L 589.522269 394.624341 
L 587.583808 397.084385 
L 585.612766 398.079251 
L 583.60803 394.735373 
L 581.568427 392.159753 
L 579.492723 386.25908 
L 577.379617 394.431321 
L 575.227736 384.393486 
L 573.035631 398.892711 
L 570.801769 392.192546 
L 568.524528 390.246531 
L 566.20219 390.972755 
L 563.832933 394.227161 
L 561.414823 373.879821 
L 558.945801 388.190451 
L 556.423677 386.773126 
L 553.846118 386.178993 
L 551.210632 390.107128 
L 548.514554 393.682638 
L 545.755033 388.800939 
L 542.929012 386.838519 
L 540.033205 374.361907 
L 537.064079 386.495914 
L 534.017824 378.500182 
L 530.890326 382.164952 
L 527.677133 374.552761 
L 524.373416 378.996578 
L 520.973925 384.114546 
L 517.472942 381.738248 
L 513.86422 362.269935 
L 510.140916 371.213817 
L 506.295516 374.450851 
L 502.319738 365.481707 
L 498.204431 370.962967 
L 493.939444 373.619867 
L 489.513476 372.570577 
L 484.913898 372.294729 
L 480.126531 353.057021 
L 475.135385 372.701937 
L 469.92234 369.94079 
L 464.466741 364.969695 
L 458.744913 362.653743 
L 452.729532 350.378513 
L 446.388841 354.655235 
L 439.685633 358.909878 
L 432.575928 263.655058 
L 425.007223 344.356533 
L 416.916139 342.107525 
L 408.225184 342.843704 
L 398.838238 331.627886 
L 388.634047 329.461321 
L 377.456621 329.880755 
L 365.100549 312.910286 
L 351.287636 20.968175 
L 335.627846 324.357232 
L 317.549946 326.198007 
L 296.168329 317.283459 
L 269.999344 219.49776 
L 236.261654 292.921274 
L 188.711052 278.510613 
L 107.422759 238.20561 
L -269184.334838 444.622785 
z
" style="fill-opacity:0.2;stroke:#000000;stroke-opacity:0.2;"/>
   </g>
   <g id="PolyCollection_2">
    <path clip-path="url(#p756364e160)" d="M -269184.334838 444.622785 
L -269184.334838 444.622785 
L 107.422759 275.381321 
L 188.711052 298.673261 
L 236.261654 322.611598 
L 269.999344 269.529222 
L 296.168329 338.552454 
L 317.549946 347.311182 
L 335.627846 346.904535 
L 351.287636 81.368122 
L 365.100549 351.42946 
L 377.456621 353.865637 
L 388.634047 350.656651 
L 398.838238 345.655718 
L 408.225184 362.856281 
L 416.916139 369.293332 
L 425.007223 362.774177 
L 432.575928 285.777493 
L 439.685633 371.908395 
L 446.388841 377.110447 
L 452.729532 369.489548 
L 458.744913 372.940144 
L 464.466741 382.312219 
L 469.92234 379.724869 
L 475.135385 389.499278 
L 480.126531 363.326959 
L 484.913898 390.220897 
L 489.513476 393.545005 
L 493.939444 389.219098 
L 498.204431 375.117172 
L 502.319738 388.046523 
L 506.295516 388.855538 
L 510.140916 397.511515 
L 513.86422 380.50032 
L 517.472942 392.067274 
L 520.973925 400.097138 
L 524.373416 400.13732 
L 527.677133 393.351932 
L 530.890326 395.869989 
L 534.017824 393.889015 
L 537.064079 393.390164 
L 540.033205 390.609511 
L 542.929012 392.158447 
L 545.755033 396.566024 
L 548.514554 393.687299 
L 551.210632 397.905315 
L 553.846118 394.288964 
L 556.423677 403.820617 
L 558.945801 395.475599 
L 561.414823 395.054921 
L 563.832933 403.176539 
L 566.20219 404.493713 
L 568.524528 397.888203 
L 570.801769 401.954386 
L 573.035631 399.683255 
L 575.227736 406.091143 
L 577.379617 398.672043 
L 579.492723 400.286679 
L 581.568427 406.283322 
L 583.60803 404.064441 
L 585.612766 402.628231 
L 587.583808 405.338339 
L 589.522269 407.103267 
L 591.429209 404.67991 
L 593.305636 407.227264 
L 595.152512 405.948227 
L 596.970754 406.351443 
L 598.761234 406.625434 
L 600.52479 402.222527 
L 602.262217 411.630672 
L 603.97428 405.930419 
L 605.661708 406.520178 
L 607.3252 408.00546 
L 608.965425 407.026083 
L 610.583026 411.413543 
L 612.178619 407.179828 
L 613.752793 407.790337 
L 615.306116 407.460057 
L 616.839134 411.496702 
L 618.352371 411.869386 
L 619.84633 409.728993 
L 621.321497 406.088815 
L 622.778339 414.633297 
L 624.217304 409.211962 
L 625.638827 409.13441 
L 627.043325 412.536806 
L 628.431202 412.886871 
L 629.802846 411.150919 
L 631.158633 413.714485 
L 632.498924 408.819955 
L 633.82407 408.203857 
L 635.13441 412.172751 
L 636.430271 412.752397 
L 637.711969 412.54489 
L 638.979811 413.99608 
L 640.234093 415.173334 
L 641.475101 414.805592 
L 642.703115 407.872991 
L 643.918403 411.490719 
L 645.121226 413.089447 
L 646.311837 412.976647 
L 647.490482 413.30507 
L 648.6574 412.051336 
L 649.81282 415.041949 
L 650.956968 412.423355 
L 652.090061 412.94689 
L 653.212311 410.737631 
L 654.323923 414.725237 
L 655.425097 417.321164 
L 656.516028 411.723262 
L 657.596904 412.440539 
L 658.667909 414.842782 
L 659.729221 418.743373 
L 660.781015 416.653033 
L 661.823459 414.479931 
L 662.856719 416.984772 
L 663.880954 416.354908 
L 664.896322 419.239452 
L 665.902974 414.771111 
L 666.901058 414.566504 
L 667.89072 417.462067 
L 668.8721 414.630157 
L 669.845335 415.320823 
L 670.810561 413.92846 
L 671.767907 415.038902 
L 672.717501 416.908952 
L 673.659467 414.828624 
L 674.593928 414.172977 
L 675.521002 416.322336 
L 676.440804 416.584236 
L 677.353449 416.1276 
L 678.259046 413.478534 
L 679.157703 418.771059 
L 680.049526 415.320671 
L 680.934619 419.737768 
L 681.813082 419.776659 
L 682.685013 417.442359 
L 683.550509 419.615517 
L 684.409665 418.961835 
L 685.262572 419.54499 
L 686.109321 417.423053 
L 686.109321 408.65369 
L 686.109321 408.65369 
L 685.262572 412.086357 
L 684.409665 410.365102 
L 683.550509 411.635043 
L 682.685013 409.024524 
L 681.813082 410.090362 
L 680.934619 413.078386 
L 680.049526 405.190941 
L 679.157703 408.91016 
L 678.259046 403.578996 
L 677.353449 407.504503 
L 676.440804 407.01176 
L 675.521002 407.213791 
L 674.593928 402.908569 
L 673.659467 405.59949 
L 672.717501 408.374623 
L 671.767907 404.083214 
L 670.810561 403.980626 
L 669.845335 404.042211 
L 668.8721 404.6145 
L 667.89072 408.079304 
L 666.901058 406.017567 
L 665.902974 404.336235 
L 664.896322 411.096539 
L 663.880954 407.42204 
L 662.856719 408.33219 
L 661.823459 402.44575 
L 660.781015 407.245831 
L 659.729221 410.102398 
L 658.667909 406.409403 
L 657.596904 401.688617 
L 656.516028 400.976265 
L 655.425097 409.109227 
L 654.323923 406.44753 
L 653.212311 400.850059 
L 652.090061 402.354759 
L 650.956968 402.052746 
L 649.81282 406.061495 
L 648.6574 401.864158 
L 647.490482 403.985848 
L 646.311837 403.529111 
L 645.121226 402.661869 
L 643.918403 399.958189 
L 642.703115 395.529707 
L 641.475101 406.300741 
L 640.234093 404.276636 
L 638.979811 403.689671 
L 637.711969 402.184246 
L 636.430271 402.31533 
L 635.13441 402.519043 
L 633.82407 397.115562 
L 632.498924 397.803148 
L 631.158633 402.794489 
L 629.802846 399.931706 
L 628.431202 403.255993 
L 627.043325 403.238466 
L 625.638827 398.294623 
L 624.217304 398.482564 
L 622.778339 405.420835 
L 621.321497 393.159791 
L 619.84633 398.020892 
L 618.352371 402.422965 
L 616.839134 403.03376 
L 615.306116 396.213369 
L 613.752793 395.74482 
L 612.178619 393.985333 
L 610.583026 399.544257 
L 608.965425 395.841665 
L 607.3252 394.938471 
L 605.661708 396.229107 
L 603.97428 393.578679 
L 602.262217 401.544287 
L 600.52479 389.9581 
L 598.761234 394.667212 
L 596.970754 390.939332 
L 595.152512 395.142699 
L 593.305636 394.955021 
L 591.429209 392.846589 
L 589.522269 393.961522 
L 587.583808 393.761941 
L 585.612766 386.720395 
L 583.60803 390.229702 
L 581.568427 394.430497 
L 579.492723 386.297995 
L 577.379617 383.333324 
L 575.227736 393.029395 
L 573.035631 383.898799 
L 570.801769 388.049559 
L 568.524528 383.080245 
L 566.20219 391.178168 
L 563.832933 389.947287 
L 561.414823 378.475252 
L 558.945801 380.819009 
L 556.423677 389.239224 
L 553.846118 378.806149 
L 551.210632 382.573332 
L 548.514554 374.806315 
L 545.755033 379.965802 
L 542.929012 374.767634 
L 540.033205 372.000202 
L 537.064079 375.720719 
L 534.017824 377.326102 
L 530.890326 379.33124 
L 527.677133 375.478186 
L 524.373416 385.329161 
L 520.973925 386.699499 
L 517.472942 376.252227 
L 513.86422 359.242733 
L 510.140916 385.309127 
L 506.295516 371.347387 
L 502.319738 371.316107 
L 498.204431 353.708714 
L 493.939444 370.507552 
L 489.513476 378.140035 
L 484.913898 372.230102 
L 480.126531 340.357066 
L 475.135385 374.137132 
L 469.92234 358.711919 
L 464.466741 363.800257 
L 458.744913 351.998806 
L 452.729532 346.832394 
L 446.388841 356.692433 
L 439.685633 348.868465 
L 432.575928 253.965965 
L 425.007223 339.047333 
L 416.916139 351.111795 
L 408.225184 339.456417 
L 398.838238 318.116529 
L 388.634047 323.912352 
L 377.456621 327.239952 
L 365.100549 324.905293 
L 351.287636 34.74676 
L 335.627846 317.186267 
L 317.549946 322.089337 
L 296.168329 306.852566 
L 269.999344 225.000598 
L 236.261654 289.378529 
L 188.711052 260.403957 
L 107.422759 233.033018 
L -269184.334838 444.622785 
z
" style="fill-opacity:0.2;stroke:#000000;stroke-opacity:0.2;"/>
   </g>
   <g id="PolyCollection_3">
    <path clip-path="url(#p756364e160)" d="M -269184.334838 444.622785 
L -269184.334838 444.622785 
L 180.619967 174.621764 
L 261.908259 227.716688 
L 309.458861 271.064519 
L 343.196551 286.542567 
L 369.365536 301.292697 
L 390.747154 306.074115 
L 408.825054 308.76251 
L 424.484843 322.888556 
L 438.297756 330.223218 
L 450.653828 331.699187 
L 461.831255 332.033137 
L 472.035446 333.803531 
L 481.422391 344.858407 
L 490.113346 342.825741 
L 498.204431 340.620839 
L 505.773135 342.329384 
L 512.88284 338.900466 
L 519.586048 334.13084 
L 525.926739 342.17972 
L 531.94212 349.146662 
L 537.663948 354.672396 
L 543.119547 350.632385 
L 548.332592 343.763594 
L 553.323738 345.860834 
L 558.111105 355.705354 
L 562.710684 347.190824 
L 567.136651 352.229612 
L 571.401638 356.730654 
L 575.516945 363.573437 
L 579.492723 363.233299 
L 583.338124 358.318343 
L 587.061427 353.58315 
L 590.670149 369.289405 
L 594.171132 366.23494 
L 597.570623 368.844993 
L 600.87434 377.389249 
L 604.087534 375.415002 
L 607.215031 373.462168 
L 610.261286 378.501139 
L 613.230412 378.725434 
L 616.126219 369.346474 
L 618.952241 377.167338 
L 621.711761 383.122791 
L 624.407839 386.695537 
L 627.043325 385.674529 
L 629.620885 368.658403 
L 632.143008 376.970166 
L 634.61203 387.655568 
L 637.030141 382.496378 
L 639.399397 389.625627 
L 641.721735 389.369763 
L 643.998976 382.820389 
L 646.232838 390.256459 
L 648.424943 385.50898 
L 650.576824 390.772151 
L 652.68993 390.315509 
L 654.765634 383.762647 
L 656.805237 389.432366 
L 658.809973 389.08397 
L 660.781015 398.636186 
L 662.719476 390.700984 
L 664.626416 388.90265 
L 666.502843 391.704155 
L 668.349719 396.365931 
L 670.167961 389.334893 
L 671.958442 391.159339 
L 673.721997 394.605368 
L 675.459424 395.580055 
L 677.171487 394.089997 
L 678.858915 392.064163 
L 680.522407 393.446828 
L 682.162633 398.801623 
L 683.780234 394.878035 
L 685.375826 394.098803 
L 685.375826 378.673404 
L 685.375826 378.673404 
L 683.780234 378.74323 
L 682.162633 383.407967 
L 680.522407 376.62651 
L 678.858915 376.266901 
L 677.171487 377.35681 
L 675.459424 379.620487 
L 673.721997 377.590011 
L 671.958442 373.00268 
L 670.167961 372.7689 
L 668.349719 381.534786 
L 666.502843 375.404999 
L 664.626416 371.596528 
L 662.719476 374.98941 
L 660.781015 386.497021 
L 658.809973 371.740037 
L 656.805237 373.159064 
L 654.765634 366.40176 
L 652.68993 375.735206 
L 650.576824 376.180151 
L 648.424943 370.115188 
L 646.232838 373.286245 
L 643.998976 361.628676 
L 641.721735 372.904158 
L 639.399397 371.632751 
L 637.030141 363.924021 
L 634.61203 369.403083 
L 632.143008 355.028208 
L 629.620885 347.43637 
L 627.043325 365.394009 
L 624.407839 368.1974 
L 621.711761 362.889541 
L 618.952241 357.630562 
L 616.126219 344.631587 
L 613.230412 358.02191 
L 610.261286 357.914378 
L 607.215031 353.291126 
L 604.087534 354.637878 
L 600.87434 357.349959 
L 597.570623 347.596755 
L 594.171132 340.419497 
L 590.670149 347.740777 
L 587.061427 327.651386 
L 583.338124 334.489803 
L 579.492723 339.751548 
L 575.516945 341.256369 
L 571.401638 331.045414 
L 567.136651 325.837341 
L 562.710684 320.652919 
L 558.111105 330.685009 
L 553.323738 318.142907 
L 548.332592 315.488518 
L 543.119547 327.869372 
L 537.663948 328.057643 
L 531.94212 321.464483 
L 525.926739 313.751112 
L 519.586048 302.970485 
L 512.88284 308.741176 
L 505.773135 315.767996 
L 498.204431 312.50428 
L 490.113346 315.226688 
L 481.422391 315.691192 
L 472.035446 303.743866 
L 461.831255 302.336966 
L 450.653828 300.561939 
L 438.297756 300.370151 
L 424.484843 291.98468 
L 408.825054 275.696581 
L 390.747154 271.612256 
L 369.365536 264.887676 
L 343.196551 247.411377 
L 309.458861 228.750897 
L 261.908259 183.536248 
L 180.619967 127.739204 
L -269184.334838 444.622785 
z
" style="fill-opacity:0.2;stroke:#000000;stroke-opacity:0.2;"/>
   </g>
   <g id="matplotlib.axis_1">
    <g id="xtick_1">
     <g id="line2d_1">
      <defs>
       <path d="M 0 0 
L 0 3.5 
" id="mf244a279a5" style="stroke:#000000;stroke-width:0.8;"/>
      </defs>
      <g>
       <use style="stroke:#000000;stroke-width:0.8;" x="39.425" xlink:href="#mf244a279a5" y="439.2"/>
      </g>
     </g>
     <g id="text_1">
      <!-- 0.001 -->
      <g transform="translate(10.796875 461.396875)scale(0.2 -0.2)">
       <defs>
        <path d="M 31.78125 66.40625 
Q 24.171875 66.40625 20.328125 58.90625 
Q 16.5 51.421875 16.5 36.375 
Q 16.5 21.390625 20.328125 13.890625 
Q 24.171875 6.390625 31.78125 6.390625 
Q 39.453125 6.390625 43.28125 13.890625 
Q 47.125 21.390625 47.125 36.375 
Q 47.125 51.421875 43.28125 58.90625 
Q 39.453125 66.40625 31.78125 66.40625 
z
M 31.78125 74.21875 
Q 44.046875 74.21875 50.515625 64.515625 
Q 56.984375 54.828125 56.984375 36.375 
Q 56.984375 17.96875 50.515625 8.265625 
Q 44.046875 -1.421875 31.78125 -1.421875 
Q 19.53125 -1.421875 13.0625 8.265625 
Q 6.59375 17.96875 6.59375 36.375 
Q 6.59375 54.828125 13.0625 64.515625 
Q 19.53125 74.21875 31.78125 74.21875 
z
" id="DejaVuSans-48"/>
        <path d="M 10.6875 12.40625 
L 21 12.40625 
L 21 0 
L 10.6875 0 
z
" id="DejaVuSans-46"/>
        <path d="M 12.40625 8.296875 
L 28.515625 8.296875 
L 28.515625 63.921875 
L 10.984375 60.40625 
L 10.984375 69.390625 
L 28.421875 72.90625 
L 38.28125 72.90625 
L 38.28125 8.296875 
L 54.390625 8.296875 
L 54.390625 0 
L 12.40625 0 
z
" id="DejaVuSans-49"/>
       </defs>
       <use xlink:href="#DejaVuSans-48"/>
       <use x="63.623047" xlink:href="#DejaVuSans-46"/>
       <use x="95.410156" xlink:href="#DejaVuSans-48"/>
       <use x="159.033203" xlink:href="#DejaVuSans-48"/>
       <use x="222.65625" xlink:href="#DejaVuSans-49"/>
      </g>
     </g>
    </g>
    <g id="xtick_2">
     <g id="line2d_2">
      <g>
       <use style="stroke:#000000;stroke-width:0.8;" x="228.170569" xlink:href="#mf244a279a5" y="439.2"/>
      </g>
     </g>
     <g id="text_2">
      <!-- 0.005 -->
      <g transform="translate(199.542444 461.396875)scale(0.2 -0.2)">
       <defs>
        <path d="M 10.796875 72.90625 
L 49.515625 72.90625 
L 49.515625 64.59375 
L 19.828125 64.59375 
L 19.828125 46.734375 
Q 21.96875 47.46875 24.109375 47.828125 
Q 26.265625 48.1875 28.421875 48.1875 
Q 40.625 48.1875 47.75 41.5 
Q 54.890625 34.8125 54.890625 23.390625 
Q 54.890625 11.625 47.5625 5.09375 
Q 40.234375 -1.421875 26.90625 -1.421875 
Q 22.3125 -1.421875 17.546875 -0.640625 
Q 12.796875 0.140625 7.71875 1.703125 
L 7.71875 11.625 
Q 12.109375 9.234375 16.796875 8.0625 
Q 21.484375 6.890625 26.703125 6.890625 
Q 35.15625 6.890625 40.078125 11.328125 
Q 45.015625 15.765625 45.015625 23.390625 
Q 45.015625 31 40.078125 35.4375 
Q 35.15625 39.890625 26.703125 39.890625 
Q 22.75 39.890625 18.8125 39.015625 
Q 14.890625 38.140625 10.796875 36.28125 
z
" id="DejaVuSans-53"/>
       </defs>
       <use xlink:href="#DejaVuSans-48"/>
       <use x="63.623047" xlink:href="#DejaVuSans-46"/>
       <use x="95.410156" xlink:href="#DejaVuSans-48"/>
       <use x="159.033203" xlink:href="#DejaVuSans-48"/>
       <use x="222.65625" xlink:href="#DejaVuSans-53"/>
      </g>
     </g>
    </g>
    <g id="xtick_3">
     <g id="line2d_3">
      <g>
       <use style="stroke:#000000;stroke-width:0.8;" x="309.458861" xlink:href="#mf244a279a5" y="439.2"/>
      </g>
     </g>
     <g id="text_3">
      <!-- 0.01 -->
      <g transform="translate(287.193236 461.396875)scale(0.2 -0.2)">
       <use xlink:href="#DejaVuSans-48"/>
       <use x="63.623047" xlink:href="#DejaVuSans-46"/>
       <use x="95.410156" xlink:href="#DejaVuSans-48"/>
       <use x="159.033203" xlink:href="#DejaVuSans-49"/>
      </g>
     </g>
    </g>
    <g id="xtick_4">
     <g id="line2d_4">
      <g>
       <use style="stroke:#000000;stroke-width:0.8;" x="498.204431" xlink:href="#mf244a279a5" y="439.2"/>
      </g>
     </g>
     <g id="text_4">
      <!-- 0.05 -->
      <g transform="translate(475.938806 461.396875)scale(0.2 -0.2)">
       <use xlink:href="#DejaVuSans-48"/>
       <use x="63.623047" xlink:href="#DejaVuSans-46"/>
       <use x="95.410156" xlink:href="#DejaVuSans-48"/>
       <use x="159.033203" xlink:href="#DejaVuSans-53"/>
      </g>
     </g>
    </g>
    <g id="xtick_5">
     <g id="line2d_5">
      <g>
       <use style="stroke:#000000;stroke-width:0.8;" x="579.492723" xlink:href="#mf244a279a5" y="439.2"/>
      </g>
     </g>
     <g id="text_5">
      <!-- 0.1 -->
      <g transform="translate(563.589598 461.396875)scale(0.2 -0.2)">
       <use xlink:href="#DejaVuSans-48"/>
       <use x="63.623047" xlink:href="#DejaVuSans-46"/>
       <use x="95.410156" xlink:href="#DejaVuSans-49"/>
      </g>
     </g>
    </g>
    <g id="xtick_6">
     <g id="line2d_6">
      <g>
       <use style="stroke:#000000;stroke-width:0.8;" x="686.95" xlink:href="#mf244a279a5" y="439.2"/>
      </g>
     </g>
     <g id="text_6">
      <!-- 0.25 -->
      <g transform="translate(664.684375 461.396875)scale(0.2 -0.2)">
       <defs>
        <path d="M 19.1875 8.296875 
L 53.609375 8.296875 
L 53.609375 0 
L 7.328125 0 
L 7.328125 8.296875 
Q 12.9375 14.109375 22.625 23.890625 
Q 32.328125 33.6875 34.8125 36.53125 
Q 39.546875 41.84375 41.421875 45.53125 
Q 43.3125 49.21875 43.3125 52.78125 
Q 43.3125 58.59375 39.234375 62.25 
Q 35.15625 65.921875 28.609375 65.921875 
Q 23.96875 65.921875 18.8125 64.3125 
Q 13.671875 62.703125 7.8125 59.421875 
L 7.8125 69.390625 
Q 13.765625 71.78125 18.9375 73 
Q 24.125 74.21875 28.421875 74.21875 
Q 39.75 74.21875 46.484375 68.546875 
Q 53.21875 62.890625 53.21875 53.421875 
Q 53.21875 48.921875 51.53125 44.890625 
Q 49.859375 40.875 45.40625 35.40625 
Q 44.1875 33.984375 37.640625 27.21875 
Q 31.109375 20.453125 19.1875 8.296875 
z
" id="DejaVuSans-50"/>
       </defs>
       <use xlink:href="#DejaVuSans-48"/>
       <use x="63.623047" xlink:href="#DejaVuSans-46"/>
       <use x="95.410156" xlink:href="#DejaVuSans-50"/>
       <use x="159.033203" xlink:href="#DejaVuSans-53"/>
      </g>
     </g>
    </g>
    <g id="xtick_7">
     <g id="line2d_7">
      <defs>
       <path d="M 0 0 
L 0 2 
" id="m91b20d15db" style="stroke:#000000;stroke-width:0.6;"/>
      </defs>
      <g>
       <use style="stroke:#000000;stroke-width:0.6;" x="120.713292" xlink:href="#m91b20d15db" y="439.2"/>
      </g>
     </g>
    </g>
    <g id="xtick_8">
     <g id="line2d_8">
      <g>
       <use style="stroke:#000000;stroke-width:0.6;" x="168.263895" xlink:href="#m91b20d15db" y="439.2"/>
      </g>
     </g>
    </g>
    <g id="xtick_9">
     <g id="line2d_9">
      <g>
       <use style="stroke:#000000;stroke-width:0.6;" x="202.001584" xlink:href="#m91b20d15db" y="439.2"/>
      </g>
     </g>
    </g>
    <g id="xtick_10">
     <g id="line2d_10">
      <g>
       <use style="stroke:#000000;stroke-width:0.6;" x="249.552187" xlink:href="#m91b20d15db" y="439.2"/>
      </g>
     </g>
    </g>
    <g id="xtick_11">
     <g id="line2d_11">
      <g>
       <use style="stroke:#000000;stroke-width:0.6;" x="267.630087" xlink:href="#m91b20d15db" y="439.2"/>
      </g>
     </g>
    </g>
    <g id="xtick_12">
     <g id="line2d_12">
      <g>
       <use style="stroke:#000000;stroke-width:0.6;" x="283.289876" xlink:href="#m91b20d15db" y="439.2"/>
      </g>
     </g>
    </g>
    <g id="xtick_13">
     <g id="line2d_13">
      <g>
       <use style="stroke:#000000;stroke-width:0.6;" x="297.10279" xlink:href="#m91b20d15db" y="439.2"/>
      </g>
     </g>
    </g>
    <g id="xtick_14">
     <g id="line2d_14">
      <g>
       <use style="stroke:#000000;stroke-width:0.6;" x="390.747154" xlink:href="#m91b20d15db" y="439.2"/>
      </g>
     </g>
    </g>
    <g id="xtick_15">
     <g id="line2d_15">
      <g>
       <use style="stroke:#000000;stroke-width:0.6;" x="438.297756" xlink:href="#m91b20d15db" y="439.2"/>
      </g>
     </g>
    </g>
    <g id="xtick_16">
     <g id="line2d_16">
      <g>
       <use style="stroke:#000000;stroke-width:0.6;" x="472.035446" xlink:href="#m91b20d15db" y="439.2"/>
      </g>
     </g>
    </g>
    <g id="xtick_17">
     <g id="line2d_17">
      <g>
       <use style="stroke:#000000;stroke-width:0.6;" x="519.586048" xlink:href="#m91b20d15db" y="439.2"/>
      </g>
     </g>
    </g>
    <g id="xtick_18">
     <g id="line2d_18">
      <g>
       <use style="stroke:#000000;stroke-width:0.6;" x="537.663948" xlink:href="#m91b20d15db" y="439.2"/>
      </g>
     </g>
    </g>
    <g id="xtick_19">
     <g id="line2d_19">
      <g>
       <use style="stroke:#000000;stroke-width:0.6;" x="553.323738" xlink:href="#m91b20d15db" y="439.2"/>
      </g>
     </g>
    </g>
    <g id="xtick_20">
     <g id="line2d_20">
      <g>
       <use style="stroke:#000000;stroke-width:0.6;" x="567.136651" xlink:href="#m91b20d15db" y="439.2"/>
      </g>
     </g>
    </g>
    <g id="xtick_21">
     <g id="line2d_21">
      <g>
       <use style="stroke:#000000;stroke-width:0.6;" x="660.781015" xlink:href="#m91b20d15db" y="439.2"/>
      </g>
     </g>
    </g>
    <g id="text_7">
     <!-- Frequency (Hz) -->
     <g transform="translate(268.925781 488.552344)scale(0.25 -0.25)">
      <defs>
       <path d="M 9.8125 72.90625 
L 51.703125 72.90625 
L 51.703125 64.59375 
L 19.671875 64.59375 
L 19.671875 43.109375 
L 48.578125 43.109375 
L 48.578125 34.8125 
L 19.671875 34.8125 
L 19.671875 0 
L 9.8125 0 
z
" id="DejaVuSans-70"/>
       <path d="M 41.109375 46.296875 
Q 39.59375 47.171875 37.8125 47.578125 
Q 36.03125 48 33.890625 48 
Q 26.265625 48 22.1875 43.046875 
Q 18.109375 38.09375 18.109375 28.8125 
L 18.109375 0 
L 9.078125 0 
L 9.078125 54.6875 
L 18.109375 54.6875 
L 18.109375 46.1875 
Q 20.953125 51.171875 25.484375 53.578125 
Q 30.03125 56 36.53125 56 
Q 37.453125 56 38.578125 55.875 
Q 39.703125 55.765625 41.0625 55.515625 
z
" id="DejaVuSans-114"/>
       <path d="M 56.203125 29.59375 
L 56.203125 25.203125 
L 14.890625 25.203125 
Q 15.484375 15.921875 20.484375 11.0625 
Q 25.484375 6.203125 34.421875 6.203125 
Q 39.59375 6.203125 44.453125 7.46875 
Q 49.3125 8.734375 54.109375 11.28125 
L 54.109375 2.78125 
Q 49.265625 0.734375 44.1875 -0.34375 
Q 39.109375 -1.421875 33.890625 -1.421875 
Q 20.796875 -1.421875 13.15625 6.1875 
Q 5.515625 13.8125 5.515625 26.8125 
Q 5.515625 40.234375 12.765625 48.109375 
Q 20.015625 56 32.328125 56 
Q 43.359375 56 49.78125 48.890625 
Q 56.203125 41.796875 56.203125 29.59375 
z
M 47.21875 32.234375 
Q 47.125 39.59375 43.09375 43.984375 
Q 39.0625 48.390625 32.421875 48.390625 
Q 24.90625 48.390625 20.390625 44.140625 
Q 15.875 39.890625 15.1875 32.171875 
z
" id="DejaVuSans-101"/>
       <path d="M 14.796875 27.296875 
Q 14.796875 17.390625 18.875 11.75 
Q 22.953125 6.109375 30.078125 6.109375 
Q 37.203125 6.109375 41.296875 11.75 
Q 45.40625 17.390625 45.40625 27.296875 
Q 45.40625 37.203125 41.296875 42.84375 
Q 37.203125 48.484375 30.078125 48.484375 
Q 22.953125 48.484375 18.875 42.84375 
Q 14.796875 37.203125 14.796875 27.296875 
z
M 45.40625 8.203125 
Q 42.578125 3.328125 38.25 0.953125 
Q 33.9375 -1.421875 27.875 -1.421875 
Q 17.96875 -1.421875 11.734375 6.484375 
Q 5.515625 14.40625 5.515625 27.296875 
Q 5.515625 40.1875 11.734375 48.09375 
Q 17.96875 56 27.875 56 
Q 33.9375 56 38.25 53.625 
Q 42.578125 51.265625 45.40625 46.390625 
L 45.40625 54.6875 
L 54.390625 54.6875 
L 54.390625 -20.796875 
L 45.40625 -20.796875 
z
" id="DejaVuSans-113"/>
       <path d="M 8.5 21.578125 
L 8.5 54.6875 
L 17.484375 54.6875 
L 17.484375 21.921875 
Q 17.484375 14.15625 20.5 10.265625 
Q 23.53125 6.390625 29.59375 6.390625 
Q 36.859375 6.390625 41.078125 11.03125 
Q 45.3125 15.671875 45.3125 23.6875 
L 45.3125 54.6875 
L 54.296875 54.6875 
L 54.296875 0 
L 45.3125 0 
L 45.3125 8.40625 
Q 42.046875 3.421875 37.71875 1 
Q 33.40625 -1.421875 27.6875 -1.421875 
Q 18.265625 -1.421875 13.375 4.4375 
Q 8.5 10.296875 8.5 21.578125 
z
M 31.109375 56 
z
" id="DejaVuSans-117"/>
       <path d="M 54.890625 33.015625 
L 54.890625 0 
L 45.90625 0 
L 45.90625 32.71875 
Q 45.90625 40.484375 42.875 44.328125 
Q 39.84375 48.1875 33.796875 48.1875 
Q 26.515625 48.1875 22.3125 43.546875 
Q 18.109375 38.921875 18.109375 30.90625 
L 18.109375 0 
L 9.078125 0 
L 9.078125 54.6875 
L 18.109375 54.6875 
L 18.109375 46.1875 
Q 21.34375 51.125 25.703125 53.5625 
Q 30.078125 56 35.796875 56 
Q 45.21875 56 50.046875 50.171875 
Q 54.890625 44.34375 54.890625 33.015625 
z
" id="DejaVuSans-110"/>
       <path d="M 48.78125 52.59375 
L 48.78125 44.1875 
Q 44.96875 46.296875 41.140625 47.34375 
Q 37.3125 48.390625 33.40625 48.390625 
Q 24.65625 48.390625 19.8125 42.84375 
Q 14.984375 37.3125 14.984375 27.296875 
Q 14.984375 17.28125 19.8125 11.734375 
Q 24.65625 6.203125 33.40625 6.203125 
Q 37.3125 6.203125 41.140625 7.25 
Q 44.96875 8.296875 48.78125 10.40625 
L 48.78125 2.09375 
Q 45.015625 0.34375 40.984375 -0.53125 
Q 36.96875 -1.421875 32.421875 -1.421875 
Q 20.0625 -1.421875 12.78125 6.34375 
Q 5.515625 14.109375 5.515625 27.296875 
Q 5.515625 40.671875 12.859375 48.328125 
Q 20.21875 56 33.015625 56 
Q 37.15625 56 41.109375 55.140625 
Q 45.0625 54.296875 48.78125 52.59375 
z
" id="DejaVuSans-99"/>
       <path d="M 32.171875 -5.078125 
Q 28.375 -14.84375 24.75 -17.8125 
Q 21.140625 -20.796875 15.09375 -20.796875 
L 7.90625 -20.796875 
L 7.90625 -13.28125 
L 13.1875 -13.28125 
Q 16.890625 -13.28125 18.9375 -11.515625 
Q 21 -9.765625 23.484375 -3.21875 
L 25.09375 0.875 
L 2.984375 54.6875 
L 12.5 54.6875 
L 29.59375 11.921875 
L 46.6875 54.6875 
L 56.203125 54.6875 
z
" id="DejaVuSans-121"/>
       <path id="DejaVuSans-32"/>
       <path d="M 31 75.875 
Q 24.46875 64.65625 21.28125 53.65625 
Q 18.109375 42.671875 18.109375 31.390625 
Q 18.109375 20.125 21.3125 9.0625 
Q 24.515625 -2 31 -13.1875 
L 23.1875 -13.1875 
Q 15.875 -1.703125 12.234375 9.375 
Q 8.59375 20.453125 8.59375 31.390625 
Q 8.59375 42.28125 12.203125 53.3125 
Q 15.828125 64.359375 23.1875 75.875 
z
" id="DejaVuSans-40"/>
       <path d="M 9.8125 72.90625 
L 19.671875 72.90625 
L 19.671875 43.015625 
L 55.515625 43.015625 
L 55.515625 72.90625 
L 65.375 72.90625 
L 65.375 0 
L 55.515625 0 
L 55.515625 34.71875 
L 19.671875 34.71875 
L 19.671875 0 
L 9.8125 0 
z
" id="DejaVuSans-72"/>
       <path d="M 5.515625 54.6875 
L 48.1875 54.6875 
L 48.1875 46.484375 
L 14.40625 7.171875 
L 48.1875 7.171875 
L 48.1875 0 
L 4.296875 0 
L 4.296875 8.203125 
L 38.09375 47.515625 
L 5.515625 47.515625 
z
" id="DejaVuSans-122"/>
       <path d="M 8.015625 75.875 
L 15.828125 75.875 
Q 23.140625 64.359375 26.78125 53.3125 
Q 30.421875 42.28125 30.421875 31.390625 
Q 30.421875 20.453125 26.78125 9.375 
Q 23.140625 -1.703125 15.828125 -13.1875 
L 8.015625 -13.1875 
Q 14.5 -2 17.703125 9.0625 
Q 20.90625 20.125 20.90625 31.390625 
Q 20.90625 42.671875 17.703125 53.65625 
Q 14.5 64.65625 8.015625 75.875 
z
" id="DejaVuSans-41"/>
      </defs>
      <use xlink:href="#DejaVuSans-70"/>
      <use x="50.269531" xlink:href="#DejaVuSans-114"/>
      <use x="89.132812" xlink:href="#DejaVuSans-101"/>
      <use x="150.65625" xlink:href="#DejaVuSans-113"/>
      <use x="214.132812" xlink:href="#DejaVuSans-117"/>
      <use x="277.511719" xlink:href="#DejaVuSans-101"/>
      <use x="339.035156" xlink:href="#DejaVuSans-110"/>
      <use x="402.414062" xlink:href="#DejaVuSans-99"/>
      <use x="457.394531" xlink:href="#DejaVuSans-121"/>
      <use x="516.574219" xlink:href="#DejaVuSans-32"/>
      <use x="548.361328" xlink:href="#DejaVuSans-40"/>
      <use x="587.375" xlink:href="#DejaVuSans-72"/>
      <use x="662.570312" xlink:href="#DejaVuSans-122"/>
      <use x="715.060547" xlink:href="#DejaVuSans-41"/>
     </g>
    </g>
   </g>
   <g id="matplotlib.axis_2">
    <g id="text_8">
     <!-- Normalized Power Spectrum -->
     <g transform="translate(30.225781 402.191406)rotate(-90)scale(0.25 -0.25)">
      <defs>
       <path d="M 9.8125 72.90625 
L 23.09375 72.90625 
L 55.421875 11.921875 
L 55.421875 72.90625 
L 64.984375 72.90625 
L 64.984375 0 
L 51.703125 0 
L 19.390625 60.984375 
L 19.390625 0 
L 9.8125 0 
z
" id="DejaVuSans-78"/>
       <path d="M 30.609375 48.390625 
Q 23.390625 48.390625 19.1875 42.75 
Q 14.984375 37.109375 14.984375 27.296875 
Q 14.984375 17.484375 19.15625 11.84375 
Q 23.34375 6.203125 30.609375 6.203125 
Q 37.796875 6.203125 41.984375 11.859375 
Q 46.1875 17.53125 46.1875 27.296875 
Q 46.1875 37.015625 41.984375 42.703125 
Q 37.796875 48.390625 30.609375 48.390625 
z
M 30.609375 56 
Q 42.328125 56 49.015625 48.375 
Q 55.71875 40.765625 55.71875 27.296875 
Q 55.71875 13.875 49.015625 6.21875 
Q 42.328125 -1.421875 30.609375 -1.421875 
Q 18.84375 -1.421875 12.171875 6.21875 
Q 5.515625 13.875 5.515625 27.296875 
Q 5.515625 40.765625 12.171875 48.375 
Q 18.84375 56 30.609375 56 
z
" id="DejaVuSans-111"/>
       <path d="M 52 44.1875 
Q 55.375 50.25 60.0625 53.125 
Q 64.75 56 71.09375 56 
Q 79.640625 56 84.28125 50.015625 
Q 88.921875 44.046875 88.921875 33.015625 
L 88.921875 0 
L 79.890625 0 
L 79.890625 32.71875 
Q 79.890625 40.578125 77.09375 44.375 
Q 74.3125 48.1875 68.609375 48.1875 
Q 61.625 48.1875 57.5625 43.546875 
Q 53.515625 38.921875 53.515625 30.90625 
L 53.515625 0 
L 44.484375 0 
L 44.484375 32.71875 
Q 44.484375 40.625 41.703125 44.40625 
Q 38.921875 48.1875 33.109375 48.1875 
Q 26.21875 48.1875 22.15625 43.53125 
Q 18.109375 38.875 18.109375 30.90625 
L 18.109375 0 
L 9.078125 0 
L 9.078125 54.6875 
L 18.109375 54.6875 
L 18.109375 46.1875 
Q 21.1875 51.21875 25.484375 53.609375 
Q 29.78125 56 35.6875 56 
Q 41.65625 56 45.828125 52.96875 
Q 50 49.953125 52 44.1875 
z
" id="DejaVuSans-109"/>
       <path d="M 34.28125 27.484375 
Q 23.390625 27.484375 19.1875 25 
Q 14.984375 22.515625 14.984375 16.5 
Q 14.984375 11.71875 18.140625 8.90625 
Q 21.296875 6.109375 26.703125 6.109375 
Q 34.1875 6.109375 38.703125 11.40625 
Q 43.21875 16.703125 43.21875 25.484375 
L 43.21875 27.484375 
z
M 52.203125 31.203125 
L 52.203125 0 
L 43.21875 0 
L 43.21875 8.296875 
Q 40.140625 3.328125 35.546875 0.953125 
Q 30.953125 -1.421875 24.3125 -1.421875 
Q 15.921875 -1.421875 10.953125 3.296875 
Q 6 8.015625 6 15.921875 
Q 6 25.140625 12.171875 29.828125 
Q 18.359375 34.515625 30.609375 34.515625 
L 43.21875 34.515625 
L 43.21875 35.40625 
Q 43.21875 41.609375 39.140625 45 
Q 35.0625 48.390625 27.6875 48.390625 
Q 23 48.390625 18.546875 47.265625 
Q 14.109375 46.140625 10.015625 43.890625 
L 10.015625 52.203125 
Q 14.9375 54.109375 19.578125 55.046875 
Q 24.21875 56 28.609375 56 
Q 40.484375 56 46.34375 49.84375 
Q 52.203125 43.703125 52.203125 31.203125 
z
" id="DejaVuSans-97"/>
       <path d="M 9.421875 75.984375 
L 18.40625 75.984375 
L 18.40625 0 
L 9.421875 0 
z
" id="DejaVuSans-108"/>
       <path d="M 9.421875 54.6875 
L 18.40625 54.6875 
L 18.40625 0 
L 9.421875 0 
z
M 9.421875 75.984375 
L 18.40625 75.984375 
L 18.40625 64.59375 
L 9.421875 64.59375 
z
" id="DejaVuSans-105"/>
       <path d="M 45.40625 46.390625 
L 45.40625 75.984375 
L 54.390625 75.984375 
L 54.390625 0 
L 45.40625 0 
L 45.40625 8.203125 
Q 42.578125 3.328125 38.25 0.953125 
Q 33.9375 -1.421875 27.875 -1.421875 
Q 17.96875 -1.421875 11.734375 6.484375 
Q 5.515625 14.40625 5.515625 27.296875 
Q 5.515625 40.1875 11.734375 48.09375 
Q 17.96875 56 27.875 56 
Q 33.9375 56 38.25 53.625 
Q 42.578125 51.265625 45.40625 46.390625 
z
M 14.796875 27.296875 
Q 14.796875 17.390625 18.875 11.75 
Q 22.953125 6.109375 30.078125 6.109375 
Q 37.203125 6.109375 41.296875 11.75 
Q 45.40625 17.390625 45.40625 27.296875 
Q 45.40625 37.203125 41.296875 42.84375 
Q 37.203125 48.484375 30.078125 48.484375 
Q 22.953125 48.484375 18.875 42.84375 
Q 14.796875 37.203125 14.796875 27.296875 
z
" id="DejaVuSans-100"/>
       <path d="M 19.671875 64.796875 
L 19.671875 37.40625 
L 32.078125 37.40625 
Q 38.96875 37.40625 42.71875 40.96875 
Q 46.484375 44.53125 46.484375 51.125 
Q 46.484375 57.671875 42.71875 61.234375 
Q 38.96875 64.796875 32.078125 64.796875 
z
M 9.8125 72.90625 
L 32.078125 72.90625 
Q 44.34375 72.90625 50.609375 67.359375 
Q 56.890625 61.8125 56.890625 51.125 
Q 56.890625 40.328125 50.609375 34.8125 
Q 44.34375 29.296875 32.078125 29.296875 
L 19.671875 29.296875 
L 19.671875 0 
L 9.8125 0 
z
" id="DejaVuSans-80"/>
       <path d="M 4.203125 54.6875 
L 13.1875 54.6875 
L 24.421875 12.015625 
L 35.59375 54.6875 
L 46.1875 54.6875 
L 57.421875 12.015625 
L 68.609375 54.6875 
L 77.59375 54.6875 
L 63.28125 0 
L 52.6875 0 
L 40.921875 44.828125 
L 29.109375 0 
L 18.5 0 
z
" id="DejaVuSans-119"/>
       <path d="M 53.515625 70.515625 
L 53.515625 60.890625 
Q 47.90625 63.578125 42.921875 64.890625 
Q 37.9375 66.21875 33.296875 66.21875 
Q 25.25 66.21875 20.875 63.09375 
Q 16.5 59.96875 16.5 54.203125 
Q 16.5 49.359375 19.40625 46.890625 
Q 22.3125 44.4375 30.421875 42.921875 
L 36.375 41.703125 
Q 47.40625 39.59375 52.65625 34.296875 
Q 57.90625 29 57.90625 20.125 
Q 57.90625 9.515625 50.796875 4.046875 
Q 43.703125 -1.421875 29.984375 -1.421875 
Q 24.8125 -1.421875 18.96875 -0.25 
Q 13.140625 0.921875 6.890625 3.21875 
L 6.890625 13.375 
Q 12.890625 10.015625 18.65625 8.296875 
Q 24.421875 6.59375 29.984375 6.59375 
Q 38.421875 6.59375 43.015625 9.90625 
Q 47.609375 13.234375 47.609375 19.390625 
Q 47.609375 24.75 44.3125 27.78125 
Q 41.015625 30.8125 33.5 32.328125 
L 27.484375 33.5 
Q 16.453125 35.6875 11.515625 40.375 
Q 6.59375 45.0625 6.59375 53.421875 
Q 6.59375 63.09375 13.40625 68.65625 
Q 20.21875 74.21875 32.171875 74.21875 
Q 37.3125 74.21875 42.625 73.28125 
Q 47.953125 72.359375 53.515625 70.515625 
z
" id="DejaVuSans-83"/>
       <path d="M 18.109375 8.203125 
L 18.109375 -20.796875 
L 9.078125 -20.796875 
L 9.078125 54.6875 
L 18.109375 54.6875 
L 18.109375 46.390625 
Q 20.953125 51.265625 25.265625 53.625 
Q 29.59375 56 35.59375 56 
Q 45.5625 56 51.78125 48.09375 
Q 58.015625 40.1875 58.015625 27.296875 
Q 58.015625 14.40625 51.78125 6.484375 
Q 45.5625 -1.421875 35.59375 -1.421875 
Q 29.59375 -1.421875 25.265625 0.953125 
Q 20.953125 3.328125 18.109375 8.203125 
z
M 48.6875 27.296875 
Q 48.6875 37.203125 44.609375 42.84375 
Q 40.53125 48.484375 33.40625 48.484375 
Q 26.265625 48.484375 22.1875 42.84375 
Q 18.109375 37.203125 18.109375 27.296875 
Q 18.109375 17.390625 22.1875 11.75 
Q 26.265625 6.109375 33.40625 6.109375 
Q 40.53125 6.109375 44.609375 11.75 
Q 48.6875 17.390625 48.6875 27.296875 
z
" id="DejaVuSans-112"/>
       <path d="M 18.3125 70.21875 
L 18.3125 54.6875 
L 36.8125 54.6875 
L 36.8125 47.703125 
L 18.3125 47.703125 
L 18.3125 18.015625 
Q 18.3125 11.328125 20.140625 9.421875 
Q 21.96875 7.515625 27.59375 7.515625 
L 36.8125 7.515625 
L 36.8125 0 
L 27.59375 0 
Q 17.1875 0 13.234375 3.875 
Q 9.28125 7.765625 9.28125 18.015625 
L 9.28125 47.703125 
L 2.6875 47.703125 
L 2.6875 54.6875 
L 9.28125 54.6875 
L 9.28125 70.21875 
z
" id="DejaVuSans-116"/>
      </defs>
      <use xlink:href="#DejaVuSans-78"/>
      <use x="74.804688" xlink:href="#DejaVuSans-111"/>
      <use x="135.986328" xlink:href="#DejaVuSans-114"/>
      <use x="175.349609" xlink:href="#DejaVuSans-109"/>
      <use x="272.761719" xlink:href="#DejaVuSans-97"/>
      <use x="334.041016" xlink:href="#DejaVuSans-108"/>
      <use x="361.824219" xlink:href="#DejaVuSans-105"/>
      <use x="389.607422" xlink:href="#DejaVuSans-122"/>
      <use x="442.097656" xlink:href="#DejaVuSans-101"/>
      <use x="503.621094" xlink:href="#DejaVuSans-100"/>
      <use x="567.097656" xlink:href="#DejaVuSans-32"/>
      <use x="598.884766" xlink:href="#DejaVuSans-80"/>
      <use x="655.5625" xlink:href="#DejaVuSans-111"/>
      <use x="716.744141" xlink:href="#DejaVuSans-119"/>
      <use x="798.53125" xlink:href="#DejaVuSans-101"/>
      <use x="860.054688" xlink:href="#DejaVuSans-114"/>
      <use x="901.167969" xlink:href="#DejaVuSans-32"/>
      <use x="932.955078" xlink:href="#DejaVuSans-83"/>
      <use x="996.431641" xlink:href="#DejaVuSans-112"/>
      <use x="1059.908203" xlink:href="#DejaVuSans-101"/>
      <use x="1121.431641" xlink:href="#DejaVuSans-99"/>
      <use x="1176.412109" xlink:href="#DejaVuSans-116"/>
      <use x="1215.621094" xlink:href="#DejaVuSans-114"/>
      <use x="1256.734375" xlink:href="#DejaVuSans-117"/>
      <use x="1320.113281" xlink:href="#DejaVuSans-109"/>
     </g>
    </g>
   </g>
   <g id="line2d_22">
    <path clip-path="url(#p756364e160)" d="M -1 259.314301 
L 107.422759 259.239661 
L 188.711052 296.993865 
L 236.261654 309.930824 
L 269.999344 240.69879 
L 296.168329 332.210256 
L 317.549946 340.6662 
L 335.627846 338.280085 
L 351.287636 44.274571 
L 365.100549 328.364235 
L 377.456621 343.508464 
L 388.634047 342.864111 
L 398.838238 345.630274 
L 408.225184 353.372555 
L 416.916139 355.010008 
L 425.007223 357.15721 
L 432.575928 281.161232 
L 439.685633 369.070333 
L 446.388841 365.60238 
L 452.729532 361.658157 
L 458.744913 372.668761 
L 464.466741 374.778587 
L 469.92234 378.790809 
L 475.135385 381.244812 
L 480.126531 363.765395 
L 484.913898 381.308704 
L 493.939444 382.020947 
L 498.204431 379.858166 
L 502.319738 375.71203 
L 506.295516 383.799832 
L 510.140916 379.956025 
L 513.86422 372.146266 
L 517.472942 389.598312 
L 520.973925 391.791736 
L 524.373416 387.726341 
L 527.677133 383.309869 
L 530.890326 389.349496 
L 534.017824 385.651212 
L 537.064079 393.577312 
L 540.033205 383.27156 
L 542.929012 393.776476 
L 545.755033 395.712898 
L 548.514554 399.627953 
L 551.210632 397.058607 
L 553.846118 393.056037 
L 556.423677 393.63029 
L 558.945801 395.153157 
L 561.414823 382.349145 
L 563.832933 400.620706 
L 566.20219 397.688836 
L 568.524528 396.9435 
L 570.801769 399.008672 
L 573.035631 403.957247 
L 575.227736 392.980133 
L 577.379617 400.440773 
L 579.492723 393.495584 
L 581.568427 398.657374 
L 585.612766 403.507836 
L 587.583808 402.975074 
L 589.522269 399.861952 
L 591.429209 402.031937 
L 593.305636 400.466877 
L 595.152512 402.376147 
L 596.970754 403.70174 
L 598.761234 398.300286 
L 600.52479 403.856997 
L 602.262217 402.893576 
L 603.97428 403.296984 
L 605.661708 400.807853 
L 607.3252 401.260143 
L 608.965425 399.955132 
L 610.583026 404.457304 
L 612.178619 402.455989 
L 613.752793 403.352402 
L 615.306116 408.724425 
L 616.839134 407.742571 
L 618.352371 407.741533 
L 619.84633 408.817839 
L 621.321497 409.076165 
L 622.778339 404.784317 
L 624.217304 406.880445 
L 625.638827 410.489187 
L 627.043325 406.086683 
L 628.431202 407.82831 
L 629.802846 410.743297 
L 631.158633 412.279022 
L 632.498924 408.304642 
L 633.82407 410.248581 
L 635.13441 408.382428 
L 636.430271 405.410911 
L 637.711969 411.207357 
L 638.979811 409.865706 
L 640.234093 410.423154 
L 641.475101 411.438467 
L 642.703115 404.618668 
L 643.918403 410.055165 
L 645.121226 410.595741 
L 646.311837 407.052801 
L 647.490482 412.698251 
L 648.6574 409.249061 
L 649.81282 409.78424 
L 650.956968 413.486027 
L 652.090061 411.168417 
L 653.212311 414.130661 
L 654.323923 411.644384 
L 655.425097 414.185577 
L 656.516028 409.203841 
L 657.596904 413.631796 
L 658.667909 414.551148 
L 659.729221 411.419509 
L 660.781015 410.10494 
L 661.823459 411.508098 
L 662.856719 409.782159 
L 663.880954 417.356656 
L 664.896322 411.413713 
L 665.902974 414.153957 
L 666.901058 412.321619 
L 667.89072 410.987267 
L 668.8721 412.985036 
L 669.845335 412.322862 
L 671.767907 414.64721 
L 672.717501 413.763533 
L 673.659467 414.521468 
L 674.593928 414.899088 
L 675.521002 414.233261 
L 676.440804 411.688358 
L 677.353449 414.294777 
L 678.259046 417.387994 
L 679.157703 412.870765 
L 680.049526 411.036061 
L 681.813082 416.911291 
L 682.685013 412.89437 
L 683.550509 415.196713 
L 684.409665 417.962381 
L 685.262572 418.043922 
L 686.109321 416.115988 
L 686.109321 416.115988 
" style="fill:none;stroke:#000000;stroke-dasharray:9,3;stroke-dashoffset:0;stroke-width:1.5;"/>
   </g>
   <g id="line2d_23">
    <path clip-path="url(#p756364e160)" d="M -1 255.109572 
L 107.422759 255.033239 
L 188.711052 280.305725 
L 236.261654 306.522898 
L 269.999344 247.838141 
L 296.168329 323.351958 
L 317.549946 335.355924 
L 335.627846 332.721497 
L 351.287636 58.705369 
L 365.100549 338.749748 
L 377.456621 341.129468 
L 388.634047 337.854048 
L 398.838238 332.51134 
L 408.225184 351.610373 
L 416.916139 360.368106 
L 425.007223 351.379906 
L 432.575928 270.375251 
L 439.685633 360.98362 
L 446.388841 367.426048 
L 452.729532 358.732036 
L 458.744913 362.956455 
L 464.466741 373.458938 
L 469.92234 369.530001 
L 475.135385 382.087158 
L 480.126531 352.450045 
L 484.913898 381.659119 
L 489.513476 386.112501 
L 493.939444 380.239709 
L 498.204431 364.984566 
L 502.319738 379.997414 
L 506.295516 380.380495 
L 510.140916 391.568954 
L 513.86422 370.307123 
L 517.472942 384.590459 
L 520.973925 393.602358 
L 524.373416 393.051184 
L 527.677133 384.719442 
L 530.890326 387.863954 
L 534.017824 385.859385 
L 537.064079 384.825186 
L 540.033205 381.716509 
L 542.929012 383.873304 
L 545.755033 388.696545 
L 548.514554 384.476932 
L 551.210632 390.569773 
L 553.846118 386.839593 
L 556.423677 396.880524 
L 558.945801 388.379468 
L 561.414823 387.035812 
L 563.832933 396.808877 
L 566.20219 398.191458 
L 568.524528 390.876242 
L 570.801769 395.364798 
L 573.035631 392.113079 
L 575.227736 399.836847 
L 577.379617 391.445671 
L 579.492723 393.40076 
L 581.568427 400.613286 
L 583.60803 397.40332 
L 585.612766 394.991272 
L 587.583808 399.753232 
L 589.522269 400.868539 
L 591.429209 399.072949 
L 593.305636 401.286583 
L 595.152512 400.789209 
L 596.970754 399.06248 
L 598.761234 400.858089 
L 600.52479 396.314495 
L 602.262217 406.815569 
L 603.97428 399.923456 
L 605.661708 401.618782 
L 607.3252 401.774119 
L 608.965425 401.645159 
L 610.583026 405.831242 
L 612.178619 400.866128 
L 613.752793 401.969677 
L 615.306116 402.139284 
L 616.839134 407.426376 
L 618.352371 407.359544 
L 619.84633 404.102437 
L 621.321497 399.811617 
L 622.778339 410.230547 
L 624.217304 404.034754 
L 625.638827 403.962965 
L 627.043325 408.113493 
L 628.431202 408.180832 
L 629.802846 405.790071 
L 631.158633 408.496072 
L 632.498924 403.536638 
L 633.82407 402.886199 
L 635.13441 407.590719 
L 636.430271 407.879313 
L 637.711969 407.590261 
L 638.979811 409.173921 
L 641.475101 410.721042 
L 642.703115 401.945932 
L 643.918403 406.04525 
L 645.121226 408.056179 
L 647.490482 408.875656 
L 648.6574 407.184792 
L 649.81282 410.745853 
L 650.956968 407.439125 
L 652.090061 407.933689 
L 653.212311 406.062839 
L 654.323923 410.604568 
L 655.425097 413.320759 
L 656.516028 406.558591 
L 657.596904 407.29188 
L 659.729221 414.5826 
L 660.781015 412.030391 
L 661.823459 408.759309 
L 662.856719 412.763559 
L 663.880954 412.032256 
L 664.896322 415.244167 
L 665.902974 409.891068 
L 666.901058 410.426057 
L 667.89072 412.936005 
L 668.8721 409.845944 
L 669.845335 409.868999 
L 670.810561 409.083157 
L 671.767907 409.886082 
L 672.717501 412.817379 
L 673.659467 410.504754 
L 674.593928 408.784296 
L 675.521002 411.956529 
L 677.353449 412.052496 
L 678.259046 408.811825 
L 679.157703 414.067982 
L 680.049526 410.470399 
L 680.934619 416.461937 
L 681.813082 415.12441 
L 682.685013 413.409183 
L 683.550509 415.744521 
L 684.409665 414.83246 
L 685.262572 415.868485 
L 686.109321 413.257326 
L 686.109321 413.257326 
" style="fill:none;stroke:#000000;stroke-dasharray:3,3,15,3;stroke-dashoffset:0;stroke-width:1.5;"/>
   </g>
   <g id="line2d_24">
    <path clip-path="url(#p756364e160)" d="M -1 152.310002 
L 180.619967 152.112776 
L 261.908259 206.692356 
L 309.458861 250.363098 
L 343.196551 267.671161 
L 369.365536 283.722557 
L 390.747154 289.527849 
L 408.825054 293.061124 
L 424.484843 307.860087 
L 438.297756 315.847573 
L 450.653828 316.601157 
L 461.831255 317.769742 
L 472.035446 319.330728 
L 481.422391 330.931669 
L 490.113346 329.401126 
L 498.204431 326.996343 
L 505.773135 329.275567 
L 512.88284 324.504131 
L 519.586048 318.937132 
L 525.926739 328.351607 
L 531.94212 335.864946 
L 537.663948 341.986491 
L 543.119547 339.573385 
L 548.332592 330.274628 
L 553.323738 332.292637 
L 558.111105 343.41631 
L 562.710684 334.401824 
L 567.136651 339.54403 
L 571.401638 344.455278 
L 575.516945 352.856811 
L 579.492723 351.895167 
L 583.338124 346.925408 
L 587.061427 341.178173 
L 590.670149 358.929423 
L 594.171132 353.936412 
L 597.570623 358.71216 
L 600.87434 368.013619 
L 604.087534 365.650243 
L 607.215031 363.981054 
L 610.261286 368.553096 
L 613.230412 368.839128 
L 616.126219 357.670107 
L 618.952241 367.688433 
L 621.711761 373.376943 
L 624.407839 377.963352 
L 627.043325 376.005333 
L 629.620885 358.556151 
L 632.143008 366.505078 
L 634.61203 378.889285 
L 637.030141 373.614302 
L 639.399397 380.937314 
L 641.721735 381.600391 
L 643.998976 372.58718 
L 646.232838 382.209171 
L 648.424943 378.132442 
L 650.576824 383.683482 
L 652.68993 383.289782 
L 654.765634 375.370084 
L 656.805237 381.736535 
L 658.809973 380.612855 
L 660.781015 392.867912 
L 662.719476 383.168575 
L 664.626416 380.566889 
L 666.502843 383.976553 
L 668.349719 389.226363 
L 670.167961 381.417587 
L 671.958442 382.351679 
L 673.721997 386.508035 
L 675.459424 387.8115 
L 677.171487 386.012105 
L 678.858915 384.472076 
L 680.522407 385.321253 
L 682.162633 391.430919 
L 683.780234 387.107943 
L 685.375826 386.623972 
" style="fill:none;stroke:#000000;stroke-dasharray:1.5,1.5;stroke-dashoffset:0;stroke-width:1.5;"/>
   </g>
   <g id="line2d_25"/>
   <g id="line2d_26"/>
   <g id="line2d_27"/>
   <g id="patch_3">
    <path d="M 39.425 439.2 
L 39.425 10.8 
" style="fill:none;stroke:#000000;stroke-linecap:square;stroke-linejoin:miter;stroke-width:0.8;"/>
   </g>
   <g id="patch_4">
    <path d="M 686.95 439.2 
L 686.95 10.8 
" style="fill:none;stroke:#000000;stroke-linecap:square;stroke-linejoin:miter;stroke-width:0.8;"/>
   </g>
   <g id="patch_5">
    <path d="M 39.425 439.2 
L 686.95 439.2 
" style="fill:none;stroke:#000000;stroke-linecap:square;stroke-linejoin:miter;stroke-width:0.8;"/>
   </g>
   <g id="patch_6">
    <path d="M 39.425 10.8 
L 686.95 10.8 
" style="fill:none;stroke:#000000;stroke-linecap:square;stroke-linejoin:miter;stroke-width:0.8;"/>
   </g>
   <g id="legend_1">
    <g id="patch_7">
     <path d="M 543.46875 114.86875 
L 672.95 114.86875 
Q 676.95 114.86875 676.95 110.86875 
L 676.95 24.8 
Q 676.95 20.8 672.95 20.8 
L 543.46875 20.8 
Q 539.46875 20.8 539.46875 24.8 
L 539.46875 110.86875 
Q 539.46875 114.86875 543.46875 114.86875 
z
" style="fill:#ffffff;opacity:0.8;stroke:#cccccc;stroke-linejoin:miter;"/>
    </g>
    <g id="line2d_28">
     <path d="M 547.46875 36.996875 
L 587.46875 36.996875 
" style="fill:none;stroke:#000000;stroke-dasharray:9,3;stroke-dashoffset:0;stroke-width:1.5;"/>
    </g>
    <g id="line2d_29"/>
    <g id="text_9">
     <!-- Stroop -->
     <g transform="translate(603.46875 43.996875)scale(0.2 -0.2)">
      <use xlink:href="#DejaVuSans-83"/>
      <use x="63.476562" xlink:href="#DejaVuSans-116"/>
      <use x="102.685547" xlink:href="#DejaVuSans-114"/>
      <use x="141.548828" xlink:href="#DejaVuSans-111"/>
      <use x="202.730469" xlink:href="#DejaVuSans-111"/>
      <use x="263.912109" xlink:href="#DejaVuSans-112"/>
     </g>
    </g>
    <g id="line2d_30">
     <path d="M 547.46875 66.353125 
L 587.46875 66.353125 
" style="fill:none;stroke:#000000;stroke-dasharray:3,3,15,3;stroke-dashoffset:0;stroke-width:1.5;"/>
    </g>
    <g id="line2d_31"/>
    <g id="text_10">
     <!-- MSIT -->
     <g transform="translate(603.46875 73.353125)scale(0.2 -0.2)">
      <defs>
       <path d="M 9.8125 72.90625 
L 24.515625 72.90625 
L 43.109375 23.296875 
L 61.8125 72.90625 
L 76.515625 72.90625 
L 76.515625 0 
L 66.890625 0 
L 66.890625 64.015625 
L 48.09375 14.015625 
L 38.1875 14.015625 
L 19.390625 64.015625 
L 19.390625 0 
L 9.8125 0 
z
" id="DejaVuSans-77"/>
       <path d="M 9.8125 72.90625 
L 19.671875 72.90625 
L 19.671875 0 
L 9.8125 0 
z
" id="DejaVuSans-73"/>
       <path d="M -0.296875 72.90625 
L 61.375 72.90625 
L 61.375 64.59375 
L 35.5 64.59375 
L 35.5 0 
L 25.59375 0 
L 25.59375 64.59375 
L -0.296875 64.59375 
z
" id="DejaVuSans-84"/>
      </defs>
      <use xlink:href="#DejaVuSans-77"/>
      <use x="86.279297" xlink:href="#DejaVuSans-83"/>
      <use x="149.755859" xlink:href="#DejaVuSans-73"/>
      <use x="179.248047" xlink:href="#DejaVuSans-84"/>
     </g>
    </g>
    <g id="line2d_32">
     <path d="M 547.46875 95.709375 
L 587.46875 95.709375 
" style="fill:none;stroke:#000000;stroke-dasharray:1.5,1.5;stroke-dashoffset:0;stroke-width:1.5;"/>
    </g>
    <g id="line2d_33"/>
    <g id="text_11">
     <!-- Rest -->
     <g transform="translate(603.46875 102.709375)scale(0.2 -0.2)">
      <defs>
       <path d="M 44.390625 34.1875 
Q 47.5625 33.109375 50.5625 29.59375 
Q 53.5625 26.078125 56.59375 19.921875 
L 66.609375 0 
L 56 0 
L 46.6875 18.703125 
Q 43.0625 26.03125 39.671875 28.421875 
Q 36.28125 30.8125 30.421875 30.8125 
L 19.671875 30.8125 
L 19.671875 0 
L 9.8125 0 
L 9.8125 72.90625 
L 32.078125 72.90625 
Q 44.578125 72.90625 50.734375 67.671875 
Q 56.890625 62.453125 56.890625 51.90625 
Q 56.890625 45.015625 53.6875 40.46875 
Q 50.484375 35.9375 44.390625 34.1875 
z
M 19.671875 64.796875 
L 19.671875 38.921875 
L 32.078125 38.921875 
Q 39.203125 38.921875 42.84375 42.21875 
Q 46.484375 45.515625 46.484375 51.90625 
Q 46.484375 58.296875 42.84375 61.546875 
Q 39.203125 64.796875 32.078125 64.796875 
z
" id="DejaVuSans-82"/>
       <path d="M 44.28125 53.078125 
L 44.28125 44.578125 
Q 40.484375 46.53125 36.375 47.5 
Q 32.28125 48.484375 27.875 48.484375 
Q 21.1875 48.484375 17.84375 46.4375 
Q 14.5 44.390625 14.5 40.28125 
Q 14.5 37.15625 16.890625 35.375 
Q 19.28125 33.59375 26.515625 31.984375 
L 29.59375 31.296875 
Q 39.15625 29.25 43.1875 25.515625 
Q 47.21875 21.78125 47.21875 15.09375 
Q 47.21875 7.46875 41.1875 3.015625 
Q 35.15625 -1.421875 24.609375 -1.421875 
Q 20.21875 -1.421875 15.453125 -0.5625 
Q 10.6875 0.296875 5.421875 2 
L 5.421875 11.28125 
Q 10.40625 8.6875 15.234375 7.390625 
Q 20.0625 6.109375 24.8125 6.109375 
Q 31.15625 6.109375 34.5625 8.28125 
Q 37.984375 10.453125 37.984375 14.40625 
Q 37.984375 18.0625 35.515625 20.015625 
Q 33.0625 21.96875 24.703125 23.78125 
L 21.578125 24.515625 
Q 13.234375 26.265625 9.515625 29.90625 
Q 5.8125 33.546875 5.8125 39.890625 
Q 5.8125 47.609375 11.28125 51.796875 
Q 16.75 56 26.8125 56 
Q 31.78125 56 36.171875 55.265625 
Q 40.578125 54.546875 44.28125 53.078125 
z
" id="DejaVuSans-115"/>
      </defs>
      <use xlink:href="#DejaVuSans-82"/>
      <use x="64.982422" xlink:href="#DejaVuSans-101"/>
      <use x="126.505859" xlink:href="#DejaVuSans-115"/>
      <use x="178.605469" xlink:href="#DejaVuSans-116"/>
     </g>
    </g>
   </g>
  </g>
 </g>
 <defs>
  <clipPath id="p756364e160">
   <rect height="428.4" width="647.525" x="39.425" y="10.8"/>
  </clipPath>
 </defs>
</svg>
