<?xml version="1.0" encoding="utf-8" standalone="no"?>
<!DOCTYPE svg PUBLIC "-//W3C//DTD SVG 1.1//EN"
  "http://www.w3.org/Graphics/SVG/1.1/DTD/svg11.dtd">
<!-- Created with matplotlib (https://matplotlib.org/) -->
<svg height="504pt" version="1.1" viewBox="0 0 720 504" width="720pt" xmlns="http://www.w3.org/2000/svg" xmlns:xlink="http://www.w3.org/1999/xlink">
 <metadata>
  <rdf:RDF xmlns:cc="http://creativecommons.org/ns#" xmlns:dc="http://purl.org/dc/elements/1.1/" xmlns:rdf="http://www.w3.org/1999/02/22-rdf-syntax-ns#">
   <cc:Work>
    <dc:type rdf:resource="http://purl.org/dc/dcmitype/StillImage"/>
    <dc:date>2021-07-19T13:14:23.645640</dc:date>
    <dc:format>image/svg+xml</dc:format>
    <dc:creator>
     <cc:Agent>
      <dc:title>Matplotlib v3.3.4, https://matplotlib.org/</dc:title>
     </cc:Agent>
    </dc:creator>
   </cc:Work>
  </rdf:RDF>
 </metadata>
 <defs>
  <style type="text/css">*{stroke-linecap:butt;stroke-linejoin:round;}</style>
 </defs>
 <g id="figure_1">
  <g id="patch_1">
   <path d="M 0 504 
L 720 504 
L 720 0 
L 0 0 
z
" style="fill:none;"/>
  </g>
  <g id="axes_1">
   <g id="patch_2">
    <path d="M 14.3 440.2 
L 691.282501 440.2 
L 691.282501 82 
L 14.3 82 
z
" style="fill:#ffffff;"/>
   </g>
   <g id="patch_3">
    <path clip-path="url(#p89c910cd85)" d="M 45.071932 440.2 
L 54.998362 440.2 
L 54.998362 439.571571 
L 45.071932 439.571571 
z
" style="fill:#1f77b4;fill-opacity:0.5;stroke:#000000;stroke-linejoin:miter;stroke-width:0.818182;"/>
   </g>
   <g id="patch_4">
    <path clip-path="url(#p89c910cd85)" d="M 54.998362 440.2 
L 64.924791 440.2 
L 64.924791 439.571571 
L 54.998362 439.571571 
z
" style="fill:#1f77b4;fill-opacity:0.5;stroke:#000000;stroke-linejoin:miter;stroke-width:0.818182;"/>
   </g>
   <g id="patch_5">
    <path clip-path="url(#p89c910cd85)" d="M 64.924791 440.2 
L 74.851221 440.2 
L 74.851221 440.2 
L 64.924791 440.2 
z
" style="fill:#1f77b4;fill-opacity:0.5;stroke:#000000;stroke-linejoin:miter;stroke-width:0.818182;"/>
   </g>
   <g id="patch_6">
    <path clip-path="url(#p89c910cd85)" d="M 74.851221 440.2 
L 84.77765 440.2 
L 84.77765 438.943141 
L 74.851221 438.943141 
z
" style="fill:#1f77b4;fill-opacity:0.5;stroke:#000000;stroke-linejoin:miter;stroke-width:0.818182;"/>
   </g>
   <g id="patch_7">
    <path clip-path="url(#p89c910cd85)" d="M 84.77765 440.2 
L 94.70408 440.2 
L 94.70408 438.943141 
L 84.77765 438.943141 
z
" style="fill:#1f77b4;fill-opacity:0.5;stroke:#000000;stroke-linejoin:miter;stroke-width:0.818182;"/>
   </g>
   <g id="patch_8">
    <path clip-path="url(#p89c910cd85)" d="M 94.70408 440.2 
L 104.63051 440.2 
L 104.63051 439.571571 
L 94.70408 439.571571 
z
" style="fill:#1f77b4;fill-opacity:0.5;stroke:#000000;stroke-linejoin:miter;stroke-width:0.818182;"/>
   </g>
   <g id="patch_9">
    <path clip-path="url(#p89c910cd85)" d="M 104.63051 440.2 
L 114.556939 440.2 
L 114.556939 438.943141 
L 104.63051 438.943141 
z
" style="fill:#1f77b4;fill-opacity:0.5;stroke:#000000;stroke-linejoin:miter;stroke-width:0.818182;"/>
   </g>
   <g id="patch_10">
    <path clip-path="url(#p89c910cd85)" d="M 114.556939 440.2 
L 124.483369 440.2 
L 124.483369 436.429424 
L 114.556939 436.429424 
z
" style="fill:#1f77b4;fill-opacity:0.5;stroke:#000000;stroke-linejoin:miter;stroke-width:0.818182;"/>
   </g>
   <g id="patch_11">
    <path clip-path="url(#p89c910cd85)" d="M 124.483369 440.2 
L 134.409799 440.2 
L 134.409799 436.429424 
L 124.483369 436.429424 
z
" style="fill:#1f77b4;fill-opacity:0.5;stroke:#000000;stroke-linejoin:miter;stroke-width:0.818182;"/>
   </g>
   <g id="patch_12">
    <path clip-path="url(#p89c910cd85)" d="M 134.409799 440.2 
L 144.336228 440.2 
L 144.336228 433.915707 
L 134.409799 433.915707 
z
" style="fill:#1f77b4;fill-opacity:0.5;stroke:#000000;stroke-linejoin:miter;stroke-width:0.818182;"/>
   </g>
   <g id="patch_13">
    <path clip-path="url(#p89c910cd85)" d="M 144.336228 440.2 
L 154.262658 440.2 
L 154.262658 432.658848 
L 144.336228 432.658848 
z
" style="fill:#1f77b4;fill-opacity:0.5;stroke:#000000;stroke-linejoin:miter;stroke-width:0.818182;"/>
   </g>
   <g id="patch_14">
    <path clip-path="url(#p89c910cd85)" d="M 154.262658 440.2 
L 164.189088 440.2 
L 164.189088 426.374555 
L 154.262658 426.374555 
z
" style="fill:#1f77b4;fill-opacity:0.5;stroke:#000000;stroke-linejoin:miter;stroke-width:0.818182;"/>
   </g>
   <g id="patch_15">
    <path clip-path="url(#p89c910cd85)" d="M 164.189088 440.2 
L 174.115517 440.2 
L 174.115517 425.746126 
L 164.189088 425.746126 
z
" style="fill:#1f77b4;fill-opacity:0.5;stroke:#000000;stroke-linejoin:miter;stroke-width:0.818182;"/>
   </g>
   <g id="patch_16">
    <path clip-path="url(#p89c910cd85)" d="M 174.115517 440.2 
L 184.041947 440.2 
L 184.041947 421.34712 
L 174.115517 421.34712 
z
" style="fill:#1f77b4;fill-opacity:0.5;stroke:#000000;stroke-linejoin:miter;stroke-width:0.818182;"/>
   </g>
   <g id="patch_17">
    <path clip-path="url(#p89c910cd85)" d="M 184.041947 440.2 
L 193.968376 440.2 
L 193.968376 412.54911 
L 184.041947 412.54911 
z
" style="fill:#1f77b4;fill-opacity:0.5;stroke:#000000;stroke-linejoin:miter;stroke-width:0.818182;"/>
   </g>
   <g id="patch_18">
    <path clip-path="url(#p89c910cd85)" d="M 193.968376 440.2 
L 203.894806 440.2 
L 203.894806 419.461832 
L 193.968376 419.461832 
z
" style="fill:#1f77b4;fill-opacity:0.5;stroke:#000000;stroke-linejoin:miter;stroke-width:0.818182;"/>
   </g>
   <g id="patch_19">
    <path clip-path="url(#p89c910cd85)" d="M 203.894806 440.2 
L 213.821236 440.2 
L 213.821236 409.406963 
L 203.894806 409.406963 
z
" style="fill:#1f77b4;fill-opacity:0.5;stroke:#000000;stroke-linejoin:miter;stroke-width:0.818182;"/>
   </g>
   <g id="patch_20">
    <path clip-path="url(#p89c910cd85)" d="M 213.821236 440.2 
L 223.747665 440.2 
L 223.747665 398.095235 
L 213.821236 398.095235 
z
" style="fill:#1f77b4;fill-opacity:0.5;stroke:#000000;stroke-linejoin:miter;stroke-width:0.818182;"/>
   </g>
   <g id="patch_21">
    <path clip-path="url(#p89c910cd85)" d="M 223.747665 440.2 
L 233.674095 440.2 
L 233.674095 393.067801 
L 223.747665 393.067801 
z
" style="fill:#1f77b4;fill-opacity:0.5;stroke:#000000;stroke-linejoin:miter;stroke-width:0.818182;"/>
   </g>
   <g id="patch_22">
    <path clip-path="url(#p89c910cd85)" d="M 233.674095 440.2 
L 243.600525 440.2 
L 243.600525 379.242356 
L 233.674095 379.242356 
z
" style="fill:#1f77b4;fill-opacity:0.5;stroke:#000000;stroke-linejoin:miter;stroke-width:0.818182;"/>
   </g>
   <g id="patch_23">
    <path clip-path="url(#p89c910cd85)" d="M 243.600525 440.2 
L 253.526954 440.2 
L 253.526954 361.646335 
L 243.600525 361.646335 
z
" style="fill:#1f77b4;fill-opacity:0.5;stroke:#000000;stroke-linejoin:miter;stroke-width:0.818182;"/>
   </g>
   <g id="patch_24">
    <path clip-path="url(#p89c910cd85)" d="M 253.526954 440.2 
L 263.453384 440.2 
L 263.453384 357.875759 
L 253.526954 357.875759 
z
" style="fill:#1f77b4;fill-opacity:0.5;stroke:#000000;stroke-linejoin:miter;stroke-width:0.818182;"/>
   </g>
   <g id="patch_25">
    <path clip-path="url(#p89c910cd85)" d="M 263.453384 440.2 
L 273.379814 440.2 
L 273.379814 323.940576 
L 263.453384 323.940576 
z
" style="fill:#1f77b4;fill-opacity:0.5;stroke:#000000;stroke-linejoin:miter;stroke-width:0.818182;"/>
   </g>
   <g id="patch_26">
    <path clip-path="url(#p89c910cd85)" d="M 273.379814 440.2 
L 283.306243 440.2 
L 283.306243 327.711151 
L 273.379814 327.711151 
z
" style="fill:#1f77b4;fill-opacity:0.5;stroke:#000000;stroke-linejoin:miter;stroke-width:0.818182;"/>
   </g>
   <g id="patch_27">
    <path clip-path="url(#p89c910cd85)" d="M 283.306243 440.2 
L 293.232673 440.2 
L 293.232673 284.349528 
L 283.306243 284.349528 
z
" style="fill:#1f77b4;fill-opacity:0.5;stroke:#000000;stroke-linejoin:miter;stroke-width:0.818182;"/>
   </g>
   <g id="patch_28">
    <path clip-path="url(#p89c910cd85)" d="M 293.232673 440.2 
L 303.159102 440.2 
L 303.159102 261.097643 
L 293.232673 261.097643 
z
" style="fill:#1f77b4;fill-opacity:0.5;stroke:#000000;stroke-linejoin:miter;stroke-width:0.818182;"/>
   </g>
   <g id="patch_29">
    <path clip-path="url(#p89c910cd85)" d="M 303.159102 440.2 
L 313.085532 440.2 
L 313.085532 230.933036 
L 303.159102 230.933036 
z
" style="fill:#1f77b4;fill-opacity:0.5;stroke:#000000;stroke-linejoin:miter;stroke-width:0.818182;"/>
   </g>
   <g id="patch_30">
    <path clip-path="url(#p89c910cd85)" d="M 313.085532 440.2 
L 323.011962 440.2 
L 323.011962 215.850732 
L 313.085532 215.850732 
z
" style="fill:#1f77b4;fill-opacity:0.5;stroke:#000000;stroke-linejoin:miter;stroke-width:0.818182;"/>
   </g>
   <g id="patch_31">
    <path clip-path="url(#p89c910cd85)" d="M 323.011962 440.2 
L 332.938391 440.2 
L 332.938391 226.534031 
L 323.011962 226.534031 
z
" style="fill:#1f77b4;fill-opacity:0.5;stroke:#000000;stroke-linejoin:miter;stroke-width:0.818182;"/>
   </g>
   <g id="patch_32">
    <path clip-path="url(#p89c910cd85)" d="M 332.938391 440.2 
L 342.864821 440.2 
L 342.864821 185.057695 
L 332.938391 185.057695 
z
" style="fill:#1f77b4;fill-opacity:0.5;stroke:#000000;stroke-linejoin:miter;stroke-width:0.818182;"/>
   </g>
   <g id="patch_33">
    <path clip-path="url(#p89c910cd85)" d="M 342.864821 440.2 
L 352.791251 440.2 
L 352.791251 160.548952 
L 342.864821 160.548952 
z
" style="fill:#1f77b4;fill-opacity:0.5;stroke:#000000;stroke-linejoin:miter;stroke-width:0.818182;"/>
   </g>
   <g id="patch_34">
    <path clip-path="url(#p89c910cd85)" d="M 352.791251 440.2 
L 362.71768 440.2 
L 362.71768 160.548952 
L 352.791251 160.548952 
z
" style="fill:#1f77b4;fill-opacity:0.5;stroke:#000000;stroke-linejoin:miter;stroke-width:0.818182;"/>
   </g>
   <g id="patch_35">
    <path clip-path="url(#p89c910cd85)" d="M 362.71768 440.2 
L 372.64411 440.2 
L 372.64411 146.095078 
L 362.71768 146.095078 
z
" style="fill:#1f77b4;fill-opacity:0.5;stroke:#000000;stroke-linejoin:miter;stroke-width:0.818182;"/>
   </g>
   <g id="patch_36">
    <path clip-path="url(#p89c910cd85)" d="M 372.64411 440.2 
L 382.57054 440.2 
L 382.57054 146.723507 
L 372.64411 146.723507 
z
" style="fill:#1f77b4;fill-opacity:0.5;stroke:#000000;stroke-linejoin:miter;stroke-width:0.818182;"/>
   </g>
   <g id="patch_37">
    <path clip-path="url(#p89c910cd85)" d="M 382.57054 440.2 
L 392.496969 440.2 
L 392.496969 126.613769 
L 382.57054 126.613769 
z
" style="fill:#1f77b4;fill-opacity:0.5;stroke:#000000;stroke-linejoin:miter;stroke-width:0.818182;"/>
   </g>
   <g id="patch_38">
    <path clip-path="url(#p89c910cd85)" d="M 392.496969 440.2 
L 402.423399 440.2 
L 402.423399 115.302041 
L 392.496969 115.302041 
z
" style="fill:#1f77b4;fill-opacity:0.5;stroke:#000000;stroke-linejoin:miter;stroke-width:0.818182;"/>
   </g>
   <g id="patch_39">
    <path clip-path="url(#p89c910cd85)" d="M 402.423399 440.2 
L 412.349828 440.2 
L 412.349828 127.870627 
L 402.423399 127.870627 
z
" style="fill:#1f77b4;fill-opacity:0.5;stroke:#000000;stroke-linejoin:miter;stroke-width:0.818182;"/>
   </g>
   <g id="patch_40">
    <path clip-path="url(#p89c910cd85)" d="M 412.349828 440.2 
L 422.276258 440.2 
L 422.276258 149.237224 
L 412.349828 149.237224 
z
" style="fill:#1f77b4;fill-opacity:0.5;stroke:#000000;stroke-linejoin:miter;stroke-width:0.818182;"/>
   </g>
   <g id="patch_41">
    <path clip-path="url(#p89c910cd85)" d="M 422.276258 440.2 
L 432.202688 440.2 
L 432.202688 153.0078 
L 422.276258 153.0078 
z
" style="fill:#1f77b4;fill-opacity:0.5;stroke:#000000;stroke-linejoin:miter;stroke-width:0.818182;"/>
   </g>
   <g id="patch_42">
    <path clip-path="url(#p89c910cd85)" d="M 432.202688 440.2 
L 442.129117 440.2 
L 442.129117 164.319528 
L 432.202688 164.319528 
z
" style="fill:#1f77b4;fill-opacity:0.5;stroke:#000000;stroke-linejoin:miter;stroke-width:0.818182;"/>
   </g>
   <g id="patch_43">
    <path clip-path="url(#p89c910cd85)" d="M 442.129117 440.2 
L 452.055547 440.2 
L 452.055547 198.254711 
L 442.129117 198.254711 
z
" style="fill:#1f77b4;fill-opacity:0.5;stroke:#000000;stroke-linejoin:miter;stroke-width:0.818182;"/>
   </g>
   <g id="patch_44">
    <path clip-path="url(#p89c910cd85)" d="M 452.055547 440.2 
L 461.981977 440.2 
L 461.981977 217.73602 
L 452.055547 217.73602 
z
" style="fill:#1f77b4;fill-opacity:0.5;stroke:#000000;stroke-linejoin:miter;stroke-width:0.818182;"/>
   </g>
   <g id="patch_45">
    <path clip-path="url(#p89c910cd85)" d="M 461.981977 440.2 
L 471.908406 440.2 
L 471.908406 251.671204 
L 461.981977 251.671204 
z
" style="fill:#1f77b4;fill-opacity:0.5;stroke:#000000;stroke-linejoin:miter;stroke-width:0.818182;"/>
   </g>
   <g id="patch_46">
    <path clip-path="url(#p89c910cd85)" d="M 471.908406 440.2 
L 481.834836 440.2 
L 481.834836 277.436806 
L 471.908406 277.436806 
z
" style="fill:#1f77b4;fill-opacity:0.5;stroke:#000000;stroke-linejoin:miter;stroke-width:0.818182;"/>
   </g>
   <g id="patch_47">
    <path clip-path="url(#p89c910cd85)" d="M 481.834836 440.2 
L 491.761266 440.2 
L 491.761266 315.142565 
L 481.834836 315.142565 
z
" style="fill:#1f77b4;fill-opacity:0.5;stroke:#000000;stroke-linejoin:miter;stroke-width:0.818182;"/>
   </g>
   <g id="patch_48">
    <path clip-path="url(#p89c910cd85)" d="M 491.761266 440.2 
L 501.687695 440.2 
L 501.687695 316.399424 
L 491.761266 316.399424 
z
" style="fill:#1f77b4;fill-opacity:0.5;stroke:#000000;stroke-linejoin:miter;stroke-width:0.818182;"/>
   </g>
   <g id="patch_49">
    <path clip-path="url(#p89c910cd85)" d="M 501.687695 440.2 
L 511.614125 440.2 
L 511.614125 351.591466 
L 501.687695 351.591466 
z
" style="fill:#1f77b4;fill-opacity:0.5;stroke:#000000;stroke-linejoin:miter;stroke-width:0.818182;"/>
   </g>
   <g id="patch_50">
    <path clip-path="url(#p89c910cd85)" d="M 511.614125 440.2 
L 521.540554 440.2 
L 521.540554 376.728639 
L 511.614125 376.728639 
z
" style="fill:#1f77b4;fill-opacity:0.5;stroke:#000000;stroke-linejoin:miter;stroke-width:0.818182;"/>
   </g>
   <g id="patch_51">
    <path clip-path="url(#p89c910cd85)" d="M 521.540554 440.2 
L 531.466984 440.2 
L 531.466984 379.242356 
L 521.540554 379.242356 
z
" style="fill:#1f77b4;fill-opacity:0.5;stroke:#000000;stroke-linejoin:miter;stroke-width:0.818182;"/>
   </g>
   <g id="patch_52">
    <path clip-path="url(#p89c910cd85)" d="M 531.466984 440.2 
L 541.393414 440.2 
L 541.393414 406.264817 
L 531.466984 406.264817 
z
" style="fill:#1f77b4;fill-opacity:0.5;stroke:#000000;stroke-linejoin:miter;stroke-width:0.818182;"/>
   </g>
   <g id="patch_53">
    <path clip-path="url(#p89c910cd85)" d="M 541.393414 440.2 
L 551.319843 440.2 
L 551.319843 413.177539 
L 541.393414 413.177539 
z
" style="fill:#1f77b4;fill-opacity:0.5;stroke:#000000;stroke-linejoin:miter;stroke-width:0.818182;"/>
   </g>
   <g id="patch_54">
    <path clip-path="url(#p89c910cd85)" d="M 551.319843 440.2 
L 561.246273 440.2 
L 561.246273 417.576544 
L 551.319843 417.576544 
z
" style="fill:#1f77b4;fill-opacity:0.5;stroke:#000000;stroke-linejoin:miter;stroke-width:0.818182;"/>
   </g>
   <g id="patch_55">
    <path clip-path="url(#p89c910cd85)" d="M 561.246273 440.2 
L 571.172703 440.2 
L 571.172703 427.002984 
L 561.246273 427.002984 
z
" style="fill:#1f77b4;fill-opacity:0.5;stroke:#000000;stroke-linejoin:miter;stroke-width:0.818182;"/>
   </g>
   <g id="patch_56">
    <path clip-path="url(#p89c910cd85)" d="M 571.172703 440.2 
L 581.099132 440.2 
L 581.099132 428.888272 
L 571.172703 428.888272 
z
" style="fill:#1f77b4;fill-opacity:0.5;stroke:#000000;stroke-linejoin:miter;stroke-width:0.818182;"/>
   </g>
   <g id="patch_57">
    <path clip-path="url(#p89c910cd85)" d="M 581.099132 440.2 
L 591.025562 440.2 
L 591.025562 435.800995 
L 581.099132 435.800995 
z
" style="fill:#1f77b4;fill-opacity:0.5;stroke:#000000;stroke-linejoin:miter;stroke-width:0.818182;"/>
   </g>
   <g id="patch_58">
    <path clip-path="url(#p89c910cd85)" d="M 591.025562 440.2 
L 600.951992 440.2 
L 600.951992 436.429424 
L 591.025562 436.429424 
z
" style="fill:#1f77b4;fill-opacity:0.5;stroke:#000000;stroke-linejoin:miter;stroke-width:0.818182;"/>
   </g>
   <g id="patch_59">
    <path clip-path="url(#p89c910cd85)" d="M 600.951992 440.2 
L 610.878421 440.2 
L 610.878421 436.429424 
L 600.951992 436.429424 
z
" style="fill:#1f77b4;fill-opacity:0.5;stroke:#000000;stroke-linejoin:miter;stroke-width:0.818182;"/>
   </g>
   <g id="patch_60">
    <path clip-path="url(#p89c910cd85)" d="M 610.878421 440.2 
L 620.804851 440.2 
L 620.804851 438.314712 
L 610.878421 438.314712 
z
" style="fill:#1f77b4;fill-opacity:0.5;stroke:#000000;stroke-linejoin:miter;stroke-width:0.818182;"/>
   </g>
   <g id="patch_61">
    <path clip-path="url(#p89c910cd85)" d="M 620.804851 440.2 
L 630.73128 440.2 
L 630.73128 439.571571 
L 620.804851 439.571571 
z
" style="fill:#1f77b4;fill-opacity:0.5;stroke:#000000;stroke-linejoin:miter;stroke-width:0.818182;"/>
   </g>
   <g id="patch_62">
    <path clip-path="url(#p89c910cd85)" d="M 630.73128 440.2 
L 640.65771 440.2 
L 640.65771 439.571571 
L 630.73128 439.571571 
z
" style="fill:#1f77b4;fill-opacity:0.5;stroke:#000000;stroke-linejoin:miter;stroke-width:0.818182;"/>
   </g>
   <g id="patch_63">
    <path clip-path="url(#p89c910cd85)" d="M 640.65771 440.2 
L 650.58414 440.2 
L 650.58414 439.571571 
L 640.65771 439.571571 
z
" style="fill:#1f77b4;fill-opacity:0.5;stroke:#000000;stroke-linejoin:miter;stroke-width:0.818182;"/>
   </g>
   <g id="patch_64">
    <path clip-path="url(#p89c910cd85)" d="M 650.58414 440.2 
L 660.510569 440.2 
L 660.510569 439.571571 
L 650.58414 439.571571 
z
" style="fill:#1f77b4;fill-opacity:0.5;stroke:#000000;stroke-linejoin:miter;stroke-width:0.818182;"/>
   </g>
   <g id="matplotlib.axis_1">
    <g id="xtick_1">
     <g id="line2d_1">
      <defs>
       <path d="M 0 0 
L 0 3.5 
" id="m4615dfc211" style="stroke:#000000;stroke-width:0.8;"/>
      </defs>
      <g>
       <use style="stroke:#000000;stroke-width:0.8;" x="84.517084" xlink:href="#m4615dfc211" y="440.2"/>
      </g>
     </g>
     <g id="text_1">
      <!-- 0.50 -->
      <g transform="translate(65.056146 461.515625)scale(0.2 -0.2)">
       <defs>
        <path d="M 4.15625 35.296875 
Q 4.15625 48 6.765625 55.734375 
Q 9.375 63.484375 14.515625 67.671875 
Q 19.671875 71.875 27.484375 71.875 
Q 33.25 71.875 37.59375 69.546875 
Q 41.9375 67.234375 44.765625 62.859375 
Q 47.609375 58.5 49.21875 52.21875 
Q 50.828125 45.953125 50.828125 35.296875 
Q 50.828125 22.703125 48.234375 14.96875 
Q 45.65625 7.234375 40.5 3 
Q 35.359375 -1.21875 27.484375 -1.21875 
Q 17.140625 -1.21875 11.234375 6.203125 
Q 4.15625 15.140625 4.15625 35.296875 
z
M 13.1875 35.296875 
Q 13.1875 17.671875 17.3125 11.828125 
Q 21.4375 6 27.484375 6 
Q 33.546875 6 37.671875 11.859375 
Q 41.796875 17.71875 41.796875 35.296875 
Q 41.796875 52.984375 37.671875 58.78125 
Q 33.546875 64.59375 27.390625 64.59375 
Q 21.34375 64.59375 17.71875 59.46875 
Q 13.1875 52.9375 13.1875 35.296875 
z
" id="ArialMT-48"/>
        <path d="M 9.078125 0 
L 9.078125 10.015625 
L 19.09375 10.015625 
L 19.09375 0 
z
" id="ArialMT-46"/>
        <path d="M 4.15625 18.75 
L 13.375 19.53125 
Q 14.40625 12.796875 18.140625 9.390625 
Q 21.875 6 27.15625 6 
Q 33.5 6 37.890625 10.78125 
Q 42.28125 15.578125 42.28125 23.484375 
Q 42.28125 31 38.0625 35.34375 
Q 33.84375 39.703125 27 39.703125 
Q 22.75 39.703125 19.328125 37.765625 
Q 15.921875 35.84375 13.96875 32.765625 
L 5.71875 33.84375 
L 12.640625 70.609375 
L 48.25 70.609375 
L 48.25 62.203125 
L 19.671875 62.203125 
L 15.828125 42.96875 
Q 22.265625 47.46875 29.34375 47.46875 
Q 38.71875 47.46875 45.15625 40.96875 
Q 51.609375 34.46875 51.609375 24.265625 
Q 51.609375 14.546875 45.953125 7.46875 
Q 39.0625 -1.21875 27.15625 -1.21875 
Q 17.390625 -1.21875 11.203125 4.25 
Q 5.03125 9.71875 4.15625 18.75 
z
" id="ArialMT-53"/>
       </defs>
       <use xlink:href="#ArialMT-48"/>
       <use x="55.615234" xlink:href="#ArialMT-46"/>
       <use x="83.398438" xlink:href="#ArialMT-53"/>
       <use x="139.013672" xlink:href="#ArialMT-48"/>
      </g>
     </g>
    </g>
    <g id="xtick_2">
     <g id="line2d_2">
      <g>
       <use style="stroke:#000000;stroke-width:0.8;" x="185.324664" xlink:href="#m4615dfc211" y="440.2"/>
      </g>
     </g>
     <g id="text_2">
      <!-- 0.55 -->
      <g transform="translate(165.863726 461.515625)scale(0.2 -0.2)">
       <use xlink:href="#ArialMT-48"/>
       <use x="55.615234" xlink:href="#ArialMT-46"/>
       <use x="83.398438" xlink:href="#ArialMT-53"/>
       <use x="139.013672" xlink:href="#ArialMT-53"/>
      </g>
     </g>
    </g>
    <g id="xtick_3">
     <g id="line2d_3">
      <g>
       <use style="stroke:#000000;stroke-width:0.8;" x="286.132243" xlink:href="#m4615dfc211" y="440.2"/>
      </g>
     </g>
     <g id="text_3">
      <!-- 0.60 -->
      <g transform="translate(266.671306 461.515625)scale(0.2 -0.2)">
       <defs>
        <path d="M 49.75 54.046875 
L 41.015625 53.375 
Q 39.84375 58.546875 37.703125 60.890625 
Q 34.125 64.65625 28.90625 64.65625 
Q 24.703125 64.65625 21.53125 62.3125 
Q 17.390625 59.28125 14.984375 53.46875 
Q 12.59375 47.65625 12.5 36.921875 
Q 15.671875 41.75 20.265625 44.09375 
Q 24.859375 46.4375 29.890625 46.4375 
Q 38.671875 46.4375 44.84375 39.96875 
Q 51.03125 33.5 51.03125 23.25 
Q 51.03125 16.5 48.125 10.71875 
Q 45.21875 4.9375 40.140625 1.859375 
Q 35.0625 -1.21875 28.609375 -1.21875 
Q 17.625 -1.21875 10.6875 6.859375 
Q 3.765625 14.9375 3.765625 33.5 
Q 3.765625 54.25 11.421875 63.671875 
Q 18.109375 71.875 29.4375 71.875 
Q 37.890625 71.875 43.28125 67.140625 
Q 48.6875 62.40625 49.75 54.046875 
z
M 13.875 23.1875 
Q 13.875 18.65625 15.796875 14.5 
Q 17.71875 10.359375 21.1875 8.171875 
Q 24.65625 6 28.46875 6 
Q 34.03125 6 38.03125 10.484375 
Q 42.046875 14.984375 42.046875 22.703125 
Q 42.046875 30.125 38.078125 34.390625 
Q 34.125 38.671875 28.125 38.671875 
Q 22.171875 38.671875 18.015625 34.390625 
Q 13.875 30.125 13.875 23.1875 
z
" id="ArialMT-54"/>
       </defs>
       <use xlink:href="#ArialMT-48"/>
       <use x="55.615234" xlink:href="#ArialMT-46"/>
       <use x="83.398438" xlink:href="#ArialMT-54"/>
       <use x="139.013672" xlink:href="#ArialMT-48"/>
      </g>
     </g>
    </g>
    <g id="xtick_4">
     <g id="line2d_4">
      <g>
       <use style="stroke:#000000;stroke-width:0.8;" x="386.939823" xlink:href="#m4615dfc211" y="440.2"/>
      </g>
     </g>
     <g id="text_4">
      <!-- 0.65 -->
      <g transform="translate(367.478886 461.515625)scale(0.2 -0.2)">
       <use xlink:href="#ArialMT-48"/>
       <use x="55.615234" xlink:href="#ArialMT-46"/>
       <use x="83.398438" xlink:href="#ArialMT-54"/>
       <use x="139.013672" xlink:href="#ArialMT-53"/>
      </g>
     </g>
    </g>
    <g id="xtick_5">
     <g id="line2d_5">
      <g>
       <use style="stroke:#000000;stroke-width:0.8;" x="487.747403" xlink:href="#m4615dfc211" y="440.2"/>
      </g>
     </g>
     <g id="text_5">
      <!-- 0.70 -->
      <g transform="translate(468.286466 461.515625)scale(0.2 -0.2)">
       <defs>
        <path d="M 4.734375 62.203125 
L 4.734375 70.65625 
L 51.078125 70.65625 
L 51.078125 63.8125 
Q 44.234375 56.546875 37.515625 44.484375 
Q 30.8125 32.421875 27.15625 19.671875 
Q 24.515625 10.6875 23.78125 0 
L 14.75 0 
Q 14.890625 8.453125 18.0625 20.40625 
Q 21.234375 32.375 27.171875 43.484375 
Q 33.109375 54.59375 39.796875 62.203125 
z
" id="ArialMT-55"/>
       </defs>
       <use xlink:href="#ArialMT-48"/>
       <use x="55.615234" xlink:href="#ArialMT-46"/>
       <use x="83.398438" xlink:href="#ArialMT-55"/>
       <use x="139.013672" xlink:href="#ArialMT-48"/>
      </g>
     </g>
    </g>
    <g id="xtick_6">
     <g id="line2d_6">
      <g>
       <use style="stroke:#000000;stroke-width:0.8;" x="588.554983" xlink:href="#m4615dfc211" y="440.2"/>
      </g>
     </g>
     <g id="text_6">
      <!-- 0.75 -->
      <g transform="translate(569.094045 461.515625)scale(0.2 -0.2)">
       <use xlink:href="#ArialMT-48"/>
       <use x="55.615234" xlink:href="#ArialMT-46"/>
       <use x="83.398438" xlink:href="#ArialMT-55"/>
       <use x="139.013672" xlink:href="#ArialMT-53"/>
      </g>
     </g>
    </g>
    <g id="xtick_7">
     <g id="line2d_7">
      <g>
       <use style="stroke:#000000;stroke-width:0.8;" x="689.362563" xlink:href="#m4615dfc211" y="440.2"/>
      </g>
     </g>
     <g id="text_7">
      <!-- 0.80 -->
      <g transform="translate(669.901625 461.515625)scale(0.2 -0.2)">
       <defs>
        <path d="M 17.671875 38.8125 
Q 12.203125 40.828125 9.5625 44.53125 
Q 6.9375 48.25 6.9375 53.421875 
Q 6.9375 61.234375 12.546875 66.546875 
Q 18.171875 71.875 27.484375 71.875 
Q 36.859375 71.875 42.578125 66.421875 
Q 48.296875 60.984375 48.296875 53.171875 
Q 48.296875 48.1875 45.671875 44.5 
Q 43.0625 40.828125 37.75 38.8125 
Q 44.34375 36.671875 47.78125 31.875 
Q 51.21875 27.09375 51.21875 20.453125 
Q 51.21875 11.28125 44.71875 5.03125 
Q 38.234375 -1.21875 27.640625 -1.21875 
Q 17.046875 -1.21875 10.546875 5.046875 
Q 4.046875 11.328125 4.046875 20.703125 
Q 4.046875 27.6875 7.59375 32.390625 
Q 11.140625 37.109375 17.671875 38.8125 
z
M 15.921875 53.71875 
Q 15.921875 48.640625 19.1875 45.40625 
Q 22.46875 42.1875 27.6875 42.1875 
Q 32.765625 42.1875 36.015625 45.375 
Q 39.265625 48.578125 39.265625 53.21875 
Q 39.265625 58.0625 35.90625 61.359375 
Q 32.5625 64.65625 27.59375 64.65625 
Q 22.5625 64.65625 19.234375 61.421875 
Q 15.921875 58.203125 15.921875 53.71875 
z
M 13.09375 20.65625 
Q 13.09375 16.890625 14.875 13.375 
Q 16.65625 9.859375 20.171875 7.921875 
Q 23.6875 6 27.734375 6 
Q 34.03125 6 38.125 10.046875 
Q 42.234375 14.109375 42.234375 20.359375 
Q 42.234375 26.703125 38.015625 30.859375 
Q 33.796875 35.015625 27.4375 35.015625 
Q 21.234375 35.015625 17.15625 30.90625 
Q 13.09375 26.8125 13.09375 20.65625 
z
" id="ArialMT-56"/>
       </defs>
       <use xlink:href="#ArialMT-48"/>
       <use x="55.615234" xlink:href="#ArialMT-46"/>
       <use x="83.398438" xlink:href="#ArialMT-56"/>
       <use x="139.013672" xlink:href="#ArialMT-48"/>
      </g>
     </g>
    </g>
    <g id="text_8">
     <!-- Spearman correlation -->
     <g transform="translate(233.293204 487.689844)scale(0.25 -0.25)">
      <defs>
       <path d="M 4.5 23 
L 13.421875 23.78125 
Q 14.0625 18.40625 16.375 14.96875 
Q 18.703125 11.53125 23.578125 9.40625 
Q 28.46875 7.28125 34.578125 7.28125 
Q 39.984375 7.28125 44.140625 8.890625 
Q 48.296875 10.5 50.3125 13.296875 
Q 52.34375 16.109375 52.34375 19.4375 
Q 52.34375 22.796875 50.390625 25.3125 
Q 48.4375 27.828125 43.953125 29.546875 
Q 41.0625 30.671875 31.203125 33.03125 
Q 21.34375 35.40625 17.390625 37.5 
Q 12.25 40.1875 9.734375 44.15625 
Q 7.234375 48.140625 7.234375 53.078125 
Q 7.234375 58.5 10.296875 63.203125 
Q 13.375 67.921875 19.28125 70.359375 
Q 25.203125 72.796875 32.421875 72.796875 
Q 40.375 72.796875 46.453125 70.234375 
Q 52.546875 67.671875 55.8125 62.6875 
Q 59.078125 57.71875 59.328125 51.421875 
L 50.25 50.734375 
Q 49.515625 57.515625 45.28125 60.984375 
Q 41.0625 64.453125 32.8125 64.453125 
Q 24.21875 64.453125 20.28125 61.296875 
Q 16.359375 58.15625 16.359375 53.71875 
Q 16.359375 49.859375 19.140625 47.359375 
Q 21.875 44.875 33.421875 42.265625 
Q 44.96875 39.65625 49.265625 37.703125 
Q 55.515625 34.8125 58.484375 30.390625 
Q 61.46875 25.984375 61.46875 20.21875 
Q 61.46875 14.5 58.203125 9.4375 
Q 54.9375 4.390625 48.796875 1.578125 
Q 42.671875 -1.21875 35.015625 -1.21875 
Q 25.296875 -1.21875 18.71875 1.609375 
Q 12.15625 4.4375 8.421875 10.125 
Q 4.6875 15.828125 4.5 23 
z
" id="ArialMT-83"/>
       <path d="M 6.59375 -19.875 
L 6.59375 51.859375 
L 14.59375 51.859375 
L 14.59375 45.125 
Q 17.4375 49.078125 21 51.046875 
Q 24.5625 53.03125 29.640625 53.03125 
Q 36.28125 53.03125 41.359375 49.609375 
Q 46.4375 46.1875 49.015625 39.953125 
Q 51.609375 33.734375 51.609375 26.3125 
Q 51.609375 18.359375 48.75 11.984375 
Q 45.90625 5.609375 40.453125 2.21875 
Q 35.015625 -1.171875 29 -1.171875 
Q 24.609375 -1.171875 21.109375 0.6875 
Q 17.625 2.546875 15.375 5.375 
L 15.375 -19.875 
z
M 14.546875 25.640625 
Q 14.546875 15.625 18.59375 10.84375 
Q 22.65625 6.0625 28.421875 6.0625 
Q 34.28125 6.0625 38.453125 11.015625 
Q 42.625 15.96875 42.625 26.375 
Q 42.625 36.28125 38.546875 41.203125 
Q 34.46875 46.140625 28.8125 46.140625 
Q 23.1875 46.140625 18.859375 40.890625 
Q 14.546875 35.640625 14.546875 25.640625 
z
" id="ArialMT-112"/>
       <path d="M 42.09375 16.703125 
L 51.171875 15.578125 
Q 49.03125 7.625 43.21875 3.21875 
Q 37.40625 -1.171875 28.375 -1.171875 
Q 17 -1.171875 10.328125 5.828125 
Q 3.65625 12.84375 3.65625 25.484375 
Q 3.65625 38.578125 10.390625 45.796875 
Q 17.140625 53.03125 27.875 53.03125 
Q 38.28125 53.03125 44.875 45.953125 
Q 51.46875 38.875 51.46875 26.03125 
Q 51.46875 25.25 51.421875 23.6875 
L 12.75 23.6875 
Q 13.234375 15.140625 17.578125 10.59375 
Q 21.921875 6.0625 28.421875 6.0625 
Q 33.25 6.0625 36.671875 8.59375 
Q 40.09375 11.140625 42.09375 16.703125 
z
M 13.234375 30.90625 
L 42.1875 30.90625 
Q 41.609375 37.453125 38.875 40.71875 
Q 34.671875 45.796875 27.984375 45.796875 
Q 21.921875 45.796875 17.796875 41.75 
Q 13.671875 37.703125 13.234375 30.90625 
z
" id="ArialMT-101"/>
       <path d="M 40.4375 6.390625 
Q 35.546875 2.25 31.03125 0.53125 
Q 26.515625 -1.171875 21.34375 -1.171875 
Q 12.796875 -1.171875 8.203125 3 
Q 3.609375 7.171875 3.609375 13.671875 
Q 3.609375 17.484375 5.34375 20.625 
Q 7.078125 23.78125 9.890625 25.6875 
Q 12.703125 27.59375 16.21875 28.5625 
Q 18.796875 29.25 24.03125 29.890625 
Q 34.671875 31.15625 39.703125 32.90625 
Q 39.75 34.71875 39.75 35.203125 
Q 39.75 40.578125 37.25 42.78125 
Q 33.890625 45.75 27.25 45.75 
Q 21.046875 45.75 18.09375 43.578125 
Q 15.140625 41.40625 13.71875 35.890625 
L 5.125 37.0625 
Q 6.296875 42.578125 8.984375 45.96875 
Q 11.671875 49.359375 16.75 51.1875 
Q 21.828125 53.03125 28.515625 53.03125 
Q 35.15625 53.03125 39.296875 51.46875 
Q 43.453125 49.90625 45.40625 47.53125 
Q 47.359375 45.171875 48.140625 41.546875 
Q 48.578125 39.3125 48.578125 33.453125 
L 48.578125 21.734375 
Q 48.578125 9.46875 49.140625 6.21875 
Q 49.703125 2.984375 51.375 0 
L 42.1875 0 
Q 40.828125 2.734375 40.4375 6.390625 
z
M 39.703125 26.03125 
Q 34.90625 24.078125 25.34375 22.703125 
Q 19.921875 21.921875 17.671875 20.9375 
Q 15.4375 19.96875 14.203125 18.09375 
Q 12.984375 16.21875 12.984375 13.921875 
Q 12.984375 10.40625 15.640625 8.0625 
Q 18.3125 5.71875 23.4375 5.71875 
Q 28.515625 5.71875 32.46875 7.9375 
Q 36.421875 10.15625 38.28125 14.015625 
Q 39.703125 17 39.703125 22.796875 
z
" id="ArialMT-97"/>
       <path d="M 6.5 0 
L 6.5 51.859375 
L 14.40625 51.859375 
L 14.40625 44 
Q 17.4375 49.515625 20 51.265625 
Q 22.5625 53.03125 25.640625 53.03125 
Q 30.078125 53.03125 34.671875 50.203125 
L 31.640625 42.046875 
Q 28.421875 43.953125 25.203125 43.953125 
Q 22.3125 43.953125 20.015625 42.21875 
Q 17.71875 40.484375 16.75 37.40625 
Q 15.28125 32.71875 15.28125 27.15625 
L 15.28125 0 
z
" id="ArialMT-114"/>
       <path d="M 6.59375 0 
L 6.59375 51.859375 
L 14.453125 51.859375 
L 14.453125 44.578125 
Q 16.890625 48.390625 20.9375 50.703125 
Q 25 53.03125 30.171875 53.03125 
Q 35.9375 53.03125 39.625 50.640625 
Q 43.3125 48.25 44.828125 43.953125 
Q 50.984375 53.03125 60.84375 53.03125 
Q 68.5625 53.03125 72.703125 48.75 
Q 76.859375 44.484375 76.859375 35.59375 
L 76.859375 0 
L 68.109375 0 
L 68.109375 32.671875 
Q 68.109375 37.9375 67.25 40.25 
Q 66.40625 42.578125 64.15625 43.984375 
Q 61.921875 45.40625 58.890625 45.40625 
Q 53.421875 45.40625 49.796875 41.765625 
Q 46.1875 38.140625 46.1875 30.125 
L 46.1875 0 
L 37.40625 0 
L 37.40625 33.6875 
Q 37.40625 39.546875 35.25 42.46875 
Q 33.109375 45.40625 28.21875 45.40625 
Q 24.515625 45.40625 21.359375 43.453125 
Q 18.21875 41.5 16.796875 37.734375 
Q 15.375 33.984375 15.375 26.90625 
L 15.375 0 
z
" id="ArialMT-109"/>
       <path d="M 6.59375 0 
L 6.59375 51.859375 
L 14.5 51.859375 
L 14.5 44.484375 
Q 20.21875 53.03125 31 53.03125 
Q 35.6875 53.03125 39.625 51.34375 
Q 43.5625 49.65625 45.515625 46.921875 
Q 47.46875 44.1875 48.25 40.4375 
Q 48.734375 37.984375 48.734375 31.890625 
L 48.734375 0 
L 39.9375 0 
L 39.9375 31.546875 
Q 39.9375 36.921875 38.90625 39.578125 
Q 37.890625 42.234375 35.28125 43.8125 
Q 32.671875 45.40625 29.15625 45.40625 
Q 23.53125 45.40625 19.453125 41.84375 
Q 15.375 38.28125 15.375 28.328125 
L 15.375 0 
z
" id="ArialMT-110"/>
       <path id="ArialMT-32"/>
       <path d="M 40.4375 19 
L 49.078125 17.875 
Q 47.65625 8.9375 41.8125 3.875 
Q 35.984375 -1.171875 27.484375 -1.171875 
Q 16.84375 -1.171875 10.375 5.78125 
Q 3.90625 12.75 3.90625 25.734375 
Q 3.90625 34.125 6.6875 40.421875 
Q 9.46875 46.734375 15.15625 49.875 
Q 20.84375 53.03125 27.546875 53.03125 
Q 35.984375 53.03125 41.359375 48.75 
Q 46.734375 44.484375 48.25 36.625 
L 39.703125 35.296875 
Q 38.484375 40.53125 35.375 43.15625 
Q 32.28125 45.796875 27.875 45.796875 
Q 21.234375 45.796875 17.078125 41.03125 
Q 12.9375 36.28125 12.9375 25.984375 
Q 12.9375 15.53125 16.9375 10.796875 
Q 20.953125 6.0625 27.390625 6.0625 
Q 32.5625 6.0625 36.03125 9.234375 
Q 39.5 12.40625 40.4375 19 
z
" id="ArialMT-99"/>
       <path d="M 3.328125 25.921875 
Q 3.328125 40.328125 11.328125 47.265625 
Q 18.015625 53.03125 27.640625 53.03125 
Q 38.328125 53.03125 45.109375 46.015625 
Q 51.90625 39.015625 51.90625 26.65625 
Q 51.90625 16.65625 48.90625 10.90625 
Q 45.90625 5.171875 40.15625 2 
Q 34.421875 -1.171875 27.640625 -1.171875 
Q 16.75 -1.171875 10.03125 5.8125 
Q 3.328125 12.796875 3.328125 25.921875 
z
M 12.359375 25.921875 
Q 12.359375 15.96875 16.703125 11.015625 
Q 21.046875 6.0625 27.640625 6.0625 
Q 34.1875 6.0625 38.53125 11.03125 
Q 42.875 16.015625 42.875 26.21875 
Q 42.875 35.84375 38.5 40.796875 
Q 34.125 45.75 27.640625 45.75 
Q 21.046875 45.75 16.703125 40.8125 
Q 12.359375 35.890625 12.359375 25.921875 
z
" id="ArialMT-111"/>
       <path d="M 6.390625 0 
L 6.390625 71.578125 
L 15.1875 71.578125 
L 15.1875 0 
z
" id="ArialMT-108"/>
       <path d="M 25.78125 7.859375 
L 27.046875 0.09375 
Q 23.34375 -0.6875 20.40625 -0.6875 
Q 15.625 -0.6875 12.984375 0.828125 
Q 10.359375 2.34375 9.28125 4.8125 
Q 8.203125 7.28125 8.203125 15.1875 
L 8.203125 45.015625 
L 1.765625 45.015625 
L 1.765625 51.859375 
L 8.203125 51.859375 
L 8.203125 64.703125 
L 16.9375 69.96875 
L 16.9375 51.859375 
L 25.78125 51.859375 
L 25.78125 45.015625 
L 16.9375 45.015625 
L 16.9375 14.703125 
Q 16.9375 10.9375 17.40625 9.859375 
Q 17.875 8.796875 18.921875 8.15625 
Q 19.96875 7.515625 21.921875 7.515625 
Q 23.390625 7.515625 25.78125 7.859375 
z
" id="ArialMT-116"/>
       <path d="M 6.640625 61.46875 
L 6.640625 71.578125 
L 15.4375 71.578125 
L 15.4375 61.46875 
z
M 6.640625 0 
L 6.640625 51.859375 
L 15.4375 51.859375 
L 15.4375 0 
z
" id="ArialMT-105"/>
      </defs>
      <use xlink:href="#ArialMT-83"/>
      <use x="66.699219" xlink:href="#ArialMT-112"/>
      <use x="122.314453" xlink:href="#ArialMT-101"/>
      <use x="177.929688" xlink:href="#ArialMT-97"/>
      <use x="233.544922" xlink:href="#ArialMT-114"/>
      <use x="266.845703" xlink:href="#ArialMT-109"/>
      <use x="350.146484" xlink:href="#ArialMT-97"/>
      <use x="405.761719" xlink:href="#ArialMT-110"/>
      <use x="461.376953" xlink:href="#ArialMT-32"/>
      <use x="489.160156" xlink:href="#ArialMT-99"/>
      <use x="539.160156" xlink:href="#ArialMT-111"/>
      <use x="594.775391" xlink:href="#ArialMT-114"/>
      <use x="628.076172" xlink:href="#ArialMT-114"/>
      <use x="661.376953" xlink:href="#ArialMT-101"/>
      <use x="716.992188" xlink:href="#ArialMT-108"/>
      <use x="739.208984" xlink:href="#ArialMT-97"/>
      <use x="794.824219" xlink:href="#ArialMT-116"/>
      <use x="822.607422" xlink:href="#ArialMT-105"/>
      <use x="844.824219" xlink:href="#ArialMT-111"/>
      <use x="900.439453" xlink:href="#ArialMT-110"/>
     </g>
    </g>
   </g>
   <g id="matplotlib.axis_2"/>
   <g id="LineCollection_1">
    <path clip-path="url(#p89c910cd85)" d="M 386.18307 440.2 
L 386.18307 99.057143 
" style="fill:none;stroke:#ff0000;stroke-dasharray:11.1,4.8;stroke-dashoffset:0;stroke-width:3;"/>
   </g>
   <g id="line2d_8">
    <path clip-path="url(#p89c910cd85)" d="M 45.071932 439.902054 
L 75.998497 439.505112 
L 106.925061 438.492322 
L 113.110374 437.957607 
L 119.295687 437.219961 
L 125.481 436.287828 
L 131.666313 435.149827 
L 137.851626 433.794541 
L 144.036939 432.223311 
L 150.222252 430.446757 
L 159.500221 427.491871 
L 174.963504 422.259862 
L 196.612099 414.614095 
L 199.704755 413.301223 
L 202.797412 411.796041 
L 205.890068 410.052688 
L 208.982725 408.04464 
L 212.075381 405.766171 
L 215.168038 403.227669 
L 218.260694 400.447605 
L 221.353351 397.44499 
L 224.446007 394.235373 
L 227.538664 390.831395 
L 233.723977 383.499433 
L 239.909289 375.623881 
L 246.094602 367.415759 
L 252.279915 358.919639 
L 258.465228 349.876527 
L 261.557885 345.006841 
L 264.650541 339.82069 
L 267.743198 334.259911 
L 270.835854 328.277478 
L 273.928511 321.845715 
L 277.021167 314.9663 
L 280.113824 307.67887 
L 286.299137 292.235417 
L 295.577106 268.806199 
L 298.669762 261.409024 
L 301.762419 254.358619 
L 304.855075 247.704835 
L 307.947732 241.477831 
L 311.040388 235.684483 
L 314.133045 230.297887 
L 320.318358 220.397053 
L 326.503671 210.621093 
L 329.596327 205.350214 
L 332.688984 199.693077 
L 338.874297 187.453124 
L 341.966953 181.237689 
L 345.059609 175.287963 
L 348.152266 169.828148 
L 351.244922 165.005084 
L 354.337579 160.86557 
L 357.430235 157.360374 
L 360.522892 154.368036 
L 363.615548 151.727499 
L 372.893518 144.34436 
L 379.078831 138.962696 
L 385.264144 133.520727 
L 388.3568 131.168979 
L 391.449457 129.327528 
L 394.542113 128.170662 
L 397.634769 127.818406 
L 400.727426 128.322388 
L 403.820082 129.667511 
L 406.912739 131.786127 
L 410.005395 134.578825 
L 413.098052 137.936248 
L 416.190708 141.758019 
L 419.283365 145.966221 
L 422.376021 150.51155 
L 425.468678 155.371213 
L 428.561334 160.539802 
L 431.653991 166.017284 
L 434.746647 171.799926 
L 437.839304 177.878648 
L 440.93196 184.244886 
L 444.024617 190.898996 
L 447.117273 197.853971 
L 450.209929 205.129643 
L 453.302586 212.738593 
L 459.487899 228.885433 
L 465.673212 245.879588 
L 478.043838 280.064634 
L 484.229151 296.297091 
L 490.414464 311.496722 
L 496.599776 325.812529 
L 505.877746 346.495441 
L 512.063059 359.603232 
L 515.155715 365.757977 
L 518.248372 371.586876 
L 521.341028 377.085175 
L 524.433685 382.269261 
L 527.526341 387.157949 
L 530.618998 391.757199 
L 533.711654 396.055469 
L 536.804311 400.030763 
L 539.896967 403.664657 
L 542.989624 406.95591 
L 546.08228 409.927201 
L 549.174936 412.622232 
L 552.267593 415.094813 
L 558.452906 419.557174 
L 564.638219 423.513 
L 567.730875 425.296827 
L 570.823532 426.94143 
L 573.916188 428.447362 
L 580.101501 431.079377 
L 586.286814 433.263812 
L 589.379471 434.189722 
L 592.472127 434.997012 
L 595.564784 435.682781 
L 601.750096 436.719159 
L 607.935409 437.435576 
L 620.306035 438.528588 
L 629.584005 439.161816 
L 638.861974 439.507859 
L 660.510569 439.854415 
L 660.510569 439.854415 
" style="fill:none;stroke:#1f77b4;stroke-linecap:square;stroke-width:3;"/>
   </g>
   <g id="patch_65">
    <path d="M 14.3 440.2 
L 14.3 82 
" style="fill:none;stroke:#000000;stroke-linecap:square;stroke-linejoin:miter;stroke-width:0.8;"/>
   </g>
   <g id="patch_66">
    <path d="M 691.282501 440.2 
L 691.282501 82 
" style="fill:none;stroke:#000000;stroke-linecap:square;stroke-linejoin:miter;stroke-width:0.8;"/>
   </g>
   <g id="patch_67">
    <path d="M 14.3 440.2 
L 691.282501 440.2 
" style="fill:none;stroke:#000000;stroke-linecap:square;stroke-linejoin:miter;stroke-width:0.8;"/>
   </g>
   <g id="patch_68">
    <path d="M 14.3 82 
L 691.282501 82 
" style="fill:none;stroke:#000000;stroke-linecap:square;stroke-linejoin:miter;stroke-width:0.8;"/>
   </g>
   <g id="text_9">
    <!-- Similarity of task-based connectivity  -->
    <g transform="translate(70.754141 37.102656)scale(0.35 -0.35)">
     <defs>
      <path d="M 6.203125 -19.96875 
L 5.21875 -11.71875 
Q 8.109375 -12.5 10.25 -12.5 
Q 13.1875 -12.5 14.9375 -11.515625 
Q 16.703125 -10.546875 17.828125 -8.796875 
Q 18.65625 -7.46875 20.515625 -2.25 
Q 20.75 -1.515625 21.296875 -0.09375 
L 1.609375 51.859375 
L 11.078125 51.859375 
L 21.875 21.828125 
Q 23.96875 16.109375 25.640625 9.8125 
Q 27.15625 15.875 29.25 21.625 
L 40.328125 51.859375 
L 49.125 51.859375 
L 29.390625 -0.875 
Q 26.21875 -9.421875 24.46875 -12.640625 
Q 22.125 -17 19.09375 -19.015625 
Q 16.0625 -21.046875 11.859375 -21.046875 
Q 9.328125 -21.046875 6.203125 -19.96875 
z
" id="ArialMT-121"/>
      <path d="M 8.6875 0 
L 8.6875 45.015625 
L 0.921875 45.015625 
L 0.921875 51.859375 
L 8.6875 51.859375 
L 8.6875 57.375 
Q 8.6875 62.59375 9.625 65.140625 
Q 10.890625 68.5625 14.078125 70.671875 
Q 17.28125 72.796875 23.046875 72.796875 
Q 26.765625 72.796875 31.25 71.921875 
L 29.9375 64.265625 
Q 27.203125 64.75 24.75 64.75 
Q 20.75 64.75 19.09375 63.03125 
Q 17.4375 61.328125 17.4375 56.640625 
L 17.4375 51.859375 
L 27.546875 51.859375 
L 27.546875 45.015625 
L 17.4375 45.015625 
L 17.4375 0 
z
" id="ArialMT-102"/>
      <path d="M 3.078125 15.484375 
L 11.765625 16.84375 
Q 12.5 11.625 15.84375 8.84375 
Q 19.1875 6.0625 25.203125 6.0625 
Q 31.25 6.0625 34.171875 8.515625 
Q 37.109375 10.984375 37.109375 14.3125 
Q 37.109375 17.28125 34.515625 19 
Q 32.71875 20.171875 25.53125 21.96875 
Q 15.875 24.421875 12.140625 26.203125 
Q 8.40625 27.984375 6.46875 31.125 
Q 4.546875 34.28125 4.546875 38.09375 
Q 4.546875 41.546875 6.125 44.5 
Q 7.71875 47.46875 10.453125 49.421875 
Q 12.5 50.921875 16.03125 51.96875 
Q 19.578125 53.03125 23.640625 53.03125 
Q 29.734375 53.03125 34.34375 51.265625 
Q 38.96875 49.515625 41.15625 46.5 
Q 43.359375 43.5 44.1875 38.484375 
L 35.59375 37.3125 
Q 35.015625 41.3125 32.203125 43.546875 
Q 29.390625 45.796875 24.265625 45.796875 
Q 18.21875 45.796875 15.625 43.796875 
Q 13.03125 41.796875 13.03125 39.109375 
Q 13.03125 37.40625 14.109375 36.03125 
Q 15.1875 34.625 17.484375 33.6875 
Q 18.796875 33.203125 25.25 31.453125 
Q 34.578125 28.953125 38.25 27.359375 
Q 41.9375 25.78125 44.03125 22.75 
Q 46.140625 19.734375 46.140625 15.234375 
Q 46.140625 10.84375 43.578125 6.953125 
Q 41.015625 3.078125 36.171875 0.953125 
Q 31.34375 -1.171875 25.25 -1.171875 
Q 15.140625 -1.171875 9.84375 3.03125 
Q 4.546875 7.234375 3.078125 15.484375 
z
" id="ArialMT-115"/>
      <path d="M 6.640625 0 
L 6.640625 71.578125 
L 15.4375 71.578125 
L 15.4375 30.765625 
L 36.234375 51.859375 
L 47.609375 51.859375 
L 27.78125 32.625 
L 49.609375 0 
L 38.765625 0 
L 21.625 26.515625 
L 15.4375 20.5625 
L 15.4375 0 
z
" id="ArialMT-107"/>
      <path d="M 3.171875 21.484375 
L 3.171875 30.328125 
L 30.171875 30.328125 
L 30.171875 21.484375 
z
" id="ArialMT-45"/>
      <path d="M 14.703125 0 
L 6.546875 0 
L 6.546875 71.578125 
L 15.328125 71.578125 
L 15.328125 46.046875 
Q 20.90625 53.03125 29.546875 53.03125 
Q 34.328125 53.03125 38.59375 51.09375 
Q 42.875 49.171875 45.625 45.671875 
Q 48.390625 42.1875 49.953125 37.25 
Q 51.515625 32.328125 51.515625 26.703125 
Q 51.515625 13.375 44.921875 6.09375 
Q 38.328125 -1.171875 29.109375 -1.171875 
Q 19.921875 -1.171875 14.703125 6.5 
z
M 14.59375 26.3125 
Q 14.59375 17 17.140625 12.84375 
Q 21.296875 6.0625 28.375 6.0625 
Q 34.125 6.0625 38.328125 11.0625 
Q 42.53125 16.0625 42.53125 25.984375 
Q 42.53125 36.140625 38.5 40.96875 
Q 34.46875 45.796875 28.765625 45.796875 
Q 23 45.796875 18.796875 40.796875 
Q 14.59375 35.796875 14.59375 26.3125 
z
" id="ArialMT-98"/>
      <path d="M 40.234375 0 
L 40.234375 6.546875 
Q 35.296875 -1.171875 25.734375 -1.171875 
Q 19.53125 -1.171875 14.328125 2.25 
Q 9.125 5.671875 6.265625 11.796875 
Q 3.421875 17.921875 3.421875 25.875 
Q 3.421875 33.640625 6 39.96875 
Q 8.59375 46.296875 13.765625 49.65625 
Q 18.953125 53.03125 25.34375 53.03125 
Q 30.03125 53.03125 33.6875 51.046875 
Q 37.359375 49.078125 39.65625 45.90625 
L 39.65625 71.578125 
L 48.390625 71.578125 
L 48.390625 0 
z
M 12.453125 25.875 
Q 12.453125 15.921875 16.640625 10.984375 
Q 20.84375 6.0625 26.5625 6.0625 
Q 32.328125 6.0625 36.34375 10.765625 
Q 40.375 15.484375 40.375 25.140625 
Q 40.375 35.796875 36.265625 40.765625 
Q 32.171875 45.75 26.171875 45.75 
Q 20.3125 45.75 16.375 40.96875 
Q 12.453125 36.1875 12.453125 25.875 
z
" id="ArialMT-100"/>
      <path d="M 21 0 
L 1.265625 51.859375 
L 10.546875 51.859375 
L 21.6875 20.796875 
Q 23.484375 15.765625 25 10.359375 
Q 26.171875 14.453125 28.265625 20.21875 
L 39.796875 51.859375 
L 48.828125 51.859375 
L 29.203125 0 
z
" id="ArialMT-118"/>
     </defs>
     <use xlink:href="#ArialMT-83"/>
     <use x="66.699219" xlink:href="#ArialMT-105"/>
     <use x="88.916016" xlink:href="#ArialMT-109"/>
     <use x="172.216797" xlink:href="#ArialMT-105"/>
     <use x="194.433594" xlink:href="#ArialMT-108"/>
     <use x="216.650391" xlink:href="#ArialMT-97"/>
     <use x="272.265625" xlink:href="#ArialMT-114"/>
     <use x="305.566406" xlink:href="#ArialMT-105"/>
     <use x="327.783203" xlink:href="#ArialMT-116"/>
     <use x="355.566406" xlink:href="#ArialMT-121"/>
     <use x="405.566406" xlink:href="#ArialMT-32"/>
     <use x="433.349609" xlink:href="#ArialMT-111"/>
     <use x="488.964844" xlink:href="#ArialMT-102"/>
     <use x="516.748047" xlink:href="#ArialMT-32"/>
     <use x="544.53125" xlink:href="#ArialMT-116"/>
     <use x="572.314453" xlink:href="#ArialMT-97"/>
     <use x="627.929688" xlink:href="#ArialMT-115"/>
     <use x="677.929688" xlink:href="#ArialMT-107"/>
     <use x="727.929688" xlink:href="#ArialMT-45"/>
     <use x="761.230469" xlink:href="#ArialMT-98"/>
     <use x="816.845703" xlink:href="#ArialMT-97"/>
     <use x="872.460938" xlink:href="#ArialMT-115"/>
     <use x="922.460938" xlink:href="#ArialMT-101"/>
     <use x="978.076172" xlink:href="#ArialMT-100"/>
     <use x="1033.691406" xlink:href="#ArialMT-32"/>
     <use x="1061.474609" xlink:href="#ArialMT-99"/>
     <use x="1111.474609" xlink:href="#ArialMT-111"/>
     <use x="1167.089844" xlink:href="#ArialMT-110"/>
     <use x="1222.705078" xlink:href="#ArialMT-110"/>
     <use x="1278.320312" xlink:href="#ArialMT-101"/>
     <use x="1333.935547" xlink:href="#ArialMT-99"/>
     <use x="1383.935547" xlink:href="#ArialMT-116"/>
     <use x="1411.71875" xlink:href="#ArialMT-105"/>
     <use x="1433.935547" xlink:href="#ArialMT-118"/>
     <use x="1483.935547" xlink:href="#ArialMT-105"/>
     <use x="1506.152344" xlink:href="#ArialMT-116"/>
     <use x="1533.935547" xlink:href="#ArialMT-121"/>
     <use x="1583.935547" xlink:href="#ArialMT-32"/>
    </g>
    <!--  maps between Stroop and MSIT -->
    <g transform="translate(96.982266 75.04375)scale(0.35 -0.35)">
     <defs>
      <path d="M 16.15625 0 
L 0.296875 51.859375 
L 9.375 51.859375 
L 17.625 21.921875 
L 20.703125 10.796875 
Q 20.90625 11.625 23.390625 21.484375 
L 31.640625 51.859375 
L 40.671875 51.859375 
L 48.4375 21.78125 
L 51.03125 11.859375 
L 54 21.875 
L 62.890625 51.859375 
L 71.4375 51.859375 
L 55.21875 0 
L 46.09375 0 
L 37.84375 31.0625 
L 35.84375 39.890625 
L 25.34375 0 
z
" id="ArialMT-119"/>
      <path d="M 7.421875 0 
L 7.421875 71.578125 
L 21.6875 71.578125 
L 38.625 20.90625 
Q 40.96875 13.8125 42.046875 10.296875 
Q 43.265625 14.203125 45.84375 21.78125 
L 62.984375 71.578125 
L 75.734375 71.578125 
L 75.734375 0 
L 66.609375 0 
L 66.609375 59.90625 
L 45.796875 0 
L 37.25 0 
L 16.546875 60.9375 
L 16.546875 0 
z
" id="ArialMT-77"/>
      <path d="M 9.328125 0 
L 9.328125 71.578125 
L 18.796875 71.578125 
L 18.796875 0 
z
" id="ArialMT-73"/>
      <path d="M 25.921875 0 
L 25.921875 63.140625 
L 2.34375 63.140625 
L 2.34375 71.578125 
L 59.078125 71.578125 
L 59.078125 63.140625 
L 35.40625 63.140625 
L 35.40625 0 
z
" id="ArialMT-84"/>
     </defs>
     <use xlink:href="#ArialMT-32"/>
     <use x="27.783203" xlink:href="#ArialMT-109"/>
     <use x="111.083984" xlink:href="#ArialMT-97"/>
     <use x="166.699219" xlink:href="#ArialMT-112"/>
     <use x="222.314453" xlink:href="#ArialMT-115"/>
     <use x="272.314453" xlink:href="#ArialMT-32"/>
     <use x="300.097656" xlink:href="#ArialMT-98"/>
     <use x="355.712891" xlink:href="#ArialMT-101"/>
     <use x="411.328125" xlink:href="#ArialMT-116"/>
     <use x="439.111328" xlink:href="#ArialMT-119"/>
     <use x="511.328125" xlink:href="#ArialMT-101"/>
     <use x="566.943359" xlink:href="#ArialMT-101"/>
     <use x="622.558594" xlink:href="#ArialMT-110"/>
     <use x="678.173828" xlink:href="#ArialMT-32"/>
     <use x="705.957031" xlink:href="#ArialMT-83"/>
     <use x="772.65625" xlink:href="#ArialMT-116"/>
     <use x="800.439453" xlink:href="#ArialMT-114"/>
     <use x="833.740234" xlink:href="#ArialMT-111"/>
     <use x="889.355469" xlink:href="#ArialMT-111"/>
     <use x="944.970703" xlink:href="#ArialMT-112"/>
     <use x="1000.585938" xlink:href="#ArialMT-32"/>
     <use x="1028.369141" xlink:href="#ArialMT-97"/>
     <use x="1083.984375" xlink:href="#ArialMT-110"/>
     <use x="1139.599609" xlink:href="#ArialMT-100"/>
     <use x="1195.214844" xlink:href="#ArialMT-32"/>
     <use x="1222.998047" xlink:href="#ArialMT-77"/>
     <use x="1306.298828" xlink:href="#ArialMT-83"/>
     <use x="1372.998047" xlink:href="#ArialMT-73"/>
     <use x="1400.78125" xlink:href="#ArialMT-84"/>
    </g>
   </g>
   <g id="legend_1">
    <g id="patch_69">
     <path d="M 545.248126 136.61875 
L 680.782501 136.61875 
Q 683.782501 136.61875 683.782501 133.61875 
L 683.782501 92.5 
Q 683.782501 89.5 680.782501 89.5 
L 545.248126 89.5 
Q 542.248126 89.5 542.248126 92.5 
L 542.248126 133.61875 
Q 542.248126 136.61875 545.248126 136.61875 
z
" style="fill:#ffffff;opacity:0.8;stroke:#cccccc;stroke-linejoin:miter;"/>
    </g>
    <g id="line2d_9">
     <path d="M 548.248126 100.986719 
L 578.248126 100.986719 
" style="fill:none;stroke:#ff0000;stroke-dasharray:11.1,4.8;stroke-dashoffset:0;stroke-width:3;"/>
    </g>
    <g id="text_10">
     <!-- Full-sample -->
     <g transform="translate(590.248126 106.236719)scale(0.15 -0.15)">
      <defs>
       <path d="M 8.203125 0 
L 8.203125 71.578125 
L 56.5 71.578125 
L 56.5 63.140625 
L 17.671875 63.140625 
L 17.671875 40.96875 
L 51.265625 40.96875 
L 51.265625 32.515625 
L 17.671875 32.515625 
L 17.671875 0 
z
" id="ArialMT-70"/>
       <path d="M 40.578125 0 
L 40.578125 7.625 
Q 34.515625 -1.171875 24.125 -1.171875 
Q 19.53125 -1.171875 15.546875 0.578125 
Q 11.578125 2.34375 9.640625 5 
Q 7.71875 7.671875 6.9375 11.53125 
Q 6.390625 14.109375 6.390625 19.734375 
L 6.390625 51.859375 
L 15.1875 51.859375 
L 15.1875 23.09375 
Q 15.1875 16.21875 15.71875 13.8125 
Q 16.546875 10.359375 19.234375 8.375 
Q 21.921875 6.390625 25.875 6.390625 
Q 29.828125 6.390625 33.296875 8.421875 
Q 36.765625 10.453125 38.203125 13.9375 
Q 39.65625 17.4375 39.65625 24.078125 
L 39.65625 51.859375 
L 48.4375 51.859375 
L 48.4375 0 
z
" id="ArialMT-117"/>
      </defs>
      <use xlink:href="#ArialMT-70"/>
      <use x="61.083984" xlink:href="#ArialMT-117"/>
      <use x="116.699219" xlink:href="#ArialMT-108"/>
      <use x="138.916016" xlink:href="#ArialMT-108"/>
      <use x="161.132812" xlink:href="#ArialMT-45"/>
      <use x="194.433594" xlink:href="#ArialMT-115"/>
      <use x="244.433594" xlink:href="#ArialMT-97"/>
      <use x="300.048828" xlink:href="#ArialMT-109"/>
      <use x="383.349609" xlink:href="#ArialMT-112"/>
      <use x="438.964844" xlink:href="#ArialMT-108"/>
      <use x="461.181641" xlink:href="#ArialMT-101"/>
     </g>
    </g>
    <g id="patch_70">
     <path d="M 548.248126 127.6375 
L 578.248126 127.6375 
L 578.248126 117.1375 
L 548.248126 117.1375 
z
" style="fill:#1f77b4;fill-opacity:0.5;stroke:#000000;stroke-linejoin:miter;stroke-width:0.818182;"/>
    </g>
    <g id="text_11">
     <!-- Sub-samples -->
     <g transform="translate(590.248126 127.6375)scale(0.15 -0.15)">
      <use xlink:href="#ArialMT-83"/>
      <use x="66.699219" xlink:href="#ArialMT-117"/>
      <use x="122.314453" xlink:href="#ArialMT-98"/>
      <use x="177.929688" xlink:href="#ArialMT-45"/>
      <use x="211.230469" xlink:href="#ArialMT-115"/>
      <use x="261.230469" xlink:href="#ArialMT-97"/>
      <use x="316.845703" xlink:href="#ArialMT-109"/>
      <use x="400.146484" xlink:href="#ArialMT-112"/>
      <use x="455.761719" xlink:href="#ArialMT-108"/>
      <use x="477.978516" xlink:href="#ArialMT-101"/>
      <use x="533.59375" xlink:href="#ArialMT-115"/>
     </g>
    </g>
   </g>
  </g>
 </g>
 <defs>
  <clipPath id="p89c910cd85">
   <rect height="358.2" width="676.982501" x="14.3" y="82"/>
  </clipPath>
 </defs>
</svg>
