<?xml version="1.0" encoding="utf-8" standalone="no"?>
<!DOCTYPE svg PUBLIC "-//W3C//DTD SVG 1.1//EN"
  "http://www.w3.org/Graphics/SVG/1.1/DTD/svg11.dtd">
<!-- Created with matplotlib (https://matplotlib.org/) -->
<svg height="504pt" version="1.1" viewBox="0 0 720 504" width="720pt" xmlns="http://www.w3.org/2000/svg" xmlns:xlink="http://www.w3.org/1999/xlink">
 <metadata>
  <rdf:RDF xmlns:cc="http://creativecommons.org/ns#" xmlns:dc="http://purl.org/dc/elements/1.1/" xmlns:rdf="http://www.w3.org/1999/02/22-rdf-syntax-ns#">
   <cc:Work>
    <dc:type rdf:resource="http://purl.org/dc/dcmitype/StillImage"/>
    <dc:date>2021-07-12T14:29:00.707840</dc:date>
    <dc:format>image/svg+xml</dc:format>
    <dc:creator>
     <cc:Agent>
      <dc:title>Matplotlib v3.3.4, https://matplotlib.org/</dc:title>
     </cc:Agent>
    </dc:creator>
   </cc:Work>
  </rdf:RDF>
 </metadata>
 <defs>
  <style type="text/css">*{stroke-linecap:butt;stroke-linejoin:round;}</style>
 </defs>
 <g id="figure_1">
  <g id="patch_1">
   <path d="M 0 504 
L 720 504 
L 720 0 
L 0 0 
z
" style="fill:none;"/>
  </g>
  <g id="axes_1">
   <g id="patch_2">
    <path d="M 14.3 439.2 
L 688.532501 439.2 
L 688.532501 84.2 
L 14.3 84.2 
z
" style="fill:#ffffff;"/>
   </g>
   <g id="patch_3">
    <path clip-path="url(#p56280fda69)" d="M 44.946932 439.2 
L 54.833039 439.2 
L 54.833039 438.577185 
L 44.946932 438.577185 
z
" style="fill:#1f77b4;fill-opacity:0.5;stroke:#000000;stroke-linejoin:miter;stroke-width:0.818182;"/>
   </g>
   <g id="patch_4">
    <path clip-path="url(#p56280fda69)" d="M 54.833039 439.2 
L 64.719146 439.2 
L 64.719146 438.577185 
L 54.833039 438.577185 
z
" style="fill:#1f77b4;fill-opacity:0.5;stroke:#000000;stroke-linejoin:miter;stroke-width:0.818182;"/>
   </g>
   <g id="patch_5">
    <path clip-path="url(#p56280fda69)" d="M 64.719146 439.2 
L 74.605253 439.2 
L 74.605253 439.2 
L 64.719146 439.2 
z
" style="fill:#1f77b4;fill-opacity:0.5;stroke:#000000;stroke-linejoin:miter;stroke-width:0.818182;"/>
   </g>
   <g id="patch_6">
    <path clip-path="url(#p56280fda69)" d="M 74.605253 439.2 
L 84.49136 439.2 
L 84.49136 437.95437 
L 74.605253 437.95437 
z
" style="fill:#1f77b4;fill-opacity:0.5;stroke:#000000;stroke-linejoin:miter;stroke-width:0.818182;"/>
   </g>
   <g id="patch_7">
    <path clip-path="url(#p56280fda69)" d="M 84.49136 439.2 
L 94.377467 439.2 
L 94.377467 437.95437 
L 84.49136 437.95437 
z
" style="fill:#1f77b4;fill-opacity:0.5;stroke:#000000;stroke-linejoin:miter;stroke-width:0.818182;"/>
   </g>
   <g id="patch_8">
    <path clip-path="url(#p56280fda69)" d="M 94.377467 439.2 
L 104.263574 439.2 
L 104.263574 438.577185 
L 94.377467 438.577185 
z
" style="fill:#1f77b4;fill-opacity:0.5;stroke:#000000;stroke-linejoin:miter;stroke-width:0.818182;"/>
   </g>
   <g id="patch_9">
    <path clip-path="url(#p56280fda69)" d="M 104.263574 439.2 
L 114.149681 439.2 
L 114.149681 437.95437 
L 104.263574 437.95437 
z
" style="fill:#1f77b4;fill-opacity:0.5;stroke:#000000;stroke-linejoin:miter;stroke-width:0.818182;"/>
   </g>
   <g id="patch_10">
    <path clip-path="url(#p56280fda69)" d="M 114.149681 439.2 
L 124.035788 439.2 
L 124.035788 435.463109 
L 114.149681 435.463109 
z
" style="fill:#1f77b4;fill-opacity:0.5;stroke:#000000;stroke-linejoin:miter;stroke-width:0.818182;"/>
   </g>
   <g id="patch_11">
    <path clip-path="url(#p56280fda69)" d="M 124.035788 439.2 
L 133.921895 439.2 
L 133.921895 435.463109 
L 124.035788 435.463109 
z
" style="fill:#1f77b4;fill-opacity:0.5;stroke:#000000;stroke-linejoin:miter;stroke-width:0.818182;"/>
   </g>
   <g id="patch_12">
    <path clip-path="url(#p56280fda69)" d="M 133.921895 439.2 
L 143.808002 439.2 
L 143.808002 432.971848 
L 133.921895 432.971848 
z
" style="fill:#1f77b4;fill-opacity:0.5;stroke:#000000;stroke-linejoin:miter;stroke-width:0.818182;"/>
   </g>
   <g id="patch_13">
    <path clip-path="url(#p56280fda69)" d="M 143.808002 439.2 
L 153.69411 439.2 
L 153.69411 431.726217 
L 143.808002 431.726217 
z
" style="fill:#1f77b4;fill-opacity:0.5;stroke:#000000;stroke-linejoin:miter;stroke-width:0.818182;"/>
   </g>
   <g id="patch_14">
    <path clip-path="url(#p56280fda69)" d="M 153.69411 439.2 
L 163.580217 439.2 
L 163.580217 425.498065 
L 153.69411 425.498065 
z
" style="fill:#1f77b4;fill-opacity:0.5;stroke:#000000;stroke-linejoin:miter;stroke-width:0.818182;"/>
   </g>
   <g id="patch_15">
    <path clip-path="url(#p56280fda69)" d="M 163.580217 439.2 
L 173.466324 439.2 
L 173.466324 424.87525 
L 163.580217 424.87525 
z
" style="fill:#1f77b4;fill-opacity:0.5;stroke:#000000;stroke-linejoin:miter;stroke-width:0.818182;"/>
   </g>
   <g id="patch_16">
    <path clip-path="url(#p56280fda69)" d="M 173.466324 439.2 
L 183.352431 439.2 
L 183.352431 420.515544 
L 173.466324 420.515544 
z
" style="fill:#1f77b4;fill-opacity:0.5;stroke:#000000;stroke-linejoin:miter;stroke-width:0.818182;"/>
   </g>
   <g id="patch_17">
    <path clip-path="url(#p56280fda69)" d="M 183.352431 439.2 
L 193.238538 439.2 
L 193.238538 411.796131 
L 183.352431 411.796131 
z
" style="fill:#1f77b4;fill-opacity:0.5;stroke:#000000;stroke-linejoin:miter;stroke-width:0.818182;"/>
   </g>
   <g id="patch_18">
    <path clip-path="url(#p56280fda69)" d="M 193.238538 439.2 
L 203.124645 439.2 
L 203.124645 418.647098 
L 193.238538 418.647098 
z
" style="fill:#1f77b4;fill-opacity:0.5;stroke:#000000;stroke-linejoin:miter;stroke-width:0.818182;"/>
   </g>
   <g id="patch_19">
    <path clip-path="url(#p56280fda69)" d="M 203.124645 439.2 
L 213.010752 439.2 
L 213.010752 408.682055 
L 203.124645 408.682055 
z
" style="fill:#1f77b4;fill-opacity:0.5;stroke:#000000;stroke-linejoin:miter;stroke-width:0.818182;"/>
   </g>
   <g id="patch_20">
    <path clip-path="url(#p56280fda69)" d="M 213.010752 439.2 
L 222.896859 439.2 
L 222.896859 397.471381 
L 213.010752 397.471381 
z
" style="fill:#1f77b4;fill-opacity:0.5;stroke:#000000;stroke-linejoin:miter;stroke-width:0.818182;"/>
   </g>
   <g id="patch_21">
    <path clip-path="url(#p56280fda69)" d="M 222.896859 439.2 
L 232.782966 439.2 
L 232.782966 392.488859 
L 222.896859 392.488859 
z
" style="fill:#1f77b4;fill-opacity:0.5;stroke:#000000;stroke-linejoin:miter;stroke-width:0.818182;"/>
   </g>
   <g id="patch_22">
    <path clip-path="url(#p56280fda69)" d="M 232.782966 439.2 
L 242.669073 439.2 
L 242.669073 378.786924 
L 232.782966 378.786924 
z
" style="fill:#1f77b4;fill-opacity:0.5;stroke:#000000;stroke-linejoin:miter;stroke-width:0.818182;"/>
   </g>
   <g id="patch_23">
    <path clip-path="url(#p56280fda69)" d="M 242.669073 439.2 
L 252.55518 439.2 
L 252.55518 361.348098 
L 242.669073 361.348098 
z
" style="fill:#1f77b4;fill-opacity:0.5;stroke:#000000;stroke-linejoin:miter;stroke-width:0.818182;"/>
   </g>
   <g id="patch_24">
    <path clip-path="url(#p56280fda69)" d="M 252.55518 439.2 
L 262.441287 439.2 
L 262.441287 357.611207 
L 252.55518 357.611207 
z
" style="fill:#1f77b4;fill-opacity:0.5;stroke:#000000;stroke-linejoin:miter;stroke-width:0.818182;"/>
   </g>
   <g id="patch_25">
    <path clip-path="url(#p56280fda69)" d="M 262.441287 439.2 
L 272.327394 439.2 
L 272.327394 323.979186 
L 262.441287 323.979186 
z
" style="fill:#1f77b4;fill-opacity:0.5;stroke:#000000;stroke-linejoin:miter;stroke-width:0.818182;"/>
   </g>
   <g id="patch_26">
    <path clip-path="url(#p56280fda69)" d="M 272.327394 439.2 
L 282.213501 439.2 
L 282.213501 327.716077 
L 272.327394 327.716077 
z
" style="fill:#1f77b4;fill-opacity:0.5;stroke:#000000;stroke-linejoin:miter;stroke-width:0.818182;"/>
   </g>
   <g id="patch_27">
    <path clip-path="url(#p56280fda69)" d="M 282.213501 439.2 
L 292.099608 439.2 
L 292.099608 284.741827 
L 282.213501 284.741827 
z
" style="fill:#1f77b4;fill-opacity:0.5;stroke:#000000;stroke-linejoin:miter;stroke-width:0.818182;"/>
   </g>
   <g id="patch_28">
    <path clip-path="url(#p56280fda69)" d="M 292.099608 439.2 
L 301.985715 439.2 
L 301.985715 261.697664 
L 292.099608 261.697664 
z
" style="fill:#1f77b4;fill-opacity:0.5;stroke:#000000;stroke-linejoin:miter;stroke-width:0.818182;"/>
   </g>
   <g id="patch_29">
    <path clip-path="url(#p56280fda69)" d="M 301.985715 439.2 
L 311.871822 439.2 
L 311.871822 231.802534 
L 301.985715 231.802534 
z
" style="fill:#1f77b4;fill-opacity:0.5;stroke:#000000;stroke-linejoin:miter;stroke-width:0.818182;"/>
   </g>
   <g id="patch_30">
    <path clip-path="url(#p56280fda69)" d="M 311.871822 439.2 
L 321.757929 439.2 
L 321.757929 216.854969 
L 311.871822 216.854969 
z
" style="fill:#1f77b4;fill-opacity:0.5;stroke:#000000;stroke-linejoin:miter;stroke-width:0.818182;"/>
   </g>
   <g id="patch_31">
    <path clip-path="url(#p56280fda69)" d="M 321.757929 439.2 
L 331.644037 439.2 
L 331.644037 227.442828 
L 321.757929 227.442828 
z
" style="fill:#1f77b4;fill-opacity:0.5;stroke:#000000;stroke-linejoin:miter;stroke-width:0.818182;"/>
   </g>
   <g id="patch_32">
    <path clip-path="url(#p56280fda69)" d="M 331.644037 439.2 
L 341.530144 439.2 
L 341.530144 186.337024 
L 331.644037 186.337024 
z
" style="fill:#1f77b4;fill-opacity:0.5;stroke:#000000;stroke-linejoin:miter;stroke-width:0.818182;"/>
   </g>
   <g id="patch_33">
    <path clip-path="url(#p56280fda69)" d="M 341.530144 439.2 
L 351.416251 439.2 
L 351.416251 162.04723 
L 341.530144 162.04723 
z
" style="fill:#1f77b4;fill-opacity:0.5;stroke:#000000;stroke-linejoin:miter;stroke-width:0.818182;"/>
   </g>
   <g id="patch_34">
    <path clip-path="url(#p56280fda69)" d="M 351.416251 439.2 
L 361.302358 439.2 
L 361.302358 162.04723 
L 351.416251 162.04723 
z
" style="fill:#1f77b4;fill-opacity:0.5;stroke:#000000;stroke-linejoin:miter;stroke-width:0.818182;"/>
   </g>
   <g id="patch_35">
    <path clip-path="url(#p56280fda69)" d="M 361.302358 439.2 
L 371.188465 439.2 
L 371.188465 147.722481 
L 361.302358 147.722481 
z
" style="fill:#1f77b4;fill-opacity:0.5;stroke:#000000;stroke-linejoin:miter;stroke-width:0.818182;"/>
   </g>
   <g id="patch_36">
    <path clip-path="url(#p56280fda69)" d="M 371.188465 439.2 
L 381.074572 439.2 
L 381.074572 148.345296 
L 371.188465 148.345296 
z
" style="fill:#1f77b4;fill-opacity:0.5;stroke:#000000;stroke-linejoin:miter;stroke-width:0.818182;"/>
   </g>
   <g id="patch_37">
    <path clip-path="url(#p56280fda69)" d="M 381.074572 439.2 
L 390.960679 439.2 
L 390.960679 128.415209 
L 381.074572 128.415209 
z
" style="fill:#1f77b4;fill-opacity:0.5;stroke:#000000;stroke-linejoin:miter;stroke-width:0.818182;"/>
   </g>
   <g id="patch_38">
    <path clip-path="url(#p56280fda69)" d="M 390.960679 439.2 
L 400.846786 439.2 
L 400.846786 117.204535 
L 390.960679 117.204535 
z
" style="fill:#1f77b4;fill-opacity:0.5;stroke:#000000;stroke-linejoin:miter;stroke-width:0.818182;"/>
   </g>
   <g id="patch_39">
    <path clip-path="url(#p56280fda69)" d="M 400.846786 439.2 
L 410.732893 439.2 
L 410.732893 129.660839 
L 400.846786 129.660839 
z
" style="fill:#1f77b4;fill-opacity:0.5;stroke:#000000;stroke-linejoin:miter;stroke-width:0.818182;"/>
   </g>
   <g id="patch_40">
    <path clip-path="url(#p56280fda69)" d="M 410.732893 439.2 
L 420.619 439.2 
L 420.619 150.836557 
L 410.732893 150.836557 
z
" style="fill:#1f77b4;fill-opacity:0.5;stroke:#000000;stroke-linejoin:miter;stroke-width:0.818182;"/>
   </g>
   <g id="patch_41">
    <path clip-path="url(#p56280fda69)" d="M 420.619 439.2 
L 430.505107 439.2 
L 430.505107 154.573448 
L 420.619 154.573448 
z
" style="fill:#1f77b4;fill-opacity:0.5;stroke:#000000;stroke-linejoin:miter;stroke-width:0.818182;"/>
   </g>
   <g id="patch_42">
    <path clip-path="url(#p56280fda69)" d="M 430.505107 439.2 
L 440.391214 439.2 
L 440.391214 165.784122 
L 430.505107 165.784122 
z
" style="fill:#1f77b4;fill-opacity:0.5;stroke:#000000;stroke-linejoin:miter;stroke-width:0.818182;"/>
   </g>
   <g id="patch_43">
    <path clip-path="url(#p56280fda69)" d="M 440.391214 439.2 
L 450.277321 439.2 
L 450.277321 199.416143 
L 440.391214 199.416143 
z
" style="fill:#1f77b4;fill-opacity:0.5;stroke:#000000;stroke-linejoin:miter;stroke-width:0.818182;"/>
   </g>
   <g id="patch_44">
    <path clip-path="url(#p56280fda69)" d="M 450.277321 439.2 
L 460.163428 439.2 
L 460.163428 218.723415 
L 450.277321 218.723415 
z
" style="fill:#1f77b4;fill-opacity:0.5;stroke:#000000;stroke-linejoin:miter;stroke-width:0.818182;"/>
   </g>
   <g id="patch_45">
    <path clip-path="url(#p56280fda69)" d="M 460.163428 439.2 
L 470.049535 439.2 
L 470.049535 252.355436 
L 460.163428 252.355436 
z
" style="fill:#1f77b4;fill-opacity:0.5;stroke:#000000;stroke-linejoin:miter;stroke-width:0.818182;"/>
   </g>
   <g id="patch_46">
    <path clip-path="url(#p56280fda69)" d="M 470.049535 439.2 
L 479.935642 439.2 
L 479.935642 277.89086 
L 470.049535 277.89086 
z
" style="fill:#1f77b4;fill-opacity:0.5;stroke:#000000;stroke-linejoin:miter;stroke-width:0.818182;"/>
   </g>
   <g id="patch_47">
    <path clip-path="url(#p56280fda69)" d="M 479.935642 439.2 
L 489.821749 439.2 
L 489.821749 315.259773 
L 479.935642 315.259773 
z
" style="fill:#1f77b4;fill-opacity:0.5;stroke:#000000;stroke-linejoin:miter;stroke-width:0.818182;"/>
   </g>
   <g id="patch_48">
    <path clip-path="url(#p56280fda69)" d="M 489.821749 439.2 
L 499.707856 439.2 
L 499.707856 316.505403 
L 489.821749 316.505403 
z
" style="fill:#1f77b4;fill-opacity:0.5;stroke:#000000;stroke-linejoin:miter;stroke-width:0.818182;"/>
   </g>
   <g id="patch_49">
    <path clip-path="url(#p56280fda69)" d="M 499.707856 439.2 
L 509.593964 439.2 
L 509.593964 351.383055 
L 499.707856 351.383055 
z
" style="fill:#1f77b4;fill-opacity:0.5;stroke:#000000;stroke-linejoin:miter;stroke-width:0.818182;"/>
   </g>
   <g id="patch_50">
    <path clip-path="url(#p56280fda69)" d="M 509.593964 439.2 
L 519.480071 439.2 
L 519.480071 376.295664 
L 509.593964 376.295664 
z
" style="fill:#1f77b4;fill-opacity:0.5;stroke:#000000;stroke-linejoin:miter;stroke-width:0.818182;"/>
   </g>
   <g id="patch_51">
    <path clip-path="url(#p56280fda69)" d="M 519.480071 439.2 
L 529.366178 439.2 
L 529.366178 378.786924 
L 519.480071 378.786924 
z
" style="fill:#1f77b4;fill-opacity:0.5;stroke:#000000;stroke-linejoin:miter;stroke-width:0.818182;"/>
   </g>
   <g id="patch_52">
    <path clip-path="url(#p56280fda69)" d="M 529.366178 439.2 
L 539.252285 439.2 
L 539.252285 405.567979 
L 529.366178 405.567979 
z
" style="fill:#1f77b4;fill-opacity:0.5;stroke:#000000;stroke-linejoin:miter;stroke-width:0.818182;"/>
   </g>
   <g id="patch_53">
    <path clip-path="url(#p56280fda69)" d="M 539.252285 439.2 
L 549.138392 439.2 
L 549.138392 412.418946 
L 539.252285 412.418946 
z
" style="fill:#1f77b4;fill-opacity:0.5;stroke:#000000;stroke-linejoin:miter;stroke-width:0.818182;"/>
   </g>
   <g id="patch_54">
    <path clip-path="url(#p56280fda69)" d="M 549.138392 439.2 
L 559.024499 439.2 
L 559.024499 416.778652 
L 549.138392 416.778652 
z
" style="fill:#1f77b4;fill-opacity:0.5;stroke:#000000;stroke-linejoin:miter;stroke-width:0.818182;"/>
   </g>
   <g id="patch_55">
    <path clip-path="url(#p56280fda69)" d="M 559.024499 439.2 
L 568.910606 439.2 
L 568.910606 426.120881 
L 559.024499 426.120881 
z
" style="fill:#1f77b4;fill-opacity:0.5;stroke:#000000;stroke-linejoin:miter;stroke-width:0.818182;"/>
   </g>
   <g id="patch_56">
    <path clip-path="url(#p56280fda69)" d="M 568.910606 439.2 
L 578.796713 439.2 
L 578.796713 427.989326 
L 568.910606 427.989326 
z
" style="fill:#1f77b4;fill-opacity:0.5;stroke:#000000;stroke-linejoin:miter;stroke-width:0.818182;"/>
   </g>
   <g id="patch_57">
    <path clip-path="url(#p56280fda69)" d="M 578.796713 439.2 
L 588.68282 439.2 
L 588.68282 434.840294 
L 578.796713 434.840294 
z
" style="fill:#1f77b4;fill-opacity:0.5;stroke:#000000;stroke-linejoin:miter;stroke-width:0.818182;"/>
   </g>
   <g id="patch_58">
    <path clip-path="url(#p56280fda69)" d="M 588.68282 439.2 
L 598.568927 439.2 
L 598.568927 435.463109 
L 588.68282 435.463109 
z
" style="fill:#1f77b4;fill-opacity:0.5;stroke:#000000;stroke-linejoin:miter;stroke-width:0.818182;"/>
   </g>
   <g id="patch_59">
    <path clip-path="url(#p56280fda69)" d="M 598.568927 439.2 
L 608.455034 439.2 
L 608.455034 435.463109 
L 598.568927 435.463109 
z
" style="fill:#1f77b4;fill-opacity:0.5;stroke:#000000;stroke-linejoin:miter;stroke-width:0.818182;"/>
   </g>
   <g id="patch_60">
    <path clip-path="url(#p56280fda69)" d="M 608.455034 439.2 
L 618.341141 439.2 
L 618.341141 437.331554 
L 608.455034 437.331554 
z
" style="fill:#1f77b4;fill-opacity:0.5;stroke:#000000;stroke-linejoin:miter;stroke-width:0.818182;"/>
   </g>
   <g id="patch_61">
    <path clip-path="url(#p56280fda69)" d="M 618.341141 439.2 
L 628.227248 439.2 
L 628.227248 438.577185 
L 618.341141 438.577185 
z
" style="fill:#1f77b4;fill-opacity:0.5;stroke:#000000;stroke-linejoin:miter;stroke-width:0.818182;"/>
   </g>
   <g id="patch_62">
    <path clip-path="url(#p56280fda69)" d="M 628.227248 439.2 
L 638.113355 439.2 
L 638.113355 438.577185 
L 628.227248 438.577185 
z
" style="fill:#1f77b4;fill-opacity:0.5;stroke:#000000;stroke-linejoin:miter;stroke-width:0.818182;"/>
   </g>
   <g id="patch_63">
    <path clip-path="url(#p56280fda69)" d="M 638.113355 439.2 
L 647.999462 439.2 
L 647.999462 438.577185 
L 638.113355 438.577185 
z
" style="fill:#1f77b4;fill-opacity:0.5;stroke:#000000;stroke-linejoin:miter;stroke-width:0.818182;"/>
   </g>
   <g id="patch_64">
    <path clip-path="url(#p56280fda69)" d="M 647.999462 439.2 
L 657.885569 439.2 
L 657.885569 438.577185 
L 647.999462 438.577185 
z
" style="fill:#1f77b4;fill-opacity:0.5;stroke:#000000;stroke-linejoin:miter;stroke-width:0.818182;"/>
   </g>
   <g id="matplotlib.axis_1">
    <g id="xtick_1">
     <g id="line2d_1">
      <defs>
       <path d="M 0 0 
L 0 3.5 
" id="mcae9aca231" style="stroke:#000000;stroke-width:0.8;"/>
      </defs>
      <g>
       <use style="stroke:#000000;stroke-width:0.8;" x="84.231852" xlink:href="#mcae9aca231" y="439.2"/>
      </g>
     </g>
     <g id="text_1">
      <!-- 0.50 -->
      <g transform="translate(61.966227 461.396875)scale(0.2 -0.2)">
       <defs>
        <path d="M 31.78125 66.40625 
Q 24.171875 66.40625 20.328125 58.90625 
Q 16.5 51.421875 16.5 36.375 
Q 16.5 21.390625 20.328125 13.890625 
Q 24.171875 6.390625 31.78125 6.390625 
Q 39.453125 6.390625 43.28125 13.890625 
Q 47.125 21.390625 47.125 36.375 
Q 47.125 51.421875 43.28125 58.90625 
Q 39.453125 66.40625 31.78125 66.40625 
z
M 31.78125 74.21875 
Q 44.046875 74.21875 50.515625 64.515625 
Q 56.984375 54.828125 56.984375 36.375 
Q 56.984375 17.96875 50.515625 8.265625 
Q 44.046875 -1.421875 31.78125 -1.421875 
Q 19.53125 -1.421875 13.0625 8.265625 
Q 6.59375 17.96875 6.59375 36.375 
Q 6.59375 54.828125 13.0625 64.515625 
Q 19.53125 74.21875 31.78125 74.21875 
z
" id="DejaVuSans-48"/>
        <path d="M 10.6875 12.40625 
L 21 12.40625 
L 21 0 
L 10.6875 0 
z
" id="DejaVuSans-46"/>
        <path d="M 10.796875 72.90625 
L 49.515625 72.90625 
L 49.515625 64.59375 
L 19.828125 64.59375 
L 19.828125 46.734375 
Q 21.96875 47.46875 24.109375 47.828125 
Q 26.265625 48.1875 28.421875 48.1875 
Q 40.625 48.1875 47.75 41.5 
Q 54.890625 34.8125 54.890625 23.390625 
Q 54.890625 11.625 47.5625 5.09375 
Q 40.234375 -1.421875 26.90625 -1.421875 
Q 22.3125 -1.421875 17.546875 -0.640625 
Q 12.796875 0.140625 7.71875 1.703125 
L 7.71875 11.625 
Q 12.109375 9.234375 16.796875 8.0625 
Q 21.484375 6.890625 26.703125 6.890625 
Q 35.15625 6.890625 40.078125 11.328125 
Q 45.015625 15.765625 45.015625 23.390625 
Q 45.015625 31 40.078125 35.4375 
Q 35.15625 39.890625 26.703125 39.890625 
Q 22.75 39.890625 18.8125 39.015625 
Q 14.890625 38.140625 10.796875 36.28125 
z
" id="DejaVuSans-53"/>
       </defs>
       <use xlink:href="#DejaVuSans-48"/>
       <use x="63.623047" xlink:href="#DejaVuSans-46"/>
       <use x="95.410156" xlink:href="#DejaVuSans-53"/>
       <use x="159.033203" xlink:href="#DejaVuSans-48"/>
      </g>
     </g>
    </g>
    <g id="xtick_2">
     <g id="line2d_2">
      <g>
       <use style="stroke:#000000;stroke-width:0.8;" x="184.629937" xlink:href="#mcae9aca231" y="439.2"/>
      </g>
     </g>
     <g id="text_2">
      <!-- 0.55 -->
      <g transform="translate(162.364312 461.396875)scale(0.2 -0.2)">
       <use xlink:href="#DejaVuSans-48"/>
       <use x="63.623047" xlink:href="#DejaVuSans-46"/>
       <use x="95.410156" xlink:href="#DejaVuSans-53"/>
       <use x="159.033203" xlink:href="#DejaVuSans-53"/>
      </g>
     </g>
    </g>
    <g id="xtick_3">
     <g id="line2d_3">
      <g>
       <use style="stroke:#000000;stroke-width:0.8;" x="285.028022" xlink:href="#mcae9aca231" y="439.2"/>
      </g>
     </g>
     <g id="text_3">
      <!-- 0.60 -->
      <g transform="translate(262.762397 461.396875)scale(0.2 -0.2)">
       <defs>
        <path d="M 33.015625 40.375 
Q 26.375 40.375 22.484375 35.828125 
Q 18.609375 31.296875 18.609375 23.390625 
Q 18.609375 15.53125 22.484375 10.953125 
Q 26.375 6.390625 33.015625 6.390625 
Q 39.65625 6.390625 43.53125 10.953125 
Q 47.40625 15.53125 47.40625 23.390625 
Q 47.40625 31.296875 43.53125 35.828125 
Q 39.65625 40.375 33.015625 40.375 
z
M 52.59375 71.296875 
L 52.59375 62.3125 
Q 48.875 64.0625 45.09375 64.984375 
Q 41.3125 65.921875 37.59375 65.921875 
Q 27.828125 65.921875 22.671875 59.328125 
Q 17.53125 52.734375 16.796875 39.40625 
Q 19.671875 43.65625 24.015625 45.921875 
Q 28.375 48.1875 33.59375 48.1875 
Q 44.578125 48.1875 50.953125 41.515625 
Q 57.328125 34.859375 57.328125 23.390625 
Q 57.328125 12.15625 50.6875 5.359375 
Q 44.046875 -1.421875 33.015625 -1.421875 
Q 20.359375 -1.421875 13.671875 8.265625 
Q 6.984375 17.96875 6.984375 36.375 
Q 6.984375 53.65625 15.1875 63.9375 
Q 23.390625 74.21875 37.203125 74.21875 
Q 40.921875 74.21875 44.703125 73.484375 
Q 48.484375 72.75 52.59375 71.296875 
z
" id="DejaVuSans-54"/>
       </defs>
       <use xlink:href="#DejaVuSans-48"/>
       <use x="63.623047" xlink:href="#DejaVuSans-46"/>
       <use x="95.410156" xlink:href="#DejaVuSans-54"/>
       <use x="159.033203" xlink:href="#DejaVuSans-48"/>
      </g>
     </g>
    </g>
    <g id="xtick_4">
     <g id="line2d_4">
      <g>
       <use style="stroke:#000000;stroke-width:0.8;" x="385.426107" xlink:href="#mcae9aca231" y="439.2"/>
      </g>
     </g>
     <g id="text_4">
      <!-- 0.65 -->
      <g transform="translate(363.160482 461.396875)scale(0.2 -0.2)">
       <use xlink:href="#DejaVuSans-48"/>
       <use x="63.623047" xlink:href="#DejaVuSans-46"/>
       <use x="95.410156" xlink:href="#DejaVuSans-54"/>
       <use x="159.033203" xlink:href="#DejaVuSans-53"/>
      </g>
     </g>
    </g>
    <g id="xtick_5">
     <g id="line2d_5">
      <g>
       <use style="stroke:#000000;stroke-width:0.8;" x="485.824192" xlink:href="#mcae9aca231" y="439.2"/>
      </g>
     </g>
     <g id="text_5">
      <!-- 0.70 -->
      <g transform="translate(463.558567 461.396875)scale(0.2 -0.2)">
       <defs>
        <path d="M 8.203125 72.90625 
L 55.078125 72.90625 
L 55.078125 68.703125 
L 28.609375 0 
L 18.3125 0 
L 43.21875 64.59375 
L 8.203125 64.59375 
z
" id="DejaVuSans-55"/>
       </defs>
       <use xlink:href="#DejaVuSans-48"/>
       <use x="63.623047" xlink:href="#DejaVuSans-46"/>
       <use x="95.410156" xlink:href="#DejaVuSans-55"/>
       <use x="159.033203" xlink:href="#DejaVuSans-48"/>
      </g>
     </g>
    </g>
    <g id="xtick_6">
     <g id="line2d_6">
      <g>
       <use style="stroke:#000000;stroke-width:0.8;" x="586.222277" xlink:href="#mcae9aca231" y="439.2"/>
      </g>
     </g>
     <g id="text_6">
      <!-- 0.75 -->
      <g transform="translate(563.956652 461.396875)scale(0.2 -0.2)">
       <use xlink:href="#DejaVuSans-48"/>
       <use x="63.623047" xlink:href="#DejaVuSans-46"/>
       <use x="95.410156" xlink:href="#DejaVuSans-55"/>
       <use x="159.033203" xlink:href="#DejaVuSans-53"/>
      </g>
     </g>
    </g>
    <g id="xtick_7">
     <g id="line2d_7">
      <g>
       <use style="stroke:#000000;stroke-width:0.8;" x="686.620362" xlink:href="#mcae9aca231" y="439.2"/>
      </g>
     </g>
     <g id="text_7">
      <!-- 0.80 -->
      <g transform="translate(664.354737 461.396875)scale(0.2 -0.2)">
       <defs>
        <path d="M 31.78125 34.625 
Q 24.75 34.625 20.71875 30.859375 
Q 16.703125 27.09375 16.703125 20.515625 
Q 16.703125 13.921875 20.71875 10.15625 
Q 24.75 6.390625 31.78125 6.390625 
Q 38.8125 6.390625 42.859375 10.171875 
Q 46.921875 13.96875 46.921875 20.515625 
Q 46.921875 27.09375 42.890625 30.859375 
Q 38.875 34.625 31.78125 34.625 
z
M 21.921875 38.8125 
Q 15.578125 40.375 12.03125 44.71875 
Q 8.5 49.078125 8.5 55.328125 
Q 8.5 64.0625 14.71875 69.140625 
Q 20.953125 74.21875 31.78125 74.21875 
Q 42.671875 74.21875 48.875 69.140625 
Q 55.078125 64.0625 55.078125 55.328125 
Q 55.078125 49.078125 51.53125 44.71875 
Q 48 40.375 41.703125 38.8125 
Q 48.828125 37.15625 52.796875 32.3125 
Q 56.78125 27.484375 56.78125 20.515625 
Q 56.78125 9.90625 50.3125 4.234375 
Q 43.84375 -1.421875 31.78125 -1.421875 
Q 19.734375 -1.421875 13.25 4.234375 
Q 6.78125 9.90625 6.78125 20.515625 
Q 6.78125 27.484375 10.78125 32.3125 
Q 14.796875 37.15625 21.921875 38.8125 
z
M 18.3125 54.390625 
Q 18.3125 48.734375 21.84375 45.5625 
Q 25.390625 42.390625 31.78125 42.390625 
Q 38.140625 42.390625 41.71875 45.5625 
Q 45.3125 48.734375 45.3125 54.390625 
Q 45.3125 60.0625 41.71875 63.234375 
Q 38.140625 66.40625 31.78125 66.40625 
Q 25.390625 66.40625 21.84375 63.234375 
Q 18.3125 60.0625 18.3125 54.390625 
z
" id="DejaVuSans-56"/>
       </defs>
       <use xlink:href="#DejaVuSans-48"/>
       <use x="63.623047" xlink:href="#DejaVuSans-46"/>
       <use x="95.410156" xlink:href="#DejaVuSans-56"/>
       <use x="159.033203" xlink:href="#DejaVuSans-48"/>
      </g>
     </g>
    </g>
    <g id="text_8">
     <!-- Spearman correlation -->
     <g transform="translate(216.476798 488.552344)scale(0.25 -0.25)">
      <defs>
       <path d="M 53.515625 70.515625 
L 53.515625 60.890625 
Q 47.90625 63.578125 42.921875 64.890625 
Q 37.9375 66.21875 33.296875 66.21875 
Q 25.25 66.21875 20.875 63.09375 
Q 16.5 59.96875 16.5 54.203125 
Q 16.5 49.359375 19.40625 46.890625 
Q 22.3125 44.4375 30.421875 42.921875 
L 36.375 41.703125 
Q 47.40625 39.59375 52.65625 34.296875 
Q 57.90625 29 57.90625 20.125 
Q 57.90625 9.515625 50.796875 4.046875 
Q 43.703125 -1.421875 29.984375 -1.421875 
Q 24.8125 -1.421875 18.96875 -0.25 
Q 13.140625 0.921875 6.890625 3.21875 
L 6.890625 13.375 
Q 12.890625 10.015625 18.65625 8.296875 
Q 24.421875 6.59375 29.984375 6.59375 
Q 38.421875 6.59375 43.015625 9.90625 
Q 47.609375 13.234375 47.609375 19.390625 
Q 47.609375 24.75 44.3125 27.78125 
Q 41.015625 30.8125 33.5 32.328125 
L 27.484375 33.5 
Q 16.453125 35.6875 11.515625 40.375 
Q 6.59375 45.0625 6.59375 53.421875 
Q 6.59375 63.09375 13.40625 68.65625 
Q 20.21875 74.21875 32.171875 74.21875 
Q 37.3125 74.21875 42.625 73.28125 
Q 47.953125 72.359375 53.515625 70.515625 
z
" id="DejaVuSans-83"/>
       <path d="M 18.109375 8.203125 
L 18.109375 -20.796875 
L 9.078125 -20.796875 
L 9.078125 54.6875 
L 18.109375 54.6875 
L 18.109375 46.390625 
Q 20.953125 51.265625 25.265625 53.625 
Q 29.59375 56 35.59375 56 
Q 45.5625 56 51.78125 48.09375 
Q 58.015625 40.1875 58.015625 27.296875 
Q 58.015625 14.40625 51.78125 6.484375 
Q 45.5625 -1.421875 35.59375 -1.421875 
Q 29.59375 -1.421875 25.265625 0.953125 
Q 20.953125 3.328125 18.109375 8.203125 
z
M 48.6875 27.296875 
Q 48.6875 37.203125 44.609375 42.84375 
Q 40.53125 48.484375 33.40625 48.484375 
Q 26.265625 48.484375 22.1875 42.84375 
Q 18.109375 37.203125 18.109375 27.296875 
Q 18.109375 17.390625 22.1875 11.75 
Q 26.265625 6.109375 33.40625 6.109375 
Q 40.53125 6.109375 44.609375 11.75 
Q 48.6875 17.390625 48.6875 27.296875 
z
" id="DejaVuSans-112"/>
       <path d="M 56.203125 29.59375 
L 56.203125 25.203125 
L 14.890625 25.203125 
Q 15.484375 15.921875 20.484375 11.0625 
Q 25.484375 6.203125 34.421875 6.203125 
Q 39.59375 6.203125 44.453125 7.46875 
Q 49.3125 8.734375 54.109375 11.28125 
L 54.109375 2.78125 
Q 49.265625 0.734375 44.1875 -0.34375 
Q 39.109375 -1.421875 33.890625 -1.421875 
Q 20.796875 -1.421875 13.15625 6.1875 
Q 5.515625 13.8125 5.515625 26.8125 
Q 5.515625 40.234375 12.765625 48.109375 
Q 20.015625 56 32.328125 56 
Q 43.359375 56 49.78125 48.890625 
Q 56.203125 41.796875 56.203125 29.59375 
z
M 47.21875 32.234375 
Q 47.125 39.59375 43.09375 43.984375 
Q 39.0625 48.390625 32.421875 48.390625 
Q 24.90625 48.390625 20.390625 44.140625 
Q 15.875 39.890625 15.1875 32.171875 
z
" id="DejaVuSans-101"/>
       <path d="M 34.28125 27.484375 
Q 23.390625 27.484375 19.1875 25 
Q 14.984375 22.515625 14.984375 16.5 
Q 14.984375 11.71875 18.140625 8.90625 
Q 21.296875 6.109375 26.703125 6.109375 
Q 34.1875 6.109375 38.703125 11.40625 
Q 43.21875 16.703125 43.21875 25.484375 
L 43.21875 27.484375 
z
M 52.203125 31.203125 
L 52.203125 0 
L 43.21875 0 
L 43.21875 8.296875 
Q 40.140625 3.328125 35.546875 0.953125 
Q 30.953125 -1.421875 24.3125 -1.421875 
Q 15.921875 -1.421875 10.953125 3.296875 
Q 6 8.015625 6 15.921875 
Q 6 25.140625 12.171875 29.828125 
Q 18.359375 34.515625 30.609375 34.515625 
L 43.21875 34.515625 
L 43.21875 35.40625 
Q 43.21875 41.609375 39.140625 45 
Q 35.0625 48.390625 27.6875 48.390625 
Q 23 48.390625 18.546875 47.265625 
Q 14.109375 46.140625 10.015625 43.890625 
L 10.015625 52.203125 
Q 14.9375 54.109375 19.578125 55.046875 
Q 24.21875 56 28.609375 56 
Q 40.484375 56 46.34375 49.84375 
Q 52.203125 43.703125 52.203125 31.203125 
z
" id="DejaVuSans-97"/>
       <path d="M 41.109375 46.296875 
Q 39.59375 47.171875 37.8125 47.578125 
Q 36.03125 48 33.890625 48 
Q 26.265625 48 22.1875 43.046875 
Q 18.109375 38.09375 18.109375 28.8125 
L 18.109375 0 
L 9.078125 0 
L 9.078125 54.6875 
L 18.109375 54.6875 
L 18.109375 46.1875 
Q 20.953125 51.171875 25.484375 53.578125 
Q 30.03125 56 36.53125 56 
Q 37.453125 56 38.578125 55.875 
Q 39.703125 55.765625 41.0625 55.515625 
z
" id="DejaVuSans-114"/>
       <path d="M 52 44.1875 
Q 55.375 50.25 60.0625 53.125 
Q 64.75 56 71.09375 56 
Q 79.640625 56 84.28125 50.015625 
Q 88.921875 44.046875 88.921875 33.015625 
L 88.921875 0 
L 79.890625 0 
L 79.890625 32.71875 
Q 79.890625 40.578125 77.09375 44.375 
Q 74.3125 48.1875 68.609375 48.1875 
Q 61.625 48.1875 57.5625 43.546875 
Q 53.515625 38.921875 53.515625 30.90625 
L 53.515625 0 
L 44.484375 0 
L 44.484375 32.71875 
Q 44.484375 40.625 41.703125 44.40625 
Q 38.921875 48.1875 33.109375 48.1875 
Q 26.21875 48.1875 22.15625 43.53125 
Q 18.109375 38.875 18.109375 30.90625 
L 18.109375 0 
L 9.078125 0 
L 9.078125 54.6875 
L 18.109375 54.6875 
L 18.109375 46.1875 
Q 21.1875 51.21875 25.484375 53.609375 
Q 29.78125 56 35.6875 56 
Q 41.65625 56 45.828125 52.96875 
Q 50 49.953125 52 44.1875 
z
" id="DejaVuSans-109"/>
       <path d="M 54.890625 33.015625 
L 54.890625 0 
L 45.90625 0 
L 45.90625 32.71875 
Q 45.90625 40.484375 42.875 44.328125 
Q 39.84375 48.1875 33.796875 48.1875 
Q 26.515625 48.1875 22.3125 43.546875 
Q 18.109375 38.921875 18.109375 30.90625 
L 18.109375 0 
L 9.078125 0 
L 9.078125 54.6875 
L 18.109375 54.6875 
L 18.109375 46.1875 
Q 21.34375 51.125 25.703125 53.5625 
Q 30.078125 56 35.796875 56 
Q 45.21875 56 50.046875 50.171875 
Q 54.890625 44.34375 54.890625 33.015625 
z
" id="DejaVuSans-110"/>
       <path id="DejaVuSans-32"/>
       <path d="M 48.78125 52.59375 
L 48.78125 44.1875 
Q 44.96875 46.296875 41.140625 47.34375 
Q 37.3125 48.390625 33.40625 48.390625 
Q 24.65625 48.390625 19.8125 42.84375 
Q 14.984375 37.3125 14.984375 27.296875 
Q 14.984375 17.28125 19.8125 11.734375 
Q 24.65625 6.203125 33.40625 6.203125 
Q 37.3125 6.203125 41.140625 7.25 
Q 44.96875 8.296875 48.78125 10.40625 
L 48.78125 2.09375 
Q 45.015625 0.34375 40.984375 -0.53125 
Q 36.96875 -1.421875 32.421875 -1.421875 
Q 20.0625 -1.421875 12.78125 6.34375 
Q 5.515625 14.109375 5.515625 27.296875 
Q 5.515625 40.671875 12.859375 48.328125 
Q 20.21875 56 33.015625 56 
Q 37.15625 56 41.109375 55.140625 
Q 45.0625 54.296875 48.78125 52.59375 
z
" id="DejaVuSans-99"/>
       <path d="M 30.609375 48.390625 
Q 23.390625 48.390625 19.1875 42.75 
Q 14.984375 37.109375 14.984375 27.296875 
Q 14.984375 17.484375 19.15625 11.84375 
Q 23.34375 6.203125 30.609375 6.203125 
Q 37.796875 6.203125 41.984375 11.859375 
Q 46.1875 17.53125 46.1875 27.296875 
Q 46.1875 37.015625 41.984375 42.703125 
Q 37.796875 48.390625 30.609375 48.390625 
z
M 30.609375 56 
Q 42.328125 56 49.015625 48.375 
Q 55.71875 40.765625 55.71875 27.296875 
Q 55.71875 13.875 49.015625 6.21875 
Q 42.328125 -1.421875 30.609375 -1.421875 
Q 18.84375 -1.421875 12.171875 6.21875 
Q 5.515625 13.875 5.515625 27.296875 
Q 5.515625 40.765625 12.171875 48.375 
Q 18.84375 56 30.609375 56 
z
" id="DejaVuSans-111"/>
       <path d="M 9.421875 75.984375 
L 18.40625 75.984375 
L 18.40625 0 
L 9.421875 0 
z
" id="DejaVuSans-108"/>
       <path d="M 18.3125 70.21875 
L 18.3125 54.6875 
L 36.8125 54.6875 
L 36.8125 47.703125 
L 18.3125 47.703125 
L 18.3125 18.015625 
Q 18.3125 11.328125 20.140625 9.421875 
Q 21.96875 7.515625 27.59375 7.515625 
L 36.8125 7.515625 
L 36.8125 0 
L 27.59375 0 
Q 17.1875 0 13.234375 3.875 
Q 9.28125 7.765625 9.28125 18.015625 
L 9.28125 47.703125 
L 2.6875 47.703125 
L 2.6875 54.6875 
L 9.28125 54.6875 
L 9.28125 70.21875 
z
" id="DejaVuSans-116"/>
       <path d="M 9.421875 54.6875 
L 18.40625 54.6875 
L 18.40625 0 
L 9.421875 0 
z
M 9.421875 75.984375 
L 18.40625 75.984375 
L 18.40625 64.59375 
L 9.421875 64.59375 
z
" id="DejaVuSans-105"/>
      </defs>
      <use xlink:href="#DejaVuSans-83"/>
      <use x="63.476562" xlink:href="#DejaVuSans-112"/>
      <use x="126.953125" xlink:href="#DejaVuSans-101"/>
      <use x="188.476562" xlink:href="#DejaVuSans-97"/>
      <use x="249.755859" xlink:href="#DejaVuSans-114"/>
      <use x="289.119141" xlink:href="#DejaVuSans-109"/>
      <use x="386.53125" xlink:href="#DejaVuSans-97"/>
      <use x="447.810547" xlink:href="#DejaVuSans-110"/>
      <use x="511.189453" xlink:href="#DejaVuSans-32"/>
      <use x="542.976562" xlink:href="#DejaVuSans-99"/>
      <use x="597.957031" xlink:href="#DejaVuSans-111"/>
      <use x="659.138672" xlink:href="#DejaVuSans-114"/>
      <use x="698.501953" xlink:href="#DejaVuSans-114"/>
      <use x="737.365234" xlink:href="#DejaVuSans-101"/>
      <use x="798.888672" xlink:href="#DejaVuSans-108"/>
      <use x="826.671875" xlink:href="#DejaVuSans-97"/>
      <use x="887.951172" xlink:href="#DejaVuSans-116"/>
      <use x="927.160156" xlink:href="#DejaVuSans-105"/>
      <use x="954.943359" xlink:href="#DejaVuSans-111"/>
      <use x="1016.125" xlink:href="#DejaVuSans-110"/>
     </g>
    </g>
   </g>
   <g id="matplotlib.axis_2"/>
   <g id="LineCollection_1">
    <path clip-path="url(#p56280fda69)" d="M 384.672428 439.2 
L 384.672428 101.104762 
" style="fill:none;stroke:#ff0000;stroke-dasharray:11.1,4.8;stroke-dashoffset:0;stroke-width:3;"/>
   </g>
   <g id="line2d_8">
    <path clip-path="url(#p56280fda69)" d="M 44.946932 438.904715 
L 75.747868 438.51132 
L 106.548805 437.507578 
L 112.708992 436.977639 
L 118.86918 436.246583 
L 125.029367 435.322778 
L 131.189554 434.194943 
L 137.349742 432.851764 
L 143.509929 431.294571 
L 149.670116 429.533888 
L 158.910397 426.6054 
L 174.310865 421.420131 
L 195.871521 413.842669 
L 198.951615 412.541525 
L 202.031708 411.04979 
L 205.111802 409.32201 
L 208.191896 407.331902 
L 211.271989 405.073787 
L 214.352083 402.557963 
L 217.432177 399.802736 
L 220.51227 396.826944 
L 223.592364 393.646001 
L 226.672458 390.272433 
L 232.832645 383.005971 
L 238.992832 375.200775 
L 245.15302 367.065981 
L 251.313207 358.645762 
L 257.473394 349.683436 
L 260.553488 344.857254 
L 263.633581 339.717434 
L 266.713675 334.206332 
L 269.793769 328.277344 
L 272.873862 321.90304 
L 275.953956 315.085082 
L 279.03405 307.862755 
L 285.194237 292.557267 
L 294.434518 269.337355 
L 297.514612 262.006263 
L 300.594705 255.018843 
L 303.674799 248.424501 
L 306.754893 242.253127 
L 309.834986 236.511534 
L 312.91508 231.173059 
L 319.075267 221.360675 
L 325.235455 211.672049 
L 328.315548 206.448258 
L 331.395642 200.84166 
L 337.555829 188.711053 
L 340.635923 182.551143 
L 343.716016 176.654569 
L 346.79611 171.243531 
L 349.876204 166.463553 
L 352.956297 162.36102 
L 356.036391 158.887138 
L 359.116485 155.921532 
L 362.196578 153.304584 
L 371.436859 145.987403 
L 377.597047 140.653817 
L 383.757234 135.260464 
L 386.837328 132.929725 
L 389.917421 131.104725 
L 392.997515 129.958194 
L 396.077609 129.609085 
L 399.157702 130.108564 
L 402.237796 131.44167 
L 405.31789 133.54136 
L 408.397983 136.309109 
L 411.478077 139.636538 
L 414.558171 143.424167 
L 417.638264 147.594775 
L 420.718358 152.099499 
L 423.798452 156.915747 
L 426.878545 162.038162 
L 429.958639 167.466711 
L 433.038733 173.197693 
L 436.118826 179.222111 
L 439.19892 185.531475 
L 442.279013 192.12614 
L 445.359107 199.018983 
L 448.439201 206.229658 
L 451.519294 213.770633 
L 457.679482 229.773224 
L 463.839669 246.615561 
L 476.160044 280.495212 
L 482.320231 296.582656 
L 488.480418 311.6465 
L 494.640606 325.834416 
L 503.880887 346.332556 
L 510.041074 359.323248 
L 513.121168 365.423009 
L 516.201261 371.199835 
L 519.281355 376.649015 
L 522.361449 381.786788 
L 525.441542 386.631803 
L 528.521636 391.189965 
L 531.60173 395.449836 
L 534.681823 399.389617 
L 537.761917 402.991048 
L 540.84201 406.252898 
L 543.922104 409.197645 
L 547.002198 411.868599 
L 550.082291 414.319092 
L 556.242479 418.741588 
L 562.402666 422.662074 
L 565.48276 424.429966 
L 568.562853 426.059876 
L 571.642947 427.552355 
L 577.803134 430.160857 
L 583.963322 432.325777 
L 587.043415 433.243415 
L 590.123509 434.043493 
L 593.203603 434.723136 
L 599.36379 435.750255 
L 605.523977 436.460272 
L 617.844352 437.543519 
L 627.084633 438.171091 
L 636.324914 438.514042 
L 657.885569 438.857502 
L 657.885569 438.857502 
" style="fill:none;stroke:#1f77b4;stroke-linecap:square;stroke-width:3;"/>
   </g>
   <g id="patch_65">
    <path d="M 14.3 439.2 
L 14.3 84.2 
" style="fill:none;stroke:#000000;stroke-linecap:square;stroke-linejoin:miter;stroke-width:0.8;"/>
   </g>
   <g id="patch_66">
    <path d="M 688.532501 439.2 
L 688.532501 84.2 
" style="fill:none;stroke:#000000;stroke-linecap:square;stroke-linejoin:miter;stroke-width:0.8;"/>
   </g>
   <g id="patch_67">
    <path d="M 14.3 439.2 
L 688.532501 439.2 
" style="fill:none;stroke:#000000;stroke-linecap:square;stroke-linejoin:miter;stroke-width:0.8;"/>
   </g>
   <g id="patch_68">
    <path d="M 14.3 84.2 
L 688.532501 84.2 
" style="fill:none;stroke:#000000;stroke-linecap:square;stroke-linejoin:miter;stroke-width:0.8;"/>
   </g>
   <g id="text_9">
    <!-- Similarity of task-based connectivity  -->
    <g transform="translate(26.523282 37.72875)scale(0.35 -0.35)">
     <defs>
      <path d="M 32.171875 -5.078125 
Q 28.375 -14.84375 24.75 -17.8125 
Q 21.140625 -20.796875 15.09375 -20.796875 
L 7.90625 -20.796875 
L 7.90625 -13.28125 
L 13.1875 -13.28125 
Q 16.890625 -13.28125 18.9375 -11.515625 
Q 21 -9.765625 23.484375 -3.21875 
L 25.09375 0.875 
L 2.984375 54.6875 
L 12.5 54.6875 
L 29.59375 11.921875 
L 46.6875 54.6875 
L 56.203125 54.6875 
z
" id="DejaVuSans-121"/>
      <path d="M 37.109375 75.984375 
L 37.109375 68.5 
L 28.515625 68.5 
Q 23.6875 68.5 21.796875 66.546875 
Q 19.921875 64.59375 19.921875 59.515625 
L 19.921875 54.6875 
L 34.71875 54.6875 
L 34.71875 47.703125 
L 19.921875 47.703125 
L 19.921875 0 
L 10.890625 0 
L 10.890625 47.703125 
L 2.296875 47.703125 
L 2.296875 54.6875 
L 10.890625 54.6875 
L 10.890625 58.5 
Q 10.890625 67.625 15.140625 71.796875 
Q 19.390625 75.984375 28.609375 75.984375 
z
" id="DejaVuSans-102"/>
      <path d="M 44.28125 53.078125 
L 44.28125 44.578125 
Q 40.484375 46.53125 36.375 47.5 
Q 32.28125 48.484375 27.875 48.484375 
Q 21.1875 48.484375 17.84375 46.4375 
Q 14.5 44.390625 14.5 40.28125 
Q 14.5 37.15625 16.890625 35.375 
Q 19.28125 33.59375 26.515625 31.984375 
L 29.59375 31.296875 
Q 39.15625 29.25 43.1875 25.515625 
Q 47.21875 21.78125 47.21875 15.09375 
Q 47.21875 7.46875 41.1875 3.015625 
Q 35.15625 -1.421875 24.609375 -1.421875 
Q 20.21875 -1.421875 15.453125 -0.5625 
Q 10.6875 0.296875 5.421875 2 
L 5.421875 11.28125 
Q 10.40625 8.6875 15.234375 7.390625 
Q 20.0625 6.109375 24.8125 6.109375 
Q 31.15625 6.109375 34.5625 8.28125 
Q 37.984375 10.453125 37.984375 14.40625 
Q 37.984375 18.0625 35.515625 20.015625 
Q 33.0625 21.96875 24.703125 23.78125 
L 21.578125 24.515625 
Q 13.234375 26.265625 9.515625 29.90625 
Q 5.8125 33.546875 5.8125 39.890625 
Q 5.8125 47.609375 11.28125 51.796875 
Q 16.75 56 26.8125 56 
Q 31.78125 56 36.171875 55.265625 
Q 40.578125 54.546875 44.28125 53.078125 
z
" id="DejaVuSans-115"/>
      <path d="M 9.078125 75.984375 
L 18.109375 75.984375 
L 18.109375 31.109375 
L 44.921875 54.6875 
L 56.390625 54.6875 
L 27.390625 29.109375 
L 57.625 0 
L 45.90625 0 
L 18.109375 26.703125 
L 18.109375 0 
L 9.078125 0 
z
" id="DejaVuSans-107"/>
      <path d="M 4.890625 31.390625 
L 31.203125 31.390625 
L 31.203125 23.390625 
L 4.890625 23.390625 
z
" id="DejaVuSans-45"/>
      <path d="M 48.6875 27.296875 
Q 48.6875 37.203125 44.609375 42.84375 
Q 40.53125 48.484375 33.40625 48.484375 
Q 26.265625 48.484375 22.1875 42.84375 
Q 18.109375 37.203125 18.109375 27.296875 
Q 18.109375 17.390625 22.1875 11.75 
Q 26.265625 6.109375 33.40625 6.109375 
Q 40.53125 6.109375 44.609375 11.75 
Q 48.6875 17.390625 48.6875 27.296875 
z
M 18.109375 46.390625 
Q 20.953125 51.265625 25.265625 53.625 
Q 29.59375 56 35.59375 56 
Q 45.5625 56 51.78125 48.09375 
Q 58.015625 40.1875 58.015625 27.296875 
Q 58.015625 14.40625 51.78125 6.484375 
Q 45.5625 -1.421875 35.59375 -1.421875 
Q 29.59375 -1.421875 25.265625 0.953125 
Q 20.953125 3.328125 18.109375 8.203125 
L 18.109375 0 
L 9.078125 0 
L 9.078125 75.984375 
L 18.109375 75.984375 
z
" id="DejaVuSans-98"/>
      <path d="M 45.40625 46.390625 
L 45.40625 75.984375 
L 54.390625 75.984375 
L 54.390625 0 
L 45.40625 0 
L 45.40625 8.203125 
Q 42.578125 3.328125 38.25 0.953125 
Q 33.9375 -1.421875 27.875 -1.421875 
Q 17.96875 -1.421875 11.734375 6.484375 
Q 5.515625 14.40625 5.515625 27.296875 
Q 5.515625 40.1875 11.734375 48.09375 
Q 17.96875 56 27.875 56 
Q 33.9375 56 38.25 53.625 
Q 42.578125 51.265625 45.40625 46.390625 
z
M 14.796875 27.296875 
Q 14.796875 17.390625 18.875 11.75 
Q 22.953125 6.109375 30.078125 6.109375 
Q 37.203125 6.109375 41.296875 11.75 
Q 45.40625 17.390625 45.40625 27.296875 
Q 45.40625 37.203125 41.296875 42.84375 
Q 37.203125 48.484375 30.078125 48.484375 
Q 22.953125 48.484375 18.875 42.84375 
Q 14.796875 37.203125 14.796875 27.296875 
z
" id="DejaVuSans-100"/>
      <path d="M 2.984375 54.6875 
L 12.5 54.6875 
L 29.59375 8.796875 
L 46.6875 54.6875 
L 56.203125 54.6875 
L 35.6875 0 
L 23.484375 0 
z
" id="DejaVuSans-118"/>
     </defs>
     <use xlink:href="#DejaVuSans-83"/>
     <use x="63.476562" xlink:href="#DejaVuSans-105"/>
     <use x="91.259766" xlink:href="#DejaVuSans-109"/>
     <use x="188.671875" xlink:href="#DejaVuSans-105"/>
     <use x="216.455078" xlink:href="#DejaVuSans-108"/>
     <use x="244.238281" xlink:href="#DejaVuSans-97"/>
     <use x="305.517578" xlink:href="#DejaVuSans-114"/>
     <use x="346.630859" xlink:href="#DejaVuSans-105"/>
     <use x="374.414062" xlink:href="#DejaVuSans-116"/>
     <use x="413.623047" xlink:href="#DejaVuSans-121"/>
     <use x="472.802734" xlink:href="#DejaVuSans-32"/>
     <use x="504.589844" xlink:href="#DejaVuSans-111"/>
     <use x="565.771484" xlink:href="#DejaVuSans-102"/>
     <use x="600.976562" xlink:href="#DejaVuSans-32"/>
     <use x="632.763672" xlink:href="#DejaVuSans-116"/>
     <use x="671.972656" xlink:href="#DejaVuSans-97"/>
     <use x="733.251953" xlink:href="#DejaVuSans-115"/>
     <use x="785.351562" xlink:href="#DejaVuSans-107"/>
     <use x="843.261719" xlink:href="#DejaVuSans-45"/>
     <use x="879.345703" xlink:href="#DejaVuSans-98"/>
     <use x="942.822266" xlink:href="#DejaVuSans-97"/>
     <use x="1004.101562" xlink:href="#DejaVuSans-115"/>
     <use x="1056.201172" xlink:href="#DejaVuSans-101"/>
     <use x="1117.724609" xlink:href="#DejaVuSans-100"/>
     <use x="1181.201172" xlink:href="#DejaVuSans-32"/>
     <use x="1212.988281" xlink:href="#DejaVuSans-99"/>
     <use x="1267.96875" xlink:href="#DejaVuSans-111"/>
     <use x="1329.150391" xlink:href="#DejaVuSans-110"/>
     <use x="1392.529297" xlink:href="#DejaVuSans-110"/>
     <use x="1455.908203" xlink:href="#DejaVuSans-101"/>
     <use x="1517.431641" xlink:href="#DejaVuSans-99"/>
     <use x="1572.412109" xlink:href="#DejaVuSans-116"/>
     <use x="1611.621094" xlink:href="#DejaVuSans-105"/>
     <use x="1639.404297" xlink:href="#DejaVuSans-118"/>
     <use x="1698.583984" xlink:href="#DejaVuSans-105"/>
     <use x="1726.367188" xlink:href="#DejaVuSans-116"/>
     <use x="1765.576172" xlink:href="#DejaVuSans-121"/>
     <use x="1824.755859" xlink:href="#DejaVuSans-32"/>
    </g>
    <!--  maps between Stroop and MSIT -->
    <g transform="translate(67.653751 76.921094)scale(0.35 -0.35)">
     <defs>
      <path d="M 4.203125 54.6875 
L 13.1875 54.6875 
L 24.421875 12.015625 
L 35.59375 54.6875 
L 46.1875 54.6875 
L 57.421875 12.015625 
L 68.609375 54.6875 
L 77.59375 54.6875 
L 63.28125 0 
L 52.6875 0 
L 40.921875 44.828125 
L 29.109375 0 
L 18.5 0 
z
" id="DejaVuSans-119"/>
      <path d="M 9.8125 72.90625 
L 24.515625 72.90625 
L 43.109375 23.296875 
L 61.8125 72.90625 
L 76.515625 72.90625 
L 76.515625 0 
L 66.890625 0 
L 66.890625 64.015625 
L 48.09375 14.015625 
L 38.1875 14.015625 
L 19.390625 64.015625 
L 19.390625 0 
L 9.8125 0 
z
" id="DejaVuSans-77"/>
      <path d="M 9.8125 72.90625 
L 19.671875 72.90625 
L 19.671875 0 
L 9.8125 0 
z
" id="DejaVuSans-73"/>
      <path d="M -0.296875 72.90625 
L 61.375 72.90625 
L 61.375 64.59375 
L 35.5 64.59375 
L 35.5 0 
L 25.59375 0 
L 25.59375 64.59375 
L -0.296875 64.59375 
z
" id="DejaVuSans-84"/>
     </defs>
     <use xlink:href="#DejaVuSans-32"/>
     <use x="31.787109" xlink:href="#DejaVuSans-109"/>
     <use x="129.199219" xlink:href="#DejaVuSans-97"/>
     <use x="190.478516" xlink:href="#DejaVuSans-112"/>
     <use x="253.955078" xlink:href="#DejaVuSans-115"/>
     <use x="306.054688" xlink:href="#DejaVuSans-32"/>
     <use x="337.841797" xlink:href="#DejaVuSans-98"/>
     <use x="401.318359" xlink:href="#DejaVuSans-101"/>
     <use x="462.841797" xlink:href="#DejaVuSans-116"/>
     <use x="502.050781" xlink:href="#DejaVuSans-119"/>
     <use x="583.837891" xlink:href="#DejaVuSans-101"/>
     <use x="645.361328" xlink:href="#DejaVuSans-101"/>
     <use x="706.884766" xlink:href="#DejaVuSans-110"/>
     <use x="770.263672" xlink:href="#DejaVuSans-32"/>
     <use x="802.050781" xlink:href="#DejaVuSans-83"/>
     <use x="865.527344" xlink:href="#DejaVuSans-116"/>
     <use x="904.736328" xlink:href="#DejaVuSans-114"/>
     <use x="943.599609" xlink:href="#DejaVuSans-111"/>
     <use x="1004.78125" xlink:href="#DejaVuSans-111"/>
     <use x="1065.962891" xlink:href="#DejaVuSans-112"/>
     <use x="1129.439453" xlink:href="#DejaVuSans-32"/>
     <use x="1161.226562" xlink:href="#DejaVuSans-97"/>
     <use x="1222.505859" xlink:href="#DejaVuSans-110"/>
     <use x="1285.884766" xlink:href="#DejaVuSans-100"/>
     <use x="1349.361328" xlink:href="#DejaVuSans-32"/>
     <use x="1381.148438" xlink:href="#DejaVuSans-77"/>
     <use x="1467.427734" xlink:href="#DejaVuSans-83"/>
     <use x="1530.904297" xlink:href="#DejaVuSans-73"/>
     <use x="1560.396484" xlink:href="#DejaVuSans-84"/>
    </g>
   </g>
   <g id="legend_1">
    <g id="patch_69">
     <path d="M 533.718439 140.234375 
L 678.032501 140.234375 
Q 681.032501 140.234375 681.032501 137.234375 
L 681.032501 94.7 
Q 681.032501 91.7 678.032501 91.7 
L 533.718439 91.7 
Q 530.718439 91.7 530.718439 94.7 
L 530.718439 137.234375 
Q 530.718439 140.234375 533.718439 140.234375 
z
" style="fill:#ffffff;opacity:0.8;stroke:#cccccc;stroke-linejoin:miter;"/>
    </g>
    <g id="line2d_9">
     <path d="M 536.718439 103.847656 
L 566.718439 103.847656 
" style="fill:none;stroke:#ff0000;stroke-dasharray:11.1,4.8;stroke-dashoffset:0;stroke-width:3;"/>
    </g>
    <g id="text_10">
     <!-- Full-sample -->
     <g transform="translate(578.718439 109.097656)scale(0.15 -0.15)">
      <defs>
       <path d="M 9.8125 72.90625 
L 51.703125 72.90625 
L 51.703125 64.59375 
L 19.671875 64.59375 
L 19.671875 43.109375 
L 48.578125 43.109375 
L 48.578125 34.8125 
L 19.671875 34.8125 
L 19.671875 0 
L 9.8125 0 
z
" id="DejaVuSans-70"/>
       <path d="M 8.5 21.578125 
L 8.5 54.6875 
L 17.484375 54.6875 
L 17.484375 21.921875 
Q 17.484375 14.15625 20.5 10.265625 
Q 23.53125 6.390625 29.59375 6.390625 
Q 36.859375 6.390625 41.078125 11.03125 
Q 45.3125 15.671875 45.3125 23.6875 
L 45.3125 54.6875 
L 54.296875 54.6875 
L 54.296875 0 
L 45.3125 0 
L 45.3125 8.40625 
Q 42.046875 3.421875 37.71875 1 
Q 33.40625 -1.421875 27.6875 -1.421875 
Q 18.265625 -1.421875 13.375 4.4375 
Q 8.5 10.296875 8.5 21.578125 
z
M 31.109375 56 
z
" id="DejaVuSans-117"/>
      </defs>
      <use xlink:href="#DejaVuSans-70"/>
      <use x="52.019531" xlink:href="#DejaVuSans-117"/>
      <use x="115.398438" xlink:href="#DejaVuSans-108"/>
      <use x="143.181641" xlink:href="#DejaVuSans-108"/>
      <use x="170.964844" xlink:href="#DejaVuSans-45"/>
      <use x="207.048828" xlink:href="#DejaVuSans-115"/>
      <use x="259.148438" xlink:href="#DejaVuSans-97"/>
      <use x="320.427734" xlink:href="#DejaVuSans-109"/>
      <use x="417.839844" xlink:href="#DejaVuSans-112"/>
      <use x="481.316406" xlink:href="#DejaVuSans-108"/>
      <use x="509.099609" xlink:href="#DejaVuSans-101"/>
     </g>
    </g>
    <g id="patch_70">
     <path d="M 536.718439 131.114844 
L 566.718439 131.114844 
L 566.718439 120.614844 
L 536.718439 120.614844 
z
" style="fill:#1f77b4;fill-opacity:0.5;stroke:#000000;stroke-linejoin:miter;stroke-width:0.818182;"/>
    </g>
    <g id="text_11">
     <!-- Sub-samples -->
     <g transform="translate(578.718439 131.114844)scale(0.15 -0.15)">
      <use xlink:href="#DejaVuSans-83"/>
      <use x="63.476562" xlink:href="#DejaVuSans-117"/>
      <use x="126.855469" xlink:href="#DejaVuSans-98"/>
      <use x="190.332031" xlink:href="#DejaVuSans-45"/>
      <use x="226.416016" xlink:href="#DejaVuSans-115"/>
      <use x="278.515625" xlink:href="#DejaVuSans-97"/>
      <use x="339.794922" xlink:href="#DejaVuSans-109"/>
      <use x="437.207031" xlink:href="#DejaVuSans-112"/>
      <use x="500.683594" xlink:href="#DejaVuSans-108"/>
      <use x="528.466797" xlink:href="#DejaVuSans-101"/>
      <use x="589.990234" xlink:href="#DejaVuSans-115"/>
     </g>
    </g>
   </g>
  </g>
 </g>
 <defs>
  <clipPath id="p56280fda69">
   <rect height="355" width="674.232501" x="14.3" y="84.2"/>
  </clipPath>
 </defs>
</svg>
